<?xml version="1.0" standalone="no"?>
<svg viewBox="0 0 200 200" xmlns="http://www.w3.org/2000/svg">
  <path fill="#F5F6FB" d="M36.2,-54.6C45.8,-50.1,51.8,-38.3,53.9,-26.7C56,-15.1,54.3,-3.8,55.1,9.7C55.9,23.2,59.3,38.8,54.5,50.9C49.7,63.1,36.7,71.8,23.3,72.6C9.9,73.5,-3.8,66.5,-20.1,63.8C-36.3,61.1,-55.2,62.6,-64.3,54.4C-73.3,46.2,-72.6,28.3,-72.2,12.1C-71.8,-4.1,-71.9,-18.4,-65.4,-28.7C-58.9,-39,-46,-45.2,-34,-48.6C-22,-52,-11,-52.6,1.1,-54.4C13.3,-56.2,26.6,-59.1,36.2,-54.6Z" transform="translate(100 100)" />
</svg>
