<?xml version="1.0" standalone="no"?>
<svg viewBox="0 0 200 200" xmlns="http://www.w3.org/2000/svg">
  <path fill="#F5F6FB" d="M43.4,-59.6C57.1,-58.7,69.7,-48.2,78.7,-34.2C87.7,-20.3,93.1,-3.1,89,11.5C84.9,26.1,71.2,37.9,58.4,47.8C45.5,57.7,33.5,65.5,21.4,65.8C9.3,66,-2.9,58.7,-11.1,50.5C-19.3,42.3,-23.4,33.1,-37.2,26.9C-50.9,20.6,-74.2,17.3,-78.1,9.5C-81.9,1.6,-66.3,-10.8,-56.1,-22.5C-45.9,-34.2,-41,-45.3,-32.6,-48.6C-24.1,-51.9,-12.1,-47.4,1.4,-49.6C14.9,-51.7,29.7,-60.5,43.4,-59.6Z" transform="translate(100 100)" />
</svg>
