<svg xmlns="http://www.w3.org/2000/svg" data-name="Layer 1" viewBox="0 0 700 550"><path fill="#020202" d="M364.42324,347.39876a.93208.93208,0,0,1,.07281.23426l.04908.30932.09705.619.18058,1.23926.32285,2.48364c.19586,1.658.37038,3.31812.53313,4.97974.31638,3.32361.60291,6.65124.79794,9.98425q.61247,9.9972.80857,20.01355c.12659,6.67591.10316,13.35205.05391,20.02783-.04521,3.33741-.09656,6.67493-.19575,10.01123l-.36552,10.0055-.653-.82862,42.78545,8.6189L430.322,439.3027l10.718,2.02441,5.36523.95642,2.68381.43848,1.33845.191.661.07519.31688.02368.14006.0033c.03514.00439.08635-.01575.00139.01489l-.09663.05213c2.66872-1.751,5.38411-3.38575,8.12944-4.98633,2.75306-1.58313,5.5575-3.07971,8.4298-4.43958a66.95722,66.95722,0,0,1,8.82319-3.63257,37.61141,37.61141,0,0,1,4.65221-1.1759,17.50162,17.50162,0,0,1,4.84542-.26953l-.49351.46436q-.741-11.17255-1.61173-22.339l-1.75424-22.3252c-.61772-7.4375-1.24156-14.87451-1.99485-22.29285-.37742-3.70837-.78028-7.41394-1.26016-11.1007-.24149-1.84241-.50205-3.6814-.814-5.49866-.157-.90723-.32891-1.81043-.53016-2.688-.10036-.43664-.2085-.87109-.33532-1.2699a5.72805,5.72805,0,0,0-.20059-.5437c-.03464-.07422-.06689-.13391-.0884-.17041.0067-.01233-.05665-.00256.21006.13782l.37155.08069c-10.15911-.24512-20.345-.29395-30.5043-.05042-5.07884.14417-10.15791.30847-15.21011.691-2.52453.19385-5.04471.43872-7.52861.8169-1.23984.192-2.47416.4143-3.66727.71875a8.75878,8.75878,0,0,0-3.153,1.30713l-.0317.02636a.76764.76764,0,0,1-.44811.17737c-8.71769.51636-17.46048.92725-26.25729,1.3728Zm-.15083-.12133L390.55458,345.18c8.83232-.68884,17.71865-1.41235,26.63008-2.03064l-.47945.20374a9.85263,9.85263,0,0,1,3.79684-1.71875c1.27044-.34338,2.54272-.59021,3.81592-.80664,2.5465-.425,5.09628-.709,7.6466-.942,5.10086-.45752,10.20425-.71911,15.30774-.8551,10.20836-.27612,20.40272-.25879,30.61169-.04419l.04861.001a.77182.77182,0,0,1,.32332.07983,1.62732,1.62732,0,0,1,.70334.6228,3.76633,3.76633,0,0,1,.2418.44617,7.62221,7.62221,0,0,1,.28909.76709c.15717.4906.2747.96289.3852,1.4353.21271.94288.37848,1.87647.53334,2.80945.30451,1.86524.55234,3.72583.781,5.587.45366,3.72192.82749,7.44372,1.17586,11.16687q1.02951,11.16943,1.79741,22.34778c.50572,7.45373.99847,14.9071,1.40212,22.3656l1.15538,22.37756a.4407.4407,0,0,1-.41268.467.52526.52526,0,0,1-.081-.00244,22.63615,22.63615,0,0,0-9.18985,1.21777,66.33524,66.33524,0,0,0-8.775,3.50586c-2.83883,1.3844-5.605,2.918-8.32226,4.53015-2.71807,1.60682-5.38014,3.33045-7.93925,5.15931l-.017.01208a.3.3,0,0,1-.08.04028,1.01013,1.01013,0,0,1-.336.05494l-.20082-.00245-.36341-.02355-.69494-.07288-1.36387-.1825-2.70466-.41772-5.38591-.91174-10.7448-1.9325-21.45428-4.02588c-14.29285-2.73266-28.58315-5.47241-42.85089-8.33447a.8139.8139,0,0,1-.65357-.82056l.00037-.0083.2816-9.991.23105-9.99109c.11786-6.66089.21006-13.32349.15246-19.98462-.01889-6.66126-.08045-13.32447-.33411-19.98145-.13252-3.328-.25018-6.65747-.44412-9.9834-.09671-1.663-.2052-3.32507-.33506-4.98584Z"/><path fill="#020202" d="M365.57908 347.28524c-1.7985-2.37817-3.50963-4.81372-5.26174-7.22229a.40593.40593 0 01.0136-.49524l.0191-.02332a53.19325 53.19325 0 016.8869-6.91577 54.04 54.04 0 018.00847-5.63623 41.61141 41.61141 0 019.07391-3.8479 30.792 30.792 0 019.83879-1.16491l.02357.00122a.85908.85908 0 01.71378.45568q2.8048 5.30731 5.49586 10.67676 1.35561 2.67919 2.65022 5.39173c.8719 1.80346 1.75092 3.60315 2.5805 5.42968-1.0866-1.6864-2.12376-3.39978-3.16805-5.10925q-1.57887-2.55744-3.09831-5.14722-3.05553-5.17071-6.00122-10.40124l.73705.45679a31.66811 31.66811 0 00-9.24935 1.25769 42.53548 42.53548 0 00-8.69689 3.6206 60.53355 60.53355 0 00-7.965 5.19043 67.54228 67.54228 0 00-7.17274 6.304l.03267-.51831C362.555 342.15267 364.11073 344.69027 365.57908 347.28524zM407.364 343.93465a33.57511 33.57511 0 012.53932-6.77453 34.059 34.059 0 013.877-6.17725l1.16645-1.42053c.411-.45447.85468-.88049 1.28177-1.32263a31.69815 31.69815 0 012.762-2.45557c.48272-.38513 1.01713-.70264 1.52726-1.0531a13.588 13.588 0 011.57851-.97876 24.08634 24.08634 0 013.37276-1.57312l1.75362-.64038c.59137-.19055 1.20889-.28638 1.81266-.43323l1.84244-.39892a3.42712 3.42712 0 012.37062.55481 3.331 3.331 0 01.88738.87793c.19928.3081.35039.55334.51529.8413a12.97575 12.97575 0 01.82836 1.75562 9.504 9.504 0 01.65825 3.91736 8.11059 8.11059 0 01-1.28432 3.83716 8.90434 8.90434 0 01-1.28558 1.51928c-.24078.22168-.46916.46314-.72166.665l-.78367.563a23.29138 23.29138 0 01-6.82578 3l.20845-.09668c-1.411.90332-2.81025 1.90613-4.14557 2.95264a47.16521 47.16521 0 00-3.88239 3.33825 6.17907 6.17907 0 01-5.17056 1.28833A13.44718 13.44718 0 01407.364 343.93465zm0 0a15.49164 15.49164 0 002.434.83387 11.6781 11.6781 0 002.50192.41748 5.45852 5.45852 0 004.4312-1.46631 48.2687 48.2687 0 013.72865-3.64575c1.32548-1.14161 2.68189-2.21351 4.12735-3.23658a.58285.58285 0 01.14468-.07483l.06412-.022a23.06231 23.06231 0 006.2199-2.95593l.6672-.50452c.21062-.1781.38769-.38452.584-.57348a7.79884 7.79884 0 001.02285-1.2334 6.22016 6.22016 0 00.95155-2.92041 7.60373 7.60373 0 00-.56782-3.12866 12.5426 12.5426 0 00-.6988-1.50281c-.12984-.2345-.29417-.50122-.41712-.6991a1.419 1.419 0 00-.38106-.38525 1.52778 1.52778 0 00-1.05734-.257l-1.68006.35376c-.56287.13208-1.14124.21216-1.69252.38513l-1.64375.55811a22.3185 22.3185 0 00-3.18749 1.37878 12.30285 12.30285 0 00-1.50405.87671c-.48686.31738-.99888.59924-1.47255.93811a31.53356 31.53356 0 00-5.20318 4.71069A40.61 40.61 0 00407.364 343.93465z"/><circle cx="351.727" cy="446.625" r="12.183" fill="#020202"/><path fill="#020202" d="M277.865,428.39571c.21434,1.71839.42917,3.44617.58633,5.17969.11374,1.73462.19849,3.47534.17874,5.21594-.01661,3.47827-.23059,6.96814-.45309,10.39588-.189,3.38757-.31,6.93371,1.50276,9.55334a9.78445,9.78445,0,0,0,3.50165,3.14685,11.5783,11.5783,0,0,0,4.62013,1.20862,13.22535,13.22535,0,0,0,2.4391-.09448c.782-.108,1.68529-.31275,2.55117-.429a35.71044,35.71044,0,0,1,5.26211-.38415,36.917,36.917,0,0,1,10.36714,1.50085,34.82245,34.82245,0,0,1,4.88389,1.88953c.80741.33813,1.54887.80749,2.327,1.20581a19.97712,19.97712,0,0,0,2.28859,1.12634,25.59642,25.59642,0,0,0,10.008,1.72315,27.00177,27.00177,0,0,0,9.87292-1.89319,10.049,10.049,0,0,0,2.09207-1.18213,3.66972,3.66972,0,0,0,1.325-1.61157,1.36293,1.36293,0,0,0,.10126-.4325.34381.34381,0,0,0,.007-.17493.303.303,0,0,0-.026-.14685,1.97936,1.97936,0,0,0-.461-.75769,10.37028,10.37028,0,0,0-1.80482-1.54065c-1.36627-.96228-2.84516-1.845-4.32592-2.7229-1.49331-.87671-2.96154-1.73632-4.48077-2.52514-3.01916-1.60755-6.13248-3.00623-9.31882-4.361a40.52986,40.52986,0,0,1-9.27942-5.114,29.639,29.639,0,0,1-6.93522-8.06518c-3.37564-6.08924-6.66542-12.149-9.87291-18.30152a.09687.09687,0,0,1,.16739-.09717c3.75055,5.81678,7.39453,11.74085,10.99687,17.60926a27.96359,27.96359,0,0,0,6.781,7.3761,41.45209,41.45209,0,0,0,8.95721,4.69567,97.24939,97.24939,0,0,1,9.46191,4.48267c1.53739.83545,3.04107,1.7544,4.51514,2.658,1.47835.91577,2.95949,1.83447,4.40465,2.89307a11.9634,11.9634,0,0,1,2.08993,1.87329,3.64367,3.64367,0,0,1,.80127,1.48071,2.19681,2.19681,0,0,1,.03713.96106,3.00339,3.00339,0,0,1-.22083.81921,5.28867,5.28867,0,0,1-1.96238,2.31055,11.584,11.584,0,0,1-2.4587,1.29089,26.83884,26.83884,0,0,1-10.47505,1.53553,28.73235,28.73235,0,0,1-10.26233-2.156,20.64718,20.64718,0,0,1-2.347-1.20227c-.75576-.40124-1.47555-.87476-2.26182-1.21814a29.23119,29.23119,0,0,0-4.79907-1.82483,32.50654,32.50654,0,0,0-5.04493-.9331,36.233,36.233,0,0,0-5.1184-.09363,35.17875,35.17875,0,0,0-5.06174.641c-.84358.15845-1.6194.38464-2.54379.56567a13.00354,13.00354,0,0,1-2.73351.23377,12.41225,12.41225,0,0,1-5.372-1.29651,10.71107,10.71107,0,0,1-4.1162-3.74072,11.22164,11.22164,0,0,1-1.66621-5.27369,34.10286,34.10286,0,0,1,.10512-5.31c.29126-3.47461.75332-6.87915.9199-10.32337.08557-1.71924.15686-3.44055.17832-5.16614l-.1212-5.17895-.00016-.00684a.09667.09667,0,0,1,.19257-.01416Z"/><path fill="#020202" d="M342.209 465.00939s-2.4098 6.41633-19.81032 4.60661c-.71614-6.48415 8.34219-14.74883 8.34219-14.74883-.77421-1.64529-3.91947-3.02913-6.91953-4.00659a1.47852 1.47852 0 01-.82265 2.66137 1.45245 1.45245 0 010-2.90332h.02907c-2.7775-.85164-5.226-1.33553-5.226-1.33553-6.90991-.44525-12.08746 14.07132-12.08746 14.07132s-.22257.10656-1.3936-.24194c-8.14862-2.44837-20.67158 4.36466-24.99755-3.3872 0 0-2.21618 3.05831 2.36136 6.73577l-2.40974 5.23568h15.78435l5.51631-2.34205v-4.34529s14.91334 5.20662 22.57813 7.52918C332.27 475.29681 345.64458 471.69673 342.209 465.00939zm-27.92025 1.40334a1.45245 1.45245 0 010-2.90331A1.45245 1.45245 0 01314.28876 466.41273zm3.8324-6.968a1.45245 1.45245 0 010-2.90332A1.45245 1.45245 0 01318.12116 459.44471zM210.32106 445.23777a22.25908 22.25908 0 01-2.19686-8.797v-.058c.02906-.68708.1065-1.37428.16457-2.06148.05806-.69676.12581-1.38384.20319-2.07092a.10377.10377 0 01.1065-.08719c.04838.00969.08707.03875.08707.08719.08712.68708.15487 1.37416.22256 2.06124.06776.67751.14519 1.34533.18388 2.013a21.64519 21.64519 0 002.50656 8.17762 21.8843 21.8843 0 004.91629 5.28411c.3387.28058.68708.56127 1.03553.842 1.34515 1.05484 2.70975 2.10968 4.07428 3.155a1.43688 1.43688 0 00-1.04515 1.68391c-1.413-1.12265-2.80656-2.26467-4.18078-3.455-.67746-.58064-1.35491-1.18066-2.013-1.80961A20.68947 20.68947 0 01210.32106 445.23777z"/><path fill="#020202" d="M237.90255,471.21284a3.59433,3.59433,0,0,1-.65807,1.43228,4.49651,4.49651,0,0,1-.86133.9,9.61581,9.61581,0,0,1-4.53886,1.6936,27.66979,27.66979,0,0,1-9.0777-.40639,36.68481,36.68481,0,0,1-8.53575-2.82594c-.55158-.27088-1.10322-.56126-1.63548-.871a22.417,22.417,0,0,1-2.52593-1.62579,18.6869,18.6869,0,0,1-3.0775-2.78718,30.61489,30.61489,0,0,0-6.67759-5.66144,25.753,25.753,0,0,0-3.91953-1.91617,25.36183,25.36183,0,0,0-4.1904-1.15171,32.13229,32.13229,0,0,0-4.326-.4742,13.97946,13.97946,0,0,1-4.54854-1.01609,12.13963,12.13963,0,0,1-3.92915-2.61305,9.70252,9.70252,0,0,1-2.32262-3.49365,6.14133,6.14133,0,0,1-.18388-.60013,9.7277,9.7277,0,0,1-.10644-4.80011,15.61458,15.61458,0,0,1,1.6936-4.33559,27.84069,27.84069,0,0,1,5.71951-6.96791,11.04312,11.04312,0,0,0,3.5227-7.5971.09134.09134,0,0,1,.09675-.09664.08658.08658,0,0,1,.09682.07738,8.67719,8.67719,0,0,1-.513,4.48079,12.69623,12.69623,0,0,1-2.36137,3.91952,29.948,29.948,0,0,0-5.18724,6.92916c-1.27746,2.49693-2.11942,5.3518-1.30653,7.897a7.95353,7.95353,0,0,0,2.071,3.37751,11.24094,11.24094,0,0,0,3.3582,2.35174,12.93231,12.93231,0,0,0,4.00653,1.12253,33.13418,33.13418,0,0,1,4.45178.7452,27.14225,27.14225,0,0,1,4.27754,1.45166c.32906.14519.64839.30007.96777.46451a.16283.16283,0,0,1,.04837.01938c1.01615.51294,1.99361,1.06452,2.94207,1.66453a38.45165,38.45165,0,0,1,6.79371,5.78726,19.75037,19.75037,0,0,0,7.14216,4.87761,33.87641,33.87641,0,0,0,8.39063,2.313c.88064.12582,1.76129.23226,2.642.29026a23.75945,23.75945,0,0,0,5.93245-.22256,8.25731,8.25731,0,0,0,3.66783-1.41291,2.31234,2.31234,0,0,0,.6097-2.94207,10.84967,10.84967,0,0,0-2.35168-3.25158,37.012,37.012,0,0,0-3.25169-2.82605l-3.30014-2.61294-3.63883-2.87425c-.41613-.32913-.82258-.64833-1.23872-.97746a1.36922,1.36922,0,0,0,1.28716-1.52915c1.86779,1.42271,3.73558,2.855,5.584,4.30665.871.69689,1.73235,1.384,2.59362,2.08073a31.26419,31.26419,0,0,1,3.39689,3.03882,12.76887,12.76887,0,0,1,2.70975,3.95815A4.70515,4.70515,0,0,1,237.90255,471.21284Z"/><path fill="#020202" d="M237.24448 472.64512c-.00969-.09687-.01938-.1935-.03869-.29037 0 0-2.613 3.34845-11.56489 1.4129a47.71022 47.71022 0 01-8.71963-2.88394c.88065-4.53879 6.70665-8.47768 10.0261-10.38417.9-.51294 1.60654-.88058 1.99361-1.07421.20325-.10644.31938-.15488.31938-.15488-.50326-3.6582-10.70355-9.16476-10.70355-9.16476a5.07926 5.07926 0 00-2.042-.31933 7.03131 7.03131 0 00-2.1291.4162c-5.66145 1.91617-11.54551 9.755-11.54551 9.755s-1.20972 1.00652-2.22587.31944a13.85143 13.85143 0 00-2.884-1.442.16283.16283 0 00-.04837-.01938c-7.43248-2.76781-18.33929-1.57747-19.93607-9.18414a3.35074 3.35074 0 00-.66777.76457c-.64845 1.0259-1.26778 3.12589.9194 6.37759l-3.85178 4.28728 15.0779 4.67429 5.96145-.6 1.29684-4.15178s7.13247 4.40341 13.58749 8.52612q1.292.82737 2.52593 1.62579c1.53873.99684 2.9807 1.94523 4.18072 2.75825C224.557 479.1679 238.1445 479.74854 237.24448 472.64512zM216.389 461.18662a1.45245 1.45245 0 010-2.90331A1.45245 1.45245 0 01216.389 461.18662zm5.24531-7.40335a1.80782 1.80782 0 01.32906-.02907 1.35068 1.35068 0 011.3936 1.36448 1.36922 1.36922 0 01-1.28716 1.52915.39638.39638 0 01-.10644.00969 1.34423 1.34423 0 01-1.3839-1.19034 1.43688 1.43688 0 011.04515-1.68391zm-10.4713 9.37765a1.45258 1.45258 0 010 2.90331A1.45258 1.45258 0 01211.163 463.16092zM230.26843 111.66207l-.56972.33154c-.2064.07679-.42561.132-.64253.19568a5.51006 5.51006 0 01-.68112.00574 3.15282 3.15282 0 01-.66029-.17517 4.5048 4.5048 0 01-1.98124-1.77088 7.76211 7.76211 0 01-1.08218-5.13562l.11154-.66809.18808-.65332a3.94444 3.94444 0 01.62375-1.29651 2.18438 2.18438 0 011.39084-.891 2.86371 2.86371 0 011.56953.2378 8.06963 8.06963 0 012.2461 1.58886 16.0073 16.0073 0 011.76884 1.98011l-.408-.28223a4.75938 4.75938 0 002.72548-.35095 13.83243 13.83243 0 002.68245-1.47766 35.89791 35.89791 0 004.81747-4.12122 113.06627 113.06627 0 008.4987-9.63843l.03435-.04309a.72857.72857 0 011.02385-.11658.73892.73892 0 01.20885.26685c.4592 1.00281.84854 1.99194 1.21734 3.00842.36571 1.01294.69509 2.04016.96411 3.08789a21.52564 21.52564 0 01.611 3.19825 10.89481 10.89481 0 01-.08391 3.31164l-.03247-.25842a11.51728 11.51728 0 001.59331 2.47937 9.29529 9.29529 0 002.19438 1.95874l.01569.00989a.28735.28735 0 01.12895.18823 3.48285 3.48285 0 01.00981 1.28808 2.37767 2.37767 0 01-.57063 1.18726 2.45652 2.45652 0 01-1.119.68152 5.22758 5.22758 0 01-.62076.13245l-.61888.03515.29031-.31091a21.33428 21.33428 0 01-.16641 3.88586 18.32347 18.32347 0 01-.89088 3.7937 13.83634 13.83634 0 01-1.85733 3.476 9.954 9.954 0 01-3.0894 2.5448.34312.34312 0 01-.11425.03759l-.05752.00794a8.03384 8.03384 0 00-5.824 3.37231 5.69708 5.69708 0 00-.6209 1.53882 9.17094 9.17094 0 00-.206 1.71777l-.16466 3.73243-.16546-.53723c1.91693 2.42419 3.72943 4.90234 5.44277 7.47937.84856 1.29455 1.68659 2.59716 2.44535 3.97375.37285.69543.74867 1.386 1.0645 2.14075a8.46425 8.46425 0 01.72866 2.528.95187.95187 0 01-1.27919 1.00354l-.03869-.01489a87.0741 87.0741 0 01-8.52751-3.96924c-2.76317-1.41028-5.46129-2.93176-8.16268-4.44177-2.69919-1.5138-5.35048-3.10889-8.00526-4.69361-2.64871-1.59558-5.29263-3.19653-7.91355-4.83508l-.01016-.00635a.69757.69757 0 01-.22174-.9613.70909.70909 0 01.16016-.17847 18.26209 18.26209 0 003.12182-3.21826 16.87141 16.87141 0 002.23957-3.932 13.22885 13.22885 0 001.0101-4.42089 15.32882 15.32882 0 00-.46164-4.57422l-.002-.00916a.09656.09656 0 01.18652-.04919 14.42131 14.42131 0 01.84625 4.645 13.64779 13.64779 0 01-.73587 4.71753 17.88753 17.88753 0 01-2.15332 4.29089 19.37335 19.37335 0 01-3.1958 3.64722l-.07175-1.14588 8.0596 4.54688 8.10332 4.45349c2.70224 1.47815 5.43242 2.90112 8.15486 4.32629 1.36544.70313 2.73424 1.4 4.11371 2.06165 1.36583.64868 2.79041 1.34668 4.10954 1.86l-1.31771.98841a6.97424 6.97424 0 00-.53774-1.86438c-.26176-.66333-.606-1.3263-.944-1.985-.69523-1.31811-1.49086-2.60705-2.29711-3.88659-1.63989-2.54456-3.38582-5.05286-5.179-7.49756l-.01937-.02637a.76607.76607 0 01-.14621-.51123l.28389-3.74316a9.56032 9.56032 0 01.32144-1.97962 7.065 7.065 0 01.86736-1.87866 7.70164 7.70164 0 013.07388-2.59912 11.245 11.245 0 013.793-1.03858l-.17141.04554a9.06219 9.06219 0 002.87381-2.17786 11.46147 11.46147 0 001.83469-3.20215 17.65875 17.65875 0 00.91248-3.64 20.78741 20.78741 0 00.22036-3.75757.29939.29939 0 01.287-.31116l.00349-.00012a3.83118 3.83118 0 001.06389-.15088 1.85758 1.85758 0 00.84473-.52 2.27489 2.27489 0 00.3977-1.92712l.14444.19775a10.31168 10.31168 0 01-2.41479-2.03 13.85434 13.85434 0 01-1.81041-2.58984.3511.3511 0 01-.0384-.22034l.00586-.03857a10.02424 10.02424 0 00-.087-3.01941 20.46341 20.46341 0 00-.73888-3.00794c-.3092-.99121-.6761-1.96826-1.07914-2.93-.40175-.95728-.83988-1.92139-1.30918-2.82373l1.26683.10705c-1.26413 1.8031-2.62149 3.49939-4.02267 5.18067a65.387 65.387 0 01-4.48229 4.80212 37.46612 37.46612 0 01-5.13011 4.21118 15.32176 15.32176 0 01-3.0293 1.58509 6.17661 6.17661 0 01-3.63176.33679.70042.70042 0 01-.39707-.26709l-.0112-.01538a10.94171 10.94171 0 00-3.33028-3.296c-.66272-.31263-1.17671-.30359-1.59255.21814a2.92442 2.92442 0 00-.5068.95715l-.19119.557-.12418.57763a7.28618 7.28618 0 00.65735 4.65979 3.9867 3.9867 0 001.61574 1.69007 2.25877 2.25877 0 002.26965-.11719l.00743-.00476a.09678.09678 0 01.10251.16418z"/><path fill="#020202" d="M231.43414 114.02035c1.58975 1.66162 2.9422 3.20105 4.47632 4.52978a18.7677 18.7677 0 002.42311 1.80188 27.54919 27.54919 0 002.8557 1.5072 6.396 6.396 0 01-3.4724-.11584 8.42668 8.42668 0 01-3.07564-1.73267 10.1369 10.1369 0 01-2.17888-2.71154A8.0576 8.0576 0 01231.43414 114.02035zM228.28718 111.98592a8.7591 8.7591 0 01-2.93573 3.251 2.8664 2.8664 0 01-2.32382.352 3.29806 3.29806 0 01-1.07791-.60937 8.23258 8.23258 0 01-.78284-.88062 25.29812 25.29812 0 01-3.82449-7.98328 20.70963 20.70963 0 01-.57611-8.952 17.8692 17.8692 0 013.7536-8.2323 19.94359 19.94359 0 017.09534-5.58728 18.43087 18.43087 0 018.86439-1.4961 22.87627 22.87627 0 018.54412 2.36 20.16846 20.16846 0 011.92 1.09924l.92362.60388.86741.68531a8.34506 8.34506 0 012.73229 3.38452 9.05059 9.05059 0 00-3.038-2.97254l-.899-.57483-.94939-.49194a19.3612 19.3612 0 00-1.94493-.8678 23.68427 23.68427 0 00-8.22649-1.717 17.66242 17.66242 0 00-8.032 1.65418 18.39934 18.39934 0 00-6.34483 5.12634 16.26922 16.26922 0 00-3.4685 7.35571 20.249 20.249 0 00.23687 8.2522c.12165.69177.36609 1.3551.54258 2.03687.2413.66088.4439 1.33972.72225 1.9895a23.99265 23.99265 0 001.882 3.79785 7.59048 7.59048 0 00.57746.80481 2.54676 2.54676 0 00.74829.53088 2.24379 2.24379 0 001.84393-.12134A9.5764 9.5764 0 00228.28718 111.98592zM219.04994 131.884a10.72565 10.72565 0 00-4.18939.76392 14.69062 14.69062 0 00-1.90109.92151 17.37787 17.37787 0 00-1.69513 1.24243 16.082 16.082 0 00-2.76786 3.145c-.36581.60278-.75558 1.18726-1.10943 1.79395l-.89188 1.92614a15.96169 15.96169 0 00-.75461 1.98926c-.21655.6781-.49673 1.33228-.66247 2.02832l-.5 2.0874a16.72355 16.72355 0 00-.44986 2.101c-.216 1.42187-.53195 2.82788-.69788 4.26416l-.49148 4.31872-.00049-.05932c.06225 3.27331.09317 6.546.2518 9.81237q.20956 4.901.60528 9.79273l.76142 9.79016c.20541 3.26953.40436 6.533.4541 9.834l-.00314.07874-.00214.02014c-.14774 1.43567-.35236 2.82739-.61243 4.23633a27.81278 27.81278 0 01-1.08423 4.208l-.02877.0686-.03168.06531a1.77675 1.77675 0 00-.12485.58252 1.495 1.495 0 00.11331.61291 2.45758 2.45758 0 001.02338 1.06738 10.57 10.57 0 003.66943 1.19739 45.88237 45.88237 0 008.36524.40027c2.82831-.10376 5.66873-.31018 8.50934-.56848 2.83981-.27051 5.67948-.603 8.52861-.91553a.097.097 0 01.108.08447.09813.09813 0 01-.0734.106c-2.78585.67468-5.58514 1.31922-8.41859 1.79395a85.18681 85.18681 0 01-8.565 1.13257 40.71014 40.71014 0 01-8.76187-.07007 12.14143 12.14143 0 01-4.45441-1.39893 4.49125 4.49125 0 01-1.8385-2.03589 3.60072 3.60072 0 01.10791-2.96777l-.0603.13354a29.96812 29.96812 0 001.09027-3.88427c.284-1.33326.52246-2.70423.697-4.04566l-.00525.09851c.01291-3.23852-.03015-6.51123-.07422-9.776l-.111-9.80835q-.08607-4.905-.39417-9.79992c-.18954-3.26368-.51858-6.52039-.83191-9.77564l-.00131-.04.00079-.01965.17215-4.42481a17.17743 17.17743 0 01.2182-2.20971l.30085-2.2063a17.79161 17.79161 0 01.44879-2.18616l.54486-2.17065c.18759-.72168.495-1.41529.73745-2.12329a14.746 14.746 0 01.85022-2.08448 18.04267 18.04267 0 015.53473-7.10522 18.35655 18.35655 0 011.94464-1.18836 12.603 12.603 0 012.13453-.77295 10.013 10.013 0 014.44867-.251.09644.09644 0 01-.02027.19116z"/><path fill="#020202" d="M210.68855 164.27914a26.87619 26.87619 0 00.94656 6.96594c.56934 2.28345 1.212 4.55066 1.9957 6.76721a45.2411 45.2411 0 002.74146 6.40515 4.9996 4.9996 0 00.86862 1.20435c.03808.04175.04639.03283.04639.03283.00885.00415-.01545.00074.01861.01758l.13724.06165a2.48947 2.48947 0 01.523.28906 3.23706 3.23706 0 01.81515.80139 5.52111 5.52111 0 01.85346 1.87586 9.01943 9.01943 0 01.29523 1.94836l-.00144.05945-.00613.06128A19.97684 19.97684 0 00220.092 195.96a9.355 9.355 0 001.90247 4.54114 4.77287 4.77287 0 00.87039.798l.48019.345.542.24646a12.12915 12.12915 0 002.434.7843 6.68179 6.68179 0 002.443.11011 2.7299 2.7299 0 001.00486-.401 1.64555 1.64555 0 00.56919-.72033l.7138.675a8.66521 8.66521 0 01-1.58452.18737 7.057 7.057 0 01-1.59533-.14074 6.58921 6.58921 0 01-1.5172-.51233 5.36734 5.36734 0 01-1.35834-.90564l-.01141-.01062a.27551.27551 0 01-.05811-.07727 6.74636 6.74636 0 01-.74478-3.46228 9.79945 9.79945 0 01.94626-3.334 15.37267 15.37267 0 01.82446-1.50769c.33887-.459.63007-.9552 1.00892-1.38183a18.11508 18.11508 0 012.35434-2.4729A13.73708 13.73708 0 01232.16531 186.8a6.02243 6.02243 0 01.80681-.34033 3.75727 3.75727 0 01.85524-.24536 11.89012 11.89012 0 001.59261-.366 7.06207 7.06207 0 004.16235-4.43506.63607.63607 0 01.084-.15845c.65076-.87194 1.32008-1.73437 2.057-2.55676a12.1409 12.1409 0 012.55942-2.2456 3.73433 3.73433 0 011.8632-.61512 2.40728 2.40728 0 011.96572 1.0055 4.90264 4.90264 0 01.78811 1.73559 8.77308 8.77308 0 01.26566 1.76795l-1.24085-.67078a3.94672 3.94672 0 001.75554-2.50916 4.88436 4.88436 0 00-.41942-3.11962 2.92 2.92 0 00-.85008-1.11109c-.0759-.06921-.101-.03-.14192-.08.00351.01648.017.02392.02756.01635-.01288-.00024.05093-.0177-.02791-.01257l-.22934.00781a2.01189 2.01189 0 01-.88233-.18835 2.6109 2.6109 0 01-.62347-.45777 5.221 5.221 0 01-1.14961-2.01477 12.45442 12.45442 0 01-.51373-2.01147l.01495.07873c-.27013-.95532-.50537-1.92077-.80187-2.86657-.32812-.93518-.59867-1.891-.97857-2.80567a41.791 41.791 0 00-2.47106-5.38806 39.6864 39.6864 0 00-3.22052-4.95825 28.23958 28.23958 0 00-3.96673-4.25415l.20073.11389-4.68669-2.02515.185.05237-1.53167-.1748a8.99 8.99 0 00-1.53424-.11829 15.32619 15.32619 0 00-3.05265.22681 15.901 15.901 0 00-2.968.75281 16.27553 16.27553 0 00-2.72879 1.42395 18.12786 18.12786 0 00-4.511 4.286 22.58875 22.58875 0 00-3.04788 5.55151l-.00241.00647a.09667.09667 0 01-.184-.05859 21.25752 21.25752 0 012.6455-5.90845 17.72588 17.72588 0 014.46549-4.79285 17.44976 17.44976 0 012.86633-1.7 16.47955 16.47955 0 013.19544-.99756 16.81534 16.81534 0 013.32748-.36047 10.116 10.116 0 011.66536.0697l1.6644.13648a.44844.44844 0 01.12427.02844l.06111.02417 4.75248 1.86548a.8417.8417 0 01.20107.114 26.43238 26.43238 0 014.42728 4.51062 39.14383 39.14383 0 013.46734 5.18518 43.8489 43.8489 0 012.58263 5.66309c.40231.958.65533 1.96667.98193 2.94934.29088.99365.51827 2.00427.77927 3.00488l.01118.05383.00385.02539a10.64161 10.64161 0 00.39574 1.6764 3.59127 3.59127 0 00.65626 1.29382c.12631.13159.15349.12817.16634.11963l.00833.00915c.00038.0055.14311-.00305.20932.00086a3.24728 3.24728 0 01.5016.04919 2.87576 2.87576 0 01.70326.34522 4.61422 4.61422 0 011.45076 1.86291 6.64118 6.64118 0 01.48 4.28858 5.64776 5.64776 0 01-2.58883 3.48645l-.01751.01025a.81193.81193 0 01-1.11155-.288.82125.82125 0 01-.112-.39307 5.20572 5.20572 0 00-.64808-2.62549.901.901 0 00-.76285-.451 2.47693 2.47693 0 00-1.16806.35681 10.94218 10.94218 0 00-2.3614 1.88611c-.73639.74329-1.42823 1.54627-2.10465 2.36426l.08379-.15808a9.00393 9.00393 0 01-1.92534 2.98608 6.82625 6.82625 0 01-3.01084 1.8479c-.5431.19239-1.21856.21131-1.68913.33619a3.15362 3.15362 0 00-.75833.2052 5.38063 5.38063 0 00-.74408.2998 13.10437 13.10437 0 00-2.73546 1.78381 14.904 14.904 0 00-4.03251 5.142 8.43873 8.43873 0 00-.80384 3.11023 5.6279 5.6279 0 00.7659 2.99219l-.0693-.08753a4.62186 4.62186 0 001.15109.66907 5.61116 5.61116 0 001.31641.366 6.00094 6.00094 0 001.366.045 7.54458 7.54458 0 001.35457-.23535l.03137-.00781a.56351.56351 0 01.68268.41113.57122.57122 0 01-.00009.272 3.11224 3.11224 0 01-2.43364 2.186 7.97869 7.97869 0 01-2.98858.04223 13.31 13.31 0 01-2.79956-.74707l-.70806-.306c-.219-.13464-.43125-.28369-.64631-.42749a6.40356 6.40356 0 01-1.16528-1.0111 10.07187 10.07187 0 01-.9202-1.2157 10.67187 10.67187 0 01-.65811-1.34217 13.28071 13.28071 0 01-.78857-2.80712 20.47992 20.47992 0 01-.08313-5.70484l-.00757.12036a5.72542 5.72542 0 00-.77841-2.92322 1.69518 1.69518 0 00-.43274-.44982 1.0198 1.0198 0 00-.24851-.14563 2.84442 2.84442 0 01-.55807-.34 6.02513 6.02513 0 01-1.20447-1.66211 36.99822 36.99822 0 01-2.58453-6.76257 58.85672 58.85672 0 01-1.63837-6.97681 24.41109 24.41109 0 01-.34625-7.1488.09683.09683 0 01.10968-.08191A.10185.10185 0 01210.68855 164.27914zM242.32174 133.70089a4.26738 4.26738 0 011.54012-.27124 7.2254 7.2254 0 011.53114.14795 6.149 6.149 0 012.7741 1.3136 8.85189 8.85189 0 01-1.52782-.11036c-.49034-.0686-.969-.15979-1.446-.25683A18.633 18.633 0 01242.32174 133.70089zM255.42538 139.53658a25.34336 25.34336 0 016.54531 8.5304c1.59651 3.1781 3.19836 6.35132 4.896 9.453.83631 1.55566 1.70149 3.09619 2.63535 4.56738.47021.72425.94961 1.46839 1.44813 2.08838.14814.20947.57912.56262.87812.88025q.48618.48505.95361.98682a20.78053 20.78053 0 013.30244 4.48315 5.73886 5.73886 0 01.76615 2.993 2.79517 2.79517 0 01-.71282 1.66846 3.8034 3.8034 0 01-1.419.88867.70641.70641 0 01-.91777-.39489.81234.81234 0 01-.031-.09791 14.64414 14.64414 0 00-.96-2.8009 4.33909 4.33909 0 00-1.75214-2.09082 2.42172 2.42172 0 00-2.521.62317 13.68758 13.68758 0 00-2.08858 2.27759 10.83428 10.83428 0 011.77054-2.6261 4.53532 4.53532 0 011.34953-.98267 2.502 2.502 0 011.79581-.10266 4.9762 4.9762 0 012.48337 2.34046 13.25794 13.25794 0 011.30533 3.01867l-.94852-.49267a2.3739 2.3739 0 00.79957-.561 1.23167 1.23167 0 00.24975-.77038 4.476 4.476 0 00-.68639-2.08142 22.35942 22.35942 0 00-3.15253-4.00367q-.44957-.46967-.9161-.92321c-.31321-.32984-.60289-.51722-1.01555-1.00342a20.26015 20.26015 0 01-1.60833-2.29322c-.956-1.5509-1.81584-3.13208-2.64636-4.72607-1.62-3.20752-3.086-6.472-4.43461-9.78467A30.32084 30.32084 0 00255.42538 139.53658z"/><path fill="#020202" d="M274.45817 175.40667c1.28107 1.203 2.49551 2.45676 3.69152 3.725 1.18845 1.27422 2.36886 2.55434 3.50486 3.869 1.14592 1.30682 2.27956 2.62322 3.37633 3.96831 1.11946 1.327 2.20112 2.68382 3.27049 4.04971l-.31283-.29794 7.94679 5.4501 7.9241 5.48872 5.70283 4.18624 1.42267 2.6216s-5.66392-3.13049-8.4354-4.78948c-2.75021-1.6923-5.49994-3.38519-8.184-5.17531-2.69161-1.78114-5.3733-3.56606-8.004-5.44726l-.02268-.0163a1.39682 1.39682 0 01-.29062-.282c-1.05-1.3809-2.08817-2.771-3.08761-4.19088-1.02305-1.40169-2.00878-2.83208-2.98223-4.27216-.98336-1.43217-1.92231-2.89895-2.85322-4.37163C276.20186 178.4436 275.29693 176.95071 274.45817 175.40667zM263.35184 194.35836a55.04538 55.04538 0 005.91781 6.61157 49.11078 49.11078 0 006.81488 5.489 47.41063 47.41063 0 007.63489 4.2561c1.31967.64905 2.70729 1.12707 4.0891 1.6626a22.12032 22.12032 0 002.10745.71167q1.06464.33618 2.13409.7174c-.74679-.05066-1.49693-.11352-2.24779-.193a17.96425 17.96425 0 01-2.24389-.31921 30.506 30.506 0 01-4.39263-1.1742 32.43 32.43 0 01-4.22309-1.74109c-.69985-.30822-1.33185-.74279-2.00133-1.109a20.185 20.185 0 01-1.94264-1.21044c-.61644-.45032-1.26056-.863-1.85253-1.34461l-1.76822-1.45178a39.27456 39.27456 0 01-3.199-3.25708A27.32149 27.32149 0 01263.35184 194.35836zM206.40019 210.48861A6.35525 6.35525 0 01207.483 212.284a9.2258 9.2258 0 01.54175 1.88977 9.06015 9.06015 0 01.1323 1.96106 6.27977 6.27977 0 01-.41394 2.0564 6.28076 6.28076 0 01-1.08539-1.79493 9.06126 9.06126 0 01-.53916-1.89026 9.22166 9.22166 0 01-.1297-1.96154A6.354 6.354 0 01206.40019 210.48861zM205.21635 218.23519a86.46967 86.46967 0 00-5.67785 17.21863A85.56551 85.56551 0 00197.471 253.4183a66.52122 66.52122 0 00.524 9.01257 60.36122 60.36122 0 009.02945 25.21472l.00338.00537a.747.747 0 01.08347.60266q-4.67931 16.0091-9.62305 31.92859c-3.26495 10.62549-6.7193 21.19238-10.25988 31.7312Q181.93854 367.729 175.948 383.30794c-2.01507 5.18457-4.09091 10.34827-6.37417 15.42957-1.14386 2.53918-2.33786 5.0592-3.66559 7.5188-.65891 1.23169-1.36414 2.443-2.14347 3.61584a11.86271 11.86271 0 01-2.8554 3.219l.02093-.62549a90.07306 90.07306 0 009.08582 5.41284c3.121 1.66126 6.32647 3.16284 9.567 4.57983a159.64233 159.64233 0 0019.98447 7.11683 187.20535 187.20535 0 0041.80975 6.78393 214.40012 214.40012 0 0042.28383-2.18933 260.07814 260.07814 0 0041.205-9.74719l-.59093 1.21643-15.05885-40.38525L294.277 344.8243l-14.81118-40.47717-14.70512-40.51636-.0024-.00659a.4925.4925 0 01-.02826-.18958l.98737-18.92334.46182-9.46313c.13918-3.15454.28873-6.31042.34954-9.46472a.09678.09678 0 01.097-.09656.0983.0983 0 01.09653.09644c.01083 3.16247-.06716 6.32019-.13474 9.47888l-.247 9.47387q-.26605 9.47314-.613 18.94349l-.03059-.1958 15.257 40.31176 15.151 40.3512 15.02275 40.39856 14.90332 40.443a.93351.93351 0 01-.54712 1.20154l-.04393.01514a247.36875 247.36875 0 01-41.56253 9.47986 215.50051 215.50051 0 01-42.55791 1.70678 198.15333 198.15333 0 01-41.93-7.1969 179.52443 179.52443 0 01-20.054-7.16284c-3.26251-1.40295-6.49139-2.8916-9.63971-4.54272a90.58723 90.58723 0 01-9.20718-5.41187.37.37 0 01-.00659-.60632l.02749-.01941a10.98559 10.98559 0 002.59534-3.01392c.74027-1.1521 1.41669-2.35473 2.04889-3.58191 1.2742-2.4497 2.42249-4.9718 3.52115-7.51464 2.19412-5.08887 4.18286-10.27076 6.11606-15.47107 3.85727-10.40723 7.36105-20.94568 10.8844-31.47535 3.49872-10.53918 6.83868-21.13134 10.21255-31.71325q5.01736-15.88531 9.80115-31.84485l.08682.60779a58.87329 58.87329 0 01-7.26617-16.8479 61.00793 61.00793 0 01-1.649-9.0326 67.58951 67.58951 0 01-.40127-9.1582 81.27827 81.27827 0 012.46182-18.09631 86.85764 86.85764 0 016.12256-17.162.09672.09672 0 01.17477.08289z"/><path fill="#020202" d="M227.12568 216.67431l-21.99558 1.51693s-6.919 14.72874-6.45468 19.69666C198.67542 237.8879 225.14938 220.9776 227.12568 216.67431zM265.23241 263.65489a24.20456 24.20456 0 01-2.68068-3.48407c-.7839-1.20972-1.51941-2.44849-2.18718-3.7259s-1.26777-2.59368-1.80972-3.93878a25.0753 25.0753 0 01-1.33553-4.18084 25.94765 25.94765 0 012.66137 3.48408q1.19037 1.81456 2.1968 3.73546a41.30857 41.30857 0 011.81942 3.92921 25.07323 25.07323 0 011.33552 4.18084s1.3936-31.15263 1.3936-37.869l-2.24524-.116c-2.70006.91933-13.2778-2.49693-13.2778-2.49693-19.85869 69.91181-49.5596 55.51137-49.5596 55.51137l4.85823 9.35839c1.98392 2.0903 3.813 4.29685 5.59369 6.53246s3.47432 4.5291 5.14855 6.84221c1.65491 2.33224 3.28076 4.68386 4.80986 7.0936 1.54841 2.40018 3.03881 4.84855 4.37428 7.4036-1.9936-2.09054-3.82265-4.28728-5.60337-6.52277s-3.47427-4.53891-5.14855-6.8519c-1.64523-2.33225-3.27108-4.67441-4.8098-7.09384-1.53878-2.40006-3.02913-4.84855-4.36466-7.40336 0 0-34.53977 117.75838-45.68852 124.72641 0 0 62.71159 45.29164 164.4438 12.54228zM167.6133 414.15307a1.45245 1.45245 0 010-2.90332A1.45245 1.45245 0 01167.6133 414.15307zm7.66473 3.83233a1.45245 1.45245 0 010-2.90331A1.45245 1.45245 0 01175.278 417.9854zm7.66479 3.484a1.45245 1.45245 0 010-2.90332A1.45245 1.45245 0 01182.94282 421.46936zm9.40672 3.48395a1.45245 1.45245 0 010-2.90331A1.45245 1.45245 0 01192.34954 424.95331zm10.45192 2.78719a1.45245 1.45245 0 010-2.90332A1.45245 1.45245 0 01202.80146 427.7405zm10.80036 2.4388a1.45245 1.45245 0 010-2.90331A1.45245 1.45245 0 01213.60182 430.1793zm10.45192 1.74192a1.45245 1.45245 0 010-2.90332A1.45245 1.45245 0 01224.05374 431.92122zm10.10354 1.04527a1.45245 1.45245 0 010-2.90332A1.45245 1.45245 0 01234.15728 432.96649zm9.40677.69677a1.45245 1.45245 0 010-2.90332A1.45245 1.45245 0 01243.56405 433.66326zm10.10348 0a1.45245 1.45245 0 010-2.90332A1.45245 1.45245 0 01253.66753 433.66326zm9.75516-.34839a1.45245 1.45245 0 010-2.90331A1.45245 1.45245 0 01263.42269 433.31487zm9.75515-.69688a1.45245 1.45245 0 010-2.90332A1.45245 1.45245 0 01273.17784 432.618zm9.40671-.69677a1.45245 1.45245 0 010-2.90332A1.45245 1.45245 0 01282.58455 431.92122zm9.40677-1.74192a1.45245 1.45245 0 010-2.90331A1.45245 1.45245 0 01291.99132 430.1793zm9.75516-2.09042a1.45245 1.45245 0 010-2.90331A1.45245 1.45245 0 01301.74648 428.08888zm8.70994-2.4388a1.45245 1.45245 0 010-2.90332A1.45245 1.45245 0 01310.45642 425.65008zm9.05833-3.13557a1.45245 1.45245 0 010-2.90332A1.45245 1.45245 0 01319.51475 422.51451zM248.73789 105.87651a1.0894 1.0894 0 000-2.17749 1.0894 1.0894 0 000 2.17749zM245.71844 100.08443a3.30776 3.30776 0 011.44336-.94555 4.04818 4.04818 0 011.63132-.20752 3.50725 3.50725 0 011.64764.52539 2.06177 2.06177 0 011.02625 1.49866 9.68926 9.68926 0 00-1.51717-.05811c-.4317-.00317-.8618-.00085-1.305-.03662a9.94373 9.94373 0 01-1.38057-.2085A6.37507 6.37507 0 01245.71844 100.08443z"/><path fill="none" stroke="#020202" stroke-linecap="round" stroke-linejoin="round" stroke-width=".968" d="M250.24762,113.14931s2.85629,2.76678,5.17342,1.55759"/><path fill="#020202" d="M198.73158 237.60763c3.026-2.308 6.07871-4.53943 9.127-6.77039 3.03537-2.2478 6.07538-4.47583 9.06025-6.76807 1.50048-1.13525 2.98584-2.2882 4.43982-3.47631.74819-.5708 1.46859-1.17078 2.181-1.78.704-.61743 1.46069-1.18421 2.14428-1.82093a41.91563 41.91563 0 007.66641-8.20739c-.39845.85132-.75769 1.75634-1.24314 2.58435-.52155.79834-1.03708 1.61694-1.59989 2.39648l-1.81746 2.23279c-.63714.71448-1.312 1.392-1.9682 2.09131a84.0875 84.0875 0 01-8.62805 7.51648c-3.04379 2.28882-6.162 4.47082-9.39084 6.4768A98.37971 98.37971 0 01198.73158 237.60763zM257.21576 149.78524c1.49624 2.663 2.91838 5.3728 4.20105 8.151 1.28882 2.77478 2.49435 5.59424 3.51341 8.49316a38.43621 38.43621 0 012.17892 8.99927 12.6526 12.6526 0 01-.34152 4.76746 6.12831 6.12831 0 01-1.23779 2.2218 5.54608 5.54608 0 01-2.19089 1.38818l.46263-.66382c.16727 2.63428.3794 5.27771.6585 7.89979.14088 1.31079.29982 2.61926.5043 3.90747.10425.64294.20714 1.28527.34665 1.901.0695.30664.146.60876.23544.88195a3.00426 3.00426 0 00.1405.35975c.03629.10888.11873.139-.01757.05432l-.10918 1.46679-4.59824 2.022a.84978.84978 0 01-1.17074-.966l.00345-.015a64.11369 64.11369 0 001.31654-8.86377q.30432-4.49047.199-9.00964c-.09407-3.00855-.25049-6.0188-.55458-9.02039-.27849-3.00256-.6057-6.00415-1.03864-8.99365-.83566-5.98242-1.96344-11.92993-3.303-17.82617-.67543-2.92993-1.40224-5.92139-2.23224-8.7367a5.828 5.828 0 00-2.14267-3.24341 3.17559 3.17559 0 00-3.418.49341l.05725-.05139-.00966.0094.0829-.923a26.65375 26.65375 0 013.80814 9.77624 47.68375 47.68375 0 01.78186 10.35913 78.41047 78.41047 0 01-1.01184 10.28662 80.30708 80.30708 0 01-2.25615 10.05555 96.70986 96.70986 0 001.76564-10.12476 77.70749 77.70749 0 00.58867-10.22473 48.78333 48.78333 0 00-1.03357-10.10938 25.35781 25.35781 0 00-3.831-9.19482.721.721 0 01.075-.91541l.00795-.00793.00941-.00964a.66913.66913 0 01.05756-.05176 5.64514 5.64514 0 012.362-1.11756 4.01174 4.01174 0 012.71866.3855 7.08626 7.08626 0 012.94361 4.07007c.91333 2.99793 1.63742 5.90625 2.35247 8.884 1.39873 5.93079 2.58442 11.91358 3.47817 17.94861a135.91014 135.91014 0 011.59331 18.24536q.07168 4.59082-.27864 9.18836a65.80458 65.80458 0 01-1.43285 9.12195l-1.16714-.98084 4.61457-1.9845-.10914 1.46656a1.77355 1.77355 0 01-.59458-.74317 4.59109 4.59109 0 01-.21948-.567c-.11377-.3584-.19606-.701-.27063-1.042-.14452-.68042-.256-1.34851-.34416-2.01831-.17854-1.33776-.3065-2.66845-.41652-3.99926-.21693-2.66211-.364-5.31531-.46742-7.98133a.67109.67109 0 01.44638-.65857l.01642-.00561a4.25431 4.25431 0 001.66662-.99451 4.89308 4.89308 0 001.00823-1.727 11.564 11.564 0 00.39781-4.30432 41.59454 41.59454 0 00-1.85646-8.82935A120.90806 120.90806 0 00257.21576 149.78524zM201.539 278.681a19.05574 19.05574 0 0010.09522.83167 22.08559 22.08559 0 004.85245-1.4065c.78833-.295 1.52816-.71216 2.29275-1.05884.72354-.43554 1.47775-.812 2.17313-1.29126 5.65918-3.7163 10.06778-9.089 13.73163-14.81823a120.68218 120.68218 0 009.28721-18.32654c2.62009-6.36438 4.93019-12.87305 7.13628-19.44019a150.21635 150.21635 0 01-5.73 19.99109 99.53911 99.53911 0 01-9.06389 18.81775 61.40068 61.40068 0 01-6.39856 8.35449 37.9646 37.9646 0 01-8.17241 6.70191 24.382 24.382 0 01-9.9834 3.41125 20.29342 20.29342 0 01-5.26581-.159A15.80088 15.80088 0 01201.539 278.681zM305.313 197.06771c.1-.08655.13333.147.22445.25452l.22211.39734.43567.7987.84654 1.60962q.82607 1.61974 1.60987 3.26013c1.04742 2.186 2.02992 4.40235 2.9737 6.63465q2.82558 6.69965 5.15023 13.59692a231.0971 231.0971 0 017.50625 28.08887 245.93339 245.93339 0 014.04581 28.80725 262.3212 262.3212 0 01.70525 29.09729l-.69124-.7312 80.22413 1.35156-.55845.19336a68.211 68.211 0 017.09979-4.94531 64.61867 64.61867 0 017.6636-4.01673 44.44656 44.44656 0 018.27574-2.7428 27.96661 27.96661 0 018.82458-.5708l-1.24546 1.01087q2.37211-27.81958 4.21366-55.68726c.60043-9.28613 1.153-18.57495 1.58239-27.85962.2071-4.64184.38155-9.28466.4521-13.915.02756-2.314.05753-4.62707.0017-6.91845-.02765-1.144-.07247-2.28638-.16706-3.39417-.04785-.55163-.10875-1.09839-.19571-1.59912a5.92808 5.92808 0 00-.152-.66052c-.02683-.08374-.05419-.14746-.05927-.161.0357.0122-.03733.09509.44988.35657l.5409.11743c-6.26339-.163-12.55048-.24134-18.82607-.26172-6.2778-.03162-12.5557-.02429-18.82761.10486-6.27061.13073-12.54024.35168-18.77454.8258-3.11515.241-6.22462.54505-9.28672 1.01306-1.52829.23767-3.04939.51258-4.5166.88794a10.97971 10.97971 0 00-3.8545 1.57862l-.05472.04528a1.0137 1.0137 0 01-.59851.2323zm-.2565-.136l32.40034-2.61731 32.95848-2.58593-.65287.27734a12.1038 12.1038 0 014.72637-2.15723c1.57449-.42456 3.14827-.72888 4.7228-.99548 3.14886-.52368 6.29922-.87268 9.44993-1.15881 6.30155-.56311 12.60409-.86805 18.90548-1.08313 12.606-.42627 25.19548-.42359 37.80549-.14917l.07974.00171a1.08826 1.08826 0 01.46152.11584 2.09474 2.09474 0 011.02382.99451 4.26511 4.26511 0 01.26547.64819 8.66774 8.66774 0 01.24885 1.0376c.11446.64587.18224 1.2572.23783 1.86462.10772 1.21179.15737 2.39673.19074 3.57971.06092 2.36341.05768 4.70728.007 7.04847-.09668 4.68029-.29741 9.34314-.53048 14.00268-.468 9.318-1.10543 18.61634-1.79665 27.90918-1.38627 18.5857-2.99676 37.14307-4.70523 55.699a1.11662 1.11662 0 01-1.21011 1.01464l-.03557-.00366a25.816 25.816 0 00-8.13259.4104 42.43426 42.43426 0 00-7.92848 2.49671 62.7102 62.7102 0 00-7.4928 3.78259 66.62324 66.62324 0 00-6.96315 4.68945l-.01843.01429a.85069.85069 0 01-.54037.17919l-80.21842-1.65551a.70263.70263 0 01-.692-.71326l.00052-.01819a261.04991 261.04991 0 00-.423-28.95837 244.94763 244.94763 0 00-3.75314-28.72913 230.38946 230.38946 0 00-7.21314-28.07287q-2.25667-6.89265-5.00629-13.61145c-.92-2.23584-1.87883-4.4563-2.90248-6.64661q-.76407-1.64446-1.574-3.2666l-.82815-1.61219-.42606-.79931-.217-.3971C305.22268 197.31075 305.10913 197.27962 305.05655 196.93172z"/><path fill="#020202" d="M393.99539 200.85458q3.50234 13.17663 6.20957 26.54675 2.75859 13.35277 4.83833 26.8407c1.34874 8.99365 2.50212 18.027 3.13436 27.11389.33354 4.54053.50627 9.09778.46337 13.65564a71.7945 71.7945 0 01-1.277 13.58532 82.51809 82.51809 0 00.32826-13.57128c-.18285-4.5221-.55817-9.03577-1.01952-13.54065-.9343-9.00855-2.16382-17.99048-3.54174-26.95118-1.34969-8.96582-2.87163-17.90832-4.40439-26.85241zM322.106 195.91085a10.468 10.468 0 01-3.9563-9.43909 11.85339 11.85339 0 011.95317-5.28076c.27556-.39307.57674-.77283.88523-1.147.33259-.33643.68942-.7085 1.01605-1.01355.63292-.57446 1.2671-1.15088 1.927-1.69715a59.61936 59.61936 0 018.42287-5.97045c1.49472-.87806 3.04451-1.67041 4.62906-2.4021q1.19386-.53834 2.4189-1.01282c.38657-.16614.86952-.30921 1.31387-.45886a10.86408 10.86408 0 011.37239-.39124 18.87431 18.87431 0 0111.20678.76221 18.55323 18.55323 0 018.65543 6.92395 19.2423 19.2423 0 011.37616 2.39575l1.05011 2.28052 2.04971 4.5885c1.30676 3.09155 2.62816 6.17517 3.755 9.365-2.07178-2.67432-3.949-5.45483-5.84076-8.2273l-2.74813-4.20752-1.34882-2.11755a20.07747 20.07747 0 00-1.34473-1.80469 16.00486 16.00486 0 00-7.17619-4.88476 15.30523 15.30523 0 00-4.24281-.77393 13.90853 13.90853 0 00-4.267.40467 7.15021 7.15021 0 00-1.03729.2832c-.34726.11511-.67121.19385-1.05471.35315-.745.27514-1.47828.5852-2.2153.88867-1.47407.61035-2.913 1.31641-4.34476 2.04687a83.57287 83.57287 0 00-8.33805 4.97962l-2.01572 1.39319-.85092.65576c-.24794.24683-.52117.47656-.76763.73328a9.32508 9.32508 0 00-2.11557 3.7677A10.43092 10.43092 0 00322.106 195.91085z"/><path fill="#020202" d="M369.67081 192.66231a36.27382 36.27382 0 012.552-8.31823 41.785 41.785 0 014.32534-7.69385 37.54933 37.54933 0 016.0695-6.61877 32.47581 32.47581 0 017.72186-4.86866l1.06269-.44348a11.93733 11.93733 0 011.13458-.42749 10.08191 10.08191 0 012.70669-.50793 9.75579 9.75579 0 015.40288 1.29663 10.62063 10.62063 0 015.33626 9.16223 9.6028 9.6028 0 01-1.68269 5.33264 13.26215 13.26215 0 01-3.75785 3.50391 27.60985 27.60985 0 01-8.53392 3.46777l.29531-.11414-5.31482 2.24683-5.36 2.15369-.1603.06445a.36469.36469 0 01-.06974.0199c-2.11508.36963-4.22311.689-6.20356.94885C373.2141 192.12105 371.3733 192.36959 369.67081 192.66231zm0 0c2.10532-.6842 4.07231-1.41259 5.8992-2.13513 1.82736-.717 3.52713-1.37475 5.21984-1.982l-.22965.08423 5.0112-2.87342 5.05638-2.78a.60426.60426 0 01.08464-.03857l.21105-.07568A28.38048 28.38048 0 00398.012 179.388a9.52674 9.52674 0 002.40268-2.39612 4.9315 4.9315 0 00.7801-2.75573 6.06683 6.06683 0 00-2.95324-4.99622 5.40683 5.40683 0 00-4.31665-.50659c-.22651.04773-.58231.20044-.88263.2998l-.93608.3357a35.69343 35.69343 0 00-13.12244 9.25317A56.64463 56.64463 0 00369.67081 192.66231zM219.066 109.03353a29.90135 29.90135 0 00-5.87613 7.01416 43.83374 43.83374 0 00-3.89495 8.19128l-.75608 2.14783-.60727 2.20032c-.48919 1.44788-.6791 2.97156-1.07452 4.45471-.29981 1.50195-.52377 3.02368-.82065 4.54321-.20419 1.52979-.3927 3.06739-.67511 4.6156-.14746-1.55334-.21289-3.11816-.2724-4.68908.07626-1.56153.09778-3.13965.27594-4.70325a40.74625 40.74625 0 012.11139-9.22827 32.41408 32.41408 0 014.47485-8.38635A20.177 20.177 0 01219.066 109.03353zM384.2756 357.38644c3.03424 14.2323 5.48955 28.55664 7.803 42.90356 1.12462 7.17859 2.22522 14.361 3.21456 21.561q1.52462 10.7937 2.6781 21.64636-2.26923-10.67523-4.16975-21.40906c-1.29327-7.15173-2.47528-14.32117-3.63328-21.49451C387.91651 386.23714 385.8066 371.85787 384.2756 357.38644z"/><path fill="#020202" d="M328.48613 392.20541q7.116-1.32734 14.24975-2.35767l7.13486-1.01111 7.1419-.89294q14.28671-1.73694 28.6063-2.92151c4.76953-.4563 9.54751-.771 14.32489-1.09546 4.77824-.31018 9.55107-.71106 14.336-.90906l14.34726-.71973 14.36292-.45654-.96435.18506c3.94777-1.20337 7.94614-2.25391 11.91673-3.38831 3.96695-1.14538 7.97832-2.15673 11.97722-3.20556 3.98976-1.07654 8.032-1.99463 12.05043-2.9845l6.06669-1.36706c2.02545-.44593 4.06961-.83533 6.10349-1.25586l.0268-.0055a.24115.24115 0 01.12531.46485l-46.95558 15.70141a.40831.40831 0 01-.0989.01892l-28.67357 1.79126-28.68215 1.64746-57.36724 3.24488a.24107.24107 0 01-.05785-.47766zM332.38162 416.32906c4.851-.434 9.69867-.77734 14.542-.99927l7.26477-.32666 7.26062-.21179q14.51919-.366 29.0181-.16906c4.83546-.00367 9.66448.17175 14.4955.29162 4.83064.13049 9.66247.22754 14.48854.485l14.48169.67517 14.47248.93054-1.51566.26172 11.325-3.91638c3.76446-1.33216 7.59453-2.4989 11.391-3.75037 3.79258-1.26123 7.65016-2.35876 11.472-3.54626l5.78349-1.65357 5.82437-1.55066.02688-.00708a.24109.24109 0 01.15169.45679l-44.45208 17.80188a.39723.39723 0 01-.15528.02685l-28.9775-.95825c-9.65937-.31372-19.31485-.73547-28.97245-1.098l-57.94267-2.25867a.241.241 0 01-.01213-.481zM319.16968 284.05965c7.24917-.78027 14.48172-1.17651 21.70767-1.42053l5.41943-.18249 5.41484-.07618c3.60946-.04089 7.22039-.1156 10.82509-.04663l10.8177.12378 10.808.34766c3.60407.08337 7.20263.29431 10.80168.49365 3.59859.21 7.19979.36 10.79624.61926l-1.3849.17627 12.60095-3.38183c4.23145-1.02527 8.444-2.11255 12.691-3.08692 4.25475-.949 8.4998-1.92968 12.79188-2.75647 2.13565-.44738 4.28646-.84521 6.44262-1.22534 2.15025-.39966 4.31683-.74573 6.49241-1.06238l.03515-.00512a.24064.24064 0 01.10617.46789L430.635 280.79452l-24.92379 7.67431a.4567.4567 0 01-.14881.01892l-21.60692-.90515-21.60338-.98681L340.7487 285.609l-21.6-1.06592a.24071.24071 0 01-.014-.47973z"/><circle cx="452.233" cy="462.253" r="12.183" fill="#020202"/><path fill="#fff" d="M323.79228,450.85089c-.25163-.0775-.49357-.15476-.73551-.23226A1.32816,1.32816,0,0,1,323.79228,450.85089Z"/><path d="M204.54 276.88268a1.45253 1.45253 0 000-2.90332 1.45253 1.45253 0 000 2.90332zM212.90149 276.18588a1.45252 1.45252 0 000-2.90331 1.45252 1.45252 0 000 2.90331zM221.263 270.95991a1.45252 1.45252 0 000-2.90331 1.45252 1.45252 0 000 2.90331zM229.62459 262.25a1.45253 1.45253 0 000-2.90332 1.45253 1.45253 0 000 2.90332zM236.24414 252.84323a1.45253 1.45253 0 000-2.90332 1.45253 1.45253 0 000 2.90332zM240.77332 243.78489a1.45253 1.45253 0 000-2.90332 1.45253 1.45253 0 000 2.90332zM244.60569 235.07494a1.45252 1.45252 0 000-2.90331 1.45252 1.45252 0 000 2.90331zM247.74127 225.6682a1.45252 1.45252 0 000-2.90331 1.45252 1.45252 0 000 2.90331zM258.49614 197.79638a1.45253 1.45253 0 000-2.90332 1.45253 1.45253 0 000 2.90332zM259.2384 188.738a1.45253 1.45253 0 000-2.90332 1.45253 1.45253 0 000 2.90332zM258.89 179.67969a1.45252 1.45252 0 000-2.90331 1.45252 1.45252 0 000 2.90331zM258.1932 170.273a1.45252 1.45252 0 000-2.90331 1.45252 1.45252 0 000 2.90331zM256.45122 158.42743a1.45252 1.45252 0 000-2.90331 1.45252 1.45252 0 000 2.90331zM255.406 147.2787a1.45252 1.45252 0 000-2.90331 1.45252 1.45252 0 000 2.90331zM252.61884 136.82677a1.45253 1.45253 0 000-2.90332 1.45253 1.45253 0 000 2.90332zM222.17962 195.81a1.45252 1.45252 0 000-2.90331 1.45252 1.45252 0 000 2.90331zM225.74569 188.94528a1.45253 1.45253 0 000-2.90332 1.45253 1.45253 0 000 2.90332zM233.31744 185.36383a1.45253 1.45253 0 000-2.90332 1.45253 1.45253 0 000 2.90332zM238.46546 179.67457a1.45253 1.45253 0 000-2.90332 1.45253 1.45253 0 000 2.90332zM243.86755 175.70866a1.45252 1.45252 0 000-2.90331 1.45252 1.45252 0 000 2.90331zM267.94834 168.87936a1.45252 1.45252 0 000-2.90331 1.45252 1.45252 0 000 2.90331zM484.57586 468.046c3.6091-1.41662 7.14767-2.91907 10.61275-4.55 1.72257-.83581 3.43943-1.67212 5.104-2.59936 1.67447-.90625 3.32263-1.85669 4.89149-2.91638a37.01031 37.01031 0 008.51056-7.32764 17.52592 17.52592 0 004.09751-10.3302 13.95109 13.95109 0 01-.32449 5.85119 17.38752 17.38752 0 01-2.56334 5.38343 31.62418 31.62418 0 01-8.66 8.04114 56.59611 56.59611 0 01-10.46208 5.28027A58.60853 58.60853 0 01484.57586 468.046zM507.79114 473.26607q5.7318-3.73956 11.06573-7.912a93.31016 93.31016 0 0010.01917-9.01441 47.45583 47.45583 0 007.885-10.73974 26.312 26.312 0 003.10151-12.91944 22.34617 22.34617 0 01-1.73654 13.56617 40.72877 40.72877 0 01-7.84585 11.42358 67.68761 67.68761 0 01-10.53031 8.8949A68.8357 68.8357 0 01507.79114 473.26607zM473.21662 184.90267c-2.58254-2.892-5.221-5.68787-7.9544-8.37024-1.38228-1.32483-2.7631-2.644-4.21093-3.88281-1.43167-1.25513-2.89557-2.47034-4.43444-3.57324a37.01236 37.01236 0 00-9.82835-5.43384 17.52577 17.52577 0 00-11.11026-.25256 13.95276 13.95276 0 015.59933-1.729 17.39207 17.39207 0 015.93864.533A31.62467 31.62467 0 01457.76552 167.52a56.60065 56.60065 0 018.58676 7.97522A58.60959 58.60959 0 01473.21662 184.90267zM467.8154 153.31148q-5.49824-4.07518-11.26414-7.62683a93.33524 93.33524 0 00-11.93434-6.26233 47.45725 47.45725 0 00-12.81037-3.66162 26.31348 26.31348 0 00-13.19208 1.58118 22.347 22.347 0 0113.32411-3.08582 40.72729 40.72729 0 0113.43807 3.38733 67.68782 67.68782 0 0111.99984 6.78321A68.8323 68.8323 0 01467.8154 153.31148zM202.89577 72.08565c-2.45292 3.00257-4.80231 6.04554-7.02472 9.16443-1.09256 1.57227-2.17987 3.14221-3.17713 4.76587-1.01611 1.61011-1.98767 3.246-2.83652 4.93823a37.01208 37.01208 0 00-3.83163 10.55665 17.52612 17.52612 0 001.48642 11.0133 13.952 13.952 0 01-2.58255-5.2605 17.38783 17.38783 0 01-.40146-5.949 31.62306 31.62306 0 013.61246-11.25183 56.592 56.592 0 016.5357-9.72742A58.61135 58.61135 0 01202.89577 72.08565zM172.53645 82.35616q-3.16608 6.06738-5.77328 12.31751a93.31934 93.31934 0 00-4.32083 12.76611 47.45266 47.45266 0 00-1.61521 13.2251A26.31192 26.31192 0 00164.45 133.448a22.3457 22.3457 0 01-5.12964-12.67835 40.72569 40.72569 0 011.24618-13.80224 67.67823 67.67823 0 014.825-12.91223A68.83006 68.83006 0 01172.53645 82.35616zM364.13921 345.15108c-6.2939 2.95984-12.61252 5.86231-18.932 8.76233l-9.47643 4.3562-9.49429 4.30835-.46651-1.94445.53171-.03577a1.00949 1.00949 0 011.0683.87353l.00366.02845 4.67845 35.90564 4.45143 35.93237-1.409-1.463 28.1113 4.34216c9.36858 1.45935 18.72385 3.00391 28.078 4.55554L447.375 450.2983l-.13171-.00952a96.97764 96.97764 0 0013.58629-1.23 75.22579 75.22579 0 0013.23956-3.277A40.01056 40.01056 0 00485.99667 439.45a20.80518 20.80518 0 007.3501-10.88891l-.02038.18982c-.35774-7.69605-.65619-15.39441-1.06262-23.08838l-1.19051-23.08313-1.22347-23.08191-1.1759-23.08374 2.12813 1.3717L466.405 347.90218l-24.3934 10.02625-.01874.00769a1.97192 1.97192 0 01-.6335.14221l-28.72192 1.493-28.72593 1.40833L355.18 362.26583l-28.73574 1.192-.08188.00341a1.76823 1.76823 0 01-1.8251-1.569l-3.01518-27.504c-.99608-9.15918-2.02506-18.31385-2.95613-27.48047l-2.8581-27.49024-2.7431-27.50073-.00152-.01538a.42814.42814 0 01.07868-.2926 15.88569 15.88569 0 014.16884-4.036 18.78463 18.78463 0 015.26683-2.31934.19356.19356 0 01.11432.36975 18.26667 18.26667 0 00-5.01047 2.48694 15.74116 15.74116 0 00-3.8059 4.00952l.07705-.30762 3.72823 27.37708 3.61322 27.38757c1.226 9.126 2.35417 18.26392 3.51521 27.39734l3.46836 27.37219-1.90676-1.56543 28.72078-1.51733 28.72543-1.41528 28.73038-1.30542 28.73436-1.22156-.65185.1499 24.55595-9.82348 24.553-9.73133.026-.01037a1.53693 1.53693 0 011.99494.86255 1.56816 1.56816 0 01.10741.51953l.70158 23.103.654 23.105.687 23.10364c.21939 7.70166.54677 15.39881.81485 23.09851l.00036.01a.62744.62744 0 01-.02079.18018 22.05464 22.05464 0 01-7.86236 11.48816 39.44014 39.44014 0 01-5.87518 3.78772 55.13788 55.13788 0 01-6.38758 2.76611 83.53224 83.53224 0 01-13.42465 3.4635 103.745 103.745 0 01-13.79451 1.49695.56712.56712 0 01-.09809-.00452l-.034-.005-56.3251-8.02832c-9.38185-1.37439-18.76257-2.756-28.13-4.22278L334.576 435.1943l-.01254-.002a1.66945 1.66945 0 01-1.39671-1.4613l-4.02622-35.98254-3.79921-36.00928 1.07175.90173-.53244.02234-.03125.00134a1.013 1.013 0 01-.43527-1.9458c3.20956-1.35046 6.40266-2.71582 9.62224-4.03308l9.64244-3.97973c6.42637-2.65735 12.85366-5.31214 19.30568-7.90979a.19363.19363 0 01.15471.35485z"/><path fill="#020202" d="M493.97681,428.72611h0c-2.135,8.20467-9.20942,13.40054-17.22969,16.69134a12.17925,12.17925,0,1,0,17.22969-16.69134Z"/><circle cx="351.727" cy="446.625" r="12.183" fill="#020202"/><path d="M313.29989,251.76656l22.18477,1.3335,22.50617,1.42334c7.54632.51477,15.114,1.01013,22.69931,1.58716,7.58176.56262,15.17164,1.13574,22.74716,1.7832l-.45344.04395,12.5769-3.43006,12.60619-3.32593,25.212-6.653.01284-.00342a.55538.55538,0,0,1,.67865.39527.60834.60834,0,0,1,.01435.07495l1.59548,13.17321q.806,6.58558,1.70676,13.15894l1.76068,13.15186,1.8581,13.1394a.68777.68777,0,0,1-.4327.73767l-.018.00684-26.06342,10.05993-26.11815,9.912a1.28614,1.28614,0,0,1-.41844.08337l-.02509.00025-21.65157.53821q-10.82542.288-21.65262.4823l-21.65512.35156-21.6574.23132-.02623.00037a1.29755,1.29755,0,0,1-1.29834-1.15552l-1.79988-16.96948c-.60907-5.65332-1.11633-11.28015-1.67248-16.88672Zm.209.20154,4.66742,33.60217c.75784,5.53455,1.56454,11.04883,2.26945,16.53662l2.14206,16.45386-1.32434-1.15491,21.65053-.593,21.6528-.4729q10.82679-.21625,21.6553-.34229l21.65635-.28613-.44314.08362,26.29059-9.44495,26.34533-9.29687-.45055.74414-1.53335-13.18116-1.63076-13.1687q-.7987-6.58648-1.68468-13.16174l-1.796-13.14746.70562.46667-24.98528,7.45948-12.49245,3.73034-12.52175,3.62622a1.23112,1.23112,0,0,1-.4338.04578l-.02-.00183c-7.41255-.57117-14.81073-1.21668-22.217-1.87293-7.40272-.64148-14.82313-1.36486-22.26487-2.06884Z"/><path fill="#020202" d="M375.21037 440.00886l-1.4611-.21288-.47444-3.0716L370.1877 399.5715l-2.94207-37.64623-.34826-4.44215 1.51923-.09664c.22257 1.49029.43569 2.99027.63888 4.48067.44514 3.1937.84207 6.38739 1.22909 9.59065.60013 4.63555 1.02589 9.2809 1.5386 13.92625l1.24847 13.95519.99707 13.965c.24194 4.6646.57083 9.32933.7159 13.99405.13562 3.2419.25187 6.484.32889 9.726C375.16218 438.89218 375.191 438.14113 375.21037 440.00886zM416.30192 446.26648l-1.57735-.23226-.45483-2.54512L410.66 404.004l-3.7839-43.62722-.16534-3.5963 1.30659-.06769c.271 1.6936.25228 1.90269.50391 3.59629.658 4.442 1.24823 8.89389 1.80961 13.34561.66771 5.00342 1.16152 10.0261 1.742 15.03909l1.471 15.05859 1.20972 15.07795c.30975 5.04206.70645 10.06473.929 15.10679.17413 3.29056.32913 6.5712.45482 9.86165C416.1956 445.43433 416.25372 444.631 416.30192 446.26648zM441.33859 354.70463l.51261 3.97858 4.36465 38.7399 6.07761 51.56287.271 2.26459a.14656.14656 0 00.14516.12581.14885.14885 0 00.14517-.14517v-.01935c0-.75487-.00968-1.50973-.01936-2.26459-.0871-8.32284-.56131-16.59728-1.18068-24.87173-.29033-4.50982-.75486-9.00028-1.142-13.51009-.4355-4.49046-.94842-8.98092-1.42262-13.47138l-1.67425-13.44235c-.65808-4.47111-1.21939-8.95189-1.96458-13.41332-.629-4.055-1.30649-8.1196-2.03232-12.16488-.30968-1.6936-.55132-2.1495-.89-3.8431zM478.791 446.00516c-.46451.213-.929.42588-1.40322.61951l-.31944-2.83563-5.52594-48.69821-5.10986-46.73373-.27707-3.08176 1.38384-.53221c.25187 1.442.27707 1.47523.50957 2.9172q1.132 6.95349 2.12905 13.90676c.85152 5.526 1.50954 11.0618 2.26467 16.58773l1.974 16.61657 1.72266 16.64562c.48389 5.555 1.055 11.11012 1.442 16.67481.38726 5.00342.7549 10.01641 1.04527 15.0294C478.68468 444.0793 478.74256 445.04708 478.791 446.00516zM434.49607 446.9343c0 1.442.00969 1.008 0 2.45011-.53208-.0775-1.0644-.14531-1.59673-.22269l-.24194-2.54674-2.18717-42.37876-2.10968-44.81756-.25163-3.18468c.46451-.01937.93871-.03875 1.40322-.06781.2032 1.72266.387 1.44288.5517 3.16542.44514 4.297.83215 8.58413 1.19034 12.881.49357 5.30349.80333 10.62624 1.2 15.93929l.91933 15.94886.64833 15.95854c.13563 5.32275.34851 10.64549.37757 15.97792C434.45756 439.66633 434.49607 443.30516 434.49607 446.9343zM352.94218 433.40487c.00945 1.96449.00945 3.93878-.00993 5.91307L351.5 439.10506l-.40639-6.00014L348.771 398.72966l-2.2356-36.13668-.2325-3.842c.48389-.02907.9777-.05813 1.46158-.08719.18382 1.2969.35819 2.58411.52264 3.88077.41631 3.31951.7934 6.64871 1.15159 9.97779.51271 4.32591.84207 8.67119 1.25791 12.9971l.9777 13.0166c.232 4.34529.50326 8.69069.70645 13.036.14508 4.34528.37757 8.69057.42577 13.04554Q352.90792 429.00159 352.94218 433.40487zM398.11769 446.03422l-1.54853-.22257-.64833-5.37118-4.6066-38.14948-4.75191-41.07217-.19816-3.25117 1.38361-.07749c.31 1.60653.24683 1.64475.53745 3.26085.68708 3.91952 1.32548 7.84873 1.945 11.77782.7934 4.81949 1.41291 9.65835 2.11936 14.4972l1.8486 14.52626 1.587 14.55521c.43545 4.86792.95808 9.71646 1.30659 14.59407.26131 3.21307.50326 6.426.70645 9.64866Q397.97227 443.39235 398.11769 446.03422zM379.39128 325.95028a7.17143 7.17143 0 01-1.08718-1.9563 10.67413 10.67413 0 01-.54514-2.04468 10.4849 10.4849 0 01-.13489-2.11145 7.08491 7.08491 0 01.41234-2.20068 7.08353 7.08353 0 011.08976 1.95581 10.48737 10.48737 0 01.54255 2.045A10.67529 10.67529 0 01379.801 323.75 7.17155 7.17155 0 01379.39128 325.95028z"/><path fill="#020202" d="M380.15792 440.61579a12.16089 12.16089 0 0021.08494 3.29269zM285.48059 232.37522a1.894 1.894 0 01.66509-3.69293l.10437.00474c1.73755.09227 3.47935.15653 5.2013.33244l2.59049.22469 1.29477.11235c.43332.04371.95218.11885 1.42331.19812a22.92107 22.92107 0 0110.68612 4.84618 23.37945 23.37945 0 016.97665 9.52 23.12205 23.12205 0 011.44363 5.7302l.27785 2.69327.27975 2.57478 1.09252 10.30206 2.1378 20.61028c.73244 6.86749 1.37416 13.747 2.04895 20.62208.66771 6.876 1.35148 13.75 1.9587 20.63391 1.26547 13.76133 2.47093 27.53045 3.49588 41.32344-2.27813-13.62795-4.37576-27.27977-6.41337-40.93938-1.04385-6.8265-2.0121-13.66292-2.99546-20.49746-.97675-6.83524-1.98658-13.66635-2.90568-20.50927l-2.81684-20.521-1.38456-10.26367-.33976-2.56675a20.52392 20.52392 0 00-.39457-2.44069 22.10784 22.10784 0 00-1.48663-4.179 21.39818 21.39818 0 00-12.97371-11.2266l-4.87383-1.35608c-1.67564-.43616-3.33144-.98384-4.992-1.5034z"/><path d="M245.82911,176.56014c.98279,1.77149,1.94037,3.5553,2.89444,5.34094.953,1.78626,1.925,3.563,2.85044,5.3628l2.806,5.38476c.928,1.79846,1.887,3.58167,2.78966,5.3927l-.21232-.25793a75.80464,75.80464,0,0,0,8.756,5.67663c1.52661.8324,3.068,1.63892,4.65,2.35889q2.35116,1.125,4.78253,2.0708a81.1628,81.1628,0,0,0,9.92157,3.21753,72.338,72.338,0,0,0,10.30756,1.79089l-.03461-.00122c2.58415.06678,5.16829.09339,7.75243.12793l-.0584.0055a5.95265,5.95265,0,0,1,3.37267.64538,16.40155,16.40155,0,0,1,2.86015,1.75073A23.66655,23.66655,0,0,1,314,220.11361a9.43849,9.43849,0,0,1,1.6131,3.00818,2.67571,2.67571,0,0,1,.09236.94787,2.42421,2.42421,0,0,1-.33625.90393c-.276.49976-.57377.96582-.8807,1.43213-.30992.46546-.6214.91956-.98674,1.37427a2.01077,2.01077,0,0,1-.39041.38855c-.17248.10693-.25285.14233-.38464.21826l-.72125.40015c-.48359.26636-.96984.53113-1.47043.78381-.25156.12561-.50456.24939-.77123.36524a3.2018,3.2018,0,0,1-.97415.2915l.47641-.30945a3.6057,3.6057,0,0,1-1.04645,1.35352,3.39252,3.39252,0,0,1-1.61738.647,5.1313,5.1313,0,0,1-1.64577-.09009,6.84611,6.84611,0,0,1-1.53627-.50964l.93315-.37634a4.62828,4.62828,0,0,1-.50905,1.092,3.19767,3.19767,0,0,1-.90582.92529,2.9829,2.9829,0,0,1-1.23825.46887,3.35285,3.35285,0,0,1-1.32629-.07336.62627.62627,0,0,1-.36753-.25489l-.04953-.0725a10.3693,10.3693,0,0,0-1.88186-2.20533,11.28018,11.28018,0,0,0-2.42537-1.62842,14.98092,14.98092,0,0,0-2.76209-1.05578,15.32665,15.32665,0,0,0-2.88067-.52063l-.02565-.00183-.05755-.00647c-6.42431-.98828-12.722-2.26355-19.0388-3.58228-6.30537-1.34839-12.58414-2.79321-18.83023-4.47314a33.77863,33.77863,0,0,1-9.15318-3.644,28.72978,28.72978,0,0,1-7.50342-6.38685,29.83153,29.83153,0,0,1-2.81474-4.03711,47.91735,47.91735,0,0,1-2.17006-4.36206l-3.99321-8.79785a.09683.09683,0,0,1,.17349-.08581l4.57051,8.5122c.76793,1.42456,1.45873,2.86353,2.33145,4.17566a28.65094,28.65094,0,0,0,2.87667,3.74854,29.40294,29.40294,0,0,0,7.33956,5.8258,26.87149,26.87149,0,0,0,4.26644,1.92713,44.92077,44.92077,0,0,0,4.55655,1.291c6.2194,1.54419,12.5092,2.907,18.78451,4.29224,6.27594,1.35352,12.57526,2.77319,18.86406,3.82849l-.08278-.00818a16.46713,16.46713,0,0,1,3.2677.63843,16.66718,16.66718,0,0,1,3.04779,1.26282,12.88449,12.88449,0,0,1,2.70923,1.93115,11.88785,11.88785,0,0,1,2.09943,2.60571l-.41675-.32727a2.01045,2.01045,0,0,0,.70383.04859,1.57871,1.57871,0,0,0,.67108-.21936,1.80553,1.80553,0,0,0,.53393-.50635,3.29276,3.29276,0,0,0,.38309-.74219l.01543-.03857a.65845.65845,0,0,1,.85592-.36658l.06206.02869a5.66068,5.66068,0,0,0,1.20116.45056,3.92453,3.92453,0,0,0,1.24081.12646,2.22,2.22,0,0,0,1.06675-.36963,2.49883,2.49883,0,0,0,.74812-.89685l.0392-.06469a.50979.50979,0,0,1,.43753-.245,2.82077,2.82077,0,0,0,.59762-.18017c.2408-.09437.48552-.203.72953-.314.48861-.22473.97653-.46777,1.46434-.71387l.73366-.37292.33862-.17456c-.01811.01916.12091-.11548.188-.195.3374-.38965.666-.82995.98031-1.26782.31322-.43982.62329-.88989.89476-1.34241a1.72339,1.72339,0,0,0,.27-.613,1.83736,1.83736,0,0,0-.05185-.683,8.84369,8.84369,0,0,0-1.45852-2.77807,23.05192,23.05192,0,0,0-4.54053-4.616,14.205,14.205,0,0,0-2.75562-1.67188,5.3293,5.3293,0,0,0-3.00534-.5675l-.0588.00549c-2.58411.03662-5.16822.06543-7.75231.1344l-.01417-.00024-.02083-.0011a72.35673,72.35673,0,0,1-10.5414-1.3534A65.02142,65.02142,0,0,1,264.9006,204.899a77.37165,77.37165,0,0,1-8.83783-5.94653l-.00654-.00513a.73911.73911,0,0,1-.206-.25318c-.89189-1.8164-1.72755-3.66064-2.5941-5.48962l-2.57779-5.49756c-.86912-1.82763-1.69174-3.67834-2.53335-5.51965-.84052-1.8418-1.67752-3.6853-2.48934-5.54138a.09689.09689,0,0,1,.17349-.08582Z"/><path fill="#020202" d="M297.28132 223.4753a14.08793 14.08793 0 014.14061 2.82984 11.443 11.443 0 011.61264 1.97046 3.70024 3.70024 0 01.69211 2.458 5.92833 5.92833 0 00-1.29939-2.009q-.81189-.88293-1.68176-1.72815C299.58883 225.8586 298.39152 224.75289 297.28132 223.4753zM302.047 221.84713a13.96276 13.96276 0 014.45543 3.0708 9.89363 9.89363 0 011.64488 2.22131 3.36043 3.36043 0 01.37407 2.72095 4.50091 4.50091 0 00-1.01865-2.32739 20.56773 20.56773 0 00-1.69331-1.94019C304.59555 224.34542 303.29469 223.16891 302.047 221.84713zM312.8473 227.79891c-.93156-1.32947-1.67428-2.69849-2.46655-4.03015-.38307-.67273-.79474-1.31885-1.21664-1.95483a6.49206 6.49206 0 00-1.54277-1.70887 3.73489 3.73489 0 012.12188 1.22425 10.12325 10.12325 0 011.47132 1.94934A12.70832 12.70832 0 01312.8473 227.79891z"/><polygon fill="#020202" points="292.375 227.104 296.156 228.524 289.103 231.121 285.587 230.488 292.375 227.104"/><polygon fill="#020202" points="309.965 216.357 313.144 214.691 314.69 218.483 313.131 219.544 309.965 216.357"/><path fill="#020202" d="M409.81506 313.06628c-.10183-4.08669-.37992-8.15908-.57508-12.2382-.24785-4.07476-.56871-8.14372-.8494-12.21588l-1.11474-12.1946c-.46545-4.05727-.83758-8.122-1.39495-12.17193q-.35016-2.78937-.73457-5.57615l-1.81339.50988-.16752-.33692 2.33319 30.00316 2.36249 28.22333 2.06171-.74922Q409.87425 314.69266 409.81506 313.06628zM426.94794 307.08753c-.10184-4.08668-.37993-8.15907-.57509-12.2382-.24785-4.07475-.56871-8.14371-.8494-12.21587l-1.11473-12.19461c-.46546-4.05727-.83759-8.122-1.39495-12.17192q-.35016-2.78937-.73457-5.57615l-1.81339.50988-.16752-.33693 2.33319 30.00317 2.36249 28.22332 2.06171-.74922Q427.00713 308.71392 426.94794 307.08753zM387.35082 313.06628c-.10183-4.08669-.37992-8.15908-.57508-12.2382-.24785-4.07476-.56871-8.14372-.8494-12.21588l-1.11474-12.1946c-.46545-4.05727-.83758-8.122-1.39495-12.17193q-.35014-2.78937-.73457-5.57615l-1.81339.50988-.16752-.33692 2.33319 30.00316 2.36249 28.22333 2.06171-.74922Q387.41 314.69266 387.35082 313.06628zM362.741 315.31211c-.10183-4.48242-.37992-8.94916-.57508-13.42329-.24785-4.46933-.56871-8.93231-.8494-13.39879l-1.11474-13.37548c-.46545-4.45015-.83758-8.90847-1.39495-13.3506q-.35016-3.05948-.73457-6.11611l-1.81339.55925-.16752-.36955 2.33319 32.90853L360.787 319.7024l2.06171-.82177Q362.80017 317.096 362.741 315.31211zM339.20394 313.81408c-.10183-4.55934-.37992-9.10273-.57508-13.65364-.24785-4.546-.56871-9.08559-.8494-13.62872l-1.11474-13.605c-.46545-4.52652-.83758-9.06135-1.39495-13.5797q-.35016-3.112-.73457-6.22106l-1.81339.56884-.16752-.37589 2.33319 33.47324L337.25 318.27971l2.06171-.83587Q339.26313 315.62856 339.20394 313.81408zM446.69964 301.41489c-.10184-4.08668-.37993-8.15907-.57509-12.2382-.24785-4.07475-.56871-8.14371-.8494-12.21587l-1.11473-12.1946c-.46546-4.05727-.83759-8.122-1.39495-12.17193-.23344-1.85958-.47916-2.496-.73457-4.35389l-1.81339.50988-.16752-.33693 2.33319 28.78091 2.36249 26.8161 2.06171-.74922S446.73886 302.49915 446.69964 301.41489z"/><path d="M411.41675 335.28037c-3.2237.25966-6.44716.5524-9.67063.92831l-.01653.00189a.14468.14468 0 00.01653.28837l8.91929.02457C410.90073 336.11606 411.1526 335.7007 411.41675 335.28037zM490.21737 334.74875q-4.888-.29167-9.77648-.48518c-4.372-.22316-8.744-.25943-13.11572-.39836l-13.11595-.12227c-4.372.0482-8.74373.05446-13.11571.13716-3.00373.09132-6.00746.14743-9.01119.24525a17.209 17.209 0 01-4.39845 2.44506l26.52535.07313 37.69419-.10231A1.79654 1.79654 0 00490.21737 334.74875zM448.95459 418.45661l-.387.03863-4.4613-37.09464-2.76769-25.22976 2.22568-.90008q.84208 3.60027 1.53861 7.21c.65825 3.05808 1.07457 6.14521 1.60665 9.2229.45506 3.07744.83215 6.16458 1.23854 9.25183.29062 3.10651.63888 6.20345.89075 9.30027.17389 3.1162.46451 6.22271.52263 9.34859A136.64535 136.64535 0 01448.95459 418.45661z"/></svg>