<svg xmlns="http://www.w3.org/2000/svg" data-name="Layer 1" viewBox="0 0 700 550"><path d="M354.34971 156.8546a18.19534 18.19534 0 014.02725-1.94541 21.41813 21.41813 0 014.37328-1.05121 21.10267 21.10267 0 012.27213-.14228 12.464 12.464 0 012.28845.25076 6.654 6.654 0 013.96146 2.17564 9.85205 9.85205 0 00-4.11526-1.02753 21.9844 21.9844 0 00-4.22182.21538C360.0998 155.67252 357.2882 156.33175 354.34971 156.8546zM359.15929 163.1074c2.77426 0 2.77886-4.31152 0-4.31152-2.77425 0-2.77885 4.31152 0 4.31152z"/><path d="M356.131,131.55986c-1.00537,4.47491-2.1119,8.921-3.27364,13.351-.60128,2.2088-1.16946,4.42783-1.798,6.62856l-.46268,1.65326a2.11,2.11,0,0,0,.01514,1.2098,2.8619,2.8619,0,0,0,.64707,1.1173l.30976.35678a3.64976,3.64976,0,0,1,.71689,1.55495,3.89442,3.89442,0,0,1-.79969,3.18416c-.24854.3024-.39532.44649-.59643.67877-.75338.84583-1.48542,1.70915-2.21611,2.57107a52.23735,52.23735,0,0,0-4.02953,5.39291,19.25339,19.25339,0,0,0-1.5694,2.873,4.834,4.834,0,0,0-.4821,2.79013,1.55265,1.55265,0,0,0,.2324.50263l.51473.61408c.17865.19327.36613.37128.54929.55736a5.18991,5.18991,0,0,0,.58666.44655,1.66233,1.66233,0,0,0,1.1439.34414,1.34044,1.34044,0,0,0,.90087-.65034l.04245-.07514a4.14574,4.14574,0,0,1,2.733-1.55875,4.6105,4.6105,0,0,1,1.53822.09988l.69467.20415.28614.07906a2.58509,2.58509,0,0,0,.27449.014c.73871.00994,1.16864-.94654,1.29168-1.81589a10.75059,10.75059,0,0,0,.07831-2.75622,9.518,9.518,0,0,1,.28689,2.79932,3.89046,3.89046,0,0,1-.32415,1.43484,1.65562,1.65562,0,0,1-1.25945.99308,2.19221,2.19221,0,0,1-.81724-.03941l-.66058-.12193a3.72615,3.72615,0,0,0-1.2356.04737,3.14447,3.14447,0,0,0-1.91874,1.26577l.04228-.07479a2.78011,2.78011,0,0,1-.66771.886,2.254,2.254,0,0,1-1.02373.53467,2.90962,2.90962,0,0,1-2.11395-.41315,7.20673,7.20673,0,0,1-1.49992-1.1749l-.62514-.66841a3.09974,3.09974,0,0,1-.55636-1.008,4.35536,4.35536,0,0,1-.10345-2.074,9.38246,9.38246,0,0,1,.50835-1.81459,20.93114,20.93114,0,0,1,1.60922-3.20037,51.20575,51.20575,0,0,1,4.10895-5.64875c.73069-.89847,1.49747-1.76425,2.27354-2.62.17567-.19789.43064-.46227.54391-.60309a1.94663,1.94663,0,0,0,.30555-.49952,1.98558,1.98558,0,0,0,.13275-1.144,1.80455,1.80455,0,0,0-.33924-.7642l-.25064-.29286a4.57041,4.57041,0,0,1-.98741-1.86431,3.8661,3.8661,0,0,1,.05585-2.17336l.51595-1.63612c.67631-2.185,1.413-4.35175,2.11652-6.52874C353.02353,140.182,354.52672,135.85653,356.131,131.55986Z"/><path d="M356.13105,131.55988s7.8378-15.31934,53.79583-10.866c0,0,12.46923.17814,11.7567,21.73209,0,0,9.441-10.33165,13.89429,3.20637s-10.50978,26.00726-13.71616,20.12891c0,0,1.42506,22.80088-13.35989,6.769,0,0,6.453-15.10937-3.57215-18.99441a4.2675,4.2675,0,0,0-5.52258,2.30181,15.67219,15.67219,0,0,0-.88065,5.7946c0,9.11668.71276,25.14855-10.33165,39.57723,0,0-10.08223,12.6364-23.00628,13.26839a12.32876,12.32876,0,0,1-10.12362-4.41357c-3.98446-4.808-9.26972-14.76835-8.01856-33.08076,0,0,11.57857,2.49385,12.113,3.02825s5.70022,13.00362,9.79726,11.7567,18.882-9.08473,18.882-14.785.08906-25.47285-3.20638-29.12456c0,0-7.12527.62346-7.65967-3.56263-.42751-3.34886,1.767-7.72375-2.62782-11.02705a9.70766,9.70766,0,0,0-7.44264-1.71774c-3.31486.55612-8.68229,1.20189-10.771.00836Z"/><path d="M402.80162 174.84594a6.99047 6.99047 0 003.32071-.099 3.21447 3.21447 0 001.28168-.84531 6.74573 6.74573 0 00.55631-.63736c.17766-.23274.32935-.48812.54151-.73414a5.01879 5.01879 0 01-.11777.93858 3.55269 3.55269 0 01-.38736.88876 2.9461 2.9461 0 01-1.54414 1.28829 3.43932 3.43932 0 01-1.98447.08713A3.60211 3.60211 0 01402.80162 174.84594zM342.18391 175.99464a18.399 18.399 0 00-5.16385-2.44652 27.00472 27.00472 0 00-5.61-1.06045 34.84964 34.84964 0 00-5.68589.02128c-.94431.04959-1.87986.23292-2.81715.32953-.93385.14351-1.862.32853-2.79073.48941l.6152-.51818a27.6036 27.6036 0 00-.887 4.81023c-.19806 1.64945-.25555 3.31931-.30911 4.99028a65.12548 65.12548 0 00.62858 10.05852l.37193 2.50774.51309 2.48482c.30263 1.66811.84016 3.27925 1.26928 4.91748.48783 1.62185 1.07537 3.21352 1.62127 4.81631q.94428 2.3604 1.93833 4.69783l-.22157-.22345a37.41338 37.41338 0 005.11414 1.45425 44.27772 44.27772 0 005.25823.77929 35.34547 35.34547 0 005.2794.13572 34.30069 34.30069 0 005.20309-.63572l-.51573.30555a45.74465 45.74465 0 004.22346-6.70423 59.9117 59.9117 0 003.27188-7.27634 57.131 57.131 0 002.33588-7.62989 73.47939 73.47939 0 001.41682-7.87884l.34777.63432-7.66334-4.62012C347.38144 178.89144 344.7851 177.43982 342.18391 175.99464zm.10573-.15983c2.62394 1.4049 5.25285 2.80336 7.93153 4.11141l8.01217 3.93018.3666.17988-.01871.45479a48.64131 48.64131 0 01-.93087 8.18638 53.98521 53.98521 0 01-5.67062 15.45915 47.31516 47.31516 0 01-4.595 6.92066l-.20842.25666-.30754.049a31.88476 31.88476 0 01-5.51548.52239 36.908 36.908 0 01-5.492-.36134 42.6189 42.6189 0 01-5.35969-1.12092 40.89737 40.89737 0 01-5.17309-1.78524l-.166-.07158-.05573-.1521-1.76074-4.80409c-.51783-1.62489-1.08706-3.23194-1.58647-4.86151l-.717-2.45529-.36292-1.22694-.315-1.24045-.643-2.48067-.54257-2.50786a59.46693 59.46693 0 01-1.26232-10.22167c.00883-.86362-.02006-1.72817.02082-2.59313.05918-.86455.08725-1.73009.20005-2.59347a24.19339 24.19339 0 011.07122-5.17817l.15368-.46333.46181-.05509c.9739-.116 1.94289-.25426 2.91621-.34976.98017-.03959 1.95436-.12959 2.93382-.10357a36.88335 36.88335 0 015.82975.46561 34.16251 34.16251 0 015.62244 1.48788A21.68134 21.68134 0 01342.28964 175.83481z"/><path d="M325.58735 173.981c.08257.02783.11678.00813.16818.04532l.20228.12637.4028.25257.80455.50192 1.61332.982c1.07682.64589 2.15827 1.27495 3.25276 1.87249 2.186 1.20419 4.418 2.27306 6.67371 3.29978a29.545 29.545 0 007.06932 2.35669 17.99183 17.99183 0 007.38592-.53806l-.172.95794c-2.18945-1.19747-4.42117-2.34792-6.62716-3.50539-2.22062-1.138-4.48176-2.17886-6.74044-3.19212a55.3571 55.3571 0 00-6.89248-2.64821 20.11314 20.11314 0 00-3.57258-.742 11.1822 11.1822 0 00-1.81729-.048 7.25669 7.25669 0 00-.906.11859C326.14793 173.88642 325.93694 173.89858 325.58735 173.981zm-.19-.02486a5.27576 5.27576 0 01.906-.53864 7.83078 7.83078 0 01.92636-.32286 9.09424 9.09424 0 011.9395-.32257 16.32164 16.32164 0 013.89515.2514 35.24 35.24 0 017.36762 2.24307 60.20845 60.20845 0 016.79482 3.48164 58.05016 58.05016 0 016.34682 4.20609l1.04314.7904-1.21525.16771a33.88122 33.88122 0 01-7.704.12047 38.51559 38.51559 0 01-7.57358-1.48934 30.88911 30.88911 0 01-6.86664-3.51252c-.53771-.35117-1.06355-.71964-1.57038-1.114-.5169-.37941-1.02011-.7766-1.50419-1.19806-.49766-.4021-.96233-.84724-1.43074-1.28209l-.67795-.68168c-.11409-.11135-.21842-.23561-.32649-.35386l-.16064-.17894A1.113 1.113 0 01325.39735 173.95618zM318.7685 181.5207c-1.1711.90607-2.33348 1.80582-3.452 2.733a21.92417 21.92417 0 00-3.04873 2.94412 3.22011 3.22011 0 00-.75362 1.49126.71856.71856 0 00.0376.26719c.05176.155.09193.31146.15088.4652a9.8469 9.8469 0 00.37765.9228 16.57925 16.57925 0 002.27307 3.44457l.39023.45537-.29234.37649c-.69841.89952-1.38044 1.839-1.98254 2.79815-.14778.242-.27473.49034-.39327.73584a2.66055 2.66055 0 00-.13357.35058.42051.42051 0 00-.02725.11356c-.02222.00456.01334.09667.02585.148a11.70485 11.70485 0 00.65783 1.5522 10.20405 10.20405 0 001.99453 2.71283 4.48327 4.48327 0 002.76675 1.33583l.25695.01076.1807.26485a19.82471 19.82471 0 012.97031 6.4188 12.96532 12.96532 0 01.30175 1.82395c.0672.85911.00731.66532.25626.96426a3.84087 3.84087 0 001.1201.65268 10.42583 10.42583 0 001.48.49286 49.02821 49.02821 0 006.55377 1.16291c2.23757.283 4.50233.5049 6.76581.72472l-.31643.19819c.43052-.67777.84941-1.36133 1.30273-2.02775l.17152.08544c-.25882.76332-.5521 1.50945-.83367 2.26137l-.0648.173-.25192.02532a54.79863 54.79863 0 01-6.902.23111 32.8867 32.8867 0 01-6.95821-.85467 12.41 12.41 0 01-1.75665-.60046 4.942 4.942 0 01-1.74962-1.16478 4.7 4.7 0 01-.38561-.51958 3.05791 3.05791 0 01-.25421-.67321 5.91444 5.91444 0 01-.06678-1.013 11.11007 11.11007 0 00-.17742-1.55869 27.35716 27.35716 0 00-2.20266-6.18851l.43736.27543a5.569 5.569 0 01-3.18165-1.98055 14.70177 14.70177 0 01-1.96892-2.96751 13.28044 13.28044 0 01-.74052-1.62606.95833.95833 0 01-.06678-.27292.87527.87527 0 01.01853-.31526 3.17447 3.17447 0 01.13152-.47543c.10585-.28859.22661-.5642.34865-.83484.47807-1.09116 1.02829-2.11769 1.59852-3.1561l.09789.83157a11.64225 11.64225 0 01-2.93025-3.64288 9.37106 9.37106 0 01-.46917-1.11513c-.06527-.19257-.1124-.39467-.16813-.59157a2.46836 2.46836 0 01-.068-.82472 4.33762 4.33762 0 011.22583-2.38026 16.61166 16.61166 0 013.60668-2.8326 25.74385 25.74385 0 014.00491-1.99558z"/><path d="M319.26171 190.63075c-.59935.31561-1.25771.40134-1.64478.64093a2.83422 2.83422 0 00-.54327.40783c-.18526.17789-.38508.37491-.5742.572-.38689.39368-.77034.80788-1.19209 1.2184a10.87958 10.87958 0 01-1.39355 1.234 4.6954 4.6954 0 01.46959-1.86962 5.54472 5.54472 0 011.08993-1.5884 5.08274 5.08274 0 01.76794-.64175 2.44185 2.44185 0 011.063-.405 2.4155 2.4155 0 011.052.0807A5.59875 5.59875 0 01319.26171 190.63075zM317.29828 204.95021a5.846 5.846 0 01.00486-1.78214 7.06045 7.06045 0 01.15227-.84116 2.83528 2.83528 0 01.38193-.948 2.51841 2.51841 0 011.76857-1.13917 2.2385 2.2385 0 01.99677.08246 5.00486 5.00486 0 01.84619.35286c-.5607.31491-1.17835.40894-1.52174.63923a2.753 2.753 0 00-.8846.84671c-.1945.264-.37924.87578-.67947 1.3601A5.84639 5.84639 0 01317.29828 204.95021zM266.07734 369.757a31.5958 31.5958 0 00-1.0584 6.04132 7.05569 7.05569 0 00.33268 2.89692 1.47975 1.47975 0 002.07255.80034 9.45223 9.45223 0 002.5771-1.36992 29.72723 29.72723 0 002.36891-1.89542c1.5222-1.3532 2.95715-2.81622 4.36947-4.29889l.18146-.19052.24649-.00877a16.44232 16.44232 0 015.11566.69835 25.96835 25.96835 0 014.72 1.86875c1.50091.76584 2.89645 1.58816 4.36228 2.21424a16.67822 16.67822 0 004.51625 1.30594 17.35948 17.35948 0 004.69-.03415 23.41582 23.41582 0 004.63982-1.08887 48.47251 48.47251 0 008.75936-4.1431l.18415-.10585.17444-.00234a81.28144 81.28144 0 018.152.30093 44.47894 44.47894 0 018.05644 1.36735 19.77376 19.77376 0 011.95676.66491c.65011.26 1.2608.58315 1.85933.85273 1.204.57157 2.46278 1.06689 3.69481 1.59823q3.73126 1.538 7.49908 2.99317c5.04063 1.89284 10.11214 3.70732 15.22517 5.39665q7.67112 2.52892 15.42189 4.79842c10.32916 3.0306 20.7082 5.87688 31.17426 8.33766 10.47547 2.40441 20.99895 4.62275 31.636 6.08132l.04193.00573.07848.01825a37.08706 37.08706 0 0012.4879.77882 24.03281 24.03281 0 0011.59767-4.3355 19.52194 19.52194 0 004.39345-4.44193 10.98063 10.98063 0 00.88508-1.30442c.26707-.4538.56093-.89332.80782-1.35975a27.54054 27.54054 0 001.31648-2.888 40.33264 40.33264 0 002.63119-12.51071l.19152.007a40.59721 40.59721 0 01-1.99822 12.812 28.44293 28.44293 0 01-1.252 3.03774c-.23877.49426-.5269.96466-.789 1.44875a11.77957 11.77957 0 01-.87659 1.401 20.75728 20.75728 0 01-4.48351 4.8776 25.06312 25.06312 0 01-12.21071 4.92543 37.069 37.069 0 01-6.60734.2987 34.93991 34.93991 0 01-6.58973-.88244l.12006.02386a288.465 288.465 0 01-31.826-6.143q-15.72768-3.88959-31.10508-8.98467c-2.55955-.85168-5.11969-1.69939-7.66375-2.59458-2.55-.8773-5.09689-1.7622-7.629-2.68909-5.089-1.78161-10.1401-3.66744-15.1895-5.55688-2.52658-.94058-5.04724-1.89811-7.55616-2.89014-1.25092-.51333-2.50242-.99987-3.74954-1.54735-.63917-.26163-1.23238-.54818-1.84254-.766a18.91188 18.91188 0 00-1.89033-.56608 43.66442 43.66442 0 00-7.90311-1.04606c-2.66283-.13778-5.35577-.14421-8.00223-.01509l.35818-.10807a44.99867 44.99867 0 01-9.00233 4.43093 20.94513 20.94513 0 01-10.10524 1.19122 18.30826 18.30826 0 01-4.92391-1.4939c-1.55595-.692-2.99306-1.56688-4.41526-2.31541a24.48377 24.48377 0 00-4.42661-1.825 16.88482 16.88482 0 00-4.6152-.77637l.42766-.19918c-1.48285 1.4546-2.98815 2.88932-4.59637 4.22439a30.73552 30.73552 0 01-2.52611 1.88337 10.11648 10.11648 0 01-2.9175 1.40618 2.83415 2.83415 0 01-1.77776-.0524 2.14288 2.14288 0 01-1.20484-1.34677 7.6202 7.6202 0 01-.21964-3.2141 28.03229 28.03229 0 011.44641-6.05349zM417.18347 355.92862c-.4014-.05053-40.35033-5.10216-53.98383-7.21581l.11416-.73356c13.6232 2.11179 53.5609 7.16248 53.96324 7.21394z"/><path d="M473.34183,384.41805a12.49118,12.49118,0,0,0,2.15792-.84045,4.57109,4.57109,0,0,0,1.71717-1.29039,1.19811,1.19811,0,0,0-.2028-1.569,6.517,6.517,0,0,0-1.66325-1.30314,26.28558,26.28558,0,0,0-4.08223-1.92711c-1.42483-.54619-2.85733-1.07928-4.32362-1.54863-2.9323-.93309-5.88291-1.85857-8.86024-2.71622l-8.92034-2.66207c-2.966-.92794-5.93945-1.84571-8.89906-2.82183-2.94727-1.01391-5.90834-2.00278-8.81345-3.1699a78.00335,78.00335,0,0,1-8.58146-3.879,25.32482,25.32482,0,0,1-3.97708-2.619,7.47332,7.47332,0,0,1-1.61735-1.80442,2.60859,2.60859,0,0,1-.372-1.17262,1.86,1.86,0,0,1,.32631-1.13671,1.89179,1.89179,0,0,0,.404,2.06395,7.02482,7.02482,0,0,0,1.72974,1.40688,27.169,27.169,0,0,0,4.11194,1.98711c2.8406,1.15636,5.78337,2.09623,8.72286,3.03891,2.95528.90139,5.90565,1.83319,8.88485,2.6892l8.91766,2.66944c5.93243,1.85108,11.89013,3.67106,17.71455,6.029a38.64846,38.64846,0,0,1,8.435,4.41959,7.61418,7.61418,0,0,1,1.76723,1.81588,2.68654,2.68654,0,0,1,.45637,1.35589,1.905,1.905,0,0,1-.54327,1.3539,5.06451,5.06451,0,0,1-2.17266,1.19144A12.69722,12.69722,0,0,1,473.34183,384.41805Z"/><path d="M472.11758,387.90175a24.70782,24.70782,0,0,0,4.08-.21813,15.42487,15.42487,0,0,0,3.88878-.9863,6.67818,6.67818,0,0,0,3.00136-2.25459,5.21562,5.21562,0,0,0,.718-1.64454,6.4793,6.4793,0,0,0,.104-1.83319l-.26211-2.02009a11.88751,11.88751,0,0,1-.09052-2.19049,17.31441,17.31441,0,0,1,.236-2.17752c.16538-.704.31321-1.42173.534-2.10769a36.89569,36.89569,0,0,1,3.65831-7.64516c1.36408-2.35587,2.93189-4.74847,3.30323-7.00248l.03684-.40373c.0138-.13509.0324-.24982.03778-.47111.0138-.40081.03895-.78022.07649-1.12022.061-.71379.14713-1.396.224-2.09l.51789-4.1145c.7111-5.46952,1.51214-10.91483,2.32383-16.36019.84221-5.44074,1.68384-10.88161,2.46184-16.33206.79039-5.44881,1.51974-10.90757,2.081-16.384a245.74309,245.74309,0,0,0,1.3484-32.94388,91.41356,91.41356,0,0,0-1.81459-16.20218c-.61812-2.54909-1.58021-5.16531-2.46207-7.7503l-1.38981-3.85726-1.50349-3.80311c-.47765-1.27828-1.07577-2.5-1.62571-3.74351-.55706-1.24034-1.10139-2.48664-1.75307-3.67761l-1.88009-3.60884-2.08828-3.48633c-.65952-1.185-1.46969-2.272-2.22816-3.39194-.782-1.1032-1.4836-2.26559-2.33026-3.321-1.70383-2.101-3.29527-4.29567-5.19186-6.23395a106.8975,106.8975,0,0,0-25.33006-20.33966A204.84406,204.84406,0,0,0,421.08172,174.105l.09094-.27268a161.6954,161.6954,0,0,1,30.73911,12.40094,116.20458,116.20458,0,0,1,14.058,8.99491,73.55357,73.55357,0,0,1,6.46055,5.33484l3.09136,2.84031,2.87768,3.06212c7.67253,8.20451,13.31035,18.156,17.33778,28.51955l1.46559,3.90849,1.32139,3.94918c.81192,2.65406,1.68711,5.24455,2.28616,8.07124a84.32161,84.32161,0,0,1,1.16,16.66661c-.029,5.5373-.37543,11.05091-.71847,16.55668q-.55439,8.25726-1.27554,16.49533l-1.41975,16.48434q-.76455,8.23857-1.67974,16.46217c-.643,5.47659-1.38407,10.94131-2.17319,16.38756l-.56537,4.078c-.08315.67391-.17766,1.35729-.24187,2.01541-.04233.34432-.06385.6518-.07894.93917l-.04772.55812-.06608.62409a13.75462,13.75462,0,0,1-1.63741,4.2169c-.702,1.24419-1.44781,2.41844-2.17622,3.58147a38.2695,38.2695,0,0,0-3.73036,7.09733c-.2269.61508-.38035,1.247-.55883,1.87389a17.3416,17.3416,0,0,0-.29122,1.91565,10.24025,10.24025,0,0,0-.0255,1.93249l.06573.9725c.029.37356.08924.73858.088,1.11682a7.93807,7.93807,0,0,1-.26082,2.26664,6.11309,6.11309,0,0,1-1.06221,2.05483,7.79539,7.79539,0,0,1-3.68591,2.40254,19.441,19.441,0,0,1-8.34071.57519Z"/><path d="M456.77556 233.98572a30.66285 30.66285 0 00-21.36971 19.32009c-.2073.5849-.47133 1.1367-.63274 1.74629l-.51981 1.8074-.52953 1.80261-.45572 1.84266c-.297 1.231-.62286 2.44985-.89631 3.68948l-.811 3.72194c-1.08262 4.96368-2.07915 9.95829-3.03177 14.96114l-1.44677 7.50475-1.399 7.51715-2.81745 15.03857c-1.87465 10.02975-3.77726 20.05815-5.87758 30.06462.917-10.18448 2.2036-20.32119 3.66492-30.43216.70812-5.05964 1.54442-10.099 2.35-15.14488.8525-5.03806 1.76576-10.06694 2.7054-15.09319 1.01151-5.01367 2.0212-10.02887 3.20592-15.01792l.918-3.73591c.30929-1.24478.67484-2.48348 1.00958-3.72481l.513-1.86056.60689-1.85255.6207-1.84658c.1935-.61748.50338-1.214.74981-1.82068l.78485-1.80956.95384-1.73062a26.7183 26.7183 0 012.13828-3.31294 29.8641 29.8641 0 015.46706-5.62337A28.492 28.492 0 01456.77556 233.98572zM473.34183 233.98572a15.21291 15.21291 0 015.93846.53373 20.98833 20.98833 0 015.48787 2.38114 20.32811 20.32811 0 014.62532 3.80562 16.2764 16.2764 0 013.18662 5.03619c-1.68687-1.11665-3.13329-2.30517-4.68941-3.34808-1.50711-1.09011-3.05434-2.07892-4.617-3.03944-1.55963-.96811-3.16522-1.86652-4.815-2.73832C476.80757 235.733 475.12748 234.88939 473.34183 233.98572zM346.69005 214.49294c.41221 3.21452.72636 6.43576 1.08454 9.654q.51184 4.82906.94326 9.66373c.58368 6.44559 1.122 12.89433 1.57893 19.34868l-1.67852-.50525 7.33335-9.77063c2.41693-3.27744 4.87222-6.52669 7.24265-9.83332 2.38108-3.29334 4.77357-6.6002 6.86284-10.0436a56.37519 56.37519 0 002.57663-5.48244c.78437-1.87793 1.55781-3.76317 2.23254-5.68975a60.34188 60.34188 0 01-1.71121 5.88735l-1.00922 2.898a24.14868 24.14868 0 01-1.19507 2.87084 117.4833 117.4833 0 01-6.44617 10.47553c-2.30541 3.37586-4.63713 6.73067-7.05692 10.0201-2.4074 3.29948-4.83865 6.57546-7.34178 9.80741l-1.51337 1.95406-.1652-2.45932c-.43379-6.45594-.78607-12.91748-1.09308-19.38219q-.2307-4.84845-.39275-9.70168C346.85437 220.96747 346.7232 217.7336 346.69005 214.49294z"/><path d="M308.4808 278.34055a68.17673 68.17673 0 0012.5179-2.23968 53.61317 53.61317 0 005.90916-2.04073 40.53989 40.53989 0 005.56431-2.73394 45.35426 45.35426 0 005.10239-3.484 44.87672 44.87672 0 004.52625-4.24164 55.98092 55.98092 0 007.26125-10.37665 32.33286 32.33286 0 01-5.53239 11.80569 35.17725 35.17725 0 01-4.50081 4.89339 36.15063 36.15063 0 01-5.41449 3.8876 38.37612 38.37612 0 01-12.41983 4.469A35.97392 35.97392 0 01308.4808 278.34055zM374.86627 211.83438q-1.89156 11.24748-4.05515 22.43022c-1.41828 7.4609-2.92218 14.90278-4.408 22.34724l-4.55239 22.31052c-.74806 3.71965-1.51326 7.43633-2.22483 11.16213-.36613 1.86091-.7263 3.72386-1.03671 5.59378-.16245.93466-.30116 1.87126-.42643 2.81055a22.14282 22.14282 0 00-.2504 2.83072 32.55372 32.55372 0 01.17315-5.70566c.16883-1.89722.38766-3.78772.6128-5.67776q.73851-5.65965 1.68173-11.28423c1.22589-7.5044 2.65979-14.968 4.146-22.41952 1.52466-7.44375 3.10949-14.87424 4.82765-22.27548Q371.89521 222.84765 374.86627 211.83438zM388.25293 201.1333a34.49 34.49 0 015.01835 3.96825 33.403 33.403 0 014.2507 4.84707 22.93958 22.93958 0 013.05961 5.77191 15.11288 15.11288 0 01.64081 6.56424l-.52256-.61579a22.21712 22.21712 0 005.91243-.11853 11.82819 11.82819 0 002.8347-.79613 6.39022 6.39022 0 002.34716-1.60647 15.42484 15.42484 0 001.38986-2.5554c.40655-.90689.78034-1.82887 1.12853-2.76687.69928-1.8698 1.39495-3.745 2.04815-5.63518 1.35952-3.76194 2.54874-7.58668 3.74469-11.39517.60537-1.901 1.18326-3.81229 1.715-5.72267.2821-.95572.5018-1.91354.72946-2.8699a14.94022 14.94022 0 00.39233-2.769l.17755.39467c-.96952-1.209-1.90817-2.42546-2.81874-3.67422-.45256-.62578-.88022-1.27109-1.29173-1.92939a7.54318 7.54318 0 01-1.0242-2.119l.18731-.04035a9.115 9.115 0 001.30127 1.82044c.48929.58058 1.01671 1.13344 1.52968 1.69629 1.02607 1.12455 2.08939 2.22769 3.16294 3.30084l.15836.15824.0193.23678a14.7145 14.7145 0 01-.16485 3.21961c-.15585 1.01671-.34637 2.026-.57227 3.01545-.42058 1.99471-.98385 3.93913-1.53981 5.88536-1.1725 3.87305-2.60762 7.65095-4.1069 11.40177-.79812 1.85752-1.57349 3.724-2.4995 5.5304-.44327.90981-.925 1.80594-1.41507 2.698a16.52323 16.52323 0 01-1.72343 2.59324 10.79752 10.79752 0 01-5.59793 2.532c-1.001.19766-2.00892.3531-3.02376.45a28.35685 28.35685 0 01-3.072.1852l-.53782.00076.01508-.61672a16.06378 16.06378 0 00-1.11747-5.888 27.29823 27.29823 0 00-2.80288-5.4239 44.8452 44.8452 0 00-3.75182-4.96356c-1.35735-1.58711-2.7802-3.14124-4.29679-4.612z"/><path d="M381.96576 207.30743c1.10239 2.18388 2.01144 4.42912 2.89517 6.6816.86782 2.258 1.70413 4.52409 2.393 6.841.68262 2.31862 1.20039 4.69871 1.9895 6.98324a45.289 45.289 0 002.88985 6.62722 27.78493 27.78493 0 001.82523 3.01732 5.09214 5.09214 0 00.49748.59614c.13123.17233.39637.25853.17023.17567a.43009.43009 0 00-.23765.05631 1.76532 1.76532 0 00.08345-.15959 2.34035 2.34035 0 00.19613-.66525 7.55053 7.55053 0 00-.42683-3.12206c-.32737-1.1304-.67-2.31342-.92935-3.55165a12.80632 12.80632 0 01-.22473-3.8948 7.21114 7.21114 0 011.52185-3.71574 4.91039 4.91039 0 01.6349-.74414 9.40824 9.40824 0 01.68806-.66508 6.30023 6.30023 0 011.63-1.11314 2.358 2.358 0 012.09149-.06258 2.40408 2.40408 0 011.1018 1.60805l-.18263.05807a2.2108 2.2108 0 00-1.16817-1.1001 1.70958 1.70958 0 00-1.37589.35842A8.99939 8.99939 0 00395.849 224.037c-1.18028 1.84816-1.06578 4.09948-.53684 6.33027.23456 1.13033.58853 2.26675.86432 3.47814a9.01794 9.01794 0 01.24543 4.03193 3.96491 3.96491 0 01-.387 1.04478 2.369 2.369 0 01-.42333.58666 1.40292 1.40292 0 01-1.03759.41672 1.66506 1.66506 0 01-.52859-.12725c-.11918-.06479-.23637-.136-.348-.21146a3.20624 3.20624 0 01-.44163-.43461 5.1268 5.1268 0 01-.5862-.85531 22.75479 22.75479 0 01-1.49378-3.4275c-.84215-2.29623-1.59348-4.59637-2.51447-6.83891-.90156-2.248-2.00453-4.4262-2.91358-6.67564a71.41159 71.41159 0 01-2.29482-6.89342 67.62147 67.62147 0 01-1.66934-7.09435zM421.07336 182.36706a12.56169 12.56169 0 015.40174-2.42055 3.85935 3.85935 0 011.59419.14257 2.6436 2.6436 0 011.35413 1.0004 5.3806 5.3806 0 01.76122 3.05908 22.25492 22.25492 0 01-1.00221 5.89495c-.51163 1.91009-1.153 3.77006-1.83834 5.61179a174.95316 174.95316 0 01-10.00372 21.23141c-1.89892 3.41557-3.865 6.79084-5.85554 10.14934l-6.04933 10.02448c-.99022 1.68553-2.056 3.31071-2.89546 5.0573a52.53994 52.53994 0 00-2.2847 5.34174 76.93877 76.93877 0 00-3.00113 11.23809c-.76987 3.8089-1.3491 7.65908-1.98874 11.50131-.603 3.84959-1.10087 7.7203-1.69232 11.573-1.13548 7.71445-2.25693 15.43061-3.4834 23.12921-2.49652 15.39038-5.11707 30.76011-8.12036 46.07856L381.78 350.951c1.80126-15.50212 3.98532-30.95291 6.2933-46.38305 1.17589-7.71165 2.45669-15.40581 3.72352-23.10161.63666-3.848 1.2525-7.69686 1.97161-11.5323.72426-3.83515 1.53512-7.66083 2.46166-11.46406a95.90293 95.90293 0 013.3937-11.24557 53.18733 53.18733 0 012.3888-5.374c.8846-1.75407 1.91032-3.428 2.88838-5.10648 3.90913-6.74348 7.5006-13.668 11.03-20.60388 3.52165-6.93616 7.075-13.86355 10.03-21.02567.70485-1.79963 1.43109-3.59493 2.00863-5.43011a21.26286 21.26286 0 001.21016-5.55127 4.80534 4.80534 0 00-.46561-2.5668 2.29835 2.29835 0 00-2.1909-.97011 8.85611 8.85611 0 00-2.73886.66362 18.695 18.695 0 00-2.60341 1.26589zM447.44633 340.68672a89.94368 89.94368 0 009.50964-4.26211 69.01174 69.01174 0 008.68129-5.39694 24.96589 24.96589 0 002.0295-1.53594l1.98067-1.60261c1.22806-1.16864 2.55336-2.25132 3.70761-3.51066a88.10864 88.10864 0 006.75576-7.91773 31.84734 31.84734 0 01-5.0604 9.38637 36.30668 36.30668 0 01-3.56463 4.05526 42.7906 42.7906 0 01-4.15959 3.45007 39.19877 39.19877 0 01-9.45806 5.11192A32.25949 32.25949 0 01447.44633 340.68672zM444.8407 355.56067a49.614 49.614 0 009.4632-2.79447 57.04164 57.04164 0 008.61439-4.39935c.6842-.42479 1.33624-.90227 2.00845-1.348.33479-.22521.67835-.43865 1.00677-.67345l.95835-.7432 1.93582-1.47261c.60794-.53731 1.2301-1.06186 1.86021-1.58285l.94256-.78712c.29169-.286.57946-.57625.88314-.853l1.81156-1.686c1.19893-1.14291 2.30155-2.38283 3.57925-3.52159a46.80246 46.80246 0 01-2.49482 4.42485l-1.50782 2.05635c-.24953.34695-.515.6804-.77648 1.01823l-.86186.94478c-.5735.633-1.15489 1.26262-1.75056 1.87928-.61332.59776-1.27916 1.14033-1.92114 1.7112l-.98005.83747c-.33876.264-.69408.50737-1.0408.762-.70777.48918-1.39835 1.00554-2.12489 1.46741A34.03419 34.03419 0 01454.9981 354.89 24.15089 24.15089 0 01444.8407 355.56067zM492.17648 359.33489c-.14409 5.85407-.56946 11.67235-1.09378 17.478-.23567 2.90628-.57344 5.79946-.86327 8.69883l-1.0222 8.6786-1.176 8.65918c-.44643 2.87937-.83882 5.76577-1.33835 8.63836-.94291 5.75255-1.9871 11.49224-3.31469 17.196.14047-5.85454.56432-11.67294 1.08958-17.47859.23438-2.90639.576-5.7991.8635-8.69883l1.02618-8.67812 1.17975-8.6586c.44432-2.87973.84057-5.76554 1.33893-8.63836C489.80973 370.77894 490.85241 365.039 492.17648 359.33489zM242.24737 330.26558l-5.87325 1.188.05749 5.58583q3.00372-1.02042 6.07447-1.79167C242.40071 333.59027 242.31445 331.92316 242.24737 330.26558zm.30661 5.79658c-2.02161.44076-4.0624.81444-6.12237 1.09227l.08625 8.3548q3.23364-1.36533 6.55354-2.45278C242.87017 340.72824 242.69772 338.39044 242.554 336.06216zm1.16893 14.1035q-.33062-3.133-.5845-6.27565-3.27671.99165-6.62055 1.74378l.06708 6.23728.02871 5.37507a26.29532 26.29532 0 014.93432-1.81085c.90063-.20117 1.83-.34491 2.72107-.57484C244.087 353.29871 243.88577 351.737 243.72291 350.16566zm1.14016 9.97389c-.16292-1.65752-.3545-3.315-.55572-4.963-.85274.29707-1.6863.68982-2.52944 1.01566a25.53865 25.53865 0 01-5.16426 1.24548l.06707 10.36676a37.95605 37.95605 0 015.902-2.32816c.90063-.24912 1.80126-.45987 2.70189-.6994C245.16008 363.22478 245.02593 361.68222 244.86307 360.13955zm.81437 9.9932c-.115-1.64793-.22993-3.30545-.35449-4.9535-.83356.33544-1.648.709-2.48155 1.054a37.50421 37.50421 0 01-6.16068 1.77249l.02878 4.15819c0 1.79179.00959 3.57375.01912 5.36554a29.65966 29.65966 0 015.21215-1.648c.96771-.182 1.95459-.28737 2.91271-.49813.3928-.08631.78566-.20128 1.17846-.31625C245.917 373.41914 245.78282 371.7808 245.67744 370.13275zm1.50425 18.95156c-.43116-4.56064-.79525-9.12128-1.121-13.6914-.38327.08608-.75694.182-1.13057.28737-.939.27777-1.85874.66116-2.78814.9773a28.68147 28.68147 0 01-5.41338 1.08267c.01918 4.80976.03836 9.61952.00959 14.41969C240.18746 391.01972 243.675 390.00418 247.18169 389.08431zm.0862 1.04431c0-.067-.00953-.134-.00953-.20117-3.478.90058-6.9847 1.70548-10.52015 2.3857v.09579c.00959 4.19655-.01912 8.3931-.05749 12.58965 3.88036-1.37 7.80867-2.59645 11.7561-3.72708Q247.80447 395.70966 247.26789 390.12862zm1.27431 11.97644c-3.92825 1.121-7.87568 2.14617-11.86148 3.02768-.01912 2.39529-.0383 4.781-.05748 7.17628l12.89626-2.42394C249.165 407.2885 248.8488 404.70152 248.5422 402.10506zm1.02519-73.315l-7.21458 1.45635c.22035 1.61922.4407 3.248.64192 4.86719.93894-.22994 1.88746-.45029 2.836-.6611 1.45635-.27784 2.91271-.50777 4.35947-.80479C249.96978 332.02853 249.759 330.40932 249.56739 328.7901zm.68028 5.21215c-1.418.38321-2.81686.83356-4.23491 1.22636-.96765.25871-1.94494.48865-2.92224.709.27789 2.28985.51742 4.57017.74736 6.86008.79519-.25871 1.59045-.50783 2.39529-.73776 1.66711-.46947 3.3534-.86227 5.01092-1.35092Q250.71236 337.36042 250.24767 334.00225zm2.29945 14.38132c-.45029-2.45277-.85268-4.90554-1.24554-7.35832-1.62881.55567-3.21926 1.20718-4.82888 1.79167-.84315.28743-1.69589.56526-2.54862.83356.21081 2.14617.412 4.29234.58449 6.4481.115 1.533.20117 3.066.297 4.59894q1.06349-.33051 2.09827-.74735a55.16793 55.16793 0 015.25046-1.85869q.53173-.14377 1.06349-.28743C252.98787 350.66389 252.75793 349.52373 252.54712 348.38357zm1.89711 9.8111c-.3162-1.82044-.68029-3.6313-1.04438-5.45168-.31619.115-.63233.22035-.94852.32573a54.24685 54.24685 0 01-5.3942 1.37968c-.75689.15334-1.49465.345-2.23242.56538.10543 1.70535.2204 3.40124.36409 5.09712.12456 1.52337.2683 3.04686.42157 4.57023.07667-.01918.16286-.03836.23953-.05754 1.07308-.33532 2.11745-.74724 3.15224-1.18806 1.95453-.85273 3.93784-1.5905 5.94027-2.28032C254.77954 360.16833 254.62627 359.18144 254.44423 358.19467zm1.57126 9.87811q-.43113-2.96049-.90063-5.9115c-1.96413.65145-3.93784 1.25519-5.94027 1.7629-1.09227.28737-2.17494.594-3.22885.98689-.09584.03824-.20122.0862-.3066.13415.18205 1.6767.36409 3.363.56526 5.0397.182 1.59038.3449 3.18089.52695 4.77139.31619-.10549.63239-.20116.94858-.31625 1.84916-.68022 3.73662-1.21683 5.63373-1.71495 1.10179-.25871 2.20365-.48865 3.315-.68034C256.42753 370.79391 256.21672 369.43335 256.01549 368.07278zm.25871-40.64319l-1.418.28742-5.18344 1.05391q.53175 2.38575 1.0156 4.781c1.6001-.35449 3.18095-.78566 4.76187-1.24553.55572-.16287 1.121-.30661 1.68629-.46947C256.83951 330.371 256.552 328.90507 256.2742 327.42959zm.99642 5.05882c-.56526.10538-1.13057.22994-1.69582.33538-1.61922.297-3.22885.62274-4.81935 1.03472h-.00959c.44075 2.20365.85273 4.40737 1.25512 6.611q2.15577-.68982 4.28281-1.47554c.72818-.27783 1.46589-.52695 2.20366-.79519C258.06587 336.30169 257.65389 334.39505 257.27062 332.48841zm-.53654 40.3367c-1.04432.36409-2.09828.68982-3.16177.98677-1.90664.48865-3.81328.92946-5.76782 1.236-.345.05754-.68987.12456-1.03478.19158q.76165 6.798 1.3701 13.59572c.68981-.17252 1.38928-.3545 2.07909-.5269 2.3474-.54619 4.71392-1.01566 7.05172-1.5905.53654-.13415 1.07314-.28748 1.60969-.42163Q257.7305 379.57028 256.73408 372.82511zm5.07806-13.42321a58.89353 58.89353 0 01-6.17986 2.58687 1.6309 1.6309 0 01-.20123.067c.3545 1.97377.71859 3.95713 1.10186 5.93079.26824 1.351.51736 2.70184.77607 4.05293.594-.09591 1.18806-.17251 1.80126-.23953C257.67307 369.855 260.00128 363.56009 261.81214 359.4019zm-1.32221-12.63754q-.963-3.93784-1.84915-7.88533c-.72818.20122-1.45636.42157-2.19413.6132-1.47547.39286-2.94142.824-4.38818 1.29349.44075 2.48149.87192 4.97263 1.26472 7.4637.17245 1.13057.32578 2.27073.48865 3.41089a35.56048 35.56048 0 013.80375-.73776l.01912.04789c.91981-1.0539 1.97371-2.23237 3.05639-3.45878C260.61449 347.26254 260.557 347.01348 260.48993 346.76436zm-1.351 41.05529c-.07661-.40246-.13415-.80491-.20117-1.20724-.53654.134-1.06355.25871-1.5905.40233-2.31863.642-4.61813 1.38922-6.92716 2.06-.72818.21087-1.46595.40245-2.20366.594.01913.12456.02872.24912.03831.37368q.48867 5.51869.86233 11.03751c.67063-.1821 1.34132-.37368 2.012-.55566 2.50067-.65157 5.02052-1.22642 7.51166-1.897.7856-.22047 1.56167-.45041 2.3378-.68034Q260.00122 392.888 259.139 387.81965zm1.90664 10.45295c-.77607.21076-1.55214.42163-2.31863.65157-2.47195.74724-4.91513 1.59051-7.3775 2.36652-.72817.21087-1.45629.42163-2.17488.63239q.25868 3.96661.45029 7.94281l2.6444-.49823q5.31756-1.00614 10.61594-2.06Q261.92225 402.79495 261.0456 398.2726zm2.16535-42.4924c-.10538.067-.21076.12456-.31614.1821-4.39777 2.37611-7.10926.8718-8.11527-.40245-.47906-.594.84315-2.28991 2.78809-4.51274a37.25405 37.25405 0 01-3.63123 1.51383c.25871 1.85869.52695 3.72709.83355 5.58589.15333.95812.32579 1.92571.48865 2.89341.01918-.00959.02877-.00959.0383-.01906a60.51527 60.51527 0 016.52477-1.73425l.01918.048c.46947-1.0828.91022-2.03132 1.22642-2.69236.08619-.182.16286-.34491.22993-.47906.16287-.33544.26825-.54619.28743-.594C263.46007 355.63646 263.33551 355.71318 263.211 355.7802zm3.30551-25.33258c-.43116.115-.87186.22994-1.303.33538-2.46237.58443-4.94391 1.11138-7.435 1.6q.733 2.77374 1.42758 5.55706 3.49233-1.25034 7.023-2.3857c.47905-.14374.95811-.27783 1.42758-.42157Q267.06742 332.79023 266.51646 330.44762zm1.38928 5.61454c-.45988.16292-.91022.3162-1.3701.46953-2.36658.75689-4.75227 1.45629-7.14756 2.13658.65151 2.63482 1.2839 5.26963 1.87792 7.914.01913.06708.02872.14368.0479.21076a49.32075 49.32075 0 004.14866-5.3942 9.93075 9.93075 0 013.0468-3.0468C268.29854 337.58559 268.09737 336.8287 267.90574 336.06216zm.28742 43.66134c-6.01693 2.45271-2.51026-9.00631-2.22283-9.94525a.162.162 0 00.01918-.048c-.00959 0-.00959.00959-.01918.01918-3.957 2.81692-5.98823 3.14265-6.82178 2.09834l.00959.04783c-.57485.24912-1.15934.46947-1.75337.68993q1.27911 6.71167 2.42406 13.45187c1.47548-.39275 2.94142-.81438 4.40731-1.24548 1.6-.48865 3.20972-.93905 4.80976-1.39893C268.75848 382.17621 268.471 380.94991 268.19316 379.7235zm1.40846 6.05524c-.12456-.53649-.24912-1.073-.37368-1.61916q-2.42883.58929-4.85765 1.1401-2.25637.50314-4.484 1.06361c.06707.43111.15327.86221.22034 1.29343q.848 5.03011 1.59051 10.08887 2.18443-.661 4.369-1.35086c1.897-.6228 3.81328-1.20723 5.71992-1.79167C271.03879 391.6617 270.301 388.72981 269.60162 385.77874zm-2.90312-56.35631c2.50067-.53654 5.02052-1.02519 7.55955-1.39881-.45994-1.3318-.91981-2.66359-1.37969-4.00492l-16.48919 3.38212q.618 2.15575 1.20723 4.31152 3.66478-1.03473 7.3871-1.92582c.4311-.09579.87186-.19164 1.31261-.27783-.28742-1.25513-.58449-2.51026-.86233-3.775l.09585-.01918C265.932 326.94094 266.31523 328.17689 266.6985 329.42243zm5.28882 65.97583c-1.92582.50782-3.84205 1.01565-5.77747 1.49471-1.49465.38315-2.97972.77613-4.46479 1.17847.4407 3.06592.86227 6.14143 1.24554 9.21706q2.63006-.51735 5.24086-1.04431l6.35232-1.27437Q273.23282 400.19849 271.98732 395.39826zm2.32821-67.22137c-2.42406.80484-4.86724 1.50425-7.3296 2.14617q.70419 2.29953 1.37009 4.59894c2.51026-.73771 5.0397-1.42758 7.58832-2.012C275.39821 331.32907 274.85208 329.7578 274.31553 328.17689zm1.6863 4.88643c-2.43365.99641-4.90555 1.90664-7.3871 2.75931.20123.69947.4024 1.39887.594 2.09828a16.68938 16.68938 0 017.82779-1.87787C276.69164 335.04656 276.34673 334.05973 276.00183 333.06332zm1.715 39.321c-.32578 0-.49824.00959-.49824.00959-3.63123 3.73667-6.26605 5.88284-8.144 6.908.30661 1.27437.61321 2.54873.91022 3.823q4.06724-1.14981 8.17276-2.23237c.56525-.13427 1.14016-.27789 1.70541-.42163C279.13483 377.77861 278.41624 375.07666 277.71683 372.3843zM280.62 383.29737c-.17251-.62292-.33537-1.25519-.50783-1.878-.56531.15333-1.13057.31614-1.69588.46947q-4.1103 1.06349-8.23977 2.05038c.12456.5366.25871 1.07309.38327 1.60957q1.03472 4.39783 1.98324 8.81473c2.77856-.84314 5.55712-1.6767 8.3548-2.47189.66111-.18211 1.3318-.36421 2.00243-.54619C282.12414 388.67227 281.35766 385.98961 280.62 383.29737zm11.09494-5.76788c-2.06951-.83367-3.78457-1.91623-5.40379-2.73072a22.298 22.298 0 00-7.67446-2.35693c.72812 2.59646 1.4563 5.19291 2.1653 7.79908 3.65047-.8911 7.32-1.72466 11.00879-2.45272zm.14374.39275c-3.57375 1.16887-7.18587 2.22289-10.80757 3.23843.17245.6228.35449 1.25507.527 1.878q1.07787 4.03836 2.09821 8.096c3.92831-1.0635 7.87574-2.06956 11.85195-2.97025zm3.71749 10.37646c-3.86123 1.34127-7.75118 2.57728-11.66031 3.75574q1.27911 5.11643 2.43365 10.25179l-.09584.02877q-1.59525-5.01571-3.08511-10.06021c-.6611.20117-1.3222.40245-1.99289.60373q-4.21092 1.19262-8.45059 2.32816 1.0348 4.85764 1.96418 9.744l25.0451-5.03011zm-53.32875-58.03312l-5.87325 1.188.05749 5.58583q3.00372-1.02042 6.07447-1.79167C242.40071 333.59027 242.31445 331.92316 242.24737 330.26558zm.30661 5.79658c-2.02161.44076-4.0624.81444-6.12237 1.09227l.08625 8.3548q3.23364-1.36533 6.55354-2.45278C242.87017 340.72824 242.69772 338.39044 242.554 336.06216zm1.16893 14.1035q-.33062-3.133-.5845-6.27565-3.27671.99165-6.62055 1.74378l.06708 6.23728.02871 5.37507a26.29532 26.29532 0 014.93432-1.81085c.90063-.20117 1.83-.34491 2.72107-.57484C244.087 353.29871 243.88577 351.737 243.72291 350.16566zm1.14016 9.97389c-.16292-1.65752-.3545-3.315-.55572-4.963-.85274.29707-1.6863.68982-2.52944 1.01566a25.53865 25.53865 0 01-5.16426 1.24548l.06707 10.36676a37.95605 37.95605 0 015.902-2.32816c.90063-.24912 1.80126-.45987 2.70189-.6994C245.16008 363.22478 245.02593 361.68222 244.86307 360.13955zm.81437 9.9932c-.115-1.64793-.22993-3.30545-.35449-4.9535-.83356.33544-1.648.709-2.48155 1.054a37.50421 37.50421 0 01-6.16068 1.77249l.02878 4.15819c0 1.79179.00959 3.57375.01912 5.36554a29.65966 29.65966 0 015.21215-1.648c.96771-.182 1.95459-.28737 2.91271-.49813.3928-.08631.78566-.20128 1.17846-.31625C245.917 373.41914 245.78282 371.7808 245.67744 370.13275zm1.50425 18.95156c-.43116-4.56064-.79525-9.12128-1.121-13.6914-.38327.08608-.75694.182-1.13057.28737-.939.27777-1.85874.66116-2.78814.9773a28.68147 28.68147 0 01-5.41338 1.08267c.01918 4.80976.03836 9.61952.00959 14.41969C240.18746 391.01972 243.675 390.00418 247.18169 389.08431zm.0862 1.04431c0-.067-.00953-.134-.00953-.20117-3.478.90058-6.9847 1.70548-10.52015 2.3857v.09579c.00959 4.19655-.01912 8.3931-.05749 12.58965 3.88036-1.37 7.80867-2.59645 11.7561-3.72708Q247.80447 395.70966 247.26789 390.12862zm1.27431 11.97644c-3.92825 1.121-7.87568 2.14617-11.86148 3.02768-.01912 2.39529-.0383 4.781-.05748 7.17628l12.89626-2.42394C249.165 407.2885 248.8488 404.70152 248.5422 402.10506zm1.02519-73.315l-7.21458 1.45635c.22035 1.61922.4407 3.248.64192 4.86719.93894-.22994 1.88746-.45029 2.836-.6611 1.45635-.27784 2.91271-.50777 4.35947-.80479C249.96978 332.02853 249.759 330.40932 249.56739 328.7901zm.68028 5.21215c-1.418.38321-2.81686.83356-4.23491 1.22636-.96765.25871-1.94494.48865-2.92224.709.27789 2.28985.51742 4.57017.74736 6.86008.79519-.25871 1.59045-.50783 2.39529-.73776 1.66711-.46947 3.3534-.86227 5.01092-1.35092Q250.71236 337.36042 250.24767 334.00225zm2.29945 14.38132c-.45029-2.45277-.85268-4.90554-1.24554-7.35832-1.62881.55567-3.21926 1.20718-4.82888 1.79167-.84315.28743-1.69589.56526-2.54862.83356.21081 2.14617.412 4.29234.58449 6.4481.115 1.533.20117 3.066.297 4.59894q1.06349-.33051 2.09827-.74735a55.16793 55.16793 0 015.25046-1.85869q.53173-.14377 1.06349-.28743C252.98787 350.66389 252.75793 349.52373 252.54712 348.38357zm1.89711 9.8111c-.3162-1.82044-.68029-3.6313-1.04438-5.45168-.31619.115-.63233.22035-.94852.32573a54.24685 54.24685 0 01-5.3942 1.37968c-.75689.15334-1.49465.345-2.23242.56538.10543 1.70535.2204 3.40124.36409 5.09712.12456 1.52337.2683 3.04686.42157 4.57023.07667-.01918.16286-.03836.23953-.05754 1.07308-.33532 2.11745-.74724 3.15224-1.18806 1.95453-.85273 3.93784-1.5905 5.94027-2.28032C254.77954 360.16833 254.62627 359.18144 254.44423 358.19467zm1.57126 9.87811q-.43113-2.96049-.90063-5.9115c-1.96413.65145-3.93784 1.25519-5.94027 1.7629-1.09227.28737-2.17494.594-3.22885.98689-.09584.03824-.20122.0862-.3066.13415.18205 1.6767.36409 3.363.56526 5.0397.182 1.59038.3449 3.18089.52695 4.77139.31619-.10549.63239-.20116.94858-.31625 1.84916-.68022 3.73662-1.21683 5.63373-1.71495 1.10179-.25871 2.20365-.48865 3.315-.68034C256.42753 370.79391 256.21672 369.43335 256.01549 368.07278zm.25871-40.64319l-1.418.28742-5.18344 1.05391q.53175 2.38575 1.0156 4.781c1.6001-.35449 3.18095-.78566 4.76187-1.24553.55572-.16287 1.121-.30661 1.68629-.46947C256.83951 330.371 256.552 328.90507 256.2742 327.42959zm.99642 5.05882c-.56526.10538-1.13057.22994-1.69582.33538-1.61922.297-3.22885.62274-4.81935 1.03472h-.00959c.44075 2.20365.85273 4.40737 1.25512 6.611q2.15577-.68982 4.28281-1.47554c.72818-.27783 1.46589-.52695 2.20366-.79519C258.06587 336.30169 257.65389 334.39505 257.27062 332.48841zm-.53654 40.3367c-1.04432.36409-2.09828.68982-3.16177.98677-1.90664.48865-3.81328.92946-5.76782 1.236-.345.05754-.68987.12456-1.03478.19158q.76165 6.798 1.3701 13.59572c.68981-.17252 1.38928-.3545 2.07909-.5269 2.3474-.54619 4.71392-1.01566 7.05172-1.5905.53654-.13415 1.07314-.28748 1.60969-.42163Q257.7305 379.57028 256.73408 372.82511zm5.07806-13.42321a58.89353 58.89353 0 01-6.17986 2.58687 1.6309 1.6309 0 01-.20123.067c.3545 1.97377.71859 3.95713 1.10186 5.93079.26824 1.351.51736 2.70184.77607 4.05293.594-.09591 1.18806-.17251 1.80126-.23953C257.67307 369.855 260.00128 363.56009 261.81214 359.4019zm-1.32221-12.63754q-.963-3.93784-1.84915-7.88533c-.72818.20122-1.45636.42157-2.19413.6132-1.47547.39286-2.94142.824-4.38818 1.29349.44075 2.48149.87192 4.97263 1.26472 7.4637.17245 1.13057.32578 2.27073.48865 3.41089a35.56048 35.56048 0 013.80375-.73776l.01912.04789c.91981-1.0539 1.97371-2.23237 3.05639-3.45878C260.61449 347.26254 260.557 347.01348 260.48993 346.76436zm-1.351 41.05529c-.07661-.40246-.13415-.80491-.20117-1.20724-.53654.134-1.06355.25871-1.5905.40233-2.31863.642-4.61813 1.38922-6.92716 2.06-.72818.21087-1.46595.40245-2.20366.594.01913.12456.02872.24912.03831.37368q.48867 5.51869.86233 11.03751c.67063-.1821 1.34132-.37368 2.012-.55566 2.50067-.65157 5.02052-1.22642 7.51166-1.897.7856-.22047 1.56167-.45041 2.3378-.68034Q260.00122 392.888 259.139 387.81965zm1.90664 10.45295c-.77607.21076-1.55214.42163-2.31863.65157-2.47195.74724-4.91513 1.59051-7.3775 2.36652-.72817.21087-1.45629.42163-2.17488.63239q.25868 3.96661.45029 7.94281l2.6444-.49823q5.31756-1.00614 10.61594-2.06Q261.92225 402.79495 261.0456 398.2726zm2.16535-42.4924c-.10538.067-.21076.12456-.31614.1821-4.39777 2.37611-7.10926.8718-8.11527-.40245-.47906-.594.84315-2.28991 2.78809-4.51274a37.25405 37.25405 0 01-3.63123 1.51383c.25871 1.85869.52695 3.72709.83355 5.58589.15333.95812.32579 1.92571.48865 2.89341.01918-.00959.02877-.00959.0383-.01906a60.51527 60.51527 0 016.52477-1.73425l.01918.048c.46947-1.0828.91022-2.03132 1.22642-2.69236.08619-.182.16286-.34491.22993-.47906.16287-.33544.26825-.54619.28743-.594C263.46007 355.63646 263.33551 355.71318 263.211 355.7802zm3.30551-25.33258c-.43116.115-.87186.22994-1.303.33538-2.46237.58443-4.94391 1.11138-7.435 1.6q.733 2.77374 1.42758 5.55706 3.49233-1.25034 7.023-2.3857c.47905-.14374.95811-.27783 1.42758-.42157Q267.06742 332.79023 266.51646 330.44762zm1.38928 5.61454c-.45988.16292-.91022.3162-1.3701.46953-2.36658.75689-4.75227 1.45629-7.14756 2.13658.65151 2.63482 1.2839 5.26963 1.87792 7.914.01913.06708.02872.14368.0479.21076a49.32075 49.32075 0 004.14866-5.3942 9.93075 9.93075 0 013.0468-3.0468C268.29854 337.58559 268.09737 336.8287 267.90574 336.06216zm.28742 43.66134c-6.01693 2.45271-2.51026-9.00631-2.22283-9.94525a.162.162 0 00.01918-.048c-.00959 0-.00959.00959-.01918.01918-3.957 2.81692-5.98823 3.14265-6.82178 2.09834l.00959.04783c-.57485.24912-1.15934.46947-1.75337.68993q1.27911 6.71167 2.42406 13.45187c1.47548-.39275 2.94142-.81438 4.40731-1.24548 1.6-.48865 3.20972-.93905 4.80976-1.39893C268.75848 382.17621 268.471 380.94991 268.19316 379.7235zm1.40846 6.05524c-.12456-.53649-.24912-1.073-.37368-1.61916q-2.42883.58929-4.85765 1.1401-2.25637.50314-4.484 1.06361c.06707.43111.15327.86221.22034 1.29343q.848 5.03011 1.59051 10.08887 2.18443-.661 4.369-1.35086c1.897-.6228 3.81328-1.20723 5.71992-1.79167C271.03879 391.6617 270.301 388.72981 269.60162 385.77874zm-2.90312-56.35631c2.50067-.53654 5.02052-1.02519 7.55955-1.39881-.45994-1.3318-.91981-2.66359-1.37969-4.00492l-16.48919 3.38212q.618 2.15575 1.20723 4.31152 3.66478-1.03473 7.3871-1.92582c.4311-.09579.87186-.19164 1.31261-.27783-.28742-1.25513-.58449-2.51026-.86233-3.775l.09585-.01918C265.932 326.94094 266.31523 328.17689 266.6985 329.42243zm5.28882 65.97583c-1.92582.50782-3.84205 1.01565-5.77747 1.49471-1.49465.38315-2.97972.77613-4.46479 1.17847.4407 3.06592.86227 6.14143 1.24554 9.21706q2.63006-.51735 5.24086-1.04431l6.35232-1.27437Q273.23282 400.19849 271.98732 395.39826zm2.32821-67.22137c-2.42406.80484-4.86724 1.50425-7.3296 2.14617q.70419 2.29953 1.37009 4.59894c2.51026-.73771 5.0397-1.42758 7.58832-2.012C275.39821 331.32907 274.85208 329.7578 274.31553 328.17689zm1.6863 4.88643c-2.43365.99641-4.90555 1.90664-7.3871 2.75931.20123.69947.4024 1.39887.594 2.09828a16.68938 16.68938 0 017.82779-1.87787C276.69164 335.04656 276.34673 334.05973 276.00183 333.06332zm1.715 39.321c-.32578 0-.49824.00959-.49824.00959-3.63123 3.73667-6.26605 5.88284-8.144 6.908.30661 1.27437.61321 2.54873.91022 3.823q4.06724-1.14981 8.17276-2.23237c.56525-.13427 1.14016-.27789 1.70541-.42163C279.13483 377.77861 278.41624 375.07666 277.71683 372.3843zM280.62 383.29737c-.17251-.62292-.33537-1.25519-.50783-1.878-.56531.15333-1.13057.31614-1.69588.46947q-4.1103 1.06349-8.23977 2.05038c.12456.5366.25871 1.07309.38327 1.60957q1.03472 4.39783 1.98324 8.81473c2.77856-.84314 5.55712-1.6767 8.3548-2.47189.66111-.18211 1.3318-.36421 2.00243-.54619C282.12414 388.67227 281.35766 385.98961 280.62 383.29737zm11.09494-5.76788c-2.06951-.83367-3.78457-1.91623-5.40379-2.73072a22.298 22.298 0 00-7.67446-2.35693c.72812 2.59646 1.4563 5.19291 2.1653 7.79908 3.65047-.8911 7.32-1.72466 11.00879-2.45272zm.14374.39275c-3.57375 1.16887-7.18587 2.22289-10.80757 3.23843.17245.6228.35449 1.25507.527 1.878q1.07787 4.03836 2.09821 8.096c3.92831-1.0635 7.87574-2.06956 11.85195-2.97025zm3.71749 10.37646c-3.86123 1.34127-7.75118 2.57728-11.66031 3.75574q1.27911 5.11643 2.43365 10.25179l-.09584.02877q-1.59525-5.01571-3.08511-10.06021c-.6611.20117-1.3222.40245-1.99289.60373q-4.21092 1.19262-8.45059 2.32816 1.0348 4.85764 1.96418 9.744l25.0451-5.03011zm-53.32875-58.03312l-5.87325 1.188.05749 5.58583q3.00372-1.02042 6.07447-1.79167C242.40071 333.59027 242.31445 331.92316 242.24737 330.26558zm.30661 5.79658c-2.02161.44076-4.0624.81444-6.12237 1.09227l.08625 8.3548q3.23364-1.36533 6.55354-2.45278C242.87017 340.72824 242.69772 338.39044 242.554 336.06216zm1.16893 14.1035q-.33062-3.133-.5845-6.27565-3.27671.99165-6.62055 1.74378l.06708 6.23728.02871 5.37507a26.29532 26.29532 0 014.93432-1.81085c.90063-.20117 1.83-.34491 2.72107-.57484C244.087 353.29871 243.88577 351.737 243.72291 350.16566zm1.14016 9.97389c-.16292-1.65752-.3545-3.315-.55572-4.963-.85274.29707-1.6863.68982-2.52944 1.01566a25.53865 25.53865 0 01-5.16426 1.24548l.06707 10.36676a37.95605 37.95605 0 015.902-2.32816c.90063-.24912 1.80126-.45987 2.70189-.6994C245.16008 363.22478 245.02593 361.68222 244.86307 360.13955zm.81437 9.9932c-.115-1.64793-.22993-3.30545-.35449-4.9535-.83356.33544-1.648.709-2.48155 1.054a37.50421 37.50421 0 01-6.16068 1.77249l.02878 4.15819c0 1.79179.00959 3.57375.01912 5.36554a29.65966 29.65966 0 015.21215-1.648c.96771-.182 1.95459-.28737 2.91271-.49813.3928-.08631.78566-.20128 1.17846-.31625C245.917 373.41914 245.78282 371.7808 245.67744 370.13275zm1.50425 18.95156c-.43116-4.56064-.79525-9.12128-1.121-13.6914-.38327.08608-.75694.182-1.13057.28737-.939.27777-1.85874.66116-2.78814.9773a28.68147 28.68147 0 01-5.41338 1.08267c.01918 4.80976.03836 9.61952.00959 14.41969C240.18746 391.01972 243.675 390.00418 247.18169 389.08431zm.0862 1.04431c0-.067-.00953-.134-.00953-.20117-3.478.90058-6.9847 1.70548-10.52015 2.3857v.09579c.00959 4.19655-.01912 8.3931-.05749 12.58965 3.88036-1.37 7.80867-2.59645 11.7561-3.72708Q247.80447 395.70966 247.26789 390.12862zm1.27431 11.97644c-3.92825 1.121-7.87568 2.14617-11.86148 3.02768-.01912 2.39529-.0383 4.781-.05748 7.17628l12.89626-2.42394C249.165 407.2885 248.8488 404.70152 248.5422 402.10506zm1.02519-73.315l-7.21458 1.45635c.22035 1.61922.4407 3.248.64192 4.86719.93894-.22994 1.88746-.45029 2.836-.6611 1.45635-.27784 2.91271-.50777 4.35947-.80479C249.96978 332.02853 249.759 330.40932 249.56739 328.7901zm.68028 5.21215c-1.418.38321-2.81686.83356-4.23491 1.22636-.96765.25871-1.94494.48865-2.92224.709.27789 2.28985.51742 4.57017.74736 6.86008.79519-.25871 1.59045-.50783 2.39529-.73776 1.66711-.46947 3.3534-.86227 5.01092-1.35092Q250.71236 337.36042 250.24767 334.00225zm2.29945 14.38132c-.45029-2.45277-.85268-4.90554-1.24554-7.35832-1.62881.55567-3.21926 1.20718-4.82888 1.79167-.84315.28743-1.69589.56526-2.54862.83356.21081 2.14617.412 4.29234.58449 6.4481.115 1.533.20117 3.066.297 4.59894q1.06349-.33051 2.09827-.74735a55.16793 55.16793 0 015.25046-1.85869q.53173-.14377 1.06349-.28743C252.98787 350.66389 252.75793 349.52373 252.54712 348.38357zm1.89711 9.8111c-.3162-1.82044-.68029-3.6313-1.04438-5.45168-.31619.115-.63233.22035-.94852.32573a54.24685 54.24685 0 01-5.3942 1.37968c-.75689.15334-1.49465.345-2.23242.56538.10543 1.70535.2204 3.40124.36409 5.09712.12456 1.52337.2683 3.04686.42157 4.57023.07667-.01918.16286-.03836.23953-.05754 1.07308-.33532 2.11745-.74724 3.15224-1.18806 1.95453-.85273 3.93784-1.5905 5.94027-2.28032C254.77954 360.16833 254.62627 359.18144 254.44423 358.19467zm1.57126 9.87811q-.43113-2.96049-.90063-5.9115c-1.96413.65145-3.93784 1.25519-5.94027 1.7629-1.09227.28737-2.17494.594-3.22885.98689-.09584.03824-.20122.0862-.3066.13415.18205 1.6767.36409 3.363.56526 5.0397.182 1.59038.3449 3.18089.52695 4.77139.31619-.10549.63239-.20116.94858-.31625 1.84916-.68022 3.73662-1.21683 5.63373-1.71495 1.10179-.25871 2.20365-.48865 3.315-.68034C256.42753 370.79391 256.21672 369.43335 256.01549 368.07278zm.25871-40.64319l-1.418.28742-5.18344 1.05391q.53175 2.38575 1.0156 4.781c1.6001-.35449 3.18095-.78566 4.76187-1.24553.55572-.16287 1.121-.30661 1.68629-.46947C256.83951 330.371 256.552 328.90507 256.2742 327.42959zm.99642 5.05882c-.56526.10538-1.13057.22994-1.69582.33538-1.61922.297-3.22885.62274-4.81935 1.03472h-.00959c.44075 2.20365.85273 4.40737 1.25512 6.611q2.15577-.68982 4.28281-1.47554c.72818-.27783 1.46589-.52695 2.20366-.79519C258.06587 336.30169 257.65389 334.39505 257.27062 332.48841zm-.53654 40.3367c-1.04432.36409-2.09828.68982-3.16177.98677-1.90664.48865-3.81328.92946-5.76782 1.236-.345.05754-.68987.12456-1.03478.19158q.76165 6.798 1.3701 13.59572c.68981-.17252 1.38928-.3545 2.07909-.5269 2.3474-.54619 4.71392-1.01566 7.05172-1.5905.53654-.13415 1.07314-.28748 1.60969-.42163Q257.7305 379.57028 256.73408 372.82511zm5.07806-13.42321a58.89353 58.89353 0 01-6.17986 2.58687 1.6309 1.6309 0 01-.20123.067c.3545 1.97377.71859 3.95713 1.10186 5.93079.26824 1.351.51736 2.70184.77607 4.05293.594-.09591 1.18806-.17251 1.80126-.23953C257.67307 369.855 260.00128 363.56009 261.81214 359.4019zm-1.32221-12.63754q-.963-3.93784-1.84915-7.88533c-.72818.20122-1.45636.42157-2.19413.6132-1.47547.39286-2.94142.824-4.38818 1.29349.44075 2.48149.87192 4.97263 1.26472 7.4637.17245 1.13057.32578 2.27073.48865 3.41089a35.56048 35.56048 0 013.80375-.73776l.01912.04789c.91981-1.0539 1.97371-2.23237 3.05639-3.45878C260.61449 347.26254 260.557 347.01348 260.48993 346.76436zm-1.351 41.05529c-.07661-.40246-.13415-.80491-.20117-1.20724-.53654.134-1.06355.25871-1.5905.40233-2.31863.642-4.61813 1.38922-6.92716 2.06-.72818.21087-1.46595.40245-2.20366.594.01913.12456.02872.24912.03831.37368q.48867 5.51869.86233 11.03751c.67063-.1821 1.34132-.37368 2.012-.55566 2.50067-.65157 5.02052-1.22642 7.51166-1.897.7856-.22047 1.56167-.45041 2.3378-.68034Q260.00122 392.888 259.139 387.81965zm1.90664 10.45295c-.77607.21076-1.55214.42163-2.31863.65157-2.47195.74724-4.91513 1.59051-7.3775 2.36652-.72817.21087-1.45629.42163-2.17488.63239q.25868 3.96661.45029 7.94281l2.6444-.49823q5.31756-1.00614 10.61594-2.06Q261.92225 402.79495 261.0456 398.2726zm2.16535-42.4924c-.10538.067-.21076.12456-.31614.1821-4.39777 2.37611-7.10926.8718-8.11527-.40245-.47906-.594.84315-2.28991 2.78809-4.51274a37.25405 37.25405 0 01-3.63123 1.51383c.25871 1.85869.52695 3.72709.83355 5.58589.15333.95812.32579 1.92571.48865 2.89341.01918-.00959.02877-.00959.0383-.01906a60.51527 60.51527 0 016.52477-1.73425l.01918.048c.46947-1.0828.91022-2.03132 1.22642-2.69236.08619-.182.16286-.34491.22993-.47906.16287-.33544.26825-.54619.28743-.594C263.46007 355.63646 263.33551 355.71318 263.211 355.7802zm3.30551-25.33258c-.43116.115-.87186.22994-1.303.33538-2.46237.58443-4.94391 1.11138-7.435 1.6q.733 2.77374 1.42758 5.55706 3.49233-1.25034 7.023-2.3857c.47905-.14374.95811-.27783 1.42758-.42157Q267.06742 332.79023 266.51646 330.44762zm1.38928 5.61454c-.45988.16292-.91022.3162-1.3701.46953-2.36658.75689-4.75227 1.45629-7.14756 2.13658.65151 2.63482 1.2839 5.26963 1.87792 7.914.01913.06708.02872.14368.0479.21076a49.32075 49.32075 0 004.14866-5.3942 9.93075 9.93075 0 013.0468-3.0468C268.29854 337.58559 268.09737 336.8287 267.90574 336.06216zm.28742 43.66134c-6.01693 2.45271-2.51026-9.00631-2.22283-9.94525a.162.162 0 00.01918-.048c-.00959 0-.00959.00959-.01918.01918-3.957 2.81692-5.98823 3.14265-6.82178 2.09834l.00959.04783c-.57485.24912-1.15934.46947-1.75337.68993q1.27911 6.71167 2.42406 13.45187c1.47548-.39275 2.94142-.81438 4.40731-1.24548 1.6-.48865 3.20972-.93905 4.80976-1.39893C268.75848 382.17621 268.471 380.94991 268.19316 379.7235zm1.40846 6.05524c-.12456-.53649-.24912-1.073-.37368-1.61916q-2.42883.58929-4.85765 1.1401-2.25637.50314-4.484 1.06361c.06707.43111.15327.86221.22034 1.29343q.848 5.03011 1.59051 10.08887 2.18443-.661 4.369-1.35086c1.897-.6228 3.81328-1.20723 5.71992-1.79167C271.03879 391.6617 270.301 388.72981 269.60162 385.77874zm-2.90312-56.35631c2.50067-.53654 5.02052-1.02519 7.55955-1.39881-.45994-1.3318-.91981-2.66359-1.37969-4.00492l-16.48919 3.38212q.618 2.15575 1.20723 4.31152 3.66478-1.03473 7.3871-1.92582c.4311-.09579.87186-.19164 1.31261-.27783-.28742-1.25513-.58449-2.51026-.86233-3.775l.09585-.01918C265.932 326.94094 266.31523 328.17689 266.6985 329.42243zm5.28882 65.97583c-1.92582.50782-3.84205 1.01565-5.77747 1.49471-1.49465.38315-2.97972.77613-4.46479 1.17847.4407 3.06592.86227 6.14143 1.24554 9.21706q2.63006-.51735 5.24086-1.04431l6.35232-1.27437Q273.23282 400.19849 271.98732 395.39826zm2.32821-67.22137c-2.42406.80484-4.86724 1.50425-7.3296 2.14617q.70419 2.29953 1.37009 4.59894c2.51026-.73771 5.0397-1.42758 7.58832-2.012C275.39821 331.32907 274.85208 329.7578 274.31553 328.17689zm1.6863 4.88643c-2.43365.99641-4.90555 1.90664-7.3871 2.75931.20123.69947.4024 1.39887.594 2.09828a16.68938 16.68938 0 017.82779-1.87787C276.69164 335.04656 276.34673 334.05973 276.00183 333.06332zm1.715 39.321c-.32578 0-.49824.00959-.49824.00959-3.63123 3.73667-6.26605 5.88284-8.144 6.908.30661 1.27437.61321 2.54873.91022 3.823q4.06724-1.14981 8.17276-2.23237c.56525-.13427 1.14016-.27789 1.70541-.42163C279.13483 377.77861 278.41624 375.07666 277.71683 372.3843zM280.62 383.29737c-.17251-.62292-.33537-1.25519-.50783-1.878-.56531.15333-1.13057.31614-1.69588.46947q-4.1103 1.06349-8.23977 2.05038c.12456.5366.25871 1.07309.38327 1.60957q1.03472 4.39783 1.98324 8.81473c2.77856-.84314 5.55712-1.6767 8.3548-2.47189.66111-.18211 1.3318-.36421 2.00243-.54619C282.12414 388.67227 281.35766 385.98961 280.62 383.29737zm11.09494-5.76788c-2.06951-.83367-3.78457-1.91623-5.40379-2.73072a22.298 22.298 0 00-7.67446-2.35693c.72812 2.59646 1.4563 5.19291 2.1653 7.79908 3.65047-.8911 7.32-1.72466 11.00879-2.45272zm.14374.39275c-3.57375 1.16887-7.18587 2.22289-10.80757 3.23843.17245.6228.35449 1.25507.527 1.878q1.07787 4.03836 2.09821 8.096c3.92831-1.0635 7.87574-2.06956 11.85195-2.97025zm3.71749 10.37646c-3.86123 1.34127-7.75118 2.57728-11.66031 3.75574q1.27911 5.11643 2.43365 10.25179l-.09584.02877q-1.59525-5.01571-3.08511-10.06021c-.6611.20117-1.3222.40245-1.99289.60373q-4.21092 1.19262-8.45059 2.32816 1.0348 4.85764 1.96418 9.744l25.0451-5.03011zm-2.951 22.33362l-21.30848 3.75585c-7.09967 1.27425-14.20887 2.48149-21.31807 3.68872l-21.32767 3.60253-.297.04783-.17245-.23953-30.61181-42.19533c-5.10677-7.02294-10.17518-14.07478-15.36815-21.04989l-15.55979-20.906-.09585-.12456a16.82429 16.82429 0 01-3.7079.39286 16.13117 16.13117 0 01-4.09117-.479l65.55431 91.55746 89.5934-17.45684v-4.42649C306.8148 408.09329 299.73431 409.39643 292.62511 410.63232zm-62.48827-37.51984l-.642 24.04879-.40239 12.02428-.46947 11.24827.182.23953 21.03065-3.57375c7.1092-1.19765 14.228-2.39529 21.34679-3.53551l21.35637-3.46826c7.10926-1.16887 14.228-2.28043 21.35644-3.39176l-12.29264-28.19728a17.16816 17.16816 0 01-8.80509-.575l7.732 22.13256.13415.38315-.40239.07673-31.96278 6.06483q-7.99068 1.50893-15.96218 3.11387l-15.94306 3.22885-.33532.06713v-.345c-.04795-6.78342-.12455-13.586-.12455-20.37914-.02878-6.793.00959-13.586.0383-20.36955l.12456-20.312.20122-20.1971 18.3-4.11029 18.44372-4.072.32579-.06708.10538.3162c1.45635 4.0624 2.94142 8.11521 4.40731 12.17761.6611-.661 1.9833-1.86828 3.6217-3.27674l-5.52834-12.695-45.2422 5.3463c.01913 8.01942-.06707 16.03885-.17245 24.04868zm-50.35856-68.45732l-6.18944 16.32627-6.22776 16.0868 15.13822 20.97311c5.08759 7.04224 10.29015 13.99817 15.45441 20.99234l30.64052 41.3619L228.623 409.176l.13415-12.03387.42157-24.04879.64192-24.03909c.25871-8.01942.52695-16.02926.91022-24.03909l-38.80368-53.05086-6.02658 16.355zm13.18363-22.03665l34.20473 45.95124-3.7079 75.969-49.62078-67.413zm-26.36731 54.421l.01913-.04789 6.17026-16.31674 6.28524-16.27838 6.34272-16.25919 6.429-16.21136h-5.64332l-27.43085 65.19982a15.70456 15.70456 0 014.09117-.47906A16.5156 16.5156 0 01166.5946 337.03946zM295.57612 388.2987c-3.86123 1.34127-7.75118 2.57728-11.66031 3.75574q1.27911 5.11643 2.43365 10.25179l-.09584.02877q-1.59525-5.01571-3.08511-10.06021c-.6611.20117-1.3222.40245-1.99289.60373q-4.21092 1.19262-8.45059 2.32816 1.0348 4.85764 1.96418 9.744l25.0451-5.03011zm-3.71749-10.37646c-3.57375 1.16887-7.18587 2.22289-10.80757 3.23843.17245.6228.35449 1.25507.527 1.878q1.07787 4.03836 2.09821 8.096c3.92831-1.0635 7.87574-2.06956 11.85195-2.97025zm-.14374-.39275c-2.06951-.83367-3.78457-1.91623-5.40379-2.73072a22.298 22.298 0 00-7.67446-2.35693c.72812 2.59646 1.4563 5.19291 2.1653 7.79908 3.65047-.8911 7.32-1.72466 11.00879-2.45272zM280.62 383.29737c-.17251-.62292-.33537-1.25519-.50783-1.878-.56531.15333-1.13057.31614-1.69588.46947q-4.1103 1.06349-8.23977 2.05038c.12456.5366.25871 1.07309.38327 1.60957q1.03472 4.39783 1.98324 8.81473c2.77856-.84314 5.55712-1.6767 8.3548-2.47189.66111-.18211 1.3318-.36421 2.00243-.54619C282.12414 388.67227 281.35766 385.98961 280.62 383.29737zm-2.90312-10.91307c-.32578 0-.49824.00959-.49824.00959-3.63123 3.73667-6.26605 5.88284-8.144 6.908.30661 1.27437.61321 2.54873.91022 3.823q4.06724-1.14981 8.17276-2.23237c.56525-.13427 1.14016-.27789 1.70541-.42163C279.13483 377.77861 278.41624 375.07666 277.71683 372.3843zm-1.715-39.321c-2.43365.99641-4.90555 1.90664-7.3871 2.75931.20123.69947.4024 1.39887.594 2.09828a16.68938 16.68938 0 017.82779-1.87787C276.69164 335.04656 276.34673 334.05973 276.00183 333.06332zm-1.6863-4.88643c-2.42406.80484-4.86724 1.50425-7.3296 2.14617q.70419 2.29953 1.37009 4.59894c2.51026-.73771 5.0397-1.42758 7.58832-2.012C275.39821 331.32907 274.85208 329.7578 274.31553 328.17689zm-2.32821 67.22137c-1.92582.50782-3.84205 1.01565-5.77747 1.49471-1.49465.38315-2.97972.77613-4.46479 1.17847.4407 3.06592.86227 6.14143 1.24554 9.21706q2.63006-.51735 5.24086-1.04431l6.35232-1.27437Q273.23282 400.19849 271.98732 395.39826zm-5.28882-65.97583c2.50067-.53654 5.02052-1.02519 7.55955-1.39881-.45994-1.3318-.91981-2.66359-1.37969-4.00492l-16.48919 3.38212q.618 2.15575 1.20723 4.31152 3.66478-1.03473 7.3871-1.92582c.4311-.09579.87186-.19164 1.31261-.27783-.28742-1.25513-.58449-2.51026-.86233-3.775l.09585-.01918C265.932 326.94094 266.31523 328.17689 266.6985 329.42243zm2.90312 56.35631c-.12456-.53649-.24912-1.073-.37368-1.61916q-2.42883.58929-4.85765 1.1401-2.25637.50314-4.484 1.06361c.06707.43111.15327.86221.22034 1.29343q.848 5.03011 1.59051 10.08887 2.18443-.661 4.369-1.35086c1.897-.6228 3.81328-1.20723 5.71992-1.79167C271.03879 391.6617 270.301 388.72981 269.60162 385.77874zm-1.40846-6.05524c-6.01693 2.45271-2.51026-9.00631-2.22283-9.94525a.162.162 0 00.01918-.048c-.00959 0-.00959.00959-.01918.01918-3.957 2.81692-5.98823 3.14265-6.82178 2.09834l.00959.04783c-.57485.24912-1.15934.46947-1.75337.68993q1.27911 6.71167 2.42406 13.45187c1.47548-.39275 2.94142-.81438 4.40731-1.24548 1.6-.48865 3.20972-.93905 4.80976-1.39893C268.75848 382.17621 268.471 380.94991 268.19316 379.7235zm-.28742-43.66134c-.45988.16292-.91022.3162-1.3701.46953-2.36658.75689-4.75227 1.45629-7.14756 2.13658.65151 2.63482 1.2839 5.26963 1.87792 7.914.01913.06708.02872.14368.0479.21076a49.32075 49.32075 0 004.14866-5.3942 9.93075 9.93075 0 013.0468-3.0468C268.29854 337.58559 268.09737 336.8287 267.90574 336.06216zm-1.38928-5.61454c-.43116.115-.87186.22994-1.303.33538-2.46237.58443-4.94391 1.11138-7.435 1.6q.733 2.77374 1.42758 5.55706 3.49233-1.25034 7.023-2.3857c.47905-.14374.95811-.27783 1.42758-.42157Q267.06742 332.79023 266.51646 330.44762zM263.211 355.7802c-.10538.067-.21076.12456-.31614.1821-4.39777 2.37611-7.10926.8718-8.11527-.40245-.47906-.594.84315-2.28991 2.78809-4.51274a37.25405 37.25405 0 01-3.63123 1.51383c.25871 1.85869.52695 3.72709.83355 5.58589.15333.95812.32579 1.92571.48865 2.89341.01918-.00959.02877-.00959.0383-.01906a60.51527 60.51527 0 016.52477-1.73425l.01918.048c.46947-1.0828.91022-2.03132 1.22642-2.69236.08619-.182.16286-.34491.22993-.47906.16287-.33544.26825-.54619.28743-.594C263.46007 355.63646 263.33551 355.71318 263.211 355.7802zm-2.16535 42.4924c-.77607.21076-1.55214.42163-2.31863.65157-2.47195.74724-4.91513 1.59051-7.3775 2.36652-.72817.21087-1.45629.42163-2.17488.63239q.25868 3.96661.45029 7.94281l2.6444-.49823q5.31756-1.00614 10.61594-2.06Q261.92225 402.79495 261.0456 398.2726zM259.139 387.81965c-.07661-.40246-.13415-.80491-.20117-1.20724-.53654.134-1.06355.25871-1.5905.40233-2.31863.642-4.61813 1.38922-6.92716 2.06-.72818.21087-1.46595.40245-2.20366.594.01913.12456.02872.24912.03831.37368q.48867 5.51869.86233 11.03751c.67063-.1821 1.34132-.37368 2.012-.55566 2.50067-.65157 5.02052-1.22642 7.51166-1.897.7856-.22047 1.56167-.45041 2.3378-.68034Q260.00122 392.888 259.139 387.81965zm1.351-41.05529q-.963-3.93784-1.84915-7.88533c-.72818.20122-1.45636.42157-2.19413.6132-1.47547.39286-2.94142.824-4.38818 1.29349.44075 2.48149.87192 4.97263 1.26472 7.4637.17245 1.13057.32578 2.27073.48865 3.41089a35.56048 35.56048 0 013.80375-.73776l.01912.04789c.91981-1.0539 1.97371-2.23237 3.05639-3.45878C260.61449 347.26254 260.557 347.01348 260.48993 346.76436zm1.32221 12.63754a58.89353 58.89353 0 01-6.17986 2.58687 1.6309 1.6309 0 01-.20123.067c.3545 1.97377.71859 3.95713 1.10186 5.93079.26824 1.351.51736 2.70184.77607 4.05293.594-.09591 1.18806-.17251 1.80126-.23953C257.67307 369.855 260.00128 363.56009 261.81214 359.4019zm-5.07806 13.42321c-1.04432.36409-2.09828.68982-3.16177.98677-1.90664.48865-3.81328.92946-5.76782 1.236-.345.05754-.68987.12456-1.03478.19158q.76165 6.798 1.3701 13.59572c.68981-.17252 1.38928-.3545 2.07909-.5269 2.3474-.54619 4.71392-1.01566 7.05172-1.5905.53654-.13415 1.07314-.28748 1.60969-.42163Q257.7305 379.57028 256.73408 372.82511zm.53654-40.3367c-.56526.10538-1.13057.22994-1.69582.33538-1.61922.297-3.22885.62274-4.81935 1.03472h-.00959c.44075 2.20365.85273 4.40737 1.25512 6.611q2.15577-.68982 4.28281-1.47554c.72818-.27783 1.46589-.52695 2.20366-.79519C258.06587 336.30169 257.65389 334.39505 257.27062 332.48841zm-.99642-5.05882l-1.418.28742-5.18344 1.05391q.53175 2.38575 1.0156 4.781c1.6001-.35449 3.18095-.78566 4.76187-1.24553.55572-.16287 1.121-.30661 1.68629-.46947C256.83951 330.371 256.552 328.90507 256.2742 327.42959zm-.25871 40.64319q-.43113-2.96049-.90063-5.9115c-1.96413.65145-3.93784 1.25519-5.94027 1.7629-1.09227.28737-2.17494.594-3.22885.98689-.09584.03824-.20122.0862-.3066.13415.18205 1.6767.36409 3.363.56526 5.0397.182 1.59038.3449 3.18089.52695 4.77139.31619-.10549.63239-.20116.94858-.31625 1.84916-.68022 3.73662-1.21683 5.63373-1.71495 1.10179-.25871 2.20365-.48865 3.315-.68034C256.42753 370.79391 256.21672 369.43335 256.01549 368.07278zm-1.57126-9.87811c-.3162-1.82044-.68029-3.6313-1.04438-5.45168-.31619.115-.63233.22035-.94852.32573a54.24685 54.24685 0 01-5.3942 1.37968c-.75689.15334-1.49465.345-2.23242.56538.10543 1.70535.2204 3.40124.36409 5.09712.12456 1.52337.2683 3.04686.42157 4.57023.07667-.01918.16286-.03836.23953-.05754 1.07308-.33532 2.11745-.74724 3.15224-1.18806 1.95453-.85273 3.93784-1.5905 5.94027-2.28032C254.77954 360.16833 254.62627 359.18144 254.44423 358.19467zm-1.89711-9.8111c-.45029-2.45277-.85268-4.90554-1.24554-7.35832-1.62881.55567-3.21926 1.20718-4.82888 1.79167-.84315.28743-1.69589.56526-2.54862.83356.21081 2.14617.412 4.29234.58449 6.4481.115 1.533.20117 3.066.297 4.59894q1.06349-.33051 2.09827-.74735a55.16793 55.16793 0 015.25046-1.85869q.53173-.14377 1.06349-.28743C252.98787 350.66389 252.75793 349.52373 252.54712 348.38357zm-2.29945-14.38132c-1.418.38321-2.81686.83356-4.23491 1.22636-.96765.25871-1.94494.48865-2.92224.709.27789 2.28985.51742 4.57017.74736 6.86008.79519-.25871 1.59045-.50783 2.39529-.73776 1.66711-.46947 3.3534-.86227 5.01092-1.35092Q250.71236 337.36042 250.24767 334.00225zm-.68028-5.21215l-7.21458 1.45635c.22035 1.61922.4407 3.248.64192 4.86719.93894-.22994 1.88746-.45029 2.836-.6611 1.45635-.27784 2.91271-.50777 4.35947-.80479C249.96978 332.02853 249.759 330.40932 249.56739 328.7901zm-1.02519 73.315c-3.92825 1.121-7.87568 2.14617-11.86148 3.02768-.01912 2.39529-.0383 4.781-.05748 7.17628l12.89626-2.42394C249.165 407.2885 248.8488 404.70152 248.5422 402.10506zm-1.27431-11.97644c0-.067-.00953-.134-.00953-.20117-3.478.90058-6.9847 1.70548-10.52015 2.3857v.09579c.00959 4.19655-.01912 8.3931-.05749 12.58965 3.88036-1.37 7.80867-2.59645 11.7561-3.72708Q247.80447 395.70966 247.26789 390.12862zm-.0862-1.04431c-.43116-4.56064-.79525-9.12128-1.121-13.6914-.38327.08608-.75694.182-1.13057.28737-.939.27777-1.85874.66116-2.78814.9773a28.68147 28.68147 0 01-5.41338 1.08267c.01918 4.80976.03836 9.61952.00959 14.41969C240.18746 391.01972 243.675 390.00418 247.18169 389.08431zm-1.50425-18.95156c-.115-1.64793-.22993-3.30545-.35449-4.9535-.83356.33544-1.648.709-2.48155 1.054a37.50421 37.50421 0 01-6.16068 1.77249l.02878 4.15819c0 1.79179.00959 3.57375.01912 5.36554a29.65966 29.65966 0 015.21215-1.648c.96771-.182 1.95459-.28737 2.91271-.49813.3928-.08631.78566-.20128 1.17846-.31625C245.917 373.41914 245.78282 371.7808 245.67744 370.13275zm-.81437-9.9932c-.16292-1.65752-.3545-3.315-.55572-4.963-.85274.29707-1.6863.68982-2.52944 1.01566a25.53865 25.53865 0 01-5.16426 1.24548l.06707 10.36676a37.95605 37.95605 0 015.902-2.32816c.90063-.24912 1.80126-.45987 2.70189-.6994C245.16008 363.22478 245.02593 361.68222 244.86307 360.13955zm-1.14016-9.97389q-.33062-3.133-.5845-6.27565-3.27671.99165-6.62055 1.74378l.06708 6.23728.02871 5.37507a26.29532 26.29532 0 014.93432-1.81085c.90063-.20117 1.83-.34491 2.72107-.57484C244.087 353.29871 243.88577 351.737 243.72291 350.16566zm-1.16893-14.1035c-2.02161.44076-4.0624.81444-6.12237 1.09227l.08625 8.3548q3.23364-1.36533 6.55354-2.45278C242.87017 340.72824 242.69772 338.39044 242.554 336.06216zm-.30661-5.79658l-5.87325 1.188.05749 5.58583q3.00372-1.02042 6.07447-1.79167C242.40071 333.59027 242.31445 331.92316 242.24737 330.26558zm53.32875 58.03312c-3.86123 1.34127-7.75118 2.57728-11.66031 3.75574q1.27911 5.11643 2.43365 10.25179l-.09584.02877q-1.59525-5.01571-3.08511-10.06021c-.6611.20117-1.3222.40245-1.99289.60373q-4.21092 1.19262-8.45059 2.32816 1.0348 4.85764 1.96418 9.744l25.0451-5.03011zm-3.71749-10.37646c-3.57375 1.16887-7.18587 2.22289-10.80757 3.23843.17245.6228.35449 1.25507.527 1.878q1.07787 4.03836 2.09821 8.096c3.92831-1.0635 7.87574-2.06956 11.85195-2.97025zm-.14374-.39275c-2.06951-.83367-3.78457-1.91623-5.40379-2.73072a22.298 22.298 0 00-7.67446-2.35693c.72812 2.59646 1.4563 5.19291 2.1653 7.79908 3.65047-.8911 7.32-1.72466 11.00879-2.45272zM280.62 383.29737c-.17251-.62292-.33537-1.25519-.50783-1.878-.56531.15333-1.13057.31614-1.69588.46947q-4.1103 1.06349-8.23977 2.05038c.12456.5366.25871 1.07309.38327 1.60957q1.03472 4.39783 1.98324 8.81473c2.77856-.84314 5.55712-1.6767 8.3548-2.47189.66111-.18211 1.3318-.36421 2.00243-.54619C282.12414 388.67227 281.35766 385.98961 280.62 383.29737zm-2.90312-10.91307c-.32578 0-.49824.00959-.49824.00959-3.63123 3.73667-6.26605 5.88284-8.144 6.908.30661 1.27437.61321 2.54873.91022 3.823q4.06724-1.14981 8.17276-2.23237c.56525-.13427 1.14016-.27789 1.70541-.42163C279.13483 377.77861 278.41624 375.07666 277.71683 372.3843zm-1.715-39.321c-2.43365.99641-4.90555 1.90664-7.3871 2.75931.20123.69947.4024 1.39887.594 2.09828a16.68938 16.68938 0 017.82779-1.87787C276.69164 335.04656 276.34673 334.05973 276.00183 333.06332zm-1.6863-4.88643c-2.42406.80484-4.86724 1.50425-7.3296 2.14617q.70419 2.29953 1.37009 4.59894c2.51026-.73771 5.0397-1.42758 7.58832-2.012C275.39821 331.32907 274.85208 329.7578 274.31553 328.17689zm-2.32821 67.22137c-1.92582.50782-3.84205 1.01565-5.77747 1.49471-1.49465.38315-2.97972.77613-4.46479 1.17847.4407 3.06592.86227 6.14143 1.24554 9.21706q2.63006-.51735 5.24086-1.04431l6.35232-1.27437Q273.23282 400.19849 271.98732 395.39826zm-5.28882-65.97583c2.50067-.53654 5.02052-1.02519 7.55955-1.39881-.45994-1.3318-.91981-2.66359-1.37969-4.00492l-16.48919 3.38212q.618 2.15575 1.20723 4.31152 3.66478-1.03473 7.3871-1.92582c.4311-.09579.87186-.19164 1.31261-.27783-.28742-1.25513-.58449-2.51026-.86233-3.775l.09585-.01918C265.932 326.94094 266.31523 328.17689 266.6985 329.42243zm2.90312 56.35631c-.12456-.53649-.24912-1.073-.37368-1.61916q-2.42883.58929-4.85765 1.1401-2.25637.50314-4.484 1.06361c.06707.43111.15327.86221.22034 1.29343q.848 5.03011 1.59051 10.08887 2.18443-.661 4.369-1.35086c1.897-.6228 3.81328-1.20723 5.71992-1.79167C271.03879 391.6617 270.301 388.72981 269.60162 385.77874zm-1.40846-6.05524c-6.01693 2.45271-2.51026-9.00631-2.22283-9.94525a.162.162 0 00.01918-.048c-.00959 0-.00959.00959-.01918.01918-3.957 2.81692-5.98823 3.14265-6.82178 2.09834l.00959.04783c-.57485.24912-1.15934.46947-1.75337.68993q1.27911 6.71167 2.42406 13.45187c1.47548-.39275 2.94142-.81438 4.40731-1.24548 1.6-.48865 3.20972-.93905 4.80976-1.39893C268.75848 382.17621 268.471 380.94991 268.19316 379.7235zm-.28742-43.66134c-.45988.16292-.91022.3162-1.3701.46953-2.36658.75689-4.75227 1.45629-7.14756 2.13658.65151 2.63482 1.2839 5.26963 1.87792 7.914.01913.06708.02872.14368.0479.21076a49.32075 49.32075 0 004.14866-5.3942 9.93075 9.93075 0 013.0468-3.0468C268.29854 337.58559 268.09737 336.8287 267.90574 336.06216zm-1.38928-5.61454c-.43116.115-.87186.22994-1.303.33538-2.46237.58443-4.94391 1.11138-7.435 1.6q.733 2.77374 1.42758 5.55706 3.49233-1.25034 7.023-2.3857c.47905-.14374.95811-.27783 1.42758-.42157Q267.06742 332.79023 266.51646 330.44762zM263.211 355.7802c-.10538.067-.21076.12456-.31614.1821-4.39777 2.37611-7.10926.8718-8.11527-.40245-.47906-.594.84315-2.28991 2.78809-4.51274a37.25405 37.25405 0 01-3.63123 1.51383c.25871 1.85869.52695 3.72709.83355 5.58589.15333.95812.32579 1.92571.48865 2.89341.01918-.00959.02877-.00959.0383-.01906a60.51527 60.51527 0 016.52477-1.73425l.01918.048c.46947-1.0828.91022-2.03132 1.22642-2.69236.08619-.182.16286-.34491.22993-.47906.16287-.33544.26825-.54619.28743-.594C263.46007 355.63646 263.33551 355.71318 263.211 355.7802zm-2.16535 42.4924c-.77607.21076-1.55214.42163-2.31863.65157-2.47195.74724-4.91513 1.59051-7.3775 2.36652-.72817.21087-1.45629.42163-2.17488.63239q.25868 3.96661.45029 7.94281l2.6444-.49823q5.31756-1.00614 10.61594-2.06Q261.92225 402.79495 261.0456 398.2726zM259.139 387.81965c-.07661-.40246-.13415-.80491-.20117-1.20724-.53654.134-1.06355.25871-1.5905.40233-2.31863.642-4.61813 1.38922-6.92716 2.06-.72818.21087-1.46595.40245-2.20366.594.01913.12456.02872.24912.03831.37368q.48867 5.51869.86233 11.03751c.67063-.1821 1.34132-.37368 2.012-.55566 2.50067-.65157 5.02052-1.22642 7.51166-1.897.7856-.22047 1.56167-.45041 2.3378-.68034Q260.00122 392.888 259.139 387.81965zm1.351-41.05529q-.963-3.93784-1.84915-7.88533c-.72818.20122-1.45636.42157-2.19413.6132-1.47547.39286-2.94142.824-4.38818 1.29349.44075 2.48149.87192 4.97263 1.26472 7.4637.17245 1.13057.32578 2.27073.48865 3.41089a35.56048 35.56048 0 013.80375-.73776l.01912.04789c.91981-1.0539 1.97371-2.23237 3.05639-3.45878C260.61449 347.26254 260.557 347.01348 260.48993 346.76436zm1.32221 12.63754a58.89353 58.89353 0 01-6.17986 2.58687 1.6309 1.6309 0 01-.20123.067c.3545 1.97377.71859 3.95713 1.10186 5.93079.26824 1.351.51736 2.70184.77607 4.05293.594-.09591 1.18806-.17251 1.80126-.23953C257.67307 369.855 260.00128 363.56009 261.81214 359.4019zm-5.07806 13.42321c-1.04432.36409-2.09828.68982-3.16177.98677-1.90664.48865-3.81328.92946-5.76782 1.236-.345.05754-.68987.12456-1.03478.19158q.76165 6.798 1.3701 13.59572c.68981-.17252 1.38928-.3545 2.07909-.5269 2.3474-.54619 4.71392-1.01566 7.05172-1.5905.53654-.13415 1.07314-.28748 1.60969-.42163Q257.7305 379.57028 256.73408 372.82511zm.53654-40.3367c-.56526.10538-1.13057.22994-1.69582.33538-1.61922.297-3.22885.62274-4.81935 1.03472h-.00959c.44075 2.20365.85273 4.40737 1.25512 6.611q2.15577-.68982 4.28281-1.47554c.72818-.27783 1.46589-.52695 2.20366-.79519C258.06587 336.30169 257.65389 334.39505 257.27062 332.48841zm-.99642-5.05882l-1.418.28742-5.18344 1.05391q.53175 2.38575 1.0156 4.781c1.6001-.35449 3.18095-.78566 4.76187-1.24553.55572-.16287 1.121-.30661 1.68629-.46947C256.83951 330.371 256.552 328.90507 256.2742 327.42959zm-.25871 40.64319q-.43113-2.96049-.90063-5.9115c-1.96413.65145-3.93784 1.25519-5.94027 1.7629-1.09227.28737-2.17494.594-3.22885.98689-.09584.03824-.20122.0862-.3066.13415.18205 1.6767.36409 3.363.56526 5.0397.182 1.59038.3449 3.18089.52695 4.77139.31619-.10549.63239-.20116.94858-.31625 1.84916-.68022 3.73662-1.21683 5.63373-1.71495 1.10179-.25871 2.20365-.48865 3.315-.68034C256.42753 370.79391 256.21672 369.43335 256.01549 368.07278zm-1.57126-9.87811c-.3162-1.82044-.68029-3.6313-1.04438-5.45168-.31619.115-.63233.22035-.94852.32573a54.24685 54.24685 0 01-5.3942 1.37968c-.75689.15334-1.49465.345-2.23242.56538.10543 1.70535.2204 3.40124.36409 5.09712.12456 1.52337.2683 3.04686.42157 4.57023.07667-.01918.16286-.03836.23953-.05754 1.07308-.33532 2.11745-.74724 3.15224-1.18806 1.95453-.85273 3.93784-1.5905 5.94027-2.28032C254.77954 360.16833 254.62627 359.18144 254.44423 358.19467zm-1.89711-9.8111c-.45029-2.45277-.85268-4.90554-1.24554-7.35832-1.62881.55567-3.21926 1.20718-4.82888 1.79167-.84315.28743-1.69589.56526-2.54862.83356.21081 2.14617.412 4.29234.58449 6.4481.115 1.533.20117 3.066.297 4.59894q1.06349-.33051 2.09827-.74735a55.16793 55.16793 0 015.25046-1.85869q.53173-.14377 1.06349-.28743C252.98787 350.66389 252.75793 349.52373 252.54712 348.38357zm-2.29945-14.38132c-1.418.38321-2.81686.83356-4.23491 1.22636-.96765.25871-1.94494.48865-2.92224.709.27789 2.28985.51742 4.57017.74736 6.86008.79519-.25871 1.59045-.50783 2.39529-.73776 1.66711-.46947 3.3534-.86227 5.01092-1.35092Q250.71236 337.36042 250.24767 334.00225zm-.68028-5.21215l-7.21458 1.45635c.22035 1.61922.4407 3.248.64192 4.86719.93894-.22994 1.88746-.45029 2.836-.6611 1.45635-.27784 2.91271-.50777 4.35947-.80479C249.96978 332.02853 249.759 330.40932 249.56739 328.7901zm-1.02519 73.315c-3.92825 1.121-7.87568 2.14617-11.86148 3.02768-.01912 2.39529-.0383 4.781-.05748 7.17628l12.89626-2.42394C249.165 407.2885 248.8488 404.70152 248.5422 402.10506zm-1.27431-11.97644c0-.067-.00953-.134-.00953-.20117-3.478.90058-6.9847 1.70548-10.52015 2.3857v.09579c.00959 4.19655-.01912 8.3931-.05749 12.58965 3.88036-1.37 7.80867-2.59645 11.7561-3.72708Q247.80447 395.70966 247.26789 390.12862zm-.0862-1.04431c-.43116-4.56064-.79525-9.12128-1.121-13.6914-.38327.08608-.75694.182-1.13057.28737-.939.27777-1.85874.66116-2.78814.9773a28.68147 28.68147 0 01-5.41338 1.08267c.01918 4.80976.03836 9.61952.00959 14.41969C240.18746 391.01972 243.675 390.00418 247.18169 389.08431zm-1.50425-18.95156c-.115-1.64793-.22993-3.30545-.35449-4.9535-.83356.33544-1.648.709-2.48155 1.054a37.50421 37.50421 0 01-6.16068 1.77249l.02878 4.15819c0 1.79179.00959 3.57375.01912 5.36554a29.65966 29.65966 0 015.21215-1.648c.96771-.182 1.95459-.28737 2.91271-.49813.3928-.08631.78566-.20128 1.17846-.31625C245.917 373.41914 245.78282 371.7808 245.67744 370.13275zm-.81437-9.9932c-.16292-1.65752-.3545-3.315-.55572-4.963-.85274.29707-1.6863.68982-2.52944 1.01566a25.53865 25.53865 0 01-5.16426 1.24548l.06707 10.36676a37.95605 37.95605 0 015.902-2.32816c.90063-.24912 1.80126-.45987 2.70189-.6994C245.16008 363.22478 245.02593 361.68222 244.86307 360.13955zm-1.14016-9.97389q-.33062-3.133-.5845-6.27565-3.27671.99165-6.62055 1.74378l.06708 6.23728.02871 5.37507a26.29532 26.29532 0 014.93432-1.81085c.90063-.20117 1.83-.34491 2.72107-.57484C244.087 353.29871 243.88577 351.737 243.72291 350.16566zm-1.16893-14.1035c-2.02161.44076-4.0624.81444-6.12237 1.09227l.08625 8.3548q3.23364-1.36533 6.55354-2.45278C242.87017 340.72824 242.69772 338.39044 242.554 336.06216zm-.30661-5.79658l-5.87325 1.188.05749 5.58583q3.00372-1.02042 6.07447-1.79167C242.40071 333.59027 242.31445 331.92316 242.24737 330.26558z"/><polygon fill="#fff" points="191.851 271.907 191.898 271.926 191.841 271.926 191.851 271.907"/><polygon fill="#fff" points="191.898 271.926 191.937 271.945 191.927 271.964 191.898 271.926"/><polygon fill="#fff" points="313.905 406.704 313.914 406.752 313.895 406.704 313.905 406.704"/><polygon fill="#fff" points="313.914 406.8 313.914 406.752 313.924 406.8 313.914 406.8"/><path fill="#fff" d="M265.97033,369.74948v.02877a.162.162,0,0,0,.01918-.048C265.97992,369.7303,265.97992,369.73989,265.97033,369.74948Zm-8.33562-18.779a.48484.48484,0,0,0-.06708.07667c.02877-.0096.048-.02872.07667-.03831ZM259.139,371.8h-.02872c.00959.01906.02872.02865.03831.04784Zm2.70189-12.46509a.479.479,0,0,1-.02871.067c.00953-.00959.02871-.00959.0383-.01918Zm4.12948,10.41459v.02877a.162.162,0,0,0,.01918-.048C265.97992,369.7303,265.97992,369.73989,265.97033,369.74948ZM263.211,355.7802c-.10538.067-.21076.12456-.31614.1821.0479.16281.0862.33532.1245.49824.01918.05743.02878.12444.048.182.08619-.182.16286-.34491.22993-.47906C263.26843,356.03891,263.23972,355.90476,263.211,355.7802Zm2.75938,13.96928v.02877a.162.162,0,0,0,.01918-.048C265.97992,369.7303,265.97992,369.73989,265.97033,369.74948Z"/><path d="M263.59153 355.56067a49.90927 49.90927 0 013.01341-4.40766c.52274-.71718 1.08472-1.401 1.62822-2.10061a4.79767 4.79767 0 013.96848-1.9615 11.7226 11.7226 0 011.4.156c.87379.14626 1.7508.26538 2.62137.43824a49.33174 49.33174 0 015.204 1.19566 49.32953 49.32953 0 01-5.33894-.08228c-.88659-.04017-1.7667-.134-2.65014-.2007-.44239-.03316-.89893-.10988-1.24068-.10257a3.71423 3.71423 0 00-1.08911.18175 3.77339 3.77339 0 00-1.84109 1.25425c-.60285.64912-1.18723 1.3139-1.81085 1.94536A49.87927 49.87927 0 01263.59153 355.56067zM265.99635 369.72223a51.88978 51.88978 0 012.63154-4.76824c.4607-.7794.96367-1.52933 1.44677-2.29318l.75373-1.12549.37941-.56092a4.47805 4.47805 0 01.51742-.623 4.22807 4.22807 0 012.926-1.19284 4.93828 4.93828 0 011.502.273c.43444.12351.86578.25906 1.29589.39965a51.33315 51.33315 0 015.11349 1.87506 51.30276 51.30276 0 01-5.3891-.78794 13.91345 13.91345 0 00-2.49453-.39918 2.91448 2.91448 0 00-1.94752.8573 3.05144 3.05144 0 00-.35771.40771l-.39316.55146-.79145 1.09928c-.54706.71941-1.07419 1.45261-1.64366 2.15646A51.88726 51.88726 0 01265.99635 369.72223zM286.21239 368.05641a10.27119 10.27119 0 01-1.34256-4.53585 6.925 6.925 0 01.30035-2.50254 9.72729 9.72729 0 00.3638-1.96944 9.46059 9.46059 0 00-.03281-2.10875c-.05029-.36011-.13713-.72127-.20783-1.08688a5.41343 5.41343 0 01-.18649-1.2201 12.41748 12.41748 0 01.55572-4.71129 5.72386 5.72386 0 011.34706-2.16266 3.3697 3.3697 0 00.88706-1.553 6.94888 6.94888 0 00-.52607-3.85492c.06906.02012-.24339-.40005-.4538-.7277a4.94784 4.94784 0 01-.6097-1.21765 3.597 3.597 0 01-.18257-1.5098 4.32525 4.32525 0 01.20123-.75075 4.905 4.905 0 01.355-.64765 6.98926 6.98926 0 014.26059-2.33179l.0759.176a9.19078 9.19078 0 00-3.03709 2.92317 1.59117 1.59117 0 00.05708 1.46607 5.06534 5.06534 0 00.49262.77191l.33824.4338.21035.28912a3.20133 3.20133 0 01.22514.46157 7.37214 7.37214 0 01.32012 5.06438 4.54437 4.54437 0 01-1.62326 2.18348 5.11737 5.11737 0 00-1.39372 1.44384 6.24909 6.24909 0 00-.882 4.18894 3.41682 3.41682 0 00.30129 1.00128l.4928 1.084a7.65232 7.65232 0 01.61005 2.39388 5.97387 5.97387 0 01-.35175 2.51611 7.924 7.924 0 00-.42245 1.9843 30.36466 30.36466 0 00.03959 4.44871zM218.46536 308.25085q.87131-3.27768 1.797-6.53687l1.88343-6.50752c1.29273-4.32579 2.5968-8.64772 3.95526-12.95117l.23281-.73747.82981-.02415c3.35159-.09743 6.70319-.1355 10.05472-.187 3.35159-.063 6.70318-.08368 10.05472-.09456 6.70318-.05836 13.4063-.0038 20.10943.04421l10.05472.15555 10.05471.26351c6.70319.21912 13.40631.48871 20.10944.94028-6.70313.45163-13.40625.72116-20.10944.94028l-10.05471.2635-10.05472.15561c-6.70313.048-13.40625.10252-20.10943.04416-3.35154-.01088-6.70313-.03158-10.05472-.09456-3.35153-.05147-6.70313-.08953-10.05472-.187l1.06238-.76139c-1.54091 4.24152-3.13621 8.46462-4.74291 12.68386l-2.46564 6.31Q219.7718 305.12083 218.46536 308.25085zM541.23324 428.68388q-45.29009.76859-90.58005 1.01134l-22.645.17414-22.645.07579-45.29.11521-22.645.05766-22.645-.05205-45.29-.1159-22.645-.067-22.645-.17532-45.29-.37953-.88355-.00737.26789-.8277 7.13458-22.046 7.18926-22.02906-6.519 22.23666-6.57365 22.2197-.61549-.835 45.29-.37953 22.645-.17532 22.645-.067 45.29-.11591 22.645-.052 22.645.05766 45.29.11521 22.645.07579 22.645.17426Q495.9431 427.97308 541.23324 428.68388z"/><path d="M326.71105 373.81046c.63233.09591 1.25513.20129 1.86833.32584q-2.11269 12.25914-4.34988 24.50868-2.65873 14.61594-5.69121 29.165 1.92585-14.731 4.21574-29.4141Q324.65111 386.09356 326.71105 373.81046zM338.35212 310.63237q-1.92578 14.74542-4.21568 29.41417c-.12456.78566-.23953 1.56173-.36409 2.34739q-.733-.21561-1.49465-.43116c.12456-.71859.25871-1.44677.3928-2.16535Q335.32933 325.18139 338.35212 310.63237z"/><path d="M326.74388 216.61566c-1.91137 5.98015-3.81468 11.96153-5.61495 17.97356q-2.76689 8.99646-5.30782 18.05554a330.60543 330.60543 0 00-8.52258 36.56494 84.83556 84.83556 0 00-1.0601 9.25906 24.222 24.222 0 00.86058 9.00742 7.09364 7.09364 0 002.36645 3.5072 8.30349 8.30349 0 003.99948 1.63021 51.07906 51.07906 0 009.26543.61923 55.50645 55.50645 0 0018.19034-3.91129 108.49419 108.49419 0 0016.83807-8.27088l.42906-.256.04006.50187q.47043 5.89641 1.016 11.78984c.37684 3.92678.79566 7.84919 1.23074 11.76861q.65955 5.87834 1.46162 11.734c.55128 3.89445 1.14314 7.80422 2.02377 11.58651l.2283.98051-.99291-.08818c-4.02246-.35743-7.95679-.96987-11.89685-1.67448-3.935-.70391-7.84153-1.55531-11.7192-2.52079a211.39779 211.39779 0 01-22.895-7.0892l-.11818-.044-.11439-.08128c-3.23726-2.30149-6.51985-4.56906-9.82548-6.77342a89.36558 89.36558 0 00-10.15167-6.03588 11.95737 11.95737 0 00-1.2756-.49917 3.2376 3.2376 0 00-.55409-.13222c-.10684-.0286-.0928.00766-.14432-.01-.03427-.01222-.14175.03848-.21.05a6.50775 6.50775 0 00-1.163.52146q-.61456.34263-1.22624.735c-1.62776 1.05262-3.21546 2.24014-4.77292 3.45878q-2.33751 1.83156-4.60087 3.76978l-2.25225 1.9409-1.09923.9883c-.346.31964-.74823.69425-.98689.96022l-.31391.35-.4504-.01819a16.705 16.705 0 00-4.825.5383 11.78744 11.78744 0 00-4.33163 2.04968 8.992 8.992 0 00-1.6732 1.67167c-.46543.58444-.96022 1.39946-1.48237 2.08992-1.04338 1.41758-2.16495 2.752-3.30809 4.05538l-3.45539 3.85141c-.573.63654-1.14 1.2753-1.67466 1.92506a8.592 8.592 0 00-1.30916 1.93851c-.072.15275-.01205.21088-.069.096-.04111-.04223.00579.016.0334.04631l.0866.10245c.055.07053.12755.12784.18977.19334a3.84012 3.84012 0 00.90782.63145 4.79167 4.79167 0 002.22365.47368 9.69941 9.69941 0 004.58333-1.5084l1.52922-.891-.7994 1.56384c-.93677 1.83284-1.81273 3.719-2.61266 5.62379a42.60494 42.60494 0 00-2.06394 5.82623 11.49653 11.49653 0 00-.43164 2.99821 2.64242 2.64242 0 00.33363 1.362 1.25419 1.25419 0 001.14682.56525 6.837 6.837 0 002.85657-.90045c.457-.23719.89911-.50772 1.34782-.76479l1.30226-.85051-.01193.01006.00971-.00924.13549.13543-.00935.00971-.00521.00538-.007.005-1.27917.90385c-.44379.27637-.88045.56607-1.33723.82478a7.12146 7.12146 0 01-3.00669 1.05133 2.078 2.078 0 01-.84911-.143l-.38946-.23508a3.31565 3.31565 0 01-.29719-.33707 3.11474 3.11474 0 01-.47409-1.60431 12.0214 12.0214 0 01.3338-3.175 42.605 42.605 0 011.88512-6.00507c.76279-1.95214 1.59261-3.86509 2.50236-5.76179l.72976.67286a10.75872 10.75872 0 01-5.08947 1.79 5.98537 5.98537 0 01-2.79183-.531 5.0885 5.0885 0 01-1.22525-.80852c-.08953-.087-.18672-.16491-.26888-.26094l-.12591-.1407a.96018.96018 0 01-.157-.21216 1.3714 1.3714 0 01-.06526-1.15179 5.45525 5.45525 0 01.68636-1.30373c.25356-.38.51988-.73537.79122-1.08273.54268-.69438 1.10337-1.35835 1.66635-2.01658l3.38294-3.89779c1.10823-1.30337 2.18429-2.62675 3.16212-3.99959.507-.6921.887-1.366 1.47471-2.14658a10.64137 10.64137 0 011.93881-1.99775 13.48688 13.48688 0 014.903-2.42424 18.34744 18.34744 0 015.39964-.67572l-.764.33163c.42116-.48367.7566-.78484 1.13466-1.15156l1.112-1.03133q1.11858-1.01631 2.25669-2.00144 2.28435-1.96523 4.65163-3.83719c1.58279-1.246 3.1909-2.46056 4.91274-3.58259q.64719-.41911 1.33969-.80811a8.194 8.194 0 011.56723-.69274 2.48519 2.48519 0 011.11923-.1048 5.07167 5.07167 0 01.90291.20228 13.78973 13.78973 0 011.51419.58368 90.62416 90.62416 0 0110.44974 6.15477c3.3551 2.20143 6.63506 4.4876 9.87846 6.85248l-.23222-.12515a209.5569 209.5569 0 0022.63075 7.2223c3.838.98192 7.70036 1.873 11.58692 2.63739 3.88082.75613 7.80977 1.42536 11.70984 1.83138l-.76438.89215c-.84051-3.92246-1.32185-7.84311-1.79231-11.77142-.44918-3.92813-.84537-7.85831-1.21145-11.79025l-1.0073-11.80147q-.49824-5.90053-.93016-11.80616l.46894.24573a126.2767 126.2767 0 01-16.90415 8.38106 60.12184 60.12184 0 01-18.39624 4.31678 51.79544 51.79544 0 01-9.51262-.40461 9.63463 9.63463 0 01-4.64819-1.79115 8.54424 8.54424 0 01-2.93136-4.09252 24.35814 24.35814 0 01-1.06975-9.60121 86.42506 86.42506 0 011.0073-9.45017c.96677-6.24254 2.37137-12.38486 3.88094-18.49547 1.53793-6.10226 3.19528-12.16937 5.01893-18.18508q2.7454-9.02014 5.73291-17.95771c2.03149-5.94518 4.08509-11.88141 6.31061-17.75654zM196.58361 285.22455l-20.34078 60.735 3.63124 1.21683 20.35037-60.735zm-16.18259 54.833a1.0785 1.0785 0 010-2.15576A1.0785 1.0785 0 01180.401 340.05755zm1.56174-4.16784a1.0785 1.0785 0 010-2.15576A1.0785 1.0785 0 01181.96276 335.88971zm1.37969-4.13907a1.0785 1.0785 0 010-2.15576A1.0785 1.0785 0 01183.34245 331.75064z"/><rect width="82.366" height="3.833" x="179.349" y="357.819" transform="rotate(-85.829 220.533 359.736)"/><polygon points="198.403 314.982 207.426 325.724 210.013 317.742 200.975 307.233 198.403 314.982"/><polygon points="201.507 366.53 210.53 377.272 213.117 369.29 204.079 358.781 201.507 366.53"/><path d="M188.97231 344.30059a95.90848 95.90848 0 012.99885-9.7339 94.76846 94.76846 0 013.89959-9.40923 94.76772 94.76772 0 01-2.99878 9.7339A95.89532 95.89532 0 01188.97231 344.30059zM191.50415 348.812a95.893 95.893 0 012.99879-9.7339 94.7699 94.7699 0 013.89965-9.40923 94.78156 94.78156 0 01-2.99879 9.73384A95.90853 95.90853 0 01191.50415 348.812zM194.95334 351.709a95.90444 95.90444 0 012.99879-9.73391 94.78512 94.78512 0 013.89965-9.40928 94.76529 94.76529 0 01-2.99879 9.7339A95.89484 95.89484 0 01194.95334 351.709zM201.75541 350.60571a95.88692 95.88692 0 011.98752-9.98952 94.76261 94.76261 0 012.9168-9.75875 94.76827 94.76827 0 01-1.98752 9.98951A95.87961 95.87961 0 01201.75541 350.60571zM208.10135 346.94435a95.89191 95.89191 0 012.19763-9.94547 94.75235 94.75235 0 013.12183-9.69514 94.7844 94.7844 0 01-2.19763 9.94548A95.89124 95.89124 0 01208.10135 346.94435zM212.21351 353.55514a95.90539 95.90539 0 011.52729-10.07021 94.78013 94.78013 0 012.46623-9.88227 94.76419 94.76419 0 01-1.52729 10.07022A95.88734 95.88734 0 01212.21351 353.55514z"/></svg>