<svg xmlns="http://www.w3.org/2000/svg" data-name="Layer 1" viewBox="0 0 700 550"><path fill="#020202" d="M285.95966,165.33986a56.1961,56.1961,0,0,1,.1731,7.83044,34.60117,34.60117,0,0,1-.42578,3.94238,16.45258,16.45258,0,0,1-.48291,1.98047,8.23833,8.23833,0,0,1-.38159.99634l-.18262.40753a2.314,2.314,0,0,0-.10437.34845,4.63154,4.63154,0,0,0,.69568,3.12915,16.91107,16.91107,0,0,0,2.14795,2.98l.624.70111.32263.342.16382.16871a2.35766,2.35766,0,0,1,.24939.29919,2.10188,2.10188,0,0,1,.3584,1.483,2.07958,2.07958,0,0,1-.24414.728,4.73762,4.73762,0,0,1-.33179.48156,5.973,5.973,0,0,1-3.54443,2.39423l.40136-.32965a61.53056,61.53056,0,0,1-3.69165,6.14691,30.79045,30.79045,0,0,1-4.55529,5.53424,10.55346,10.55346,0,0,1-3.06824,2.02747,5.81039,5.81039,0,0,1-1.87927.41821,5.385,5.385,0,0,1-.98645-.0545l-.8982-.16022a20.93,20.93,0,0,1-3.53845-.95038,8.75267,8.75267,0,0,1-1.72253-.88257,4.31188,4.31188,0,0,1-.814-.69793,2.56009,2.56009,0,0,1-.36121-.50007,1.92665,1.92665,0,0,1-.14855-.32391,1.39827,1.39827,0,0,1-.08814-.51849l1.27661.71978a17.11146,17.11146,0,0,0-4.11621,4.9535,15.47468,15.47468,0,0,0-1.27649,2.97485,19.1687,19.1687,0,0,0-.69055,3.15265l-.00818.05163a1.02485,1.02485,0,0,1-1.90808.33741,37.94017,37.94017,0,0,1-2.95471-6.98658,37.4654,37.4654,0,0,1-1.55078-7.38928,26.79983,26.79983,0,0,1,.20361-7.54272,20.48224,20.48224,0,0,1,2.54016-7.02588.09707.09707,0,0,1,.13269-.03461.10072.10072,0,0,1,.04041.12134,25.274,25.274,0,0,0-1.10742,3.48944,26.37754,26.37754,0,0,0-.55225,3.5838,31.17143,31.17143,0,0,0,.34387,7.19617,41.54872,41.54872,0,0,0,1.82239,6.97973,46.95536,46.95536,0,0,0,2.86816,6.57862l-1.91626.389a18.05056,18.05056,0,0,1,2.37488-6.81653,18.13921,18.13921,0,0,1,2.12427-2.91309,15.241,15.241,0,0,1,2.70605-2.44409l1.27674.71985c-.00061-.16278-.00806-.07868-.00293-.08508a.34083.34083,0,0,0,.032.08044.98406.98406,0,0,0,.14575.22479,2.78414,2.78414,0,0,0,.50745.47931,7.55228,7.55228,0,0,0,1.39038.80609,19.692,19.692,0,0,0,3.23132,1.15265c2.13709.87213,4.37085-.12439,6.12927-1.61926a23.16,23.16,0,0,0,4.46827-5.37091,42.09625,42.09625,0,0,0,3.16137-6.274.542.542,0,0,1,.35352-.3164l.04809-.01349a4.6778,4.6778,0,0,0,2.57947-2.11786,3.55541,3.55541,0,0,0,.195-.33576.52217.52217,0,0,0,.03894-.197.5705.5705,0,0,0-.119-.35821.78633.78633,0,0,0-.06677-.06958l-.18335-.17206-.3617-.34955c-.23828-.236-.474-.47516-.70166-.72278a15.949,15.949,0,0,1-2.389-3.32025,6.157,6.157,0,0,1-.75245-4.338,3.92845,3.92845,0,0,1,.20447-.57257l.23621-.47046a6.69693,6.69693,0,0,0,.35119-.80438,15.1147,15.1147,0,0,0,.52088-1.77631,36.95932,36.95932,0,0,0,.686-3.75659c.35486-2.54486.5951-5.12671.78809-7.71607a.09706.09706,0,0,1,.10217-.09161A.0991.0991,0,0,1,285.95966,165.33986Z"/><path fill="#020202" d="M257.8166,190.73225a21.18962,21.18962,0,0,0,1.68518,5.20355,11.19508,11.19508,0,0,0,1.44726,2.23853,15.084,15.084,0,0,0,1.96949,1.93109,6.37725,6.37725,0,0,1-2.512-1.4057,7.67221,7.67221,0,0,1-1.76928-2.3302,9.47941,9.47941,0,0,1-.86829-2.77222A7.98545,7.98545,0,0,1,257.8166,190.73225Z"/><path fill="#020202" d="M255.24836 186.55022c-7.30689 17.18763 2.56825 28.38618 2.56825 28.38618h0c-18.0695-3.88807-27.45162 6.9853-27.45162 6.9853h0c-4.86872-10.41787-16.09221-8.88366-16.09221-8.88366s-6.88154-7.11887 1.89845-12.93262c6.146-4.06963 6.94332-7.84856 6.86857-9.74965a14.51256 14.51256 0 01.5978-5.08486 22.16112 22.16112 0 013.48467-6.61251 32.7842 32.7842 0 005.56007-10.7874c2.4993-8.615 8.41217-22.33035 20.60433-21.51305a31.8545 31.8545 0 019.23637.47457 34.04317 34.04317 0 0111.7066 4.90412 44.66243 44.66243 0 0111.54824 10.28279A16.1738 16.1738 0 01283.56321 172.06c-3.28991 5.3202-8.89859 6.935-12.01862 7.425a6.27984 6.27984 0 01-5.79829-2.04031 5.82189 5.82189 0 01-1.11183-2.02781 8.33119 8.33119 0 00-4.02251-5.17054c-2.435-1.20524-5.41545-.84106-6.82932 6.48544C252.60579 182.82984 253.6959 185.4793 255.24836 186.55022zM365.824 293.47841a87.61746 87.61746 0 01-9.98608 1.15747q-4.994.33306-9.98926.3518c-3.33008.01734-6.66064-.08856-9.99121-.28943a86.61772 86.61772 0 01-9.99268-1.10376 86.67293 86.67293 0 019.98682-1.1618c3.3291-.22015 6.65869-.34546 9.98853-.34747q4.99439-.018 9.99023.29376A87.64212 87.64212 0 01365.824 293.47841z"/><path fill="#020202" d="M290.1927,293.80745c-6.51343.543-13.04578.82556-19.58094,1.02154l-2.45129.07459-1.22583.03308a8.487,8.487,0,0,1-1.28845-.02655,11.15517,11.15517,0,0,1-5.2815-1.83789,17.17132,17.17132,0,0,1-3.94751-3.61628,24.06277,24.06277,0,0,1-2.89489-4.42376,1.12178,1.12178,0,0,1-.073-.18115l-.02-.06751q-2.86011-9.602-5.84583-19.22705-1.526-4.80222-3.16833-9.57483l-1.75135-4.73071-1.8833-4.67951c-1.30835-3.09808-2.65722-6.17956-4.09375-9.22131-1.43237-3.04352-2.95129-6.04681-4.46875-9.04785q-2.29833-4.49121-4.68664-8.93122a7.8607,7.8607,0,0,0-6.722-4.34851l-9.96557.37146c-3.38123.10071-6.76661.16529-10.166.15485-3.40344-.05872-6.79932-.15894-10.28674-.5603-.87378-.115-1.75379-.2525-2.66895-.45416a13.79823,13.79823,0,0,1-1.42651-.38746,5.75366,5.75366,0,0,1-1.75476-.89257,3.26646,3.26646,0,0,1-.60047-.63166,2.70618,2.70618,0,0,1-.47265-1.17,2.99146,2.99146,0,0,1-.00318-.68066l.06824-.32611a3.34487,3.34487,0,0,1,.18359-.60541,5.07117,5.07117,0,0,1,.469-.88953,5.77911,5.77911,0,0,1,.50256-.6878,16.04821,16.04821,0,0,1,2.06507-2.02686,78.4782,78.4782,0,0,1,8.61181-5.75653l8.71338-5.09277c1.431-.85279,2.85327-1.72535,4.18775-2.65174.3424-.23053.64709-.46563.98559-.71075l1.1189-.78015c.38989-.233.79394-.44281,1.1886-.6615.405-.2002.829-.36206,1.24255-.53656a14.20426,14.20426,0,0,1,5.22278-.83209,14.81455,14.81455,0,0,1,5.07641.95489.19339.19339,0,0,1-.10583.37036l-.01746-.00335a14.83032,14.83032,0,0,0-9.49316,1.09832c-.34009.19886-.69373.36658-1.02295.57569l-.95752.66784-.88257.75928c-.31689.2829-.65075.59692-.98181.87189-1.32861,1.13482-2.71521,2.12542-4.09631,3.12207-2.76221,1.98541-5.5979,3.8089-8.35645,5.70953a80.6428,80.6428,0,0,0-7.91052,5.84039,12.38417,12.38417,0,0,0-1.50256,1.53656,2.18413,2.18413,0,0,0-.23377.336,1.13689,1.13689,0,0,0-.11755.22522c-.03211.04486.01672-.00018.0061-.00183a.02887.02887,0,0,0-.0061-.01941,1.15276,1.15276,0,0,0-.00281-.366,1.18938,1.18938,0,0,0-.3877-.77679c-.04785-.03638.21973.11206.51319.19a9.954,9.954,0,0,0,1.017.24451c.73291.142,1.52063.24738,2.31823.33081,3.20484.364,6.54859.48456,9.87488.56891,3.33325.11481,6.6825.15625,10.03406.16144l5.03064-.02161,2.5166-.03027c.84924.0003,1.61755-.06037,2.68127.01025a10.74812,10.74812,0,0,1,9.12525,6.53577c1.35254,3.09668,2.65759,6.21167,3.95471,9.32782l3.858,9.35681,3.90943,9.32641c5.16235,12.43067,11.30078,24.58082,14.88879,37.70838l-.09277-.24829a18.725,18.725,0,0,0,5.49231,6.84131,8.07351,8.07351,0,0,0,3.7622,1.53692,7.30828,7.30828,0,0,0,1.14746.07544l1.2157.04688,2.43164.10217c6.486.26941,12.97461.62537,19.48243,1.24176a.19424.19424,0,0,1,.17736.20972A.1967.1967,0,0,1,290.1927,293.80745Z"/><path fill="#020202" d="M331.13117,284.7975c5.333-.148,10.665-.234,15.99683-.317l7.99731-.13159,3.99829-.05408a22.48719,22.48719,0,0,1,4.156.26209,21.76108,21.76108,0,0,1,7.86035,2.88818c.61719.37555,1.14917.741,1.71167,1.10724a16.93415,16.93415,0,0,1,1.73,1.28461,14.603,14.603,0,0,1,4.59058,7.32824,14.45006,14.45006,0,0,1,.40112,2.16681c.05249.36487.05689.73328.08154,1.10071l.03125,1.00977.19654,7.99554.36474,15.99139.29053,15.99244q.30213,15.99234.33862,31.98816l-.03662,15.99682-.01294,3.99927c-.00659.67486.00586,1.31451-.01635,2.01831a14.6022,14.6022,0,0,1-4.05225,9.81183,14.1745,14.1745,0,0,1-7.42456,4.086,20.43422,20.43422,0,0,1-4.15991.29052l-4.00269.00409-16.00537-.02044q-16.00305-.0379-32.00439-.3031c-10.667-.20173-21.34009-.37342-32.0066-.84363-10.666-.4466-21.34045-.9502-31.98779-1.88709-2.66357-.20977-5.3219-.48968-7.98376-.7312-2.65931-.2334-5.32459-.52466-7.99219-.82928l-4.00025-.4491-.99975-.116-.49988-.058a3.24727,3.24727,0,0,1-.37854-.0705l-.31421-.07782a11.18287,11.18287,0,0,1-2.20569-.8767,12.08359,12.08359,0,0,1-3.64135-2.92927A13.031,13.031,0,0,1,218.9,396.38a21.40565,21.40565,0,0,1-.75146-8.65717c.17834-2.53735.1936-5.20636.19311-7.8371-.02746-5.28485-.22058-10.5866-.52014-15.88055q-.46893-7.9411-1.16443-15.87085c-.46728-5.28546-1.08276-10.55615-1.72473-15.82227q-.97394-7.89843-2.24927-15.75457c-.87659-5.231-1.80908-10.45362-2.86535-15.65058a297.07721,297.07721,0,0,0-7.8346-30.81909c-1.57165-5.06372-3.317-10.06885-5.16406-15.03955-1.93836-4.931-3.92749-9.85437-6.25452-14.61981-1.094-2.4187-2.37158-4.74127-3.5636-7.11322a43.24632,43.24632,0,0,1-3.2583-7.431,34.55042,34.55042,0,0,1-1.50342-7.973,12.03986,12.03986,0,0,1,.39331-4.086,4.95251,4.95251,0,0,1,.9823-1.85449,3.83527,3.83527,0,0,1,1.76783-1.131.19345.19345,0,1,1,.12988.36444l-.01306.0047a3.65284,3.65284,0,0,0-2.2605,2.78626,11.88655,11.88655,0,0,0-.14539,3.85223,33.5705,33.5705,0,0,0,1.83081,7.632,41.79927,41.79927,0,0,0,3.50953,7.03479c1.334,2.32294,2.68286,4.64319,3.88269,7.03986A206.03856,206.03856,0,0,1,204.861,269.14973a330.85383,330.85383,0,0,1,14.1665,62.63776c1.354,10.62915,2.35108,21.30487,2.82325,32.01483.23693,5.35541.3667,10.71564.32861,16.09418-.03455,2.69946-.07629,5.36651-.30505,8.146-.07117.73987-.08045,1.264-.1261,1.90308a12.10483,12.10483,0,0,0,.00342,1.81525,13.34036,13.34036,0,0,0,.5968,3.45013,8.61765,8.61765,0,0,0,4.09277,5.0069,7.71,7.71,0,0,0,1.49316.62115l.17041.04462a.37776.37776,0,0,0,.11182.02264l.49243.06311.985.12628,3.93823.5199c2.62305.35657,5.25122.70148,7.89819.99121,2.64246.29712,5.28089.63263,7.92762.89838,10.58227,1.10223,21.18762,2.07184,31.81323,2.82831q31.87647,2.27334,63.89087,2.00781c5.32886-.04358,10.65674-.16895,15.98291-.31531l3.99341-.145a18.68134,18.68134,0,0,0,3.79248-.38806,13.52332,13.52332,0,0,0,3.42041-1.39032,13.23857,13.23857,0,0,0,2.83276-2.33832,12.1418,12.1418,0,0,0,3.01318-6.53356,11.935,11.935,0,0,0,.10987-1.81006c.00024-.62848-.03516-1.322-.05127-1.9798l-.123-3.99744-.478-15.98987q-.394-15.991-.54467-31.98529L376.9593,325.474l-.07666-15.9953-.02417-7.9978-.00244-.9892c-.01368-.29773-.00464-.59765-.041-.89416a11.68532,11.68532,0,0,0-.27466-1.77,12.15858,12.15858,0,0,0-1.33374-3.32874,12.321,12.321,0,0,0-2.27075-2.7984,14.38742,14.38742,0,0,0-1.44751-1.13769l-1.6106-1.11774a19.55156,19.55156,0,0,0-6.959-2.85944,20.45169,20.45169,0,0,0-3.804-.38257l-3.99877-.1278-7.99683-.27887c-5.33106-.18128-10.66187-.36554-15.9917-.6117a.19368.19368,0,0,1,.00366-.38708Z"/><path fill="#020202" d="M369.67316 305.13887l.10083 2.90222a.15756.15756 0 11-.31494.01092l-.00024-.00659.02075-2.90387a.09683.09683 0 01.1936-.00268zM369.87263 310.94331l.08618 2.90241a.26233.26233 0 11-.52442.01556l-.00024-.0083.00635-2.90369a.21611.21611 0 01.43213-.006zM370.04523 316.74812l.08619 2.9024a.35477.35477 0 01-.70923.02106l-.00025-.01129.00611-2.90369a.30866.30866 0 01.61718-.00848zM370.2176 322.55293l.08642 2.9024a.44722.44722 0 01-.894.02655l-.00024-.01422.0061-2.90368a.401.401 0 01.80176-.01105zM370.37824 328.35786l.06958 2.90265a.511.511 0 01-1.02173.02448v-.01038l-.01049-2.90344a.48139.48139 0 01.96264-.01331zM370.5174 334.16316l.06983 2.90259a.57011.57011 0 01-1.1399.02734l-.00024-.0116-.0105-2.90344a.54048.54048 0 011.08081-.01489zM370.65681 339.9684l.06958 2.90264a.62921.62921 0 01-1.25806.03016l-.00024-.01282-.0105-2.90344a.5997.5997 0 011.19922-.01654zM370.796 345.77363l.06958 2.90265a.68831.68831 0 11-1.37622.033l-.00025-.014-.0105-2.90344a.65879.65879 0 011.31739-.01819zM370.93513 351.57893l.05566 2.90283a.73329.73329 0 01-1.46631.028V354.502l-.0249-2.90326a.71785.71785 0 011.43555-.01978zM371.04279 357.38459l.05225 2.9029a.75745.75745 0 01-1.51465.02722v-.00629l-.02808-2.90326a.74532.74532 0 011.49048-.02057zM371.147 363.19038l.05225 2.90283a.7815.7815 0 01-1.56275.02808v-.00647l-.02807-2.9032a.76936.76936 0 011.53857-.02124zM371.25129 368.99611l.052 2.90289a.80555.80555 0 01-1.61084.02893v-.00671l-.02808-2.9032a.79354.79354 0 011.58692-.02191zM371.35554 374.80183l.052 2.90289a.8296.8296 0 11-1.65894.02979v-.0069l-.02807-2.9032a.81759.81759 0 011.635-.02258zM371.45979 380.60762l.052 2.90283a.85378.85378 0 11-1.70728.03064V383.534l-.02807-2.9032a.84176.84176 0 011.68335-.02319zM371.564 386.41334l.03614 2.92414a.86518.86518 0 11-1.73023.02142l-.00049-.03961-.03686-2.88208a.86582.86582 0 111.73144-.02637zM371.17927 392.41871a12.62132 12.62132 0 01-1.15918 2.88147.846.846 0 01-1.48267-.81537 10.91079 10.91079 0 00.98609-2.499.85565.85565 0 111.65722.42682zM368.19514 397.80952a12.67848 12.67848 0 01-2.377 1.98944.82652.82652 0 01-.9021-1.38519 11.01141 11.01141 0 002.05347-1.74213.83616.83616 0 011.22974 1.1333zM363.02839 401.14857a12.60561 12.60561 0 01-3.0354.625.807.807 0 01-.13428-1.60846 10.97563 10.97563 0 002.64038-.562.81679.81679 0 11.53491 1.54352zM357.04328 401.84858l-2.90307.02161a.76813.76813 0 01-.02466-1.536l2.89746-.0799a.79734.79734 0 11.04858 1.59394zM351.23859 401.882l-2.90332.00366a.70685.70685 0 01-.01489-1.41357l2.89868-.06494a.73754.73754 0 11.03711 1.47461zM345.43415 401.8813l-2.90259-.01215a.6456.6456 0 01-.00635-1.29113l2.89869-.04908a.67625.67625 0 01.02636 1.35224zM339.62824 401.84913l-2.904-.02807a.58392.58392 0 01.00049-1.16779l2.90063-.03393a.615.615 0 11.01758 1.22979zM333.82282 401.78444l-2.9021-.04432a.52045.52045 0 01.00586-1.04083l2.89966-.01916a.55221.55221 0 11.01025 1.10437zM328.01765 401.68794l-2.90308-.06a.457.457 0 01.01025-.91382l2.90113-.00348a.48871.48871 0 11.0039.97742zM322.21149 401.56l-2.89965-.07587a.39347.39347 0 01.01294-.7868l2.89843.01233a.42523.42523 0 01-.00122.85046zM316.411 401.41511l-2.90137-.073a.3641.3641 0 01.01636-.728l2.89966.04785a.37665.37665 0 11-.01026.75323zM310.60773 401.26075l-2.90185-.08978a.33891.33891 0 01.019-.67755l2.90064.06458a.35151.35151 0 11-.01368.70288zM304.80378 401.07264l-2.90186-.10711a.31372.31372 0 01.02149-.62708l2.90063.08185a.32634.32634 0 11-.01635.65247zM299.00031 400.8495l-2.89721-.12177a.29168.29168 0 01.02368-.58288l2.896.10278a.30115.30115 0 11-.01953.602zM293.20429 400.61543l-2.89953-.12177a.31042.31042 0 11.02612-.6203l.00305.00019 2.89661.14038a.301.301 0 01-.02625.6015zM287.40485 400.36219l-2.9-.14147a.32916.32916 0 01.032-.65754l.0033.00019 2.89685.16a.3198.3198 0 01-.03211.63879zM281.6048 400.0691L278.705 399.907a.34792.34792 0 11.03882-.69476l.00354.00018 2.89612.18067a.33856.33856 0 01-.0387.676zM275.80561 399.73414l-2.89941-.17578a.3748.3748 0 01.04528-.74823l.006.00043 2.89428.21045a.35731.35731 0 01-.04614.71313zM270.01093 399.37953l-2.901-.191a.42584.42584 0 01.05591-.84985l.00928.00067 2.8938.24164a.40032.40032 0 01-.058.79852zM264.21174 398.98567l-2.89746-.21533a.4769.4769 0 11.07068-.95117l.01049.00085 2.88916.26587a.45137.45137 0 01-.07287.89978zM258.41755 398.54219l-2.89575-.24152a.528.528 0 01.08777-1.05237l.01171.0011 2.88636.29193a.50246.50246 0 01-.09009 1.00086zM252.62666 398.0489l-2.89417-.26575a.5865.5865 0 01.1073-1.16809l.01465.00153 2.88257.32367a.55708.55708 0 01-.11035 1.10864zM246.83942 397.50258l-2.89172-.296a.64532.64532 0 11.13135-1.28394l.01648.00189 2.87842.35364a.61589.61589 0 01-.13453 1.22437zM241.0572 396.89454l-2.89283-.32928a.70411.70411 0 11.15931-1.39917l.01819.00232 2.87756.38659a.67468.67468 0 01-.16223 1.33954zM235.159 396.04976a9.70449 9.70449 0 01-2.7467-1.50623.74927.74927 0 01.9209-1.18219l.0094.00745a8.2348 8.2348 0 002.30676 1.306.72992.72992 0 01-.49036 1.375zM230.28889 392.23774a10.99217 10.99217 0 01-1.31458-2.82208.788.788 0 111.50611-.46423l.00305.01044a9.4322 9.4322 0 001.09375 2.43713.76866.76866 0 01-1.28833.83874zM228.41071 386.39961a19.57528 19.57528 0 01-.00012-3.02808.82674.82674 0 011.649.121l-.001.01129a17.94642 17.94642 0 00-.03784 2.77368.80738.80738 0 01-1.61011.12207zM228.58833 380.50984l.06079-2.87549.00036-.02069a.86543.86543 0 011.73047.03656l-.00024.0116-.10083 2.91992a.84586.84586 0 01-1.691-.04639zM228.65559 374.75l-.03394-2.88843-.00012-.01129a.88989.88989 0 111.77966-.02093l.00012.00677.012 2.91187a.87882.87882 0 01-1.75757.01434zM228.55268 368.9723l-.09936-2.88812-.00037-.00891a.9121.9121 0 011.82312-.06275l.00012.007.07788 2.90692a.90094.90094 0 01-1.801.05548zM228.32612 363.19447l-.153-2.88666-.00036-.008a.93417.93417 0 111.86572-.09888l.00037.00714.13159 2.90387a.92306.92306 0 01-1.84387.091zM227.99555 357.42054l-.20129-2.887-.00061-.00769a.95636.95636 0 011.90808-.13306l.00049.00727.18029 2.90381a.94524.94524 0 01-1.88635.12475zM227.57 351.65138l-.24694-2.882-.00061-.00757a.97842.97842 0 111.9497-.16705l.00061.00745.22608 2.89892a.96736.96736 0 01-1.92823.1582zM227.05366 345.88832l-.29163-2.87958-.00085-.00763a1.00057 1.00057 0 111.991-.20166l.00074.00757.27111 2.897a.98943.98943 0 01-1.96948.19232zM226.44819 340.13105l-.33545-2.87115-.001-.00781a1.02272 1.02272 0 012.03162-.23737l.00085.00775.31531 2.88922a1.01161 1.01161 0 01-2.01037.22754zM225.7624 334.38923l-.36511-2.86981-.001-.00793a1.02191 1.02191 0 012.0271-.26093l.37549 2.88465a1.02611 1.02611 0 11-2.035.265l-.00049-.003zM225.00959 328.65187l-.41052-2.86481-.00122-.00806a1.01339 1.01339 0 012.00586-.29046l.42126 2.8797a1.01761 1.01761 0 11-2.01379.29461l-.00037-.00293zM224.16535 322.92537l-.45727-2.85822-.00135-.00824a1.00486 1.00486 0 011.984-.32037l.46826 2.87329a1.00911 1.00911 0 11-1.99194.32464l-.00049-.00293zM223.22712 317.21278l-.50452-2.846-.00146-.00842a.99633.99633 0 011.96155-.35071l.51586 2.86133a1.00061 1.00061 0 01-1.96948.355l-.00049-.00287zM222.19318 311.52412l-.55456-2.83881-.00171-.00872a.98779.98779 0 011.93835-.38172l.56653 2.85456a.99212.99212 0 11-1.94629.38623l-.00061-.00287zM221.05805 305.85109l-.60681-2.82911-.002-.009a.97936.97936 0 011.91455-.41357l.619 2.84527a.9836.9836 0 01-1.92224.41822l-.00062-.00281zM219.81745 300.19868l-.66138-2.817-.00219-.0094a.97085.97085 0 011.88965-.44654l.67407 2.83374a.97508.97508 0 01-1.89722.4513l-.00073-.00281zM218.47077 294.57057l-.70325-2.80554-.00244-.00965a.94242.94242 0 011.82508-.4707l.74658 2.815a.96227.96227 0 01-1.86023.49335l-.00195-.00769zM217.03425 288.9662l-.764-2.79047-.00269-.00982a.90279.90279 0 011.73816-.48865l.80762 2.79938a.92263.92263 0 11-1.773.51153l-.00207-.00732zM215.47468 283.39418l-.82788-2.772-.00305-.00994a.86321.86321 0 011.65075-.50538l.87195 2.78028a.88305.88305 0 01-1.68518.5285l-.0022-.007zM213.78535 277.86055l-.896-2.75055-.00317-.01007a.82358.82358 0 011.56262-.52082l.94018 2.75818a.84344.84344 0 11-1.59668.54425l-.00219-.00653zM211.958 272.37147l-.96826-2.72571-.00366-.01019a.784.784 0 011.474-.53491l1.01282 2.7326a.8039.8039 0 01-1.50757.55878l-.0022-.00622zM209.98359 266.934l-1.04529-2.69677-.004-.01038a.74445.74445 0 011.38452-.54755l1.09021 2.70295a.76429.76429 0 11-1.4176.57183l-.00232-.00579zM207.853 261.55647l-1.11621-2.66815-.00427-.01032a.69177.69177 0 011.27026-.54809l1.18445 2.66333a.72417.72417 0 11-1.32336.58856l-.005-.01148zM205.57709 256.23872l-1.20459-2.62952-.00463-.01007a.62721.62721 0 011.13452-.535l1.27258 2.62219a.65963.65963 0 11-1.18689.576l-.00488-.01031zM203.12128 251.00135L201.822 248.417l-.00489-.00958a.56265.56265 0 01.99964-.5166l1.3667 2.57416a.595.595 0 11-1.051.558l-.00476-.00909zM200.47138 245.85548c-.4657-.83612-.91943-1.6991-1.36572-2.57471a.49807.49807 0 01.88208-.4627l.0033.00622c.45031.83686.9143 1.67468 1.40795 2.51673a.53044.53044 0 01-.91516.53662l-.00451-.00794zM197.826 240.66469l-1.23853-2.63752a.4315.4315 0 01.77649-.37646l.00293.00586 1.29468 2.59637.00293.00586a.46583.46583 0 11-.83374.41577zM195.39948 235.37141l-1.14807-2.67737a.33785.33785 0 01.61633-.27673l.00269.00592 1.22852 2.62793.00268.00568a.38477.38477 0 11-.69714.32586zM193.15583 229.99745L192.1291 227.271a.24412.24412 0 01.45385-.17981l.00318.00781 1.10791 2.67682.00317.00769a.29111.29111 0 11-.538.22266zM191.2093 224.50483l-.71582-2.83642a.15012.15012 0 01.28979-.07837l.00537.019.79663 2.77557.005.01752a.19736.19736 0 01-.3794.10889zM190.57807 218.7259a.89224.89224 0 01.50208-.39666.09673.09673 0 01.12121.06353.09891.09891 0 01-.06286.121.68882.68882 0 00-.38306.31964.1037.1037 0 11-.17944-.104zM280.86335 284.53615a38.896 38.896 0 01-6.45325 1.0794c-2.14953.19361-4.29809.27332-6.4458.25568-2.14758-.017-4.29431-.13581-6.44006-.36786a38.386 38.386 0 01-6.43262-1.19946 38.38689 38.38689 0 016.45313-1.08332c2.14965-.19336 4.29809-.27337 6.4458-.25171 2.14758.021 4.29431.13947 6.44006.37177A38.9 38.9 0 01280.86335 284.53615zM225.34309 401.58876c.36938 3.02472.53234 6.04944.65332 9.07416.10693 3.02471.16809 6.04943.05542 9.07415-.13855 3.02478-.42054 6.0495-.4917 9.07422-.00525.75617-.02967 1.51239-.01917 2.26856a4.99308 4.99308 0 00.29285 2.12164 3.9677 3.9677 0 003.08594 2.4361 4.0767 4.0767 0 001.93957-.21869 4.00925 4.00925 0 001.54016-1.09143 3.76308 3.76308 0 00.8263-1.638 4.03155 4.03155 0 00.09338-.907l-.0238-1.13134c-.0669-3.02472-.1482-6.04944-.12183-9.07416.08179-6.0495.32471-12.09894.93543-18.14838a.09723.09723 0 01.19348 0c.61059 6.04944.85363 12.09888.93542 18.14838.02625 3.02472-.05493 6.04944-.12182 9.07416l-.0254 1.13714a5.24074 5.24074 0 01-.2069 1.335 5.101 5.101 0 01-6.17908 3.55194 5.02787 5.02787 0 01-3.48767-3.24688 5.46887 5.46887 0 01-.2522-1.185c-.02576-.41339-.01709-.78644-.01306-1.16351.0105-.75617-.01392-1.51239-.01917-2.26856-.07129-3.02472-.35315-6.04944-.4917-9.07422-.11267-3.02472-.05151-6.04944.05542-9.07415.121-3.02472.28382-6.04944.65332-9.07416a.09746.09746 0 01.19349 0zM363.44929 408.36311c.36938 2.58246.53222 5.16486.65332 7.74731.10693 2.5824.168 5.16486.05542 7.74726-.11963 2.58246-.43213 5.16485-.4917 7.74731a3.93157 3.93157 0 001.36157 3.21942 3.87646 3.87646 0 006.38062-2.50763c.04809-.4663.00244-1.16827-.00708-1.80554-.0669-2.58246-.1482-5.16485-.12183-7.74731a150.9384 150.9384 0 01.9353-15.49457.09751.09751 0 01.19361 0 150.94165 150.94165 0 01.93554 15.49457c.02613 2.58246-.05493 5.16485-.12182 7.74731a15.78469 15.78469 0 01-.11939 2.06189 5.04383 5.04383 0 01-4.66162 4.16669 5.02649 5.02649 0 01-3.85791-1.4314 5.09275 5.09275 0 01-1.54468-3.70343c-.05957-2.58246-.37231-5.16485-.4917-7.74731-.11255-2.5824-.05151-5.16486.05542-7.74726.1211-2.58245.28394-5.16485.65332-7.74731a.0978.0978 0 01.19361 0zM230.28107 221.87343a11.60778 11.60778 0 012.44947-2.853 19.59988 19.59988 0 013.08105-2.18634 24.024 24.024 0 017.10242-2.55622 36.96059 36.96059 0 017.51721-.75341c1.25562.05462 2.51416.10254 3.769.18182l3.74231.434a.70614.70614 0 01.4076.191l.02685.0257c2.00354 1.91131 4.02844 3.80047 6.01441 5.73l-.71692-.23621a25.40374 25.40374 0 0110.02026 1.23737 29.31652 29.31652 0 018.82935 4.66076c.66406.50013 1.26013 1.0868 1.89111 1.62494.30676.27936.63171.539.92236.834l.83814.91894c.54455.62384 1.14453 1.19806 1.65649 1.84564l1.47925 1.98706c.23926.33564.50635.6521.72766.99927l.63928 1.05786 1.27722 2.11518c.75855 1.45837 1.454 2.95086 2.18409 4.42675l.00293.00666.0061.01733a28.52406 28.52406 0 002.34766 5.04334 12.46955 12.46955 0 001.65136 2.1781 4.3044 4.3044 0 002.12549 1.34857.45735.45735 0 01.36377.535l-.01587.06086-.00512.01452a78.518 78.518 0 01-3.94092 9.31006 66.6982 66.6982 0 01-5.19043 8.70477 48.02528 48.02528 0 01-6.74744 7.66065 31.14066 31.14066 0 01-8.74609 5.509.98386.98386 0 01-1.022-.176l-.01525-.01385c-3.444-3.06274-6.7323-6.233-9.89539-9.55573-3.1814-3.29809-6.19116-6.76452-9.04565-10.35827-1.41492-1.80744-2.79419-3.64478-4.09314-5.542-1.27417-1.91492-2.48059-3.87787-3.5636-5.91236a32.62689 32.62689 0 01-2.653-6.38708 14.76131 14.76131 0 01-.51916-6.855.09677.09677 0 01.114-.07587.10006.10006 0 01.07691.108 15.02559 15.02559 0 00.99524 6.60938 36.24008 36.24008 0 002.93725 6.0686 89.38457 89.38457 0 007.98425 10.94482c2.91626 3.46637 6.03016 6.76606 9.19971 10.00922 3.18933 3.217 6.45813 6.39111 9.81763 9.39862l-1.037-.18982a29.40692 29.40692 0 008.21887-5.0022 48.19028 48.19028 0 006.62085-7.24218 70.49417 70.49417 0 005.34754-8.34333 73.03232 73.03232 0 004.27221-8.97528l.34278.61011a5.13229 5.13229 0 01-2.52808-1.69983A13.94629 13.94629 0 01295.878 246.994a29.158 29.158 0 01-2.33472-5.21136l.00891.02362c-.709-1.459-1.34326-2.96064-2.1134-4.38837l-1.27991-2.07062-.63928-1.035c-.21851-.34113-.491-.64447-.73645-.96625l-1.50708-1.90417c-.51929-.61878-1.12109-1.16462-1.68469-1.74115l-.8573-.85321c-.29615-.27253-.62525-.50873-.93567-.76459-.63794-.491-1.23841-1.02948-1.90259-1.47974a28.18416 28.18416 0 00-8.64014-4.04846 26.92215 26.92215 0 00-9.3529-.98431l-.041.00347a.87427.87427 0 01-.67614-.2398c-1.99537-1.9198-3.95154-3.88-5.9292-5.81806l.434.21656-3.63355-.49024c-1.21521-.09881-2.43347-.16766-3.65124-.24475a40.44666 40.44666 0 00-7.276.43134 25.5695 25.5695 0 00-6.95654 2.09619 18.97267 18.97267 0 00-3.11731 1.89282 12.51563 12.51563 0 00-2.60681 2.55206l-.00659.009a.09647.09647 0 01-.16126-.10553z"/><path fill="#020202" d="M250.02546 227.51307a11.04865 11.04865 0 012.2041-2.72528 13.08289 13.08289 0 012.90833-2.02282 10.46635 10.46635 0 013.40283-1.05243 8.49692 8.49692 0 013.50769.26361 17.5451 17.5451 0 00-3.36817.47857 14.88356 14.88356 0 00-3.109 1.17493A26.60217 26.60217 0 00250.02546 227.51307zM277.49335 280.16926a81.27013 81.27013 0 0011.4181 11.69757 42.27169 42.27169 0 0013.92626 8.02832 20.89981 20.89981 0 007.82056.95435 19.99687 19.99687 0 007.5271-2.16681c4.7146-2.38025 8.3479-6.60107 10.98169-11.23767a35.01788 35.01788 0 004.25781-15.45636l.18848-16.42981.00439-4.11121a21.39474 21.39474 0 01.27832-4.15478 25.90226 25.90226 0 01.93384-4.06458 39.03016 39.03016 0 011.73462-3.78521c1.23755-2.45478 2.53-4.87055 3.70264-7.33094a32.23015 32.23015 0 002.75-7.53949.651.651 0 01.0293-.10766l.00708-.01886 3.1394-8.44287 1.51465-4.23041a3.11539 3.11539 0 00.23266-.87451 1.878 1.878 0 00-.09057-.7591 1.45737 1.45737 0 00-.95-.9563c-.74366-.27771-1.91333.68982-2.71509 1.7898a22.447 22.447 0 00-2.19287 3.71448 37.1231 37.1231 0 01-4.94214 7.81207 15.8906 15.8906 0 01-3.57813 3.19916 7.57433 7.57433 0 01-2.40673 1.00238 3.923 3.923 0 01-2.94092-.48139 5.0721 5.0721 0 01-1.7937-5.0885 9.34563 9.34563 0 01.75048-2.40283l.2605-.54163c.075-.14764.14307-.29785.207-.44921a6.65037 6.65037 0 00.313-.92572 5.50633 5.50633 0 00.16406-1.8808 1.53351 1.53351 0 00-.14111-.57935c-.0144-.02881.0459.05231.09424.05.05688.0061.02-.00037-.05176.01715a4.37 4.37 0 00-1.45312.96179 9.77443 9.77443 0 00-1.33985 1.53962 22.10371 22.10371 0 00-3.2207 7.92553l.01147-.19592.3169 7.24774.15845 3.62305.07934 1.81128a14.38466 14.38466 0 01.0166 1.86767 26.48842 26.48842 0 01-2.10083 7.12549c-.9292 2.25153-1.9873 4.43591-3.02563 6.611l-.0083.0177-.02149.03754c-2.3125 3.44666-4.613 6.90094-6.95922 10.3263a.09686.09686 0 01-.16358-.10352c2.09131-3.58667 4.22852-7.14429 6.35352-10.70966l-.02979.05487c.96826-2.21612 1.94287-4.415 2.7815-6.65808a25.60532 25.60532 0 001.77929-6.777 14.65282 14.65282 0 00-.07861-1.7486l-.11939-1.80481-.23852-3.60913-.47705-7.21655a.84391.84391 0 01.01147-.19629 27.46551 27.46551 0 011.229-4.50879 19.18056 19.18056 0 012.11548-4.23267 11.72346 11.72346 0 011.59643-1.86957 5.89283 5.89283 0 012.30786-1.449 2.04886 2.04886 0 011.06055-.00977 1.81264 1.81264 0 01.99.69117 3.18487 3.18487 0 01.52759 1.546 7.50282 7.50282 0 01-.18994 2.59045 8.70409 8.70409 0 01-.395 1.21216c-.08008.19555-.16553.38849-.2583.57709l-.22315.47619a7.8806 7.8806 0 00-.58325 1.88965 4.07116 4.07116 0 00.06421 1.7749 2.44591 2.44591 0 00.82129 1.259c.67968.4936 2.01074.16443 3.12964-.54956a14.6736 14.6736 0 003.136-2.7691 35.22461 35.22461 0 004.76074-7.33154 24.19587 24.19587 0 012.44141-4.00257 8.45122 8.45122 0 011.79224-1.76959 3.3275 3.3275 0 012.89209-.59869 3.22765 3.22765 0 012.10351 2.11828 3.59524 3.59524 0 01.155 1.46515 4.75069 4.75069 0 01-.35156 1.29407l-1.625 4.22162c-1.10767 2.79974-2.21069 5.5965-3.3689 8.37457l.03614-.12616a33.21535 33.21535 0 01-3.11426 7.77686c-1.2666 2.45019-2.625 4.83526-3.92725 7.23889a40.22433 40.22433 0 00-1.80078 3.63336 24.34283 24.34283 0 00-.95605 3.92889 20.59884 20.59884 0 00-.3191 4.0337l-.0476 4.11218c-.00318 5.49048-.08887 10.94507.08813 16.46252a36.02353 36.02353 0 01-3.83081 16.122 31.30113 31.30113 0 01-4.77 6.92139 23.57086 23.57086 0 01-6.70923 5.18115 21.44183 21.44183 0 01-8.20215 2.24567 22.47365 22.47365 0 01-8.39282-1.13581c-5.39062-1.74121-10.02551-5.038-14.15722-8.67511a63.96091 63.96091 0 01-5.81519-5.88238 65.50478 65.50478 0 01-5.07349-6.50415.0968.0968 0 01.02637-.13434A.10012.10012 0 01277.49335 280.16926z"/><path fill="#020202" d="M299.35065 252.74757c1.87891 1.42853 3.648 2.98859 5.38013 4.58637 1.73877 1.592 3.39307 3.27246 5.01563 4.9826 1.61059 1.72138 3.16967 3.49347 4.6394 5.33893a63.73621 63.73621 0 014.13892 5.7348c-.81079-.86084-1.54468-1.77643-2.356-2.62976-.76831-.88739-1.55518-1.75806-2.34912-2.62164-1.594-1.721-3.16089-3.46326-4.77857-5.16065zM275.57758 222.46681a102.06073 102.06073 0 0116.66614-10.01343 80.90733 80.90733 0 019.02051-3.74292 49.84 49.84 0 019.52075-2.32574 82.34705 82.34705 0 019.72168-.74237c.8125-.01917 1.62744-.01575 2.44189.02581l.61084.02784a2.623 2.623 0 01.67041.13336 2.45858 2.45858 0 011.10914.78766 2.51348 2.51348 0 01-1.18726 3.95263l-.5752.19208c-3.0642 1.03809-6.13671 2.05176-9.239 3.0014-1.5542.46546-3.11279.92835-4.70435 1.3025-.79541.19067-1.59765.365-2.418.51049a11.01168 11.01168 0 01-2.64576.20868.8529.8529 0 01.04688-1.70349l.06641-.00079 13.842-.17249.01294-.00018a.94244.94244 0 01.47973.12585 3.53379 3.53379 0 01.82227.65754 2.41745 2.41745 0 01.57129 1.08984 2.38593 2.38593 0 01-.79834 2.20123 8.88254 8.88254 0 01-2.802 1.612 26.57782 26.57782 0 01-2.81568.87244c-.93848.26752-1.88086.43213-2.82031.6524l.4895-.26452a26.3435 26.3435 0 01-3.46191 2.74206 22.43864 22.43864 0 01-3.884 2.11743 11.66041 11.66041 0 01-4.4248.97351 6.91184 6.91184 0 01-4.3418-1.53173l.66944.02313c-1.519.92071-3.02088 1.86786-4.55494 2.766-1.52941.90515-3.04992 1.82391-4.59387 2.70709a.097.097 0 01-.10669-.16144c1.41724-1.07489 2.85791-2.11419 4.28968-3.16711 1.42712-1.05987 2.88671-2.0708 4.32861-3.10815a.54532.54532 0 01.62744-.00647l.04248.0296a5.60491 5.60491 0 003.61548.99585 10.15308 10.15308 0 003.79516-1.02124 20.74312 20.74312 0 003.49244-2.10742 30.98971 30.98971 0 003.1206-2.64643 1.01883 1.01883 0 01.45386-.25567l.03613-.0091c.89771-.23022 1.81983-.40973 2.69654-.68017a27.1717 27.1717 0 002.58935-.85016 7.28543 7.28543 0 002.11182-1.1546c.26733-.2406.21533-.33014.2312-.29413.012-.00275-.02515-.06195-.08569-.14575a1.82886 1.82886 0 00-.27833-.23053l.49244.12554-13.842-.17248.113-1.70429a10.00293 10.00293 0 002.17749-.10308c.77515-.104 1.5586-.23932 2.34131-.39252 1.564-.31519 3.13721-.64648 4.70337-1.0155q4.69921-1.11173 9.35034-2.4748l.57959-.17346a1.86119 1.86119 0 00.469-.21 1.8423 1.8423 0 00.67871-.763 1.90888 1.90888 0 00-.22241-1.97241 1.84375 1.84375 0 00-.83252-.60376 2.03252 2.03252 0 00-.51539-.094l-.5996-.01855c-.79859-.02911-1.60059-.02185-2.40186.00976a62.26444 62.26444 0 00-9.53442 1.30506 67.39929 67.39929 0 00-9.1565 2.75165q-4.51758 1.60381-8.912 3.58422c-5.8601 2.61622-11.6018 5.54627-17.23547 8.71a.09679.09679 0 01-.13293-.033A.09985.09985 0 01275.57758 222.46681z"/><path fill="#020202" d="M333.66883 194.037l-8.48737 12.88109c1.6161 2.758-1.99367 3.60008-1.99367 3.60008l-4.113 4.85824s1.1712 1.94523-2.11936 3.04838l5.21642 2.26467s1.7711-5.31305 4.4613-6.81315l-2.22569-.70645 10.026-16.36493 13.5488 1.38384-10.0359 19.27794-8.90345-2.82582a8.30849 8.30849 0 01-1.18066 4.88729l-.56138 2.35162 6.71652 2.1678a114.18162 114.18162 0 007.13235-9.794c2.08085-3.55165 3.94858-6.36778 5.284-6.00014l7.49077-12.83266zm-11.46818 23.37159a1.45258 1.45258 0 010-2.90332A1.45258 1.45258 0 01322.20065 217.40861zm11.84575 3.94858a1.45258 1.45258 0 010-2.90332A1.45258 1.45258 0 01334.0464 221.35719zM282.42048 218.42152a38.64651 38.64651 0 014.95129 4.20136 38.21043 38.21043 0 014.27234 4.89019 38.20207 38.20207 0 01-4.95129-4.20135A38.64748 38.64748 0 01282.42048 218.42152zM464.38581 325.27651c-4.75167-2.37111-40.5786-70.29894-40.5786-70.29894-5.7003-10.51968-13.16178-15.74567-20.26508-18.1651a33.57868 33.57868 0 00-29.19783 4.00659l-40.60766 26.77829c.629 12.37783-2.44849 17.02307-2.44849 17.02307l34.259 1.53872c13.23929 3.697 12.71666 14.40056 12.71666 14.40056l1.084 78.825c21.98751 10.67455 49.20136 0 49.20136 0l-4.03553-22.07492-3.91952-21.591c-1.3451-7.18079-2.69044-14.3519-4.26779-21.4748-.7452-3.571-1.597-7.1131-2.50661-10.64549-.89051-3.52258-1.87742-7.03572-3.00988-10.48092a67.96358 67.96358 0 00-4.06459-10.06485 20.04791 20.04791 0 00-2.9905-4.4711 7.43133 7.43133 0 00-2.10968-1.61622 2.86111 2.86111 0 00-2.58387-.09675 2.95808 2.95808 0 012.69043-.16457 7.68565 7.68565 0 012.36131 1.50978 21.12069 21.12069 0 013.455 4.36466 60.12486 60.12486 0 014.66472 10.03579 161.11845 161.11845 0 015.98077 21.21359c1.558 7.17111 2.82581 14.40033 3.87108 21.64893 1.06441 7.24872 1.829 14.536 2.42912 21.833C443.027 353.99034 464.38581 325.27651 464.38581 325.27651zM383.65414 378.6782a1.45258 1.45258 0 010-2.90331A1.45258 1.45258 0 01383.65414 378.6782zm6.96815 1.858a1.45258 1.45258 0 010-2.90332A1.45258 1.45258 0 01390.62229 380.53625zm31.3557-4.76136a1.45245 1.45245 0 010 2.90331A1.45245 1.45245 0 01421.978 375.77489zm-7.66467 2.32255a1.45245 1.45245 0 010 2.90332A1.45245 1.45245 0 01414.31332 378.09744zm-7.43266.929a1.45244 1.45244 0 010 2.90331A1.45244 1.45244 0 01406.88066 379.02647zm-8.12918 2.671a1.45258 1.45258 0 010-2.90331A1.45258 1.45258 0 01398.75148 381.69752zm62.24713-59.11133a1.45245 1.45245 0 010 2.90332A1.45245 1.45245 0 01460.99861 322.58619zm-5.10986 5.80663a1.45245 1.45245 0 010 2.90332A1.45245 1.45245 0 01455.88875 328.39282zm-29.49766 26.36209a1.45258 1.45258 0 010-2.90331A1.45258 1.45258 0 01426.39109 354.75491zm6.27114-2.7873a1.45258 1.45258 0 010-2.90332A1.45258 1.45258 0 01432.66223 351.96761zm6.27114-3.71621a1.45258 1.45258 0 010-2.90332A1.45258 1.45258 0 01438.93337 348.2514zm5.80663-5.10975a1.45258 1.45258 0 010-2.90331A1.45258 1.45258 0 01444.74 343.14165zm5.80663-9.17457a1.45245 1.45245 0 010 2.90332A1.45245 1.45245 0 01450.54663 333.96708z"/><path fill="none" d="M424.51367,357.30973l-3.91952-21.591c-1.3451-7.18079-2.69044-14.3519-4.26779-21.4748-.7452-3.571-1.597-7.1131-2.50661-10.64549-.89051-3.52258-1.87742-7.03572-3.00988-10.48092a67.96358,67.96358,0,0,0-4.06459-10.06485,20.04791,20.04791,0,0,0-2.9905-4.4711,7.43133,7.43133,0,0,0-2.10968-1.61622,2.86111,2.86111,0,0,0-2.58387-.09675,2.95808,2.95808,0,0,1,2.69043-.16457,7.68565,7.68565,0,0,1,2.36131,1.50978,21.12069,21.12069,0,0,1,3.455,4.36466,60.12486,60.12486,0,0,1,4.66472,10.03579,161.11845,161.11845,0,0,1,5.98077,21.21359c1.558,7.17111,2.82581,14.40033,3.87108,21.64893C423.149,342.72546,423.91354,350.01269,424.51367,357.30973Z"/><path fill="#020202" d="M379.52009 397.25593c.26562 4.48657.38672 8.98151.22705 13.48938a39.84157 39.84157 0 01-.68042 6.821 7.21542 7.21542 0 01-.26294.88989l-.217.47357-.113.2345a.73612.73612 0 01-.03662.08777 1.16507 1.16507 0 00.19531.93988 6.92553 6.92553 0 002.12354 2.0885 14.09411 14.09411 0 0012.12549 1.6524 14.89626 14.89626 0 001.4646-.58783c.51635-.2442 1.04541-.48291 1.57812-.70324a22.63058 22.63058 0 013.30347-1.07 22.9235 22.9235 0 016.87842-.51148 26.83755 26.83755 0 016.72607 1.21277 22.19282 22.19282 0 013.17212 1.27607 23.30307 23.30307 0 003.09009 1.20538 54.93335 54.93335 0 006.49438 1.61835c2.19458.4201 4.40259.78289 6.62427 1.02392a66.29761 66.29761 0 0013.32275.2489 20.29991 20.29991 0 006.27368-1.44854 4.8478 4.8478 0 002.187-1.77021 3.25513 3.25513 0 00.1958-2.561l.15039.29834a12.12106 12.12106 0 00-1.39966-1.34394c-.51392-.43841-1.06714-.84021-1.62012-1.24017a31.79383 31.79383 0 00-3.54492-2.11041 50.9188 50.9188 0 00-7.70679-3.12256 76.23539 76.23539 0 00-8.12133-2.03528c-1.36817-.299-2.749-.47-4.12354-.71271a27.61894 27.61894 0 01-4.3-.89276 28.90912 28.90912 0 01-7.93432-3.6709 20.65288 20.65288 0 01-9.115-14.36 28.67648 28.67648 0 01.06739-8.55731.09694.09694 0 01.19262.02014 30.19876 30.19876 0 00.56592 8.38476 20.34052 20.34052 0 003.24073 7.56385 20.87185 20.87185 0 005.93847 5.58642 27.15832 27.15832 0 007.54956 3.20209 29.56314 29.56314 0 004.03418.7569c1.42017.22705 2.85913.38647 4.26538.67169 1.40992.27087 2.82276.52984 4.21192.91046 1.40136.32385 2.77856.7503 4.157 1.17084a48.66354 48.66354 0 017.98462 3.37567 25.06409 25.06409 0 017.07056 5.31659.65967.65967 0 01.13867.25506l.012.04364a4.92853 4.92853 0 01-.44922 3.93476 6.44229 6.44229 0 01-2.99023 2.3468 20.46271 20.46271 0 01-6.82447 1.346 70.81146 70.81146 0 01-13.52661-.84674 90.40629 90.40629 0 01-13.20581-2.81849 30.27006 30.27006 0 01-3.19726-1.17883 20.43 20.43 0 00-3.104-1.1322 25.88271 25.88271 0 00-6.53784-.83514 21.70514 21.70514 0 00-6.46484.79809 25.58916 25.58916 0 00-3.04737 1.13776c-.498.222-.98559.45813-1.47656.7066a16.55154 16.55154 0 01-1.63769.70972 14.42737 14.42737 0 01-7.043.64367 15.79761 15.79761 0 01-6.54712-2.6087 8.34 8.34 0 01-2.55518-2.667 3.3292 3.3292 0 01-.35937-1.01868 2.07279 2.07279 0 01.14721-1.255l.1521-.28815.06421-.14691.1377-.28912a6.01458 6.01458 0 00.22363-.71717 39.79513 39.79513 0 00.95142-6.51983c.34155-4.45124.54785-8.934.71118-13.4184a.09669.09669 0 01.09912-.09442A.09825.09825 0 01379.52009 397.25593zM436.23444 352.42256c.937 1.72363 1.77979 3.4931 2.5813 5.28418.8003 1.791 1.55908 3.60547 2.21143 5.46295a55.12655 55.12655 0 011.70459 5.67493 22.18491 22.18491 0 01.7229 5.98626 10.16733 10.16733 0 01-.16626 1.55982 6.52416 6.52416 0 01-.18042.78393l-.12085.39075c-.0166.05725-.04883.14777-.053.17761a.48967.48967 0 01-.01733.08039c-.11914.46051.35058 1.31024.93213 1.92144a11.53725 11.53725 0 004.59179 2.84906 13.84227 13.84227 0 005.41675.75519 13.5274 13.5274 0 005.2937-1.49414 22.89012 22.89012 0 015.74829-1.84991 25.55629 25.55629 0 015.99512-.2171 26.765 26.765 0 015.86572 1.037 23.93107 23.93107 0 012.79932 1.02484 27.066 27.066 0 002.66919 1.1568 55.16388 55.16388 0 0011.37793 2.45679 59.50565 59.50565 0 0011.62549.34235 30.5849 30.5849 0 005.66308-.92817 14.35181 14.35181 0 002.60083-1.00012 6.43215 6.43215 0 002.09888-1.55993 3.57053 3.57053 0 00.936-2.20746 4.93277 4.93277 0 00-.40307-2.45374 8.02188 8.02188 0 00-1.49146-2.17706 21.35137 21.35137 0 00-2.00537-1.9762 33.48833 33.48833 0 00-9.77832-5.75219 50.6391 50.6391 0 00-5.45019-1.78943c-1.85669-.49976-3.81983-1.0019-5.68628-1.63623a63.937 63.937 0 01-10.89063-4.76447 69.33412 69.33412 0 01-9.77661-6.71258 58.02882 58.02882 0 01-8.41016-8.32233 33.48808 33.48808 0 01-5.843-10.217.09687.09687 0 01.06006-.123.09893.09893 0 01.12084.0542 35.9774 35.9774 0 006.40674 9.65021 61.53014 61.53014 0 008.60132 7.76849 65.79381 65.79381 0 0020.374 10.70465c1.84252.60553 3.66381 1.0907 5.582 1.6059a44.41027 44.41027 0 015.6687 1.91174 35.38247 35.38247 0 0110.23169 6.26178 23.1254 23.1254 0 012.1311 2.1734 9.2703 9.2703 0 011.73267 2.68586 6.59107 6.59107 0 01.43823 3.28167 5.80513 5.80513 0 01-.44092 1.65039 6.1085 6.1085 0 01-.95557 1.39887 7.901 7.901 0 01-2.61572 1.84765 15.506 15.506 0 01-2.90771.97638 31.7311 31.7311 0 01-5.93164.70679 70.71121 70.71121 0 01-11.77246-.72534 66.913 66.913 0 01-11.49878-2.5398c-.92579-.31567-1.877-.72155-2.7378-1.10467a20.83008 20.83008 0 00-2.7334-.90192 25.8295 25.8295 0 00-5.70312-.7276 24.64254 24.64254 0 00-5.68433.46863 22.44576 22.44576 0 00-5.30468 1.96985 14.296 14.296 0 01-11.9917.88983 13.11684 13.11684 0 01-5.20484-3.38855 6.32325 6.32325 0 01-.9458-1.38208 2.9526 2.9526 0 01-.302-1.92249l.07593-.2741.05469-.17255.10107-.30786a5.12209 5.12209 0 00.15942-.64044 8.72661 8.72661 0 00.16773-1.34906 35.506 35.506 0 00-1.90845-11.26752 116.22652 116.22652 0 00-4.00268-10.98029.09691.09691 0 01.04956-.12762A.09909.09909 0 01436.23444 352.42256zM279.76647 183.28531a1.45253 1.45253 0 000-2.90332 1.45253 1.45253 0 000 2.90332zM256.74116 185.088a1.45252 1.45252 0 000-2.90331 1.45252 1.45252 0 000 2.90331zM275.63154 193.69844c.67383.8277 1.23083 1.57263 1.88769 2.23a9.1742 9.1742 0 001.03028.93066c.36523.30658.77685.54572 1.21692.87329a3.026 3.026 0 01-1.58936-.2163 3.90522 3.90522 0 01-1.34973-.91181 4.49442 4.49442 0 01-.89392-1.34131A3.39973 3.39973 0 01275.63154 193.69844zM282.42048 177.325a2.40687 2.40687 0 01-2.654-1.15387 2.26631 2.26631 0 011.51965.13331A2.29322 2.29322 0 01282.42048 177.325zM255.24836 186.55024a12.63489 12.63489 0 001.49109.10382c.4563.00751.89258-.06341 1.49451-.10382a1.52332 1.52332 0 01-.62745.61 1.821 1.821 0 01-.86621.21924A1.6565 1.6565 0 01255.24836 186.55024zM276.5829 276.71658a1.45253 1.45253 0 000-2.90332 1.45253 1.45253 0 000 2.90332zM281.46047 272.53581a1.45253 1.45253 0 000-2.90332 1.45253 1.45253 0 000 2.90332zM286.57031 267.426a1.45252 1.45252 0 000-2.90331 1.45252 1.45252 0 000 2.90331zM290.98335 261.61934a1.45252 1.45252 0 000-2.90331 1.45252 1.45252 0 000 2.90331zM294.69959 255.81271a1.45252 1.45252 0 000-2.90331 1.45252 1.45252 0 000 2.90331z"/><path fill="none" d="M421.978,378.6782a1.45258,1.45258,0,0,1,0-2.90331A1.45258,1.45258,0,0,1,421.978,378.6782Z"/><polygon fill="none" stroke="#000" stroke-miterlimit="10" stroke-width=".968" points="345.58 159.331 319.958 159.331 319.958 175.192 329.277 175.192 332.769 178.684 336.26 175.192 345.58 175.192 345.58 159.331"/><polygon fill="none" stroke="#000" stroke-miterlimit="10" stroke-width=".968" points="371.202 134.96 345.58 134.96 345.58 150.821 354.899 150.821 358.391 154.313 361.882 150.821 371.202 150.821 371.202 134.96"/><polygon fill="none" stroke="#000" stroke-miterlimit="10" stroke-width=".968" points="342.577 113.75 316.955 113.75 316.955 129.611 326.275 129.611 329.767 133.102 333.258 129.611 342.577 129.611 342.577 113.75"/></svg>