<svg xmlns="http://www.w3.org/2000/svg" data-name="Layer 1" viewBox="0 0 700 550" id="girl-siting-near-fan-and-holding-cold-drink-can"><path d="M241.65134 174.33984l-19.71-6.83971c5.92826-1.32881 13.98614-1.72911 24.92269-.5282a36.49145 36.49145 0 00-5.545 17.06943zM222.74217 219.30451c0-3.72222-11.17528-22.8018-15.05086-29.30931l33.61067-5.5109c-.15326 6.36267 1.925 13.51753 9.24175 19.69283l-10.63 6.54161s.6303 14.09667 1.6268 34.241a46.23516 46.23516 0 01-18.56855-4.79545C222.84427 228.27353 222.74217 220.31816 222.74217 219.30451zM258.72056 398.78868a5.949 5.949 0 00.30672 3.2878 211.61757 211.61757 0 01-22.99769 1.20955c-31.2683 0-56.6254-6.31162-56.6254-14.1052 0-6.62676 18.33855-12.1803 43.0483-13.69647 1.39681-18.86654 1.04766-81.33515.6644-121.35111a59.66786 59.66786 0 0019.06243 3.5859c.50262 9.80384 1.06471 20.468 1.66943 31.30241-8.25356 2.93855-14.02 7.89589-12.88712 11.08149a1.84788 1.84788 0 00.16178.34925l-.0341.00842a19.85892 19.85892 0 001.66943 10.42572c.46851.94545 1.25228 3.02371 2.2573 5.76637l-.00852.57082s-5.82616 12.31651-3.27086 12.23978a21.52723 21.52723 0 005.62174-1.20092s.1021 4.80387 2.453 4.80387c0 0-.20442 5.00849 2.862 5.1106 0 0-1.09028 5.10207 1.83974 6.13278h1.53322l.27263-.3322c.37473.69.74945 1.34585 1.12439 1.9591v.00853c.92829 12.47829 1.85679 22.921 2.73413 29.5733 19.90567 1.27765 35.5783 5.1787 40.69722 10.14446C281.05405 388.1416 259.66611 394.07 258.72056 398.78868z"></path><path d="M223.08789,254.21342a65.877,65.877,0,0,1-22.50145-13.57783,74.4327,74.4327,0,0,1-15.73078-21.20439,78.48365,78.48365,0,0,1-7.5882-25.3393,62.38952,62.38952,0,0,1-.567-6.61886l-.11087-3.32159c-.0269-1.10689.04093-2.21447.05684-3.32159a84.67,84.67,0,0,1,1.53471-13.18555,77.9734,77.9734,0,0,1,9.50186-24.65253,73.76889,73.76889,0,0,1,17.29755-19.85985,64.59139,64.59139,0,0,1,23.45184-11.84662,61.16924,61.16924,0,0,1,26.27777-1.06431A62.36633,62.36633,0,0,1,279.06,120.37407a69.9885,69.9885,0,0,1,18.4849,18.93823,81.98927,81.98927,0,0,1,6.61628,76.44316,75.4899,75.4899,0,0,1-14.55746,22.10918,65.92313,65.92313,0,0,1-21.62216,15.12307,60.34442,60.34442,0,0,1-25.80386,4.81654l.00327-.17029a60.59554,60.59554,0,0,0,25.45346-5.435,65.81789,65.81789,0,0,0,21.00018-15.24821c11.9037-12.75351,18.78524-29.77761,20.03014-47.0838a82.54613,82.54613,0,0,0-2.17073-25.86351,76.27953,76.27953,0,0,0-10.28641-23.80833,70.61207,70.61207,0,0,0-17.89824-18.74969,61.23931,61.23931,0,0,0-23.77161-10.30769,58.88558,58.88558,0,0,0-25.9545.72747,61.17994,61.17994,0,0,0-23.235,11.7278,68.3032,68.3032,0,0,0-9.36946,9.143,73.41059,73.41059,0,0,0-7.47709,10.73459,77.72066,77.72066,0,0,0-8.93556,24.44481,83.23079,83.23079,0,0,0-1.433,12.96427c-.00912,1.08794-.07017,2.17611-.03719,3.26358l.12842,3.26148c.01988,2.17868.30128,4.33772.527,6.5019a77.08249,77.08249,0,0,0,7.27826,24.95007,75.13216,75.13216,0,0,0,15.16939,21.1286,68.13058,68.13058,0,0,0,21.94683,14.06788Z"></path><path d="M223.00976,240.088a11.5766,11.5766,0,0,1,2.41541.48514c.385.1097.7656.226,1.135.36865a6.3282,6.3282,0,0,1,1.09075.47438,20.625,20.625,0,0,0,2.11693,1.18992,7.70046,7.70046,0,0,0,2.35482.47719,23.56116,23.56116,0,0,1,2.396.207c.7883.094,1.57565.16281,2.35108.30877a27.45379,27.45379,0,0,1,4.67456,1.27554l-.00725.17029a12.87856,12.87856,0,0,1-4.93608.35368,15.92889,15.92889,0,0,1-2.40394-.53052,12.86891,12.86891,0,0,1-2.30851-.88186,11.21714,11.21714,0,0,0-2.28628-.85613c-.78525-.19719-1.64208-.2028-2.44862-.38292a8.54129,8.54129,0,0,1-2.25307-.96232,8.35946,8.35946,0,0,1-1.96629-1.54431Z"></path><path d="M296.41976,183.68362a70.84522,70.84522,0,0,1-2.41658,18.72629,66.30815,66.30815,0,0,1-7.31686,17.45614l.0655-.22924.00023.00843.00164.11882-.06784.11135a58.02444,58.02444,0,0,1-11.47446,13.75092,50.50339,50.50339,0,0,1-15.41289,9.23379,46.02633,46.02633,0,0,1-35.18993-1.37167,56.00354,56.00354,0,0,1-7.80013-4.44228,58.53179,58.53179,0,0,1-6.90049-5.70846,59.30441,59.30441,0,0,1-5.96038-6.66681c-.86572-1.21332-1.76185-2.40792-2.56628-3.66217-.77754-1.2718-1.61051-2.51015-2.30126-3.83176a69.77472,69.77472,0,0,1-8.75988-34.30223,70.59889,70.59889,0,0,1,2.28839-17.75367,60.91135,60.91135,0,0,1,2.87248-8.51217l.86969-2.07529c.28187-.6959.65379-1.35039.97636-2.02758l1.004-2.01634c.35765-.65964.74782-1.30221,1.12536-1.95132a60.26352,60.26352,0,0,1,11.28616-13.99817,51.21376,51.21376,0,0,1,15.2288-9.62911,46.66,46.66,0,0,1,35.38829.1076,52.2098,52.2098,0,0,1,15.09944,9.77624,58.92786,58.92786,0,0,1,11.06254,14.08963l.061.1069-.00163.11064-.00024.00819-.05918-.21707a66.87837,66.87837,0,0,1,6.70213,16.84187A70.9754,70.9754,0,0,1,296.41976,183.68362Zm-.17029,0a70.70473,70.70473,0,0,0-2.38594-17.854,64.99322,64.99322,0,0,0-7.0799-16.50176l-.05731-.09473-.00187-.12281-.00023-.00819.05918.21708a58.75889,58.75889,0,0,0-11.25178-13.50087,50.68494,50.68494,0,0,0-14.81664-9.2228,44.90467,44.90467,0,0,0-34.069-.00561,49.57212,49.57212,0,0,0-14.78366,9.19543,58.66088,58.66088,0,0,0-11.08382,13.53735c-.371.632-.76865,1.24911-1.127,1.88863l-1.01285,1.95319c-.32631.6566-.70174,1.29028-.98829,1.96629l-.88466,2.01705a59.61252,59.61252,0,0,0-2.95645,8.2986,69.4994,69.4994,0,0,0-2.54289,17.43883,70.425,70.425,0,0,0,1.84371,17.56841,67.00712,67.00712,0,0,0,6.42214,16.47019,61.56687,61.56687,0,0,0,4.875,7.39382,58.655,58.655,0,0,0,5.95454,6.54377,52.14027,52.14027,0,0,0,6.90657,5.50519,55.10164,55.10164,0,0,0,7.75218,4.19128,46.38808,46.38808,0,0,0,34.25169.87414c11.02044-4.0107,20.28862-12.14556,26.67753-22.01677l-.066.22994.00023-.00843.00188-.13.06385-.09965a65.17922,65.17922,0,0,0,7.71054-17.09146A70.57806,70.57806,0,0,0,296.24947,183.68362Z"></path><circle cx="263.426" cy="184.484" r="24.02"></circle><path d="M383.41974,148.33767a13.67557,13.67557,0,0,0-3.38545,4.29421,20.82276,20.82276,0,0,0-1.84652,5.17326l-.27135,1.35016-.16771,1.3677c-.1448.90782-.11743,1.83319-.17965,2.7478-.01263.91812.04117,1.83763.058,2.75482l.26924,2.744.00561.05567-.00959.055c-.72747,4.15667-1.45378,8.33486-1.86594,12.51539a22.05027,22.05027,0,0,0-.12187,3.09376,21.62326,21.62326,0,0,0,.47508,3.0589,32.2135,32.2135,0,0,0,1.95015,5.92156,24.38786,24.38786,0,0,0,7.40224,9.76525,19.46889,19.46889,0,0,0,11.456,3.84205l.36233.00515.19555.31438c3.15224,5.06613,6.27454,10.14138,9.27379,15.31184.74432,1.29846,1.4863,2.59318,2.18149,3.941.17334.33778.35135.66713.51017,1.03391l.24444.5373c.08141.22526.15415.49029.21544.73637l.01146.04771-.00093.13193a.8962.8962,0,0,1-.044.25474,1.07063,1.07063,0,0,1-.21614.38572,1.52747,1.52747,0,0,1-.43321.33824,3.3323,3.3323,0,0,1-.6711.26105,10.31384,10.31384,0,0,1-1.18174.25169c-3.03715.43976-5.9819.56117-8.93859.86923a66.72689,66.72689,0,0,0-8.72924,1.338,25.96421,25.96421,0,0,0-4.13725,1.31273,16.55388,16.55388,0,0,0-3.66919,2.20207c-4.56789,3.57258-7.9248,8.59848-11.00032,13.63-3.07294,5.07221-5.81606,10.358-8.4324,15.70084-1.32817,2.66242-2.59318,5.35689-3.84673,8.0572-1.27858,2.68838-2.47576,5.4156-3.69539,8.132q-7.16447,16.3675-13.721,33.00142l-.08748.22269-.23158-.0559c-4.17141-1.007-8.297-2.15132-12.40638-3.36323q-6.16028-1.82664-12.25878-3.85539-6.09677-2.0319-12.10954-4.31152c-4.01539-1.49986-7.9744-3.14709-11.92054-4.82543l.19532.04374-25.76082-.46409.48514-1.13308a12.23818,12.23818,0,0,1,1.98476,2.996,17.24289,17.24289,0,0,1,1.20584,3.30054,22.34124,22.34124,0,0,1,.614,6.93371,30.96924,30.96924,0,0,1-1.2463,6.80739c-.70525,2.2257-1.55343,4.269-2.03108,6.39126a11.64223,11.64223,0,0,0,.00117,6.22331,4.491,4.491,0,0,0,1.70618,2.23973,4.132,4.132,0,0,0,2.66967.67321c.4552-.03509.83741-.2393.76607-.27812a5.89107,5.89107,0,0,1,.49028-.83836,7.18962,7.18962,0,0,0,.40023-.64841,11.73068,11.73068,0,0,0,.92771-2.98826c.42736-2.152.67391-4.3845.89238-6.61137l.04328-.44047.38456-.22362,7.24574-4.21.51883-.30152.48139.37988c10.32267,8.14165,20.85025,16.11347,31.9184,23.18191,2.77985,1.73986,5.58261,3.451,8.47521,4.95572l2.1712,1.12349,2.21985.97566c.37122.15719.73847.33474,1.1125.47532l1.13285.3614a15.50847,15.50847,0,0,0,2.29751.63882,21.95772,21.95772,0,0,0,9.44525.167,17.57244,17.57244,0,0,0,4.355-1.75366,20.96784,20.96784,0,0,0,3.74755-2.91645,37.82629,37.82629,0,0,0,3.21329-3.6334,34.60384,34.60384,0,0,0,2.81985-3.96252c1.74781-2.76815,3.40533-5.62331,5.0701-8.463q4.961-8.548,9.85227-17.1469l19.43154-34.46667.091-.1614.12233.13427,2.82733,3.09867-.12467.11626-2.89634-3.03411.2131-.0269q-9.26794,17.48185-18.7567,34.84607c-3.17751,5.78051-6.34471,11.56733-9.616,17.30035-1.64326,2.865-3.26967,5.73068-5.01584,8.55591a36.16691,36.16691,0,0,1-2.87131,4.11737,39.24382,39.24382,0,0,1-3.301,3.80182,22.485,22.485,0,0,1-4.01187,3.17937,19.1341,19.1341,0,0,1-4.77187,1.97377,23.5773,23.5773,0,0,1-10.17155-.06339,16.26966,16.26966,0,0,1-2.46406-.6732l-1.22314-.38994c-.39672-.14854-.77426-.32935-1.16233-.49239l-2.30944-1.01028-2.2243-1.14431c-2.96113-1.53355-5.79594-3.257-8.60854-5.00906-5.60156-3.53866-11.01926-7.333-16.36-11.22511-5.3356-3.90217-10.58792-7.89884-15.74107-12.052l1,.07813-7.268,4.17117.42759-.66361c-.23461,2.25821-.49262,4.51409-.95531,6.78493a13.17192,13.17192,0,0,1-1.10992,3.43762c-.31438.58782-.69847,1.03764-.85894,1.40419l-.04023.07929a2.35113,2.35113,0,0,1-.12959.21848,1.43022,1.43022,0,0,1-.295.32163,2.18318,2.18318,0,0,1-.574.339,3.62876,3.62876,0,0,1-1.05239.2566,5.75813,5.75813,0,0,1-3.75831-.95624,6.12649,6.12649,0,0,1-2.3202-3.04932,13.12711,13.12711,0,0,1-.02269-7.12879,29.66766,29.66766,0,0,1,1.00092-3.32533c.39929-1.094.7249-2.1043,1.09262-3.16043a30.705,30.705,0,0,0,1.24583-6.45933,20.90268,20.90268,0,0,0-.495-6.48622,15.88,15.88,0,0,0-1.07391-3.05353,11.14933,11.14933,0,0,0-1.69331-2.6526l-1.04841-1.17869,1.53379.04538,25.75356.76256.10316.003.0924.04047c3.91035,1.71717,7.83708,3.403,11.82159,4.94894q5.95956,2.36031,12.02486,4.44929,6.05186,2.12067,12.201,3.952c4.094,1.22781,8.21392,2.39037,12.35843,3.41071l-.31883.16678c4.465-11.05154,8.8614-22.1328,13.61455-33.06879,2.359-5.47525,4.74473-10.9416,7.31335-16.3282,2.54079-5.39805,5.21443-10.74324,8.24153-15.91136a87.11216,87.11216,0,0,1,4.90683-7.5496,33.802,33.802,0,0,1,6.268-6.59407,17.99865,17.99865,0,0,1,3.963-2.39762,27.38691,27.38691,0,0,1,4.36462-1.41028,68.1604,68.1604,0,0,1,8.92058-1.41308c2.96815-.32561,5.98588-.472,8.85158-.8601a8.956,8.956,0,0,0,1.00443-.20538,1.98874,1.98874,0,0,0,.371-.135c.03649-.018.04959-.03719.01076.00491a.43092.43092,0,0,0-.0772.1462.706.706,0,0,0-.02152.11836.32586.32586,0,0,0,.00422.06246l-.00843-.01919a2.74538,2.74538,0,0,1-.11251-.33122l-.2166-.48046c-.13427-.31859-.3083-.64631-.47321-.97192-.66292-1.30431-1.39484-2.60043-2.12465-3.8907-2.95084-5.156-6.04437-10.25109-9.15848-15.32143l.55742.31929a20.79861,20.79861,0,0,1-12.19632-4.177,25.38108,25.38108,0,0,1-7.64668-10.34465,33.24987,33.24987,0,0,1-1.92769-6.14775,16.96258,16.96258,0,0,1-.28094-6.45816c.48351-4.23854,1.24888-8.40316,2.09822-12.56077l-.00421.11041-.20655-2.796c.00468-.93543-.0269-1.87015.00866-2.80371.08514-.93192.08093-1.86991.25-2.79271l.20445-1.38735.30947-1.36864a21.18038,21.18038,0,0,1,2.00582-5.21887,13.87553,13.87553,0,0,1,3.55714-4.28977Z"></path><path d="M283.4459 316.48392a9.71917 9.71917 0 002.14126-1.53285 9.29044 9.29044 0 001.69167-2.12371 7.78486 7.78486 0 00.97051-2.58289 9.7135 9.7135 0 00.11649-2.83318 9.945 9.945 0 01.30643 2.88371 8.42793 8.42793 0 01-.62572 2.90124 10.35145 10.35145 0 01-1.5146 2.61494 11.06494 11.06494 0 01-2.24091 2.152zM341.06944 314.36816a9.48681 9.48681 0 015.63174-.007 5.76687 5.76687 0 012.3754 1.57659 6.86144 6.86144 0 011.381 2.45283 14.39419 14.39419 0 01.50666 5.48273 35.88325 35.88325 0 01-.86245 5.41139 35.81 35.81 0 00.64982-5.42192 14.09006 14.09006 0 00-.69543-5.32951 5.561 5.561 0 00-3.55785-3.56627 8.7783 8.7783 0 00-5.14893.20561zM379.33442 263.25564a23.26581 23.26581 0 002.25143 3.98591 25.11192 25.11192 0 002.89306 3.48626 26.533 26.533 0 003.4472 2.94406 42.62084 42.62084 0 003.87831 2.46242c-.73075-.24631-1.46594-.50619-2.18055-.814a18.41214 18.41214 0 01-2.06571-1.09473 18.87779 18.87779 0 01-3.68532-2.90007 18.26231 18.26231 0 01-2.847-3.73048A13.90742 13.90742 0 01379.33442 263.25564z"></path><path d="M488.39459,274.60118c-4.29293-22.38444-28.82364-61.02055-46.60883-53.66128-17.78478,7.35923-11.34538,34.03655-11.34538,34.03655s.30652,29.437-16.25177,29.74372-9.22428-54.53862-9.22428-54.53862-1.50805-5.86868-7.64052-2.49567c-6.13289,3.373-4.13947,15.4851-2.14647,28.67043s0,19.778,0,19.778c-8.67113,34.40285,11.34538,44.15554,12.87881,45.66318.80892.79213,6.18362,11.16664,11.06422,20.749,10.75813-5.75795,16.38819-10.03378,16.53292-10.6045.30652-1.22649,1.83995-55.80769,1.83995-55.80769s-14.4035-38.108,5.57017-46.71089a17.61612,17.61612,0,0,1,19.99987,4.73582c9.04544,10.19567,24.66712,31.41315,18.89191,51.17414,0,0-4.906,7.97252-13.49184,2.45309,0,0-3.88411,51.106-4.70177,60.91834s-15.96189,15.59584-15.96189,15.59584l2.87887.758c21.15775-4.59951,49.98138,0,49.98138,0C499.74,362.60563,492.68753,296.98557,488.39459,274.60118Z"></path><path d="M419.16054 342.62157c-4.46286 2.5195-9.0373 4.84251-13.66882 7.04505-4.63455 2.19763-9.35472 4.21211-14.11138 6.13419-4.759 1.9167-9.566 3.72065-14.43232 5.3494q-7.29183 2.46663-14.68869 4.60789l.25122-.12819-7.87591 6.26471-7.92013 6.20857-7.92925 6.19735-1.99178 1.53775a20.18817 20.18817 0 01-2.12348 1.49519c-1.5008.91437-3.17119 1.41705-4.47807 2.24511a7.23683 7.23683 0 00-2.7733 3.69913l-1.84792 4.66754c-1.21964 3.1071-2.49377 6.239-3.67083 9.3304a19.96212 19.96212 0 00-.1586 2.42523l-.03883 2.50991.003 5.02824q.03615 5.0294.13661 10.06044l-.09146-.1904a3.69138 3.69138 0 002.45868.84232 2.803 2.803 0 002.06874-1.44185 12.26385 12.26385 0 001.15671-2.54382 27.80767 27.80767 0 00.786-2.72535 68.25783 68.25783 0 001.59179-11.28546l.00257-.03672.0117-.04047 1.338-4.61186.37614-1.2966.396 1.30057c1.09449 3.595 2.23225 7.19078 3.53 10.704.32982.87414.6683 1.74875 1.05379 2.57774a6.84642 6.84642 0 00.61192 1.12116c.1186.243.52982.38432.93707.51016a22.44859 22.44859 0 005.43922.54526l.17193.00187.14526.08912 2.46593 1.51226.14456.08866.09357.18456a10.61618 10.61618 0 003.17375 3.7803 6.3332 6.3332 0 004.54544 1.14548 13.10607 13.10607 0 004.7197-1.66735 14.76464 14.76464 0 003.85539-3.18077l-.12421.74034a2.95773 2.95773 0 00-.99671-1.19507 3.27072 3.27072 0 00-1.54829-.55438 5.81654 5.81654 0 00-1.78945.11695c-.30362.08749-.60864.15907-.91133.25521l-.90291.33987-.97706.36772-.14737-1.00443-1.57542-10.72617-.07181-.48771.40444-.31906a65.02665 65.02665 0 006.26752-5.722 69.25267 69.25267 0 005.52273-6.45512 48.67518 48.67518 0 004.388-7.20926 31.48971 31.48971 0 002.48769-7.954l.054-.32772.2283-.20023c5.56039-4.87736 11.25669-9.56267 17.19415-13.96682 2.95879-2.2112 5.9777-4.34848 9.09345-6.3522a63.30125 63.30125 0 019.7746-5.36764l.087-.036.06806-.00631a45.9063 45.9063 0 019.94677.26783c1.64045.19929 3.26756.48888 4.88134.8318a38.39828 38.39828 0 014.78239 1.29285c3.10662 1.02455 6.21582 2.04722 9.3456 2.99879 1.56466.47648 3.13353.9387 4.712 1.36232.7897.20982 1.58127.41239 2.37775.58736.39836.08514.79788.16678 1.199.22713a3.3179 3.3179 0 001.17121.03626l.06737.15649a3.30881 3.30881 0 01-1.26642.01637c-.41052-.04772-.81613-.11672-1.2208-.18947-.80818-.14971-1.60957-.32655-2.40886-.5111-1.59764-.3724-3.185-.78339-4.76788-1.20864q-4.747-1.28385-9.45274-2.70757a37.38237 37.38237 0 00-4.72087-1.16115c-1.59577-.30105-3.20183-.54923-4.81655-.70783a44.97027 44.97027 0 00-9.65671-.04865l.15486-.04234a63.4419 63.4419 0 00-9.48128 5.39642c-3.04931 2.022-6.01419 4.18333-8.92175 6.42049-2.91458 2.22828-5.77185 4.53421-8.60316 6.87172-2.8313 2.334-5.64109 4.71152-8.3786 7.13932l.28234-.52748a33.20075 33.20075 0 01-2.6133 8.46421 50.44059 50.44059 0 01-4.54333 7.52014 63.20264 63.20264 0 01-5.68928 6.63616 66.50539 66.50539 0 01-6.51055 5.84647l.33263-.80654 1.49144 10.7381-1.1242-.63648 1.0318-.37941c.353-.10994.71906-.19532 1.07811-.29169a7.39688 7.39688 0 012.31225-.12561 4.8606 4.8606 0 012.28.85215 4.41241 4.41241 0 011.56068 1.97331l.16445.4049-.28866.33567a15.83942 15.83942 0 01-4.33818 3.53141 14.57742 14.57742 0 01-5.28695 1.76325 7.85057 7.85057 0 01-2.90733-.20865 8.11661 8.11661 0 01-2.599-1.26571 11.84048 11.84048 0 01-3.53164-4.356l.23812.273-2.44-1.55389.317.09076a23.28391 23.28391 0 01-5.76483-.69052 5.05631 5.05631 0 01-.74128-.29286c-.12608-.066-.25567-.15556-.38058-.236a2.80883 2.80883 0 01-.32935-.35906 7.352 7.352 0 01-.72958-1.35741c-.39368-.88654-.71952-1.77658-1.04-2.67061-1.25448-3.57819-2.32488-7.19218-3.35972-10.82488l.77192.00374-1.421 4.58708.01427-.07673a76.38723 76.38723 0 01-1.73448 11.37411 28.34322 28.34322 0 01-.82011 2.77424 12.78186 12.78186 0 01-1.23133 2.65283 3.34558 3.34558 0 01-2.487 1.67459 4.19287 4.19287 0 01-2.83669-.98033l-.08888-.06831-.00281-.12257-.21778-10.06653-.048-5.03666.01661-2.52253a20.58853 20.58853 0 01.15251-2.59248c1.13145-3.19973 2.323-6.31617 3.48276-9.481l1.752-4.73187a8.31655 8.31655 0 013.0961-4.25468c1.52162-.992 3.11224-1.48863 4.46029-2.363 1.32747-.84209 2.59365-1.99576 3.9141-3.02522l7.87077-6.27617 7.87989-6.26518 7.92387-6.209.11509-.08982.1366-.03836q14.76156-4.14169 29.12756-9.55894c4.7845-1.80231 9.51145-3.75433 14.20378-5.78939 4.69327-2.03459 9.31216-4.23854 13.88636-6.53956zM468.03754 287.78325c.12537-5.09934.30643-10.1926.57894-15.284.13637-2.54523.29473-5.08975.519-7.62937q.15825-1.90524.40117-3.803c.09427-.63086.15695-1.26548.29379-1.88956.06386-.31228.11369-.62759.189-.93706l.28374-.913-.25778.91928c-.06643.31041-.1076.62713-.16257.94011-.11906.62478-.16421 1.2615-.24046 1.8926q-.19123 1.89892-.2945 3.80627c-.15345 2.54078-.2407 5.08577-.306 7.63077-.13053 5.08975-.16936 10.18465-.15275 15.27347zM439.98552 356.3622a40.12439 40.12439 0 004.57538-2.28394 26.993 26.993 0 004.12462-2.90523 17.64082 17.64082 0 003.2582-3.77655 14.704 14.704 0 001.73822-4.7307 11.08394 11.08394 0 01-1.15764 5.054 14.84572 14.84572 0 01-3.27949 4.09515 21.47577 21.47577 0 01-9.25929 4.5473zM450.76175 365.04c.04234-.04819-.03719-.094-.00141-.08281l.095-.0166.18994-.03275.38035-.06222.76233-.11415 1.52863-.19743c1.02081-.12187 2.04582-.20444 3.07224-.2704 2.05284-.12936 4.1141-.1745 6.17629-.1048a39.4763 39.4763 0 0112.19773 2.19366 21.78892 21.78892 0 015.54823 2.97165 15.72835 15.72835 0 014.21608 4.75713 17.78425 17.78425 0 011.31881 2.89821c.35415.967.69263 1.94056 1.02362 2.91715q.99086 2.93013 1.79155 5.929a54.82554 54.82554 0 011.99155 12.27 29.2978 29.2978 0 01-1.88816 12.35445 20.9822 20.9822 0 01-7.89907 9.624 26.158 26.158 0 01-5.55034 2.84652 41.16953 41.16953 0 01-5.9515 1.74991l-.03532.00819h-.03859l-10.11869-.05661c-3.37306-.03087-6.74611-.02128-10.11893-.0014l.11368-.53379a67.39788 67.39788 0 0013.47631 4.042 40.48071 40.48071 0 0013.924.45356 25.00162 25.00162 0 003.36487-.78409c1.10478-.36163 2.22172-.74338 3.31223-1.164 2.20091-.80443 4.34567-1.74407 6.45418-2.748a55.28344 55.28344 0 006.07454-3.44861 41.23679 41.23679 0 005.4963-4.24041 33.466 33.466 0 004.54193-5.17887 25.64274 25.64274 0 003.09586-6.093 24.52972 24.52972 0 00.9263-3.29 13.82084 13.82084 0 00.24421-1.68162c.05123-.56444.171-1.11905.16842-1.6905a33.86145 33.86145 0 00-.48233-6.85792c-1.5946-9.13672-5.60016-17.83742-10.18255-25.92643l.47391.35181a106.317 106.317 0 00-12.29715-2.30921q-6.22587-.79719-12.51328-.98619a98.03473 98.03473 0 00-12.55117.43345l-3.12674.34268c-1.03765.1469-2.069.33824-3.10522.50526l-1.55343.25941-1.47741.32351C452.852 364.59975 451.80852 364.78735 450.76175 365.04zm-.16632.03743a63.09246 63.09246 0 016.18144-1.68466c1.0332-.211 2.06383-.44654 3.10218-.63765l3.13212-.47555a92.63494 92.63494 0 0112.64591-.82315 110.103 110.103 0 0112.666.69824 107.48025 107.48025 0 0112.54275 2.1319l.30269.07158.17146.28046a94.72733 94.72733 0 016.45231 12.74837 65.72281 65.72281 0 014.13351 13.72449 33.91437 33.91437 0 01.51531 7.242c-.00514.60912-.1352 1.21917-.19812 1.82828a15.38705 15.38705 0 01-.28444 1.81565 26.238 26.238 0 01-1.02455 3.5099 27.332 27.332 0 01-3.3623 6.46 35.09242 35.09242 0 01-4.8301 5.40344 48.65215 48.65215 0 01-12.04545 7.76995c-2.17144.98829-4.37141 1.90992-6.6219 2.68441-1.12256.39953-2.25214.75321-3.39855 1.09566a26.10381 26.10381 0 01-3.545.73122 41.96828 41.96828 0 01-14.23256-.79508 74.68759 74.68759 0 01-13.56-4.26053l-1.26665-.54175 1.38057.00819c3.37282.01988 6.74587.02948 10.11893-.00164l10.11869-.05637-.07345.00819a38.50045 38.50045 0 005.78705-1.86875 25.25294 25.25294 0 005.28625-2.89937 19.81127 19.81127 0 007.22493-9.29087 28.90142 28.90142 0 001.64957-11.79657 61.15354 61.15354 0 00-1.91132-11.96568q-.74982-2.95294-1.70267-5.85934a33.44768 33.44768 0 00-2.17471-5.59828 17.37194 17.37194 0 00-9.00058-7.37885 40.141 40.141 0 00-11.84872-2.47622c-2.03155-.15228-4.07433-.19135-6.11664-.14643-1.02151.02058-2.04232.07181-3.06265.13613l-1.52981.11439-.76373.07228-.381.0414-.1904.02246-.095.01146A.23436.23436 0 01450.59543 365.07741zM279.06935 337.52106a48.59993 48.59993 0 014.44813-3.62522c.76069-.57777 1.54781-1.10408 2.33166-1.65518a20.87007 20.87007 0 012.57845-1.45448 18.72431 18.72431 0 0111.46744-1.30572c-1.90757.31439-3.76252.60655-5.5632 1.05473-.89706.23368-1.78734.46642-2.64908.78174a21.646 21.646 0 00-2.54383 1.01589 23.31658 23.31658 0 00-2.428 1.26595c-.822.466-1.63436.96677-2.47669 1.41051A48.83828 48.83828 0 01279.06935 337.52106z"></path><path d="M321.41638 413.17359a47.00832 47.00832 0 01-13.20076 4.60555 53.18055 53.18055 0 01-14.02648.90455 59.01069 59.01069 0 01-13.782-2.73867 66.83132 66.83132 0 01-12.91117-5.45443 28.51435 28.51435 0 01-5.708-4.093 14.58761 14.58761 0 01-2.262-2.72745 7.38413 7.38413 0 01-1.19788-3.37727 4.877 4.877 0 01.175-1.84067 4.072 4.072 0 011.05776-1.54992 14.36875 14.36875 0 012.88815-2.09518 55.22335 55.22335 0 016.34354-3.02663 202.93772 202.93772 0 0126.72712-8.18351l-.03321 1.756a38.83722 38.83722 0 01-5.71291-2.22593 41.70706 41.70706 0 01-5.29677-2.999 38.366 38.366 0 01-8.99871-8.155 32.66959 32.66959 0 01-3.34194-5.08532 21.748 21.748 0 01-1.27951-2.75715l-.58339-1.40045-.49543-1.41869a42.63619 42.63619 0 01-1.60606-5.8032 16.29332 16.29332 0 01-.2-6.00647l.16866.02456a16.92165 16.92165 0 00.63484 5.84507 51.49213 51.49213 0 001.90617 5.60741 36.22321 36.22321 0 005.9225 10.07074 39.59116 39.59116 0 008.831 7.60177 45.59048 45.59048 0 005.1204 2.82943 37.34641 37.34641 0 005.40086 2.12442l.022.00655a.90526.90526 0 01-.05521 1.74945c-4.50286 1.04162-9.01134 2.13166-13.47116 3.37562-4.4659 1.22244-8.9028 2.549-13.2583 4.08533a50.60261 50.60261 0 00-6.34939 2.69517 13.68439 13.68439 0 00-2.817 1.87015 3.158 3.158 0 00-.93122 1.262 4.30553 4.30553 0 00-.17005 1.60255 6.81782 6.81782 0 001.06852 3.134 11.9205 11.9205 0 002.159 2.62663 27.96186 27.96186 0 005.66425 3.89188 64.83912 64.83912 0 0012.95959 4.75759 81.92131 81.92131 0 0013.52146 2.56816 59.08944 59.08944 0 0027.038-4.207zM353.45407 342.54649a116.58851 116.58851 0 0112.135.75227c2.02032.18526 4.021.50829 6.032.767 2.00161.31579 4.003.63719 5.99688.99976 3.98357.74572 7.94983 1.58687 11.87259 2.606a117.69327 117.69327 0 0111.62838 3.54592c-7.97463-1.45823-15.87394-3.04-23.809-4.47737-3.96041-.7525-7.93205-1.43694-11.90557-2.13C361.4315 343.90039 357.44466 343.291 353.45407 342.54649z"></path><path d="M295.725 384.479c2.63762.6414 5.21934 1.41121 7.7882 2.21307 2.57213.79064 5.11619 1.65191 7.66258 2.50009l7.60739 2.61774c2.54593.84373 5.05279 1.75787 7.68527 2.39248a32.21079 32.21079 0 01-8.05743-1.11624c-2.63435-.63415-5.21748-1.43484-7.78142-2.28137-2.55061-.88561-5.0825-1.81939-7.56972-2.8685A78.37684 78.37684 0 01295.725 384.479zM300.6314 349.70148c4.79174 1.58664 9.64454 2.98031 14.52892 4.23549 4.88648 1.24677 9.80735 2.35529 14.76448 3.2416 1.24185.2042 2.48067.43087 3.72392.61613l3.75177.552a48.63144 48.63144 0 017.4275 1.86617 37.64238 37.64238 0 017.0268 3.15458 22.69366 22.69366 0 016.0191 4.98215l-1.33051 1.06432a21.10515 21.10515 0 00-5.46448-4.77374 36.27509 36.27509 0 00-6.6757-3.22241 47.48117 47.48117 0 00-7.19008-2.0229l-3.72252-.655c-1.24724-.22222-2.48488-.48467-3.7272-.7249-4.955-1.03063-9.85648-2.28091-14.71466-3.66709C310.1929 352.95336 305.37706 351.42239 300.6314 349.70148zM411.0203 404.92131c1.04443.92349 1.79062 1.6905 2.63131 2.35108a12.70546 12.70546 0 001.30431.94548c.46362.33263.98736.58385 1.5836.99648a3.77132 3.77132 0 01-3.9583-.61754 4.46 4.46 0 01-1.27063-1.64512A3.50224 3.50224 0 01411.0203 404.92131z"></path><path d="M390.10877,409.154c1.58852-1.70384,3.16978-3.41586,4.71362-5.15432.76771-.872,1.52911-1.75272,2.23787-2.65914a8.29012,8.29012,0,0,1,1.1808-1.37589,6.84676,6.84676,0,0,1,1.54244-1.01,14.59756,14.59756,0,0,1,7.05136-1.16747,33.44651,33.44651,0,0,1,6.96271,1.32c4.51339,1.19881,8.98608,2.51388,13.462,3.82708,4.46918,1.34969,8.944,2.62055,13.36988,4.21585l3.28627,1.26361a13.9108,13.9108,0,0,1,3.22405,1.76231,9.02717,9.02717,0,0,1,3.47855,6.43313,21.9378,21.9378,0,0,1-.50947,7.13651,8.18013,8.18013,0,0,1-1.353,3.40744,11.05866,11.05866,0,0,1-2.56535,2.5726,23.61854,23.61854,0,0,1-6.37839,3.087,47.53652,47.53652,0,0,1-6.82283,1.69753,67.36433,67.36433,0,0,1-6.966.85074c-.58432.04234-1.16864.07626-1.76.08866a1.87184,1.87184,0,0,0-1.37028.62315,10.82717,10.82717,0,0,0-1.92442,2.78429,42.8579,42.8579,0,0,0-2.59411,6.42845,55.51019,55.51019,0,0,0-1.73565,6.71078,3.8559,3.8559,0,0,0-.03345,1.55273,2.43177,2.43177,0,0,0,.82619,1.20934,7.85869,7.85869,0,0,1,2.54522,2.63341,4.32337,4.32337,0,0,1,.294.95648c.02222.16211.03111.32444.04608.487a1.85212,1.85212,0,0,1-.007.54315,1.9236,1.9236,0,0,1-.18082.58994,2.20848,2.20848,0,0,1-.36444.472,2.85707,2.85707,0,0,1-.88817.58479,11.21037,11.21037,0,0,1-3.61867.698c-4.74309.24163-9.40876-.37871-13.98413-.29052-.56748.00608-1.09636.07578-1.792.06268a5.42308,5.42308,0,0,1-1.96723-.414,6.11868,6.11868,0,0,1-2.88-2.67108,16.37771,16.37771,0,0,1-1.38946-3.3927,11.28356,11.28356,0,0,0-.53355-1.49355c-.02457-.06128-.11322-.12257.04046-.00444a.79353.79353,0,0,0,.16468.05777.29076.29076,0,0,0,.083.00188l-.06176-.00094-.24607-.00491a8.23111,8.23111,0,0,1-.96888-.098,5.95578,5.95578,0,0,1-1.92021-.62432,3.68143,3.68143,0,0,1-1.56653-1.57682,3.92375,3.92375,0,0,1-.35789-2.16,14.40434,14.40434,0,0,1,.316-1.83319c.553-2.348,1.31133-4.52532,1.81261-6.752a30.63449,30.63449,0,0,0,.61052-3.334l.08585-.83671.138-.94993a16.01921,16.01921,0,0,1,.45309-1.79506,50.55649,50.55649,0,0,1,2.72487-6.57606c2.0243-4.22614,4.37608-8.30819,6.33115-12.433a1.50525,1.50525,0,0,0,.12023-1.106,2.22173,2.22173,0,0,0-.77145-.98408,9.36946,9.36946,0,0,0-2.8802-1.37074,32.85064,32.85064,0,0,0-6.69394-1.22712l.47906-.14947a30.98448,30.98448,0,0,1-8.20317,4.3459,42.47951,42.47951,0,0,1-9.01812,1.89167,53.38193,53.38193,0,0,1-9.16362.032,57.0124,57.0124,0,0,1-9.02-1.42548l.04093-.16538a56.69011,56.69011,0,0,0,9.013,1.01122,60.56106,60.56106,0,0,0,9.02724-.36935,41.42289,41.42289,0,0,0,8.71263-2.10922,31.16593,31.16593,0,0,0,7.74048-4.31643l.22176-.16795.25754.01848a34.22108,34.22108,0,0,1,7.0551,1.15811,10.80481,10.80481,0,0,1,3.4175,1.57565,3.80517,3.80517,0,0,1,1.341,1.73425,3.16547,3.16547,0,0,1-.1448,2.29775c-.96326,2.18967-2.079,4.23128-3.14475,6.30494-1.0739,2.06547-2.14009,4.1279-3.1361,6.21325a48.98587,48.98587,0,0,0-2.60066,6.33582,14.28822,14.28822,0,0,0-.397,1.59156l-.11228.77963-.08865.902a30.654,30.654,0,0,1-.63742,3.53984c-.54993,2.31575-1.34805,4.54426-1.88372,6.72832a12.84745,12.84745,0,0,0-.2973,1.60419,2.23446,2.23446,0,0,0,.17122,1.24466,2.8878,2.8878,0,0,0,2.24068,1.31788,6.57661,6.57661,0,0,0,.7677.08632l.19041.00584.04772.00141a1.5129,1.5129,0,0,1,.19017.022.98807.98807,0,0,1,.36655.13146,1.5723,1.5723,0,0,1,.59437.65613,11.57413,11.57413,0,0,1,.64,1.79366,14.91267,14.91267,0,0,0,1.21144,3.079,4.56006,4.56006,0,0,0,2.11155,2.04091,4.017,4.017,0,0,0,1.43039.31672c.469.02292,1.10291-.03322,1.70056-.03135,4.74754.01263,9.3697.683,13.9528.574a10.28765,10.28765,0,0,0,3.23106-.50689c.45614-.1979.80748-.45544.8318-.792l.02036-.135-.0117-.19157-.02292-.38339a3.31146,3.31146,0,0,0-.1986-.71461c-.35672-.93636-1.30314-1.53612-2.23318-2.35833a3.32167,3.32167,0,0,1-1.05613-1.67366,4.65042,4.65042,0,0,1,.06339-1.91249,56.17389,56.17389,0,0,1,1.92769-6.77067,45.77405,45.77405,0,0,1,2.70383-6.49278A11.3059,11.3059,0,0,1,422.521,435.668a3.58856,3.58856,0,0,1,.77426-.54806,2.62007,2.62007,0,0,1,.47532-.16351,3.13809,3.13809,0,0,1,.48631-.04093c.57356-.007,1.1532-.03509,1.731-.07181a60.22337,60.22337,0,0,0,6.89581-.90993,46.93256,46.93256,0,0,0,6.71055-1.7553,22.1531,22.1531,0,0,0,6.07243-3.14616,8.1204,8.1204,0,0,0,3.38054-5.49208,20.80976,20.80976,0,0,0,.2959-6.75594c-.072-.54923-.23251-1.0746-.356-1.60559a8.98634,8.98634,0,0,0-.643-1.47507,6.79679,6.79679,0,0,0-2.06757-2.38616c-1.70758-1.29519-3.99854-1.90664-6.15617-2.76-8.77345-2.959-17.72538-5.6687-26.64947-8.26866a32.40527,32.40527,0,0,0-6.7054-1.47671,13.71154,13.71154,0,0,0-6.62611.891,6.64935,6.64935,0,0,0-1.407.843,7.60354,7.60354,0,0,0-1.141,1.22525c-.7677.89636-1.57027,1.74454-2.38055,2.58663-1.62033,1.68255-3.2858,3.31434-4.98145,4.91643Z"></path><path d="M395.4839 439.87779a12.35339 12.35339 0 013.145 1.81425 7.57293 7.57293 0 012.36371 2.95481 4.8 4.8 0 01-.21707 3.9962 9.284 9.284 0 01-2.54523 2.92558l-.422-1.46829a14.09926 14.09926 0 012.07716.37684 10.06267 10.06267 0 012.00559.7249 6.123 6.123 0 011.836 1.32045 4.06823 4.06823 0 011.06688 2.19459l-1.16209-.61356a7.33708 7.33708 0 011.67624-.494 7.4622 7.4622 0 011.70547-.09824 5.91294 5.91294 0 011.684.34549 6.43824 6.43824 0 011.51974.78034l-.76934.11018a4.53217 4.53217 0 011.79038-1.03438 5.38219 5.38219 0 011.93728-.24841 6.658 6.658 0 011.85355.37239c.29379.10175.5766.23064.85753.35344l.8035.44444-.87485-.247c-.29917-.04912-.58595-.13029-.88045-.16912a7.47618 7.47618 0 00-1.7415-.04842 5.44389 5.44389 0 00-1.60723.44069 3.72907 3.72907 0 00-1.24232.90759l-.29637.35649-.47321-.24608a5.174 5.174 0 00-1.26571-.51087 4.99474 4.99474 0 00-1.34361-.15789 6.05816 6.05816 0 00-2.61026.589l-.93823.472-.22409-1.0856a2.54578 2.54578 0 00-.67414-1.2739 4.48559 4.48559 0 00-1.37238-.93543 10.07178 10.07178 0 00-1.69331-.63087 12.65644 12.65644 0 00-1.7953-.3621l-2.0636-.24935 1.64162-1.21917a8.34053 8.34053 0 002.24909-2.31879 3.57217 3.57217 0 00.40444-2.91552 7.31267 7.31267 0 00-1.73214-2.82944A17.3864 17.3864 0 00395.4839 439.87779zM414.11219 429.299a19.90384 19.90384 0 01.27532 5.04016 22.78189 22.78189 0 01-.85754 5.01257 13.74422 13.74422 0 01-2.31154 4.64251 5.98682 5.98682 0 01-4.46567 2.47645 7.62233 7.62233 0 003.374-3.23527 15.05535 15.05535 0 001.00185-2.11927 20.2537 20.2537 0 00.77029-2.2519c.47531-1.52653.81776-3.11014 1.17659-4.7038C413.41653 432.56117 413.73535 430.94668 414.11219 429.299zM424.1034 435.18476a28.86371 28.86371 0 01.23789-4.03855c.1469-1.32653.37169-2.63294.59648-3.93725.25778-1.2987.51111-2.59435.82362-3.88135.29777-1.29262.63788-2.56628.99952-3.89211a13.9054 13.9054 0 01.31765 4.07175 29.24325 29.24325 0 01-.46689 4.01165 34.29407 34.29407 0 01-.97543 3.905A21.28382 21.28382 0 01424.1034 435.18476zM383.21857 381.82151a7.40653 7.40653 0 00-.06643 2.64511 3.78921 3.78921 0 001.01613 1.95085 6.84489 6.84489 0 00.8849.78735c.34175.23345.69824.47064 1.06852.70619.39321.19813.76491.469 1.17566.68163a11.14276 11.14276 0 011.23624.74806 9.54933 9.54933 0 01-1.47483.05357 10.08539 10.08539 0 01-1.46127-.25076 8.1939 8.1939 0 01-1.41378-.57683 5.42863 5.42863 0 01-1.26361-.99063 3.9813 3.9813 0 01-1.10244-3.076A3.90432 3.90432 0 01383.21857 381.82151zM290.41 347.58057a7.3117 7.3117 0 012.5836-1.38057 9.46375 9.46375 0 015.85582.03649 8.87162 8.87162 0 012.5995 1.34408c-.945-.25614-1.84115-.54315-2.76605-.70058a14.46072 14.46072 0 00-2.7623-.27485 14.1681 14.1681 0 00-2.76581.23719A16.61038 16.61038 0 00290.41 347.58057z"></path><polygon points="265.295 408.436 275.283 404.921 265.988 409.992 265.295 408.436"></polygon><polygon points="259.552 402.996 269.54 399.481 260.245 404.552 259.552 402.996"></polygon><polygon points="275.182 413.324 281.738 410.889 275.965 414.837 275.182 413.324"></polygon><polygon points="282.536 415.209 289.482 414.402 282.937 416.865 282.536 415.209"></polygon><path d="M331.126 405.41885a27.20639 27.20639 0 01.43742-6.20764 11.19827 11.19827 0 01.98385-2.95107 3.86142 3.86142 0 012.22289-2.05775 3.7578 3.7578 0 00-2.03132 2.15061 10.89288 10.89288 0 00-.75531 2.92885 26.61743 26.61743 0 00-.00912 6.06214zM342.71433 421.63313c-.60631-1.81448-1.1277-3.617-1.60232-5.44882-.47017-1.82851-.88466-3.6727-1.1939-5.53747a31.02659 31.02659 0 01-.4959-5.6474 12.022 12.022 0 01.35392-2.81751 4.37969 4.37969 0 011.43319-2.39014 4.27639 4.27639 0 00-1.226 2.43833 11.71272 11.71272 0 00-.1352 2.76253 30.40107 30.40107 0 00.90432 5.48273c.44139 1.804.986 3.58382 1.58383 5.34379.59929 1.7553 1.25566 3.5099 1.96746 5.2004z"></path><polygon points="345.11 422.86 345.962 409.214 346.814 422.86 345.11 422.86"></polygon><path d="M231.12334,300.45232a6.77886,6.77886,0,0,0,3.03434,1.64606,10.98223,10.98223,0,0,0,3.43387.2662,19.6589,19.6589,0,0,0,3.43434-.462,25.6629,25.6629,0,0,0,3.32651-.91928l.05076-.015c1.54477-.5635,3.13516-.96116,4.64087-1.61963a44.46694,44.46694,0,0,0,4.40953-2.123,27.08987,27.08987,0,0,0,3.99386-2.7202,8.71127,8.71127,0,0,0,2.74546-3.52346,1.86693,1.86693,0,0,0-.18479-1.71623,3.3626,3.3626,0,0,0-1.68255-1.12513,13.27334,13.27334,0,0,0-4.69163-.63929,39.59971,39.59971,0,0,0-9.78513,1.52021,31.3477,31.3477,0,0,1,9.7339-2.62219,13.861,13.861,0,0,1,5.20484.40421,4.66534,4.66534,0,0,1,2.44067,1.56816,3.435,3.435,0,0,1,.506,3.04581,6.79368,6.79368,0,0,1-1.34408,2.46546,14.961,14.961,0,0,1-1.8519,1.89986,24.21254,24.21254,0,0,1-4.27269,2.90031,35.87187,35.87187,0,0,1-4.64742,2.12535c-.79719.29474-1.59905.57356-2.4229.79017l-2.45236.68841.05029-.015a25.83862,25.83862,0,0,1-3.57.764,20.64187,20.64187,0,0,1-3.63083.19064,11.42684,11.42684,0,0,1-3.57539-.683A6.28251,6.28251,0,0,1,231.12334,300.45232Z"></path><path d="M261.17369 290.03515a5.00971 5.00971 0 012.19108 1.1794 12.32513 12.32513 0 011.72957 1.80793 18.16694 18.16694 0 011.40582 2.04606c.4386.70057.79181 1.44325 1.16116 2.17611l-.16842-.24094.00865.00819.12468.12094.07485.19719c.32164.8456.57988 1.71342.873 2.56908.26831.86432.53169 1.73027.77029 2.60488q.36034 1.31121.65636 2.64488c.1855.89308.3738 1.78547.4828 2.70522-.48724-.78782-.895-1.60348-1.30594-2.418q-.59825-1.228-1.13215-2.47856c-.35766-.833-.69052-1.67483-1.01847-2.51833-.30315-.85215-.64116-1.69214-.91578-2.55411l.19953.31765-.00818-.00865-.11252-.11579-.05614-.12561c-.32256-.71906-.67554-1.42127-1.0077-2.13331-.34713-.70361-.71344-1.39507-1.08958-2.08114a23.00006 23.00006 0 00-1.2477-1.98243A6.87 6.87 0 00261.17369 290.03515zM245.969 296.05893a1.27791 1.27791 0 01-.45473-2.472l10.30255-3.9279a1.27757 1.27757 0 01.90946 2.3878l-10.30255 3.9279A1.27284 1.27284 0 01245.969 296.05893zM432.07592 202.3374l1.443 5.381c.51321 1.76 1.02549 3.50826 1.69893 5.17607a21.3486 21.3486 0 002.44113 4.72087 9.42741 9.42741 0 004.12673 3.32463 7.29284 7.29284 0 01-5.14472-2.4699 15.34972 15.34972 0 01-3.00885-4.95619 25.1003 25.1003 0 01-1.40934-5.52414A22.75818 22.75818 0 01432.07592 202.3374z"></path><path d="M383.83181 142.44111s-5.11059 8.79023 1.22655 5.82609 7.97253 8.27916 33.52552 2.14645c0 0 2.45308 36.38745 11.44774 26.37068s14.51409-1.63539 12.67428 3.47521-11.44774 6.746-12.67428 8.177-3.88406 17.376 4.08847 14.71853 12.87871-13.90083 15.3318-25.34857c0 0 4.90617-5.92829 16.35391 2.86194s48.65289 15.74064 58.46524-1.83982 21.66893-24.122 23.50875-22.69105c0 0-27.59723-5.51945-37.20515 4.90617s-37.81843-3.06636-38.84055-4.49733-9.19907-3.67963-20.03354 3.47521c0 0-5.92829-27.18838-32.09455-27.80165S383.83181 142.44111 383.83181 142.44111zM397.20879 206.90365a22.44519 22.44519 0 003.09025.05217 25.49681 25.49681 0 003.12862-.34807 20.86894 20.86894 0 003.0727-.76513 18.63016 18.63016 0 002.93657-1.25659 18.86118 18.86118 0 01-2.77587 1.651 21.48866 21.48866 0 01-3.03083 1.19811 26.53276 26.53276 0 01-3.18359.78993 23.737 23.737 0 01-3.31457.38035zM377.50848 160.276a6.01119 6.01119 0 011.66968-1.43975 8.12963 8.12963 0 011.97986-.85192 6.49688 6.49688 0 012.19646-.24865 3.06631 3.06631 0 012.11272.855 10.2553 10.2553 0 00-1.98266.47812l-1.87062.55648c-.63415.17755-1.28373.3324-1.95857.45754A10.58842 10.58842 0 01377.50848 160.276z"></path><path d="M395.4839 158.36a20.90853 20.90853 0 014.80134-1.21917 25.9739 25.9739 0 014.96064-.25356 18.88224 18.88224 0 014.94519.84069 9.79775 9.79775 0 014.30427 2.548 19.731 19.731 0 00-4.61491-1.25543 39.91577 39.91577 0 00-4.71432-.43274C401.99 158.411 398.79333 158.50829 395.4839 158.36zM384.13856 187.20989a12.90742 12.90742 0 002.58757 3.55878 3.02267 3.02267 0 001.61682.75461 3.171 3.171 0 001.7153-.40725c1.32419-.6594 2.61259-1.403 3.89889-2.17868 1.28443-.78315 2.55669-1.60091 3.87761-2.44277a15.02339 15.02339 0 01-3.09469 3.51714 19.86374 19.86374 0 01-3.91574 2.62476 4.59964 4.59964 0 01-2.71575.47812 4.059 4.059 0 01-2.32629-1.417A7.61032 7.61032 0 01384.13856 187.20989zM388.43137 160.276a13.174 13.174 0 011.22174 5.47033 5.81112 5.81112 0 01-.74011 2.99014 5.87526 5.87526 0 01-.505.65355l-.44608.4952c-.29239.33076-.57262.66526-.8325 1.00934a9.14441 9.14441 0 00-2.13541 4.44977 8.71609 8.71609 0 001.08653 5.01747 7.34847 7.34847 0 01-2.24488-3.60462 7.0161 7.0161 0 01-.16888-1.48841 7.48939 7.48939 0 01.6063-2.93165 12.06968 12.06968 0 011.51928-2.49658c.30082-.37449.6173-.73028.93847-1.0732l.4842-.50689c.18667-.18175.21848-.277.35438-.40818a5.15836 5.15836 0 00.7635-2.20886A29.67871 29.67871 0 00388.43137 160.276zM376.7417 173.20049a10.18877 10.18877 0 013.64931-1.1532c.604-.08608 1.20583-.13614 1.81425-.16187.61636-.02269 1.21682-.00889 1.9333-.00725a3.61818 3.61818 0 01-1.60465 1.30571 6.68211 6.68211 0 01-1.90126.54923 7.67753 7.67753 0 01-1.94781.02994A5.55956 5.55956 0 01376.7417 173.20049zM397.83475 168.60733c1.35951.19766 2.66593.31322 3.97609.44491 1.309.11509 2.61236.23742 3.92181.33 1.30572.13451 2.62032.20655 3.94007.36421a35.81214 35.81214 0 014.00509.57239 18.50939 18.50939 0 01-4.01538.75695 24.95451 24.95451 0 01-4.07317.00281 21.06674 21.06674 0 01-4.02778-.72584A11.05857 11.05857 0 01397.83475 168.60733zM190.97839 193.16162l-.05521-.43882a73.06664 73.06664 0 01-.56514-9.03941 69.507 69.507 0 014.74754-25.5117l.14971-.38082 26.82536 9.307-.27882.80467-26.05158-9.03847a68.71018 68.71018 0 00-4.54076 24.81931 72.26208 72.26208 0 00.50526 8.49392l15.90809-2.60207.1366.84022zM265.78345 179.78356l-10.25483-3.40393 6.28015-50.71463.523.2283c10.25951 4.47994 18.96957 12.43024 25.188 22.9929l.05895.10012v.261l-.07953.11041zm-9.32291-3.99153l8.99543 2.98476 21.19176-29.69129c-6.01068-10.11168-14.3418-17.76631-24.13441-22.17982zM262.256 241.51932l-3.155-45.78651 10.0808-3.89234 17.56233 27.67307v.25357l-.06456.10385a55.14117 55.14117 0 01-23.86587 21.39667zm-2.26242-45.21763l3.02779 43.93391a54.38119 54.38119 0 0022.79642-20.59294l-16.98036-26.75612zM152.6416 167.824a103.12641 103.12641 0 019.22981-36.92791 75.23328 75.23328 0 0123.83079-29.72966l1.99506-1.36068a22.77005 22.77005 0 012.02828-1.30665L193.933 96.1316c1.45027-.6938 2.92557-1.33753 4.38707-2.00746l1.09847-.49754c.37262-.14924.75624-.27134 1.13378-.40841l2.27389-.80023 2.27365-.79928c.76444-.244 1.55133-.4124 2.32582-.62222 1.55834-.38338 3.10148-.83741 4.67128-1.16068a78.84645 78.84645 0 019.52034-1.29823l2.39365-.186a23.74746 23.74746 0 012.39435-.12632l4.79526-.00164c.79858.00772 1.59787-.018 2.39505.01731l2.38874.17333 4.77351.35018c3.16791.36116 6.312.9118 9.46209 1.35787 3.11809.65052 6.22611 1.3387 9.32712 2.03062l-9.39893-1.585c-3.15949-.31789-6.30541-.73964-9.4635-.97145l-4.7452-.22456-2.37073-.11391c-.79016-.01568-1.58126.0297-2.37166.04163l-4.74.11766a23.31653 23.31653 0 00-2.3602.18292l-2.35529.24187c-3.15458.2145-6.23384.92256-9.34046 1.43484-1.53823.33-3.04674.78876-4.57093 1.17612-.75719.21146-1.52723.382-2.27366.62713l-2.218.80115-2.21751.8c-.36795.13684-.74221.25871-1.10525.40748l-1.069.49567c-1.42174.66713-2.85727 1.30618-4.26731 1.99389l-4.08416 2.34242c-1.35366.79227-2.59552 1.76185-3.9017 2.62874a68.60773 68.60773 0 00-13.6218 12.92637 86.19953 86.19953 0 00-10.02209 15.9799A106.43047 106.43047 0 00156.3295 149.172 109.72436 109.72436 0 00152.6416 167.824z"></path><path d="M182.62879 122.46668a82.77525 82.77525 0 0125.63334-19.75763 68.15012 68.15012 0 0115.39113-5.50168 62.302 62.302 0 0116.3144-1.439 60.315 60.315 0 0116.11066 2.92627 69.62346 69.62346 0 0114.86412 6.7709 98.09223 98.09223 0 0113.23117 9.49157c2.03506 1.79249 3.98053 3.6844 5.97 5.51759q2.81188 2.93259 5.56741 5.90565-2.96207-2.77575-5.87759-5.5777c-2.06991-1.73308-4.09-3.52-6.19126-5.20134a98.11436 98.11436 0 00-13.35256-8.99964l-1.7567-.9773-.87789-.48865-.90993-.42478-3.6348-1.70478a16.38449 16.38449 0 00-1.8498-.77168l-1.87553-.70783-1.87459-.70806c-.62175-.24538-1.27765-.38643-1.91436-.58479a59.52157 59.52157 0 00-15.70576-2.76487 66.11558 66.11558 0 00-31.066 6.41722 92.21795 92.21795 0 00-26.19544 18.58057zM152.6416 180.36179q.3649 5.7301.98969 11.3816c.21263 1.88512.44421 3.76627.72678 5.63782l.42432 2.80581.52 2.78616c.142.93543.38269 1.8477.57122 2.7726.19111.92466.4028 1.844.6573 2.7506.243.9097.45076 1.83249.723 2.73353.29427.89356.5745 1.79249.84958 2.6954a52.09865 52.09865 0 004.75947 10.28548 34.27046 34.27046 0 01-6.00436-9.81905 59.56309 59.56309 0 01-3.22826-11.09716 79.81515 79.81515 0 01-1.31928-11.448A70.1524 70.1524 0 01152.6416 180.36179zM263.33693 266.25045q5.282-2.25155 10.40314-4.72181c1.70687-.82806 3.40369-1.67249 5.07431-2.56183l2.50453-1.33426 2.45424-1.41775c.83484-.44538 1.61494-.9759 2.42429-1.46174.80841-.48771 1.60489-.99344 2.37517-1.53518.7766-.53216 1.57776-1.03508 2.337-1.59179.74431-.575 1.49869-1.13847 2.25868-1.69823a52.1061 52.1061 0 008.11451-7.9117 34.27107 34.27107 0 01-7.26025 8.93017 59.54685 59.54685 0 01-9.38982 6.73815 79.81262 79.81262 0 01-10.35588 5.05467A70.1728 70.1728 0 01263.33693 266.25045zM317.81619 157.68959a9.04365 9.04365 0 014.86917-4.57514 13.89054 13.89054 0 016.78424-.70689c4.51035.58408 8.8766 1.81447 13.27678 2.675a33.332 33.332 0 003.29563.52326 9.48246 9.48246 0 003.22638-.11064 7.11723 7.11723 0 00.72631-.25567c.22994-.10573.41988-.26783.63625-.39414.24491-.16632.49356-.36374.75508-.51625a6.31765 6.31765 0 01.83928-.36117 7.97041 7.97041 0 013.50218-.19695 40.25 40.25 0 016.587 1.72746l6.40319 2.19108c-2.19108-.54222-4.35222-1.19741-6.52576-1.79179a40.35414 40.35414 0 00-6.53909-1.47577 7.98689 7.98689 0 00-3.192.24374 5.65536 5.65536 0 00-.70783.313c-.221.1345-.41356.29473-.63461.4442a7.26073 7.26073 0 01-.79064.50573 7.494 7.494 0 01-.862.316 10.19417 10.19417 0 01-3.4975.17169 33.208 33.208 0 01-3.38732-.49917c-4.43433-.94151-8.77766-2.15109-13.19959-2.86359a13.44241 13.44241 0 00-6.54751.44841A9.09661 9.09661 0 00317.81619 157.68959zM301.49735 174.448a9.04456 9.04456 0 014.86917-4.57515 13.89025 13.89025 0 016.78424-.70689c4.51011.58409 8.8766 1.81448 13.27678 2.675a33.33228 33.33228 0 003.29562.52327 9.4767 9.4767 0 003.22639-.11064 7.0598 7.0598 0 00.72631-.25567c.22994-.10573.41988-.26783.63625-.39415.24491-.16631.49356-.36373.75507-.51625a6.31959 6.31959 0 01.83929-.36116 7.96671 7.96671 0 013.50218-.19672 40.24066 40.24066 0 016.58681 1.72723l6.40342 2.19108c-2.19108-.542-4.35222-1.19741-6.52576-1.79179a40.38413 40.38413 0 00-6.53909-1.47577 7.98675 7.98675 0 00-3.192.24374 5.65522 5.65522 0 00-.70782.313c-.221.1345-.41357.29473-.63461.4442a7.27827 7.27827 0 01-.79087.506 7.56223 7.56223 0 01-.86174.316 10.20023 10.20023 0 01-3.4975.17146 33.20482 33.20482 0 01-3.38732-.49918c-4.43433-.9415-8.77766-2.15108-13.19959-2.86358a13.44517 13.44517 0 00-6.54751.44841A9.0975 9.0975 0 00301.49735 174.448zM322.346 191.20632a9.04456 9.04456 0 014.86918-4.57514 13.893 13.893 0 016.78423-.70689c4.51012.58432 8.87661 1.81471 13.27678 2.675a33.26474 33.26474 0 003.29563.52327 9.477 9.477 0 003.22639-.11064 7.062 7.062 0 00.7263-.25567c.22971-.1055.41988-.26783.636-.39415.24514-.16631.49379-.36373.75531-.51625a6.31846 6.31846 0 01.83929-.36116 7.97368 7.97368 0 013.50217-.19672 40.24063 40.24063 0 016.58681 1.72722l6.40342 2.19108c-2.19108-.542-4.35222-1.19741-6.52576-1.79178a40.35882 40.35882 0 00-6.53909-1.47554 7.98256 7.98256 0 00-3.192.24351 5.65666 5.65666 0 00-.70783.31321c-.221.13427-.41356.2945-.63461.444a7.2436 7.2436 0 01-.79087.506 7.51724 7.51724 0 01-.86174.316 10.2061 10.2061 0 01-3.4975.17169 33.26981 33.26981 0 01-3.38732-.49941c-4.43432-.94151-8.77766-2.15108-13.19958-2.86335a13.44227 13.44227 0 00-6.54752.44818A9.09756 9.09756 0 00322.346 191.20632zM305.19952 203.45318a9.0437 9.0437 0 014.86917-4.57515 13.89054 13.89054 0 016.78424-.70689c4.51035.58409 8.8766 1.81448 13.27678 2.675a33.33944 33.33944 0 003.29586.52327 9.48133 9.48133 0 003.22615-.11064 7.06338 7.06338 0 00.72631-.2559c.22994-.1055.41988-.2676.63625-.39392.24491-.16631.49356-.36373.75508-.51625a6.3189 6.3189 0 01.83928-.36116 7.9711 7.9711 0 013.50241-.197 40.24831 40.24831 0 016.58681 1.72746l6.40319 2.19109c-2.19085-.54222-4.35222-1.19741-6.52576-1.79179a40.35124 40.35124 0 00-6.53886-1.47577 7.98784 7.98784 0 00-3.19223.24374 5.65536 5.65536 0 00-.70783.313c-.221.1345-.41356.29473-.63461.4442a7.26064 7.26064 0 01-.79064.50572 7.47451 7.47451 0 01-.862.316 10.19443 10.19443 0 01-3.4975.1717 33.21469 33.21469 0 01-3.38732-.49918c-4.43433-.94151-8.77766-2.15108-13.19959-2.86358a13.44236 13.44236 0 00-6.54751.44841A9.09734 9.09734 0 00305.19952 203.45318zM330.6504 216.77814a9.04484 9.04484 0 014.86894-4.57514 13.89325 13.89325 0 016.78424-.70689c4.51034.58432 8.87683 1.81471 13.277 2.675a33.26721 33.26721 0 003.29563.52327 9.46949 9.46949 0 003.22615-.11065 7.04378 7.04378 0 00.72654-.25566c.22971-.1055.41964-.26784.636-.39415.24514-.16631.49356-.36374.75531-.51625a6.29616 6.29616 0 01.839-.36093 7.97148 7.97148 0 013.50241-.197 40.24858 40.24858 0 016.58681 1.72746l6.40342 2.19085c-2.19108-.542-4.35222-1.19741-6.52576-1.79179a40.38437 40.38437 0 00-6.53909-1.47553 7.98274 7.98274 0 00-3.192.2435 5.6776 5.6776 0 00-.70806.31321c-.221.13451-.41333.29474-.63438.444a7.20927 7.20927 0 01-.79087.506 7.4887 7.4887 0 01-.86174.316 10.20613 10.20613 0 01-3.4975.1717 33.21952 33.21952 0 01-3.38755-.49941c-4.43433-.94151-8.77743-2.15109-13.19936-2.86336a13.445 13.445 0 00-6.54751.44819A9.09675 9.09675 0 00330.6504 216.77814zM287.15252 227.775a9.04447 9.04447 0 014.86917-4.57514 13.89323 13.89323 0 016.78423-.70689c4.51035.58432 8.87684 1.81471 13.277 2.675a33.26749 33.26749 0 003.29562.52327 9.46954 9.46954 0 003.22616-.11065 7.03809 7.03809 0 00.7263-.25567c.22994-.10549.41988-.26783.63625-.39414.24515-.16632.49356-.36374.75531-.51625a6.29554 6.29554 0 01.83906-.36093 7.9711 7.9711 0 013.50241-.197 40.24858 40.24858 0 016.58681 1.72746l6.40342 2.19085c-2.19108-.542-4.35246-1.19741-6.52576-1.79179a40.38437 40.38437 0 00-6.53909-1.47553 7.9826 7.9826 0 00-3.192.2435 5.64784 5.64784 0 00-.70806.31321c-.221.13427-.41356.29474-.63437.444a7.23214 7.23214 0 01-.79087.506 7.53265 7.53265 0 01-.86174.316 10.20616 10.20616 0 01-3.4975.17169 33.21691 33.21691 0 01-3.38756-.4994c-4.43432-.94151-8.77742-2.15109-13.19958-2.86336a13.44143 13.44143 0 00-6.54728.44818A9.098 9.098 0 00287.15252 227.775zM309.79618 242.10809a9.04449 9.04449 0 014.86918-4.57514 13.8905 13.8905 0 016.78423-.7069c4.51035.58409 8.87684 1.81448 13.27678 2.67506a33.34768 33.34768 0 003.29586.52326 9.47511 9.47511 0 003.22616-.11064 7.04045 7.04045 0 00.7263-.25567c.22994-.10549.41988-.26783.63625-.39414.24514-.16632.49356-.36374.75531-.51625a6.32793 6.32793 0 01.83906-.36117 7.96767 7.96767 0 013.5024-.19672 40.24648 40.24648 0 016.58681 1.72723l6.40343 2.19108c-2.19109-.542-4.35246-1.19741-6.52576-1.79179a40.38507 40.38507 0 00-6.5391-1.47577 7.9867 7.9867 0 00-3.192.24374 5.64493 5.64493 0 00-.70806.31321c-.221.13427-.41356.2945-.63438.444a7.30048 7.30048 0 01-.79086.506 7.534 7.534 0 01-.86175.316 10.20635 10.20635 0 01-3.49749.17169 33.28355 33.28355 0 01-3.38756-.49941c-4.43432-.9415-8.77742-2.15108-13.19958-2.86358a13.44424 13.44424 0 00-6.54728.44841A9.09807 9.09807 0 00309.79618 242.10809zM236.70939 321.29387s9.55844-.69732 23.35706-7.74994l4.08848 9.09686s-14.63806 10.021-23.80077 8.2325z"></path><path d="M235.01615,316.6528c.82291,2.327,1.77167,4.599,2.75271,6.85886l3.00674,6.74938q1.52349,3.36557,3.09891,6.70821l3.14615,6.68225-.03064-.05895L248.136,345.539l.10362.1759.00234.22175.00024.00843-.11766-.41707a23.73348,23.73348,0,0,0,2.74008,3.6734,6.176,6.176,0,0,0,1.63927,1.283,1.9836,1.9836,0,0,0,.8159.23345c.30222.01543.767.0014,1.14267.00374a44.153,44.153,0,0,0,9.30491-.75976,24.15992,24.15992,0,0,0,8.45579-3.54545,28.75073,28.75073,0,0,0,6.70891-6.4116l-.10292.35742c-.16819-2.665-.51906-5.35244-.91531-8.01744-.40467-2.66967-.97659-5.31174-1.63834-7.94071.45192,1.27648.90549,2.55927,1.261,3.86966q.56139,1.95856,1.01168,3.94918a66.67516,66.67516,0,0,1,1.35764,8.06165l.01988.18479-.1228.1731a28.8698,28.8698,0,0,1-6.74377,6.97862,24.73761,24.73761,0,0,1-8.93906,3.94918,43.07512,43.07512,0,0,1-9.65437.84116c-.41847-.00655-.74923.00842-1.24-.0152a3.64608,3.64608,0,0,1-1.4594-.411,7.74573,7.74573,0,0,1-2.09564-1.63834,23.06365,23.06365,0,0,1-2.9085-3.98451l-.12023-.1993.00257-.218v-.00843l.106.39743-1.10244-1.97144-.02035-.036-.01053-.02316c-2.0409-4.50216-3.92673-9.06374-5.77278-13.64566q-1.39929-3.42907-2.62546-6.92973A71.2083,71.2083,0,0,1,235.01615,316.6528Z"></path></svg>