<svg xmlns="http://www.w3.org/2000/svg" data-name="Layer 1" viewBox="0 0 700 550"><path fill="#020202" d="M340.07824,398.81348a17.00729,17.00729,0,0,1-5.23388-.35938,17.65824,17.65824,0,0,1-4.91358-2.06726,18.55764,18.55764,0,0,1-4.05371-3.53088,17.023,17.023,0,0,1-2.72436-4.6438,19.02249,19.02249,0,0,1-1.0398-5.24219,23.06793,23.06793,0,0,1,.48047-5.24719,22.35882,22.35882,0,0,1,1.74878-4.93335,21.53916,21.53916,0,0,1,2.97607-4.34876,18.62755,18.62755,0,0,1,4.14136-3.36316,18.34757,18.34757,0,0,1,5.0249-1.94689,20.30672,20.30672,0,0,1,5.40845-.3628,18.64425,18.64425,0,0,1,5.28345,1.298,19.27342,19.27342,0,0,1,4.6084,2.87133,19.02882,19.02882,0,0,1,3.4895,4.1095,18.68457,18.68457,0,0,1,2.033,4.92774,17.38183,17.38183,0,0,1,.38379,5.22644h-.19361A21.76443,21.76443,0,0,0,356.37,376.2583a19.19589,19.19589,0,0,0-2.3623-4.36377,19.92165,19.92165,0,0,0-3.41382-3.50806,19.06849,19.06849,0,0,0-4.20825-2.41369,19.49778,19.49778,0,0,0-4.688-1.19727,18.41575,18.41575,0,0,0-4.85987.14112,19.566,19.566,0,0,0-4.65307,1.51452,20.31207,20.31207,0,0,0-4.11719,2.75879,17.43085,17.43085,0,0,0-3.146,3.90991,16.12914,16.12914,0,0,0-1.71264,4.74463,16.44422,16.44422,0,0,0-.02344,5.02112A18.83193,18.83193,0,0,0,324.641,387.595a22.63571,22.63571,0,0,0,2.56054,4.17285,18.38342,18.38342,0,0,0,7.94165,5.70032,22.41206,22.41206,0,0,0,4.93506,1.15173Z"/><circle cx="233.9" cy="381.201" r="17.516" fill="#020202"/><circle cx="466.905" cy="393.306" r="12.105" fill="#020202"/><path fill="#020202" d="M340.95349 234.10565q-7.95411 7.40049-15.75171 14.88581c-5.1958 4.9992-10.25464 10.1156-15.26514 15.27276q-3.79652 3.834-7.35059 7.899a74.14153 74.14153 0 00-6.54809 8.56537 41.93484 41.93484 0 00-4.77319 9.59216c-1.10621 3.35217-1.57715 7.02264-.49732 10.21735l-.04565-.11811A178.61931 178.61931 0 00302.09 317.6933c1.0022 1.40655 2.07153 2.76532 3.126 4.13379 1.0415 1.37823 2.12524 2.724 3.22705 4.05566 2.134 2.718 4.40869 5.32178 6.61157 7.98541 2.28 2.5987 4.523 5.23188 6.87622 7.76972 1.16992 1.2746 2.31763 2.57159 3.50708 3.82953L329.024 349.228l1.78565 1.89123 1.834 1.84418 3.67188 3.69269c2.47119 2.44043 5.00439 4.81946 7.46728 7.29272a.14535.14535 0 01.00635.20569.15025.15025 0 01-.19287.01685c-1.397-1.04261-2.77539-2.1106-4.15283-3.182-1.3667-1.08325-2.79151-2.10474-4.10181-3.25635L331.36 354.32892l-1.99292-1.70429L327.4425 350.846l-3.83423-3.57953c-1.25683-1.21558-2.468-2.47748-3.70483-3.71491-2.50977-2.44232-4.79126-5.1007-7.17407-7.6665-2.27247-2.66382-4.55542-5.32141-6.68165-8.10718-1.07861-1.38-2.13867-2.77392-3.15649-4.2008-1.03052-1.41675-2.07446-2.82251-3.05225-4.27771-2.00586-2.87238-3.93017-5.80378-5.70532-8.82953a93.375 93.375 0 01-4.95679-9.31513l-.01831-.04a.50036.50036 0 01-.02758-.0785 14.96118 14.96118 0 01-.27661-5.69213 25.83641 25.83641 0 011.4309-5.36677 56.99972 56.99972 0 014.97437-9.741A145.71039 145.71039 0 01308.18542 262.659a164.44667 164.44667 0 0115.48-15.33515 183.65686 183.65686 0 0117.1084-13.44623.14563.14563 0 01.20239.03736A.14807.14807 0 01340.95349 234.10565zM422.26086 226.44434a15.948 15.948 0 012.929 7.86053 15.23256 15.23256 0 01-1.93554 8.343c-2.80078 5.09637-7.27832 8.85345-11.88574 12.01013a83.8728 83.8728 0 01-14.791 7.87164 131.80049 131.80049 0 01-15.81177 5.332l.5105-.53943a70.6019 70.6019 0 00-1.84814 21.53015 107.93341 107.93341 0 001.1228 10.81257c.25415 1.79351.58276 3.57751.8916 5.361.3645 1.77557.67944 3.5578 1.0918 5.32184.76587 3.53735 1.59253 7.0617 2.55078 10.54266l.73779 2.59717c.282.89007.46192 1.78247.68482 2.66443l1.28466 5.31286 2.56958 10.62793 2.46045 10.656.00293.01239a1.5313 1.5313 0 01-.853 1.73517l-6.82447 3.12994c-1.145.50732-2.2561 1.07959-3.38745 1.61243l-3.3833 1.621.62647-1.80042 3.12939 7.07264.03345.07605a1.07815 1.07815 0 01.00268.86206 4.3994 4.3994 0 01-1.27856 1.61572 11.70582 11.70582 0 01-1.354.958 25.135 25.135 0 01-2.75537 1.45141c-1.85937.84217-3.74023 1.56067-5.63183 2.23462-1.89258.67029-3.79541 1.29224-5.7063 1.88135-1.92017.56457-3.84229 1.10168-5.7815 1.601l-.03271.00842a.3477.3477 0 01-.302-.06543c-1.168-.94189-2.321-1.90258-3.47266-2.86254a.1456.1456 0 01-.01855-.20472.148.148 0 01.19336-.0271c1.25488.82081 2.5083 1.64075 3.74682 2.4795l-.33447-.05689c1.86792-.66907 3.72876-1.37878 5.57349-2.11133 1.85278-.712 3.69262-1.45275 5.50756-2.23681 1.8125-.78626 3.605-1.61475 5.31788-2.53443.8496-.46643 1.69067-.94018 2.45361-1.46472A9.44965 9.44965 0 00379.34 366.921a2.37614 2.37614 0 00.56275-.70264l.03613.93775-3.4126-6.94031a1.3389 1.3389 0 01.58667-1.78027l.0398-.02051c2.23461-1.15173 4.44213-2.36585 6.71-3.44861l6.79223-3.272-.8501 1.74725-2.42651-10.62732L385.06091 332.159l-1.15894-5.3288c-.20239-.88708-.36255-1.78534-.61206-2.63715-.24414-.89233-.4436-1.78668-.65893-2.68029-.81324-3.5788-1.56226-7.165-2.113-10.78669a171.7741 171.7741 0 01-2.03-21.83514 104.81615 104.81615 0 011.35913-21.89856.67542.67542 0 01.447-.51819l.064-.02148a156.49145 156.49145 0 0015.228-6.18408c2.48072-1.15192 4.94849-2.32337 7.35206-3.60682a80.05921 80.05921 0 007.0581-4.07531c4.51538-2.93744 8.8772-6.34613 11.688-10.83783a14.58556 14.58556 0 002.33813-7.41175 16.42143 16.42143 0 00-2.00879-7.74041.14535.14535 0 01.0586-.19709A.14981.14981 0 01422.26086 226.44434z"/><path fill="#020202" d="M340.78649,234.11316a74.45963,74.45963,0,0,1-6.55444-4.091,58.93506,58.93506,0,0,1-5.9956-4.93,139.85643,139.85643,0,0,1-10.48829-11.37481c-3.324-3.93653-6.52758-7.97589-9.54321-12.168a82.78189,82.78189,0,0,1-8.21216-13.29914l1.8003.60089q-9.01283,5.24286-17.7981,10.86145c-5.85059,3.75281-11.67236,7.56275-17.3457,11.59443-5.6731,4.0285-11.28076,8.166-16.68579,12.56054-5.41846,4.37732-10.66407,8.96961-15.75245,13.72711a.45667.45667,0,0,1-.76147-.41375l.00244-.01252a12.85065,12.85065,0,0,0-1.58984-9.05883,11.0175,11.0175,0,0,0-3.21143-3.32538,12.3024,12.3024,0,0,0-4.24707-1.81635.666.666,0,0,1-.43286-.98388l.01147-.01911a282.99042,282.99042,0,0,1,20.23926-30.27032,288.8108,288.8108,0,0,1,24.02906-27.42352c4.27929-4.32447,8.74243-8.46515,13.30493-12.48945,2.27856-2.01568,4.6145-3.96563,6.96948-5.89068,2.33911-1.93219,4.7915-3.83728,7.28955-5.5791,5.012-3.507,10.10889-6.72119,15.23022-10.00641,2.57593-1.6167,5.1753-3.201,7.8523-4.68695,1.3396-.74213,2.69849-1.45838,4.11426-2.11127a21.629,21.629,0,0,1,2.21264-.88208,10.19111,10.19111,0,0,1,1.23243-.32751,3.4009,3.4009,0,0,1,1.647.03595.85567.85567,0,0,1,.39819.24615l.01636.01819,3.88623,4.28271-.32471-.21875,13.66431,5.666,13.62231,5.77386a.14524.14524,0,0,1-.10546.27051l-13.936-4.96918-13.8938-5.07708a.80531.80531,0,0,1-.29663-.18988l-.02832-.02912-4.054-4.12463.41407.26416a2.69386,2.69386,0,0,0-.6001.07159,8.28232,8.28232,0,0,0-.948.29627c-.65307.24139-1.313.55536-1.97168.87237-1.31762.647-2.62134,1.37384-3.9104,2.13019-2.57959,1.5152-5.1123,3.14417-7.6228,4.80682-4.99487,3.3606-10.03272,6.77246-14.89258,10.27234-2.44824,1.74951-4.75757,3.5857-7.064,5.53333-2.31739,1.92242-4.58179,3.90686-6.84937,5.88647-4.53735,3.95874-8.90918,8.10138-13.22314,12.302a305.131,305.131,0,0,0-24.22022,26.80249,310.33,310.33,0,0,0-21.02954,29.44037l-.42139-1.00274a13.56993,13.56993,0,0,1,4.62256,2.15045,12.63762,12.63762,0,0,1,3.43018,3.7489,12.88692,12.88692,0,0,1,1.68579,4.76367,15.40861,15.40861,0,0,1-.10327,5.02979l-.759-.42615q7.71095-7.09122,15.71-13.85974c5.34228-4.499,10.73168-8.953,16.29223-13.19525,5.56494-4.23255,11.20386-8.38513,17.0437-12.24414,5.822-3.885,11.803-7.53186,17.89331-10.98a1.27788,1.27788,0,0,1,1.74146.48242,1.3167,1.3167,0,0,1,.05908.11859,54.13642,54.13642,0,0,0,3.58179,6.58636q1.99878,3.23337,4.186,6.37915,4.37256,6.27686,9.09741,12.33069c3.1543,4.02387,6.40943,7.97376,9.92286,11.658a57.89638,57.89638,0,0,0,5.60449,5.17365c1.99121,1.588,4.0957,3.05029,6.21875,4.49261a.14525.14525,0,0,1-.15357.24634Z"/><path fill="#020202" d="M332.22214 147.57856c-6.77279-4.43735-30.30723-9.62759-30.30723-9.62759L292.286 144.776s30.17924 5.138 39.9881 15.64747l-.052-12.84494M307.70007 151.54883a7.86144 7.86144 0 013.46484 2.49823 11.70412 11.70412 0 012.11231 3.79266 13.11082 13.11082 0 01.61255 4.26355 11.3003 11.3003 0 01-.81836 4.15881c-.17139-.70526-.239-1.38592-.34473-2.05822-.13721-.66956-.20337-1.33362-.34253-1.98084a33.41088 33.41088 0 00-.94507-3.7785A21.65571 21.65571 0 00307.70007 151.54883zM314.23913 135.43427a31.00825 31.00825 0 014.06836-2.67035q2.10206-1.186 4.29028-2.1811c1.45752-.66638 2.949-1.25787 4.46656-1.7918a30.65966 30.65966 0 014.69067-1.29731 30.646 30.646 0 01-4.06714 2.673c-1.40161.78955-2.82959 1.52142-4.29126 2.17846q-2.18847.99473-4.46777 1.78913A31.0064 31.0064 0 01314.23913 135.43427zM301.16076 187.74823a39.04024 39.04024 0 013.46607-4.23065q1.84423-1.995 3.83081-3.83631c1.32226-1.22985 2.70019-2.39935 4.12109-3.52246a38.618 38.618 0 014.48975-3.1239 38.59023 38.59023 0 01-3.46411 4.23273c-1.23047 1.32916-2.50367 2.61182-3.83277 3.83417q-1.98706 1.84085-4.123 3.52038A39.04875 39.04875 0 01301.16076 187.74823z"/><path fill="#020202" d="M377.30037,137.95c-9.81334-3.08719-45.31113,2.85494-48.11758,13.59718-2.797,10.7423,24.98769,47.64344,24.98769,47.64344l9.58109,10.97449c7.75186,12.21328,41.88518-1.95491,53.26607-7.13247a6.35509,6.35509,0,0,0,3.784-6.03888C419.45644,170.25418,386.60052,140.88234,377.30037,137.95Zm19.38449,23.87491c-1.42271.6-2.855,1.171-4.297,1.73235-1.4324.56126-2.855,1.142-4.297,1.68391-2.51619.95809-5.05174,1.87748-7.57761,2.79688q1.74208,2.163,3.43552,4.355c1.34533,1.76135,2.68074,3.542,3.98733,5.34206,1.30647,1.80972,2.57419,3.63883,3.79359,5.51631.61939.93877,1.2,1.89685,1.75172,2.89362.271.50326.56127.97746.79352,1.5291.12582.271.26132.52258.36776.813l.05812.2032c1.36448-.1355,2.74844-.3097,4.12272-.542,1.587-.28063,3.17432-.58064,4.7323-.99678a26.94138,26.94138,0,0,0,4.5486-1.58715,8.91189,8.91189,0,0,0,3.755-2.9517,8.40491,8.40491,0,0,1-3.46469,3.484,23.05374,23.05374,0,0,1-4.51942,2.09042,41.36925,41.36925,0,0,1-4.78074,1.36453c-1.61634.35807-3.23244.67745-4.90666.88065l-.62908.06775-.27089-.75483-.22268-.62908c-.09676-.21288-.23226-.45482-.34839-.68708-.21288-.46457-.51294-.92908-.784-1.39359-.56126-.9194-1.16128-1.83879-1.771-2.75819-1.20971-1.8291-2.49681-3.61945-3.784-5.40981-1.2774-1.8001-2.59356-3.59045-3.90971-5.36149-1.30647-1.79035-2.61306-3.57108-3.94847-5.34206l-.70645-.93877,1.09346-.3387c2.94207-.89039,5.89382-1.79041,8.85514-2.63236,1.471-.43551,2.96132-.82259,4.45172-1.23872C393.69436,162.59913,395.18477,162.19263,396.68486,161.82487Zm-12.436-4.76142a21.38625,21.38625,0,0,1,4.026-.14519,21.67067,21.67067,0,0,1-3.68715,1.61622,38.4687,38.4687,0,0,1-3.80352,1.0839,35.44016,35.44016,0,0,1-3.90971.65808,21.28342,21.28342,0,0,1-4.01628.14519,21.61167,21.61167,0,0,1,3.68727-1.60654,36.00317,36.00317,0,0,1,3.80327-1.0839A35.31028,35.31028,0,0,1,384.2489,157.06345Zm-22.33624-4.413q2.526-1.1613,5.11955-2.12911,2.59852-.95805,5.27442-1.7226a39.14376,39.14376,0,0,1,5.45825-1.2194,41.0383,41.0383,0,0,1-4.93573,2.63231c-1.68391.77426-3.3872,1.49041-5.11943,2.12911s-3.49364,1.20971-5.27443,1.72266a39.46483,39.46483,0,0,1-5.45813,1.2194A41.019,41.019,0,0,1,361.91266,152.65041Zm12.95859,55.47268a31.1411,31.1411,0,0,1-4.66472-3.3582,65.36043,65.36043,0,0,1-7.74218-8.45831,144.04137,144.04137,0,0,1-12.31-19.22962c-1.8-3.35814-3.513-6.76472-5.10018-10.21967-.784-1.742-1.54841-3.48395-2.255-5.26468-.358-.89033-.70646-1.78066-1.01609-2.69037-.16456-.45488-.29995-.9194-.45483-1.38391a12.195,12.195,0,0,1-.33869-1.48072,8.65867,8.65867,0,0,1,1.12253-5.92275,13.85839,13.85839,0,0,1,4.10334-4.20979,26.94813,26.94813,0,0,1,5.09049-2.68074,31.70821,31.70821,0,0,1,5.439-1.72266,34.23469,34.23469,0,0,0-9.9681,5.15823,13.05247,13.05247,0,0,0-3.56133,4.06466,7.4262,7.4262,0,0,0-.7452,5.05174,13.09114,13.09114,0,0,0,.34826,1.26777c.16457.43551.30007.871.48389,1.30653.33881.86133.6872,1.73229,1.05495,2.59362.73552,1.73229,1.53873,3.43558,2.35162,5.13887,1.62591,3.39689,3.3292,6.76471,5.13893,10.06485q2.68552,4.9937,5.63249,9.81316c1.94523,3.23238,4.02585,6.368,6.19365,9.43577a74.3964,74.3964,0,0,0,7.18091,8.67125,29.39722,29.39722,0,0,0,4.28728,3.60977,11.29516,11.29516,0,0,0,5.18712,2.02267A10.7862,10.7862,0,0,1,374.87125,208.12309Zm36.59139-9.78416a19.58149,19.58149,0,0,1-8.75827,2.73875,26.96154,26.96154,0,0,1-9.17445-.82258,21.54824,21.54824,0,0,1-4.36466-1.66454,13.28285,13.28285,0,0,1-2.03242-1.28715,6.97522,6.97522,0,0,1-1.771-1.86779,3.02882,3.02882,0,0,1-.31932-.63876,2.31818,2.31818,0,0,1-.22257-.70646l-.10656-.61939a2.6397,2.6397,0,0,0-.07738-.45482,11.80394,11.80394,0,0,0-.68719-1.95492,42.38779,42.38779,0,0,0-1.98386-3.90978c-1.43229-2.584-3.04851-5.09048-4.64524-7.60673-3.25181-4.99367-6.59058-9.95834-9.94872-14.91333,3.94847,4.50016,7.70343,9.18414,11.19707,14.07138q2.64194,3.6582,4.97436,7.539a36.80439,36.80439,0,0,1,2.13874,4.06459,14.19555,14.19555,0,0,1,.813,2.26461,5.92621,5.92621,0,0,1,.1257.64839l.04843.31938.03875.16451a.91237.91237,0,0,0,.11613.35807,1.30147,1.30147,0,0,0,.19351.35807,8.10547,8.10547,0,0,0,3.02912,2.49687,21.14884,21.14884,0,0,0,3.97765,1.57747,27.69026,27.69026,0,0,0,8.5937,1.0839,19.65322,19.65322,0,0,0,8.37125-2.07105,14.22476,14.22476,0,0,0,3.55176-2.52587,17.56563,17.56563,0,0,0,2.69043-3.53233A14.54506,14.54506,0,0,1,411.46264,198.33893Z"/><path fill="#020202" d="M305.53133 183.70579s25.056 10.8152 48.644 15.48609l7.72672 8.85746s-31.413-5.0429-60.7413-20.30114zM340.23156 142.76477a8.23554 8.23554 0 011.02613-5.22571 6.94311 6.94311 0 014.67407-3.36364 8.89226 8.89226 0 019.39111 4.4168 20.45473 20.45473 0 00-4.55322-1.73962 10.29585 10.29585 0 00-4.33447-.13232 6.61761 6.61761 0 00-3.53418 2.01635A17.47667 17.47667 0 00340.23156 142.76477zM283.81311 116.99341l1.0996 3.95129c.19312.65174.365 1.30707.57422 1.94379a10.52019 10.52019 0 00.69068 1.74249.64534.64534 0 01-.07813.75867l-.02978.03271c-.644.7107-1.27515 1.45758-1.89209 2.191a19.46192 19.46192 0 00-1.64844 2.259 3.32376 3.32376 0 00-.25659.517.9675.9675 0 00-.03613.13434c.00708-.00818.01635-.111-.11329-.29394a.43042.43042 0 00-.15307-.11811l.15454.061.30786.123c.20557.06134.41187.14312.6145.18243a3.64877 3.64877 0 001.155.12457 1.63715 1.63715 0 00.47437-.10223 1.03974 1.03974 0 00.18383-.08978c.04249-.015.125-.10517.07374-.04017l1.52856.51551a25.97112 25.97112 0 00.325 3.49566 21.49069 21.49069 0 00.8418 3.43079 13.33475 13.33475 0 001.53076 3.16724 9.19333 9.19333 0 002.53711 2.52288 7.73248 7.73248 0 01-3.11841-2.05212 11.957 11.957 0 01-2.10059-3.17224 17.9584 17.9584 0 01-1.20825-3.598 20.04666 20.04666 0 01-.51416-3.78076l1.52832.51544a2.031 2.031 0 01-.4873.43176 2.731 2.731 0 01-.46875.24731 3.34325 3.34325 0 01-.95191.23639 4.77484 4.77484 0 01-1.759-.15539c-.27783-.06372-.529-.16565-.79053-.25275l-.3728-.15661-.186-.07874a1.33708 1.33708 0 01-.447-.33173 1.29755 1.29755 0 01-.2915-.985 2.3863 2.3863 0 01.14355-.57721 4.9105 4.9105 0 01.40625-.79505 17.00727 17.00727 0 011.93506-2.40374c.67823-.741 1.3916-1.42536 2.13452-2.1034l-.10791.79108a8.68394 8.68394 0 01-.60888-2.128c-.12354-.68616-.23291-1.36585-.31177-2.0506C283.96057 119.73608 283.84362 118.369 283.81311 116.99341z"/><path fill="#020202" d="M313.65,93.53891c-14.91339-.29032-18.09728,2.6033-30.25255,19.69418,0,0-13.67462,6.22277-12.98754,8.82608.69689,2.6033,13.50049-4.413,13.50049-4.413l45.07876.29032S328.573,93.82928,313.65,93.53891Zm0,20.12a30.30912,30.30912,0,0,1,6.07763-1.37428,29.001,29.001,0,0,1,6.22271-.21288A33.15118,33.15118,0,0,1,313.65,113.65892Z"/><path fill="#020202" d="M291.69714 117.695a23.93758 23.93758 0 002.68725 3.182 6.7381 6.7381 0 003.14087 1.94245 3.15092 3.15092 0 002.87036-1.08173 7.54541 7.54541 0 014.33472-2.17981 4.41721 4.41721 0 011.43726.08594 3.31021 3.31021 0 011.4165.7323 4.255 4.255 0 011.27075 2.4873 12.13421 12.13421 0 01-.25415 4.55646 9.59649 9.59649 0 01-.28393 1.087l-.16016.54046-.2373.53638a4.50808 4.50808 0 01-1.4795 1.93628 2.446 2.446 0 01-2.44189.1394 4.54836 4.54836 0 01-1.67285-1.41137 5.22809 5.22809 0 001.87329.79327 1.57541 1.57541 0 001.53369-.429 3.3712 3.3712 0 00.74634-1.56207l.11865-.454.07471-.48572a8.0143 8.0143 0 00.12207-.97662 12.48588 12.48588 0 00-.11255-3.82056 2.16773 2.16773 0 00-.61523-1.18884 1.39776 1.39776 0 00-1.09375-.23559 5.914 5.914 0 00-3.09034 1.48889 6.23345 6.23345 0 01-2.20312 1.24493 4.24669 4.24669 0 01-2.63355-.04535 7.26569 7.26569 0 01-3.54077-2.96808A13.8614 13.8614 0 01291.69714 117.695zM298.65368 189.59363a29.91775 29.91775 0 01.63379 3.67029c.14185 1.22338.22583 2.44683.28223 3.67028l-.49781-.81475a45.91164 45.91164 0 015.34766 2.91613 30.3304 30.3304 0 012.51465 1.756c.4104.30859.80176.64984 1.18848.99676a3.73412 3.73412 0 01.99194 1.21808 5.35356 5.35356 0 00-1.34351-.67334l-1.39892-.58557c-.93506-.3866-1.85449-.79962-2.76734-1.22711-1.83081-.84265-3.61792-1.77936-5.36914-2.77124l-.06933-.03925a.84787.84787 0 01-.42847-.77576c.0564-1.22345.14038-2.4469.28223-3.67028A29.96435 29.96435 0 01298.65368 189.59363z"/><path fill="#020202" d="M284.29479 212.4306c-.115-1.28454-.32861-2.805-.43457-4.38116a.41784.41784 0 01.137-.3382l.05078-.04516q3.38709-3.02327 6.93432-5.84015c1.17457-.94934 2.36255-1.881 3.57764-2.778 1.21045-.903 2.47046-1.74206 3.7124-2.60449l.05542-.03851a.57067.57067 0 01.63819-.00818c1.68725 1.10864 3.3562 2.24921 5.07666 3.30078q2.58727 1.56611 5.25244 2.998a.34677.34677 0 01.1499.45269l-.01025.022a29.47533 29.47533 0 01-2.46411 4.27233 12.63525 12.63525 0 01-1.677 1.93769 3.89407 3.89407 0 01-2.73461 1.13074l.873-.59614a22.89692 22.89692 0 01-.93652 2.95923 17.13644 17.13644 0 01-1.38941 2.8487 7.63043 7.63043 0 01-1.04516 1.35052 3.9004 3.9004 0 01-1.69629 1.05963 2.88905 2.88905 0 01-2.21021-.31128 5.56325 5.56325 0 01-1.4021-1.2395.9886.9886 0 01-.09887-1.16076l.04-.065a10.24633 10.24633 0 00.99975-2.1004 4.54891 4.54891 0 00.24341-2.09955 2.11753 2.11753 0 00-1.02954-1.52185 4.9112 4.9112 0 00-.96924-.506c-.36792-.12195-.76147-.21106-1.14453-.32379l.45825-.07245c-1.55493.70856-3.13476 1.33612-4.646 1.957C287.09 211.30109 285.64538 211.8573 284.29479 212.4306zm.10157-.16473c1.50366-.85968 2.91357-1.73639 4.25219-2.55762 1.34327-.81207 2.61792-1.61743 3.91724-2.34186a.671.671 0 01.45142-.07385l.00732.00141c.46875.088.94068.15521 1.41333.27044a5.88413 5.88413 0 011.40454.597 4.52935 4.52935 0 011.24829 1.06384c.15284.23993.30127.48676.44263.73663.10815.25977.18652.53217.27222.80213a6.19944 6.19944 0 01-.19019 3.081 10.25495 10.25495 0 01-1.19726 2.65686l-.05884-1.2254a3.6601 3.6601 0 00.8164.75281.86045.86045 0 00.676.121 3.44143 3.44143 0 001.64526-1.48291 15.33237 15.33237 0 001.334-2.48016c.37646-.87873.73315-1.80329 1.02954-2.6991l.031-.09424a.74933.74933 0 01.842-.50207 2.46445 2.46445 0 001.64306-.64014 11.85052 11.85052 0 001.6604-1.55164 25.42843 25.42843 0 002.75757-3.85717l.13941.47436q-2.56458-1.60455-5.20826-3.0741c-1.76635-.97241-3.58447-1.85589-5.384-2.77118l.69336-.04669c-1.14282.99-2.26733 2.00348-3.44165 2.95294-1.16968.95551-2.36621 1.87635-3.57642 2.77948q-3.613 2.73231-7.37378 5.27479l.1875-.38306C284.72473 209.33917 284.5111 210.68457 284.39636 212.26587zM224.5653 222.4093a40.27463 40.27463 0 00-9.17871 3.043c-2.80688 1.401-5.217 3.55609-5.65722 6.54315a9.87665 9.87665 0 00.5852 4.5968l.40332 1.14637c.15845.37024.34912.7254.529 1.08624a10.391 10.391 0 001.30493 2.01294l.82715.85211.95459.67542a5.05307 5.05307 0 002.17432.592 6.13815 6.13815 0 004.06445-1.55072l.13306 1.2503a16.45757 16.45757 0 01-3.45923-2.27069 7.97393 7.97393 0 01-2.54907-3.605 4.23457 4.23457 0 01-.18213-1.24133 6.007 6.007 0 01.189-1.27137 10.63678 10.63678 0 01.54468-1.11908l.72461-.89264a6.983 6.983 0 014.05982-1.99755 8.76508 8.76508 0 012.18872-.06623l.53711.06006c.18994.03333.39453.08759.58935.134a5.37423 5.37423 0 011.11328.43158 12.44125 12.44125 0 013.07666 2.85535 11.49162 11.49162 0 002.73853 2.54785 6.728 6.728 0 003.61206.94171l.02222.19226a6.62732 6.62732 0 01-4.04493-.31646 12.55889 12.55889 0 01-3.35229-2.37555 12.64031 12.64031 0 00-2.85669-2.26233 3.55475 3.55475 0 00-.73584-.22278l-.37427-.06262-.4436-.01862a7.86533 7.86533 0 00-1.73242.12519 5.67657 5.67657 0 00-2.87744 1.43182 2.64091 2.64091 0 00-.90845 2.6286 6.21377 6.21377 0 001.855 2.78552 19.31793 19.31793 0 002.96435 2.24939l1.0066.62927-.87354.62128a7.73627 7.73627 0 01-2.45312 1.15167 6.27756 6.27756 0 01-2.66431.19477 6.76553 6.76553 0 01-4.33276-2.6911c-.26978-.3252-.48267-.69043-.72706-1.03278a6.79566 6.79566 0 01-.65258-1.07275l-.60108-1.10273-.50537-1.1441a10.89488 10.89488 0 01-1.24927-4.9884 7.38239 7.38239 0 012.04493-4.93335 10.19365 10.19365 0 012.03955-1.69562 13.42992 13.42992 0 012.28369-1.22 23.96319 23.96319 0 019.83105-1.81781zM340.8634 233.99c7.39746.087 14.77588.14661 22.14722.07312q5.52721-.02691 11.04589-.18585c3.678-.08679 7.35376-.22186 11.01978-.44238 3.66724-.18781 7.33032-.43457 10.97168-.8191 3.64111-.37323 7.28076-.77508 10.863-1.42968a74.36847 74.36847 0 0010.53784-2.56061c3.35962-1.173 6.687-2.6792 9.02881-5.124l-.25025.70167a46.39378 46.39378 0 00-.50879-6.01526 37.17208 37.17208 0 00-1.38061-5.90308 20.10921 20.10921 0 00-2.6626-5.40637 11.18767 11.18767 0 00-4.65332-3.84131 10.951 10.951 0 015.20874 3.39343 19.6209 19.6209 0 013.29883 5.402 33.75823 33.75823 0 011.88476 6.03809 40.20407 40.20407 0 01.90747 6.28833l.02271.38977-.273.31225a23.53036 23.53036 0 01-9.75879 6.17029 66.00152 66.00152 0 01-10.89941 2.92078 153.38108 153.38108 0 01-22.2107 2.26318c-7.42089.25415-14.83667.16235-22.23315-.19983C355.57556 235.62335 348.19274 235.02551 340.8634 233.99zM380.56579 267.15332a152.72764 152.72764 0 01-11.75806 11.63641c-2.03686 1.8606-4.1538 3.6283-6.26464 5.40631-2.13282 1.75129-4.312 3.44715-6.50367 5.12952-2.22656 1.63666-4.47192 3.25183-6.76928 4.79621-2.32447 1.50494-4.658 3.00439-7.09473 4.33831a61.612 61.612 0 01-7.529 3.59235 24.27866 24.27866 0 01-8.10718 1.84521 30.75455 30.75455 0 007.5813-3.00573c2.40625-1.26184 4.72363-2.69135 7.01147-4.16712 4.55176-2.993 8.98658-6.18066 13.35108-9.47363 4.38574-3.26624 8.69482-6.64612 13.02954-10.00781C371.83776 273.86792 376.15588 270.47565 380.56579 267.15332zM370.44567 237.88239c1.62012 1.35192 2.85694 2.79126 4.18433 4.08593a17.384 17.384 0 002.0249 1.7984 7.455 7.455 0 002.50977 1.27771 3.95381 3.95381 0 01-3.21021.07343 7.29893 7.29893 0 01-2.68725-1.776 10.38813 10.38813 0 01-1.8501-2.5058A8.5166 8.5166 0 01370.44567 237.88239z"/><path fill="none" stroke="#020202" stroke-dasharray="2.903" stroke-linecap="round" stroke-linejoin="round" stroke-width="1.936" d="M361.902,237.88241s-57.53946,51.69117-57.50557,62.27852,62.97412,73.674,62.97412,73.674"/><path fill="#020202" d="M332.274 302.366a106.66678 106.66678 0 0113.62354 12.37616c4.241 4.44616 8.17993 9.165 11.97632 13.9881 3.75024 4.85992 7.31445 9.85974 10.6416 15.01257 1.69189 2.55682 3.24072 5.20776 4.83252 7.82471 1.51928 2.6643 3.00927 5.34417 4.41528 8.06939-1.89477-2.4198-3.668-4.90954-5.48022-7.36993l-5.43238-7.37122c-1.85278-2.42352-3.59716-4.92126-5.47949-7.31762-1.81177-2.44849-3.67114-4.85852-5.54541-7.2569q-5.58618-7.22167-11.43359-14.23639C340.46423 311.43195 336.50134 306.805 332.274 302.366zM386.949 394.68044s-2.48724-3.59045-13.0746 5.43887-36.43663 13.07461-41.60449 12.76491c-5.1583-.30969-4.80011-10.27773 0-10.27773 2.89362 0 12.51322-5.74856 19.11349-11.20681l3.63883 3.73559-2.10011-4.88724 1.64528-1.31615 5.60332 1.84841-4.49047-3.40657c.90007-1.00646 1.713-1.742 1.713-1.742l4.64535.00969-4.16146-1.86779a1.43255 1.43255 0 00-.2032-1.09359c-2.79687-4.04528 1.87742-6.23245 1.87742-6.23245 18.36829 8.71963 23.35234-7.78086 23.35234-7.78086l12.45521 11.83582a8.67546 8.67546 0 01-2.59356 3.26139 32.32141 32.32141 0 01-3.41626 2.41943c-2.38068 1.52909-4.90667 2.89363-7.3841 4.59691a16.33789 16.33789 0 004.37434-.99677 20.81854 20.81854 0 004.04534-1.9646 13.79657 13.79657 0 003.46446-3.00007 5.74192 5.74192 0 001.50978-4.31629c1.55822 0 4.984 1.5581 4.984 1.5581C405.31731 387.035 386.949 394.68044 386.949 394.68044zM305.91833 384.85974a72.72393 72.72393 0 01-1.43823 14.03772 73.61672 73.61672 0 01-4.04248 13.51807 74.81118 74.81118 0 01-15.3086 23.66223 72.57387 72.57387 0 01-23.25317 16.295 72.37472 72.37472 0 01-56.228.71924 74.294 74.294 0 01-46.45386-68.2323 74.63461 74.63461 0 0145.76294-69.89862A73.72419 73.72419 0 01219.162 310.695a72.32628 72.32628 0 0129.42481.37085 71.61083 71.61083 0 0137.43188 21.68622 75.67531 75.67531 0 0114.95606 24.3291 74.79842 74.79842 0 013.77026 13.68835A72.87335 72.87335 0 01305.91833 384.85974zm-.77417 0a71.87557 71.87557 0 00-1.57251-13.85815A67.14257 67.14257 0 00283.08972 335.681a71.49323 71.49323 0 00-35.906-17.5221 68.63845 68.63845 0 00-13.2727-1.04834 69.86115 69.86115 0 00-47.93335 19.81586 67.66127 67.66127 0 00-20.59009 47.93335A68.711 68.711 0 00185.047 433.72363a69.29208 69.29208 0 0048.864 20.8208 71.0298 71.0298 0 0050.06836-19.61633 68.28826 68.28826 0 0019.85717-36.15784A72.02344 72.02344 0 00305.14416 384.85974z"/><path fill="#020202" d="M538.09631 384.85974A72.87492 72.87492 0 01536.923 398.95a74.804 74.804 0 01-3.77026 13.68836 75.677 75.677 0 01-14.95606 24.3291 71.61 71.61 0 01-37.43188 21.68615 72.32629 72.32629 0 01-29.42481.37085 73.72348 73.72348 0 01-14.20508-4.26611 74.80144 74.80144 0 01-23.46826-122.321A73.74284 73.74284 0 01466.089 311.30389a73.38838 73.38838 0 0127.96485 6.04279 72.5755 72.5755 0 0123.25317 16.295 74.81226 74.81226 0 0115.3086 23.66217 73.62276 73.62276 0 014.04248 13.51807A72.726 72.726 0 01538.09631 384.85974zm-.77417 0a72.02245 72.02245 0 00-1.30762-13.91052 68.28856 68.28856 0 00-19.85718-36.1579A71.03029 71.03029 0 00466.089 315.175a69.23691 69.23691 0 00-63.58374 43.34918 68.331 68.331 0 00.57788 52.4314 68.01874 68.01874 0 0015.07251 21.8374A69.8607 69.8607 0 00466.089 452.60889a68.63609 68.63609 0 0013.27247-1.04834 71.49323 71.49323 0 0035.90625-17.5221 67.14181 67.14181 0 0020.48193-35.32068A71.87435 71.87435 0 00537.32214 384.85974zM334.63543 363.685L277.0278 302.366V283.15515H294.053l7.03585-10.33053L280.14173 270.89l.31139-7.47343c3.73671-3.42531 3.42532-8.0962 1.93549-9.34177s-.06714-4.98229 0-8.99492-5.36081-6.26332-12.21145-9.94969 25.3785-19.201 25.3785-19.201c3.97106-7.20434-2.64684-7.87989-2.64684-7.87989l-8.56329 4.29888c-18.21647 4.35949-23.51015 16.50381-23.51015 16.50381L243.479 230.20839 235.19 236.31c-6.22535 3.53744-7.47829-2.37612-10.63181-4.40176s-7.217.506-7.217.506c-5.37681 4.63541 3.71383 9.5732 3.71383 9.5732s54.08294-4.10507 49.04433 9.51836c0 0-5.60506 4.43734-.23354 11.91076L265.662 302.366s-13.01422-.40268-12.11218 13.604-6.72707 52.07446-26.96759 64.53017c0 0-5.29367 12.4557 8.719 2.80253s28.33726-49.35814 25.06737-65.00441l11.1251-7.23867L328.9875 368.6673z"/><path fill="#020202" d="M413.48228 251.67274s13.32536 9.25272-2.86706 17.66032l-10.89874 5.00721-8.4076 78.7574v12.44046s12.7671 2.56574 15.56963 8.29683L457.9469 390.7845l-2.17975 7.93219-71.5129-21.42806-3.22132-10.64538L388.662 288.4696H355.01872l15.42686-12.38332 19.92912 1.65438v-4.916l-14.0037-1.88474C413.48228 251.67274 399.621 260.121 413.48228 251.67274zM417.506 415.92493c.62158 1.67724 1.19433 3.22058 1.82153 4.71447a36.94918 36.94918 0 002.09351 4.24317c.36108.69189.82348 1.30981 1.23 1.97729.48242.603.897 1.28064 1.43212 1.8628.97315 1.27783 2.17164 2.35608 3.38746 3.70617a10.6775 10.6775 0 01-4.95484-2.0144 13.141 13.141 0 01-2.04516-1.82715 15.11635 15.11635 0 01-1.58887-2.23914 14.34162 14.34162 0 01-1.77344-5.11157A11.5087 11.5087 0 01417.506 415.92493zM505.59 347.02551a10.10455 10.10455 0 015.50464 1.44342 12.69794 12.69794 0 014.26831 3.99164 13.90548 13.90548 0 01.74268 1.27576l.33911.65423c.09131.22718.18188.45441.26294.68549.15942.4624.345.91461.47 1.3833.105.474.196.95.27978 1.42358a6.82 6.82 0 01.14185 1.4292c.01465.47815.0166.95411.00879 1.4253a16.0085 16.0085 0 01-.49658 2.79187c-.40088-.88916-.626-1.7583-.93042-2.598-.16773-.416-.32593-.82727-.4712-1.23632l-.21118-.61182-.26465-.588c-.17358-.39038-.34033-.77845-.49267-1.16846l-.57154-1.11157-.27124-.55664-.32885-.52167c-.22-.34491-.39087-.72223-.64258-1.04431a21.56522 21.56522 0 00-3.18775-3.76734A30.73907 30.73907 0 00505.59 347.02551z"/><line x1="463.863" x2="422.488" y1="389.431" y2="311.06" fill="none" stroke="#020202" stroke-miterlimit="10" stroke-width="6.774"/><line x1="469.468" x2="494.068" y1="389.431" y2="311.06" fill="none" stroke="#020202" stroke-miterlimit="10" stroke-width="6.774"/><line x1="413.662" x2="503.654" y1="310.193" y2="310.193" fill="none" stroke="#020202" stroke-miterlimit="10" stroke-width="6.774"/><path fill="#020202" d="M202.60485 350.24554a11.24659 11.24659 0 011.28443-4.16516 13.57742 13.57742 0 012.6062-3.53076 10.84977 10.84977 0 013.78931-2.43579 6.81086 6.81086 0 014.46459-.09466 18.7201 18.7201 0 00-3.54638 1.9168 27.4884 27.4884 0 00-2.90039 2.47486C206.43249 346.20239 204.74938 348.23218 202.60485 350.24554zM250.71521 437.64075c3.2622-1.766 6.44433-3.15235 9.36865-4.88794a23.49568 23.49568 0 004.03247-2.9253 11.87388 11.87388 0 002.947-4.17541 7.40862 7.40862 0 01-1.38818 5.49194 13.52044 13.52044 0 01-4.26856 3.84034 19.98013 19.98013 0 01-5.178 2.11035A17.11087 17.11087 0 01250.71521 437.64075zM286.53332 120.90259a1.71858 1.71858 0 01.61035-.79914 2.12119 2.12119 0 01.90528-.38946 1.61485 1.61485 0 011.09594.19385.92789.92789 0 01.47046.99475 1.40145 1.40145 0 00-.77466-.13214c-.189.03125-.3811.0509-.60986.10077A5.21432 5.21432 0 01286.53332 120.90259zM288.07431 126.354a1.7592 1.7592 0 000-3.5163 1.7592 1.7592 0 000 3.5163zM286.26916 135.60919a12.05362 12.05362 0 011.65649-.78094c.252-.0835.48682-.18836.75464-.282.2732-.09326.543-.21636.93506-.32653a1.5719 1.5719 0 01-.37134 1.04675 2.10747 2.10747 0 01-.89282.6532 2.29654 2.29654 0 01-1.07764.1369A1.69693 1.69693 0 01286.26916 135.60919z"/><path d="M325.94836,117.91534a3.59369,3.59369,0,0,1,.82446,1.28486,4.8964,4.8964,0,0,1,.33374,1.49823,4.13925,4.13925,0,0,1-.2312,1.54846,2.65661,2.65661,0,0,1-.927,1.247c.08447-.52234.16016-.96418.19043-1.41431.01562-.44971.02808-.88745.00146-1.33484C326.1007,119.84479,325.97692,118.94727,325.94836,117.91534Z"/></svg>