<svg xmlns="http://www.w3.org/2000/svg" data-name="Layer 1" viewBox="0 0 700 550"><path d="M257.35448,116.31218c10.81879.31364,29.2658,3.09381,30.79812,18.26373a43.433,43.433,0,0,1-19.28744,9.58924s-7.73678-7.62781-9.48027,2.61524,5.23049,11.76861,5.23049,11.76861.21794,14.81973,5.8843,24.409a32.59727,32.59727,0,0,1,4.35875,19.17847s-14.16592-15.69148-40.31838-11.11479-12.64036-11.55068-13.07624-16.78117,1.52556-10.67892,5.44843-18.52466-.34379-21.058,8.49955-30.51121q.395-.42225.79729-.81974A28.79712,28.79712,0,0,1,257.35448,116.31218Z"/><path d="M288.24237,134.56261a30.65779,30.65779,0,0,1,.927,6.91588,28.46855,28.46855,0,0,1-.13847,3.52673l-.10959.87256-.05556.74835.06632.722c.07427.22655.10538.463.18549.68672a7.06228,7.06228,0,0,0,1.763,2.46757,17.28914,17.28914,0,0,1,2.43213,2.62481,2.93706,2.93706,0,0,1,.45789,1.93261,3.11347,3.11347,0,0,1-.738,1.7722,4.80947,4.80947,0,0,1-3.35434,1.34477l.28151-.28853c.06363,2.78669.18409,5.56729.12374,8.37322a28.46646,28.46646,0,0,1-1.28594,8.44018,6.896,6.896,0,0,1-1.14548,2.10979,2.87184,2.87184,0,0,1-.50737.48573l-.3014.21847-.36256.171a3.16657,3.16657,0,0,1-.61064.19584l-.55835.14257a20.41368,20.41368,0,0,1-4.33059.331,47.185,47.185,0,0,1-8.3814-.94513l.37052-.07591a13.46344,13.46344,0,0,0-2.27342,1.54916,4.71617,4.71617,0,0,0-.89625.9994,1.35515,1.35515,0,0,0-.19274,1.23268l-.15977.08631a1.59654,1.59654,0,0,1-.072-1.5236,5.26256,5.26256,0,0,1,.79917-1.29823,11.97351,11.97351,0,0,1,2.21248-2.0043l.12327-.09017.24749.01415c2.73867.15684,5.50156.29707,8.20877.213a25.309,25.309,0,0,0,3.94755-.38649l.4497-.11368a1.72048,1.72048,0,0,0,.379-.1141.73925.73925,0,0,1,.11122-.04362l.11626-.0914a1.56634,1.56634,0,0,0,.248-.22444,5.13628,5.13628,0,0,0,.87847-1.49852,36.11322,36.11322,0,0,0,1.68769-7.88235,58.5,58.5,0,0,0,.61146-8.25667l-.00234-.283.28409-.00579a3.76634,3.76634,0,0,0,2.86-1.19,2.12769,2.12769,0,0,0,.42759-1.40992,2.0015,2.0015,0,0,0-.49835-1.30572,17.61292,17.61292,0,0,0-2.55353-2.1219,7.07748,7.07748,0,0,1-2.32828-3.00025,7.54965,7.54965,0,0,1-.25543-.97946c-.02854-.33263-.0448-.66683-.05965-.9987l.10117-.97045.13181-.83625c.18643-1.10215.28795-2.22488.37894-3.35381.14772-2.25939.21041-4.55129.18023-6.85775Z"/><path d="M283.57592 150.75775a1.36293 1.36293 0 000-2.72422 1.36293 1.36293 0 000 2.72422zM288.15255 154.40819a6.06565 6.06565 0 01.21239.96016 2.813 2.813 0 01.02573.514c-.00678.11182-.06748.13585-.15169.27521a1.61948 1.61948 0 00-.08643.86589 1.00745 1.00745 0 01-1.16724-.1821 1.4306 1.4306 0 011.16724-2.43313zM277.69164 145.25481a3.47277 3.47277 0 011.6043-1.55823 4.6913 4.6913 0 012.21143-.50642 4.7896 4.7896 0 012.18664.55549 4.06712 4.06712 0 011.62536 1.50916c-.78151-.0017-1.4208-.10982-2.05155-.1462-.61871-.07707-1.20654-.07538-1.78524-.103A28.06468 28.06468 0 00277.69164 145.25481zM283.57588 162.68983a6.96077 6.96077 0 011.66-.12064 9.168 9.168 0 011.46665.19158 9.07555 9.07555 0 011.41144.42941 6.47332 6.47332 0 011.46185.80221 4.1204 4.1204 0 01-3.26.54233 4.79447 4.79447 0 01-1.51764-.61134A3.47549 3.47549 0 01283.57588 162.68983zM264.39744 156.20618a1.36293 1.36293 0 000-2.72422 1.36293 1.36293 0 000 2.72422z"/><polygon points="251.539 246.814 265.968 262.797 264.57 263.956 251.539 246.814"/><path d="M344.9582,301.24537a78.38075,78.38075,0,0,0,8.13136-19.54341,139.34515,139.34515,0,0,0,3.89082-20.84112c.42268-3.516.72537-7.04137,1.04572-10.58723a29.82969,29.82969,0,0,1,.83765-5.38513,35.03033,35.03033,0,0,1,1.86137-5.11373c2.92043-6.56424,6.77851-12.562,8.82714-19.27693a48.11445,48.11445,0,0,0,1.32138-5.07c.16257-.8559.31123-1.71577.40561-2.57728a14.393,14.393,0,0,0,.1138-2.52224,24.32655,24.32655,0,0,0-1.34232-4.99064c-.59473-1.65255-1.26162-3.29153-1.99927-4.88426-.18444-.40479-.37649-.77513-.5773-1.18185a2.50267,2.50267,0,0,1-.213-.80093,3.373,3.373,0,0,1-.02281-.73934,15.54965,15.54965,0,0,1,.43075-2.71283c.40444-1.75.89742-3.45317,1.32268-5.17139a33.485,33.485,0,0,0,.93881-5.18444c.08187-.86273.0862-1.75757.08258-2.62862a9.51425,9.51425,0,0,0-.30983-2.54552,2.38979,2.38979,0,0,0-1.57728-1.66722c-.19918-.07392-.3993-.14725-.60877-.2107-.03649-.00965-.13754-.0486-.12093-.03421.00631-.00433-.00678.00082-.02234.00333a.62471.62471,0,0,0-.1752.1155,4.64292,4.64292,0,0,0-.73181.99846,38.22111,38.22111,0,0,0-2.20511,4.80151c-1.30969,3.29376-2.50558,6.63869-3.7272,9.97472-1.23554,3.33265-2.42114,6.68167-3.81738,9.97466a26.21694,26.21694,0,0,1-1.17975,2.438,4.67923,4.67923,0,0,1-2.0257,2.04559,4.09334,4.09334,0,0,1-2.92335.17765,7.39969,7.39969,0,0,1-2.50161-1.344l-.18186-.14375-.00234-.2442V206.365l.18537.38882a8.822,8.822,0,0,1-2.56943-3.27136,5.4628,5.4628,0,0,1-.33251-1.04425c-.07217-.37929-.09486-.68812-.135-1.03139l-.1607-1.97816a30.89029,30.89029,0,0,0-.46456-3.83743,6.021,6.021,0,0,0-1.427-3.184,1.25266,1.25266,0,0,0-.305-.23035.95442.95442,0,0,0-.33017-.17614c-.1145-.036-.24351-.09672-.34222-.1214a.52221.52221,0,0,0-.21181.002c-.2359.02983-.59251.46807-.80315,1.00876a14.27234,14.27234,0,0,0-.80782,3.64071,55.67659,55.67659,0,0,0-.25169,7.7568l.00608.21157-.12749.2369a19.91506,19.91506,0,0,0-2.10125,4.96069,18.92279,18.92279,0,0,0-.61005,5.35315,23.32187,23.32187,0,0,0,.82408,5.36449,23.001,23.001,0,0,0,1.99249,5.01443l.18268.33017-.08175.33754c-.73484,3.0368-1.50478,6.06688-2.4257,9.0514-.88466,2.99575-1.89529,5.952-2.98674,8.87637q-1.62051,4.39318-3.49645,8.68549c-1.2491,2.86657-2.55376,5.68513-4.01538,8.48509l-.34748.66578-.70549-.208a14.76527,14.76527,0,0,1-4.57748-2.55,43.26717,43.26717,0,0,1-3.71281-3.36423c-2.32477-2.36523-4.4486-4.8801-6.51722-7.4282-4.11749-5.111-7.97136-10.39851-11.874-15.63025l-2.927-3.92147-3.05762-3.81907-6.1239-7.63668c-4.00941-5.15437-8.28585-10.0929-12.47374-15.10915l.13543-.12094c4.36006,4.86549,8.8469,9.62613,13.01211,14.66969l6.33032,7.49732,3.16335,3.75282,3.03048,3.85971c3.99024,5.17987,7.91779,10.39512,12.07738,15.3971,2.08454,2.49295,4.22825,4.93566,6.51044,7.20429a41.54409,41.54409,0,0,0,3.5534,3.20159,13.20012,13.20012,0,0,0,3.925,2.20857l-1.05274.45777c1.40244-2.70868,2.7-5.53121,3.92042-8.35983q1.83366-4.25108,3.429-8.60082,1.593-4.34687,2.9706-8.76643c.93554-2.94077,1.72068-5.924,2.47225-8.91414l.10081.66736a24.57,24.57,0,0,1-2.13295-5.47449,25.05433,25.05433,0,0,1-.83543-5.78273,20.23007,20.23007,0,0,1,3.07376-11.20125l-.12128.44812a57.06635,57.06635,0,0,1,.41075-7.98849,15.46316,15.46316,0,0,1,.98724-4.01263,4.47448,4.47448,0,0,1,.5973-.99987,2.12392,2.12392,0,0,1,1.18911-.76215,1.85621,1.85621,0,0,1,.76549.00947,5.47943,5.47943,0,0,1,.58432.209,1.95053,1.95053,0,0,1,.52864.29438,2.35423,2.35423,0,0,1,.46947.372,7.14151,7.14151,0,0,1,1.74173,3.89819,31.95868,31.95868,0,0,1,.41029,3.99439l.12175,1.95471a5.17389,5.17389,0,0,0,.35134,1.76044,7.80789,7.80789,0,0,0,2.20781,2.90891l.18771.1569-.0021.23228-.00012.00889-.184-.38766c1.25109,1.05367,2.98756,1.79641,4.41327,1.1311,1.43133-.64368,2.0974-2.44266,2.86394-3.99316,1.45565-3.21628,2.69283-6.55214,3.9362-9.87642,1.24607-3.32621,2.467-6.66412,3.807-9.96326a47.90564,47.90564,0,0,1,2.23143-4.88,5.08174,5.08174,0,0,1,.83461-1.14536,1.161,1.161,0,0,1,.38233-.23959.61776.61776,0,0,1,.30479-.02684,1.05894,1.05894,0,0,1,.19977.05123c.21637.06321.434.14.65192.21888a3.39036,3.39036,0,0,1,1.23179.76642,3.19786,3.19786,0,0,1,.72268,1.26794c.81227,3.63206.21252,7.25008-.58724,10.72009-.38537,1.7405-.83741,3.46393-1.18992,5.18519a14.76834,14.76834,0,0,0-.345,2.55055,2.45239,2.45239,0,0,0,.15789,1.06712c.20129.38356.42842.79753.62175,1.19642.79531,1.6119,1.51062,3.24948,2.1595,4.92432a25.21443,25.21443,0,0,1,1.53413,5.24805,15.28227,15.28227,0,0,1-.04888,2.7957c-.07766.90677-.21029,1.80231-.35789,2.69487a43.40853,43.40853,0,0,1-1.256,5.26437,64.48677,64.48677,0,0,1-4.10275,9.9539c-1.56255,3.20505-3.2382,6.3429-4.70275,9.52672a33.4804,33.4804,0,0,0-1.82839,4.87268,28.3371,28.3371,0,0,0-.84011,5.12174c-.35227,3.52691-.691,7.07862-1.14981,10.61331-.46876,3.53445-1.01542,7.06212-1.75576,10.55424-.32432,1.75413-.7856,3.48176-1.17168,5.22256-.47192,1.7215-.89648,3.45551-1.43133,5.15853a73.064,73.064,0,0,1-8.89473,19.37657Z"/><polygon points="331.74 264.684 325.761 261.498 326.822 260.025 331.74 264.684"/><path d="M299.73789,232.07509c1.1201-1.80395,2.33716-3.54159,3.59059-5.25905a47.79956,47.79956,0,0,1,4.08837-4.93157,13.92066,13.92066,0,0,1,2.53411-2.1543c.25462-.13409.57251-.31158.78315-.40117a6.87979,6.87979,0,0,0,.66175-.31911,8.38539,8.38539,0,0,0,1.23951-.787,54.40775,54.40775,0,0,0,4.50181-4.32222c1.49331-1.5077,3.00019-3.01143,4.56041-4.455,1.54746-1.45741,3.18943-2.82645,4.70987-4.23521a35.23975,35.23975,0,0,0,4.22872-4.553,14.9757,14.9757,0,0,0,1.59764-2.6002,5.30715,5.30715,0,0,0,.59531-2.802l-.0076-.05649.00058-.02141.00024-.00889.00737.07954a1.72994,1.72994,0,0,0-.25509-.70046.93376.93376,0,0,0-.21976-.23655.24965.24965,0,0,0-.07345-.04193.27561.27561,0,0,0-.10269-.0031,4.71026,4.71026,0,0,0-1.53226.73128,33.74742,33.74742,0,0,0-2.97551,2.22511l-2.87038,2.41325c-.24023.2035-.47975.40613-.73554.60408a1.45384,1.45384,0,0,1-1.05613.38889,1.21839,1.21839,0,0,1-.91437-.742,3.00407,3.00407,0,0,1-.22924-1.01461,10.13574,10.13574,0,0,1,.69508-3.79147,29.1518,29.1518,0,0,1,1.473-3.5041c1.13379-2.26073,2.43915-4.40982,3.71223-6.5619a58.70291,58.70291,0,0,0,3.52569-6.48225,4.97505,4.97505,0,0,0,.40514-1.54969.52935.52935,0,0,0-.074-.38373.40864.40864,0,0,0-.21578-.08749,3.21236,3.21236,0,0,0-1.29215.49836,12.62229,12.62229,0,0,0-1.43472,1.01133,50.09253,50.09253,0,0,0-5.26963,5.1325c-1.66559,1.8291-3.27879,3.734-4.84426,5.63946l-.32363.394-.52268-.038a16.58933,16.58933,0,0,0-9.70408,2.67312,40.72331,40.72331,0,0,0-8.11626,6.79786,85.78364,85.78364,0,0,0-6.75827,8.40064,12.74373,12.74373,0,0,1-4.32111,3.50171,17.3328,17.3328,0,0,1-5.2087,1.6984l-.03006-.17912a15.32929,15.32929,0,0,0,8.76549-5.6063,69.81774,69.81774,0,0,1,6.43711-8.82327,40.29212,40.29212,0,0,1,8.26211-7.35745,17.76916,17.76916,0,0,1,10.859-3.03294l-.84607.35585c1.60021-1.96629,3.26627-3.84118,5.00368-5.67735a51.63345,51.63345,0,0,1,5.57372-5.21718,14.21711,14.21711,0,0,1,1.65191-1.11414,4.28637,4.28637,0,0,1,2.22172-.67233,1.93127,1.93127,0,0,1,1.38958.7604,2.07431,2.07431,0,0,1,.35063,1.39992,6.32951,6.32951,0,0,1-.58116,2.05027,48.84246,48.84246,0,0,1-3.90334,6.53681c-1.38618,2.082-2.779,4.15123-3.98064,6.31547a25.42029,25.42029,0,0,0-1.57086,3.34586,9.58257,9.58257,0,0,0-.71859,3.52562c.01228.56151.2276,1.185.60666,1.22139.36362.066.894-.4821,1.36513-.8387l2.85049-2.43985c.96665-.80046,1.91892-1.61951,2.96744-2.34827a5.52343,5.52343,0,0,1,1.80933-.918,1.05336,1.05336,0,0,1,.36234-.00123.98329.98329,0,0,1,.35321.14368,1.71869,1.71869,0,0,1,.44549.417,2.55565,2.55565,0,0,1,.44818,1.0218l.006.0276.0014.05228.00023.00889-.007-.07754a6.18356,6.18356,0,0,1-.49087,3.36715,15.85617,15.85617,0,0,1-1.56536,2.89072,33.17357,33.17357,0,0,1-4.16229,4.95116c-1.53015,1.52612-3.12872,2.88511-4.66063,4.33181-1.54384,1.43343-3.088,2.86388-4.59667,4.33953a54.64481,54.64481,0,0,1-4.74859,4.35988,9.27046,9.27046,0,0,1-1.4574.87812,8.17439,8.17439,0,0,1-.78537.33006c-.28234.10385-.42222.19648-.64456.29046a12.92807,12.92807,0,0,0-2.37879,1.83688,97.67792,97.67792,0,0,0-8.30667,9.50314Z"/><polygon points="313.651 192.547 317.134 187.563 318.45 188.814 313.651 192.547"/><path d="M329.99712,195.03284c.89367-2.61394,1.90887-5.17,2.91634-7.72972l1.5615-3.81562,1.61822-3.7886c1.083-2.52377,2.22032-5.02163,3.34709-7.52452,1.17063-2.482,2.29739-4.98484,3.50416-7.4496l.55789-1.1394,1.15928.46625q5.87623,2.363,11.68195,4.903c1.92675.86824,3.86673,1.703,5.77805,2.60985,1.92126.88174,3.82755,1.80091,5.72846,2.734l.39005.19152-.161.33286q-.92613,1.9147-1.90559,3.80878c.36152-1.37519.74677-2.74125,1.14677-4.10159l.22889.52415c-2.022-.62876-4.03843-1.2715-6.04-1.95155-2.01155-.65508-3.99433-1.38221-5.99056-2.07582q-5.96377-2.14321-11.855-4.46825l1.71693-.673c-1.15413,2.48985-2.38827,4.94157-3.57855,7.41423-1.234,2.45172-2.45774,4.90847-3.7355,7.33937l-1.92325,3.64329-1.97986,3.61626C332.81,190.29355,331.46424,192.69217,329.99712,195.03284Z"/><rect width=".908" height="11.426" x="330.927" y="203.254" transform="rotate(-62.982 331.381 208.967)"/><path d="M361.8156 177.27937l-13.41224 29.08556a7.36 7.36 0 01-2.71513-4.23159c-.43585-3.26909 0-10.02514-3.48707-10.89686s-3.05111 13.0762-3.05111 13.0762a18.31245 18.31245 0 00-1.11691 2.06134l-7.74588-4.24068c2.69706-3.38714 3.20552-5.65732 2.96941-6.95586v-.00909l.05443-.13617 12.37713-24.71774zM313.61547 301.42929a54.55933 54.55933 0 01-14.42307-6.04957 106.17275 106.17275 0 01-12.88053-8.946 136.15535 136.15535 0 01-11.68581-10.46494c-.92724-.92554-1.84-1.86185-2.74089-2.82634-.90935-.99829-1.74209-1.95658-2.601-2.951l-2.53739-2.98522c-.84362-1.03233-1.656-1.96448-2.4919-3.19534l.97192.56134a20.89326 20.89326 0 01-6.64553-1.70513 24.70592 24.70592 0 01-5.774-3.48591 29.61481 29.61481 0 01-8.13627-10.50085l-.69157-1.509-.34467-.75391c-.09789-.25748-.17883-.5211-.26889-.78127l-1.05086-3.12856c-.32841-1.047-.51356-2.12985-.776-3.19153a26.89691 26.89691 0 01-.631-3.2123c-.26549-2.16459-.65893-4.30485-.73484-6.49371a47.11293 47.11293 0 01.12175-6.5381 43.40681 43.40681 0 013.05575-12.648 34.69573 34.69573 0 013.00721-5.7877 23.63169 23.63169 0 014.32018-4.9252 15.68255 15.68255 0 015.868-2.9837l1.63-.33315c.54877-.06088 1.10373-.06866 1.65589-.10433l.82911-.03772.82385.07281 1.64851.14859a35.03 35.03 0 0112.07481 4.91806l-.83052.97859a38.26734 38.26734 0 00-11.99632-7.6975 45.45074 45.45074 0 00-13.87385-3.35744 57.52638 57.52638 0 00-14.28109.81905 47.76836 47.76836 0 01-7.48364.78561 20.07578 20.07578 0 01-3.91048-.31216 8.40274 8.40274 0 01-3.93655-1.78472l-1.66068-1.44822 2.08944-.79812.0034-.00134 2.51552-.96093-.77473 2.63523a98.89193 98.89193 0 00-2.98861 14.45893c-.1945 1.222-.33064 2.45224-.46269 3.68322-.12783 1.23109-.2945 2.45845-.39087 3.69246l-.25309 3.70557-.12141 1.8529-.04035 1.85664a137.331 137.331 0 002.22711 29.572c.49543 2.4271.86794 4.8859 1.5781 7.264l.95438 3.59556c.32432 1.197.60256 2.40909 1.04291 3.57013l2.40792 7.04686c.93355 2.29693 1.91927 4.57567 2.87739 6.86932a73.57237 73.57237 0 003.24369 6.722c1.15578 2.21243 2.35225 4.40292 3.56955 6.581 1.227 2.17173 2.4933 4.32333 3.87585 6.39331.69122 1.03443 1.41437 2.04734 2.19482 3.00861a13.96835 13.96835 0 001.24443 1.36641 4.13777 4.13777 0 001.48057 1.00268l-.06609.26432a4.41324 4.41324 0 01-1.67412-.97378 14.41031 14.41031 0 01-1.36993-1.32408 36.50933 36.50933 0 01-2.39131-2.93312c-1.50489-2.02044-2.89-4.12-4.23667-6.2412-1.34969-2.12-2.62207-4.28544-3.86942-6.46465a74.97032 74.97032 0 01-3.53422-6.67113c-1.05917-2.28746-2.14781-4.56708-3.18487-6.87l-2.63622-7.09914c-.47461-1.1732-.78689-2.398-1.14536-3.60873L218.344 257.1303c-.77788-2.40961-1.21729-4.902-1.77892-7.36686a127.98351 127.98351 0 01-2.66675-30.15736l.0448-1.897.12655-1.89324.26479-3.78586c.1007-1.26086.27216-2.51564.40514-3.77369.13263-1.2584.2807-2.515.5-3.76264a101.13919 101.13919 0 013.28709-14.885l1.74068 1.67413-.00351.00128.42865-2.24616a5.85527 5.85527 0 002.66511 1.19244 17.55717 17.55717 0 003.37715.30631 45.35779 45.35779 0 007.0806-.65724 57.88665 57.88665 0 0114.89933-.54175 44.87372 44.87372 0 0114.3763 3.91819 40.36238 40.36238 0 0112.2479 8.44667l3.83293 3.98954-4.66345-3.0109a31.98222 31.98222 0 00-11.53118-5.04034l-1.56033-.156-.78069-.07947-.78034.02894c-.51953.029-1.04327.02842-1.56022.0793l-1.5312.29672a14.80532 14.80532 0 00-5.55689 2.75189 25.49007 25.49007 0 00-7.00563 10.40425 39.47108 39.47108 0 00-2.6278 12.39661 45.7076 45.7076 0 00.11578 6.34459c.14936 2.109.61625 4.19346.94514 6.28349a25.59943 25.59943 0 00.72139 3.08481c.28994 1.01343.50292 2.05208.85367 3.04206l1.10806 2.94593c.094.24426.17918.49262.28046.73332l.35228.69929.70245 1.39729a28.78184 28.78184 0 007.65872 9.5842 22.31039 22.31039 0 005.2342 3.13568 18.81847 18.81847 0 005.76518 1.56764l.63836.0586.33379.50292c.615.9263 1.486 1.9812 2.28091 2.96323l2.48382 2.97686 2.50757 2.93639c.85426.95134 1.73717 1.8936 2.63108 2.82125q2.67925 2.78874 5.50519 5.441c.93612.8887 1.87073 1.78 2.83715 2.6357.954.8701 1.91588 1.73155 2.90534 2.56025a113.89021 113.89021 0 0012.37375 9.28935 58.07706 58.07706 0 0013.87853 6.79956zM356.99617 265.40089c2.39166-1.2846 4.81876-2.48149 7.26481-3.63147 1.21718-.5897 2.45295-1.13314 3.67913-1.70033 1.2249-.57063 2.46921-1.09308 3.70276-1.642l.5435-.24181.51976.37a41.42664 41.42664 0 013.71668 3.00195c1.20676 1.02075 2.30347 2.15055 3.41773 3.26294a62.93308 62.93308 0 015.89863 7.339c3.52568 5.185 6.83956 10.44372 9.8353 15.92236.824 1.33226 1.48665 2.74593 2.18582 4.14608l1.0566 2.10015.52525 1.05367.45356 1.0839c.59169 1.45121 1.1911 2.90394 1.75565 4.37082.58479 1.46033.94841 2.993 1.42431 4.49122a85.60331 85.60331 0 012.23669 9.16485c.61122 3.08855.79578 6.24372 1.13812 9.36625l.12865 1.17361-1.18139.27871c-2.00114.47215-4.01865.87718-6.02763 1.31746l-6.04928 1.22929q-3.0303.59191-6.073 1.1332c-2.0353.33292-4.06147.70285-6.10823.98922l-.065-.26456c1.94664-.69443 3.91363-1.30518 5.87161-1.95295q2.94681-.93192 5.90694-1.809l5.93056-1.71284c1.98442-.54041 3.96006-1.11607 5.95232-1.62466l-1.0525 1.45209-.6007-4.54719a44.99568 44.99568 0 00-.62583-4.5369c-.56912-2.999-.98163-6.03916-1.85016-8.97678l-.5725-2.22319c-.19544-.74-.35216-1.49272-.6166-2.2116-.48573-1.45127-.93671-2.91669-1.39542-4.38369l-.33415-1.10472-.40678-1.07723L396.359 292.851c-.55321-1.43723-1.08946-2.88668-1.78021-4.26543A58.11654 58.11654 0 00384.44433 273.182c-2.04617-2.30149-4.20134-4.48339-6.33675-6.66885-1.10548-1.05338-2.16769-2.15331-3.28978-3.18323-1.095-1.05069-2.283-2.04454-3.40686-2.97727l1.0628.12812c-1.26817.46333-2.5257.95309-3.80276 1.39466-1.27565.445-2.54172.91373-3.82638 1.3363-2.55763.87437-5.1342 1.70191-7.74621 2.44166z"/><path d="M218.46426,195.16869q-19.17255,1.82682-38.26159,4.31053c-6.359.83577-12.70474,1.7626-19.01705,2.84516-6.30518,1.09946-12.59807,2.32781-18.72957,3.98977a41.2643,41.2643,0,0,0-8.74339,3.2768,7.9435,7.9435,0,0,0-1.69179,1.24232,2.97227,2.97227,0,0,0-.48619.66771c-.0324.10918-.06316.18386-.09029.30222l-.02456.41789a33.80532,33.80532,0,0,0,.58631,4.57777c1.16138,6.24974,2.69727,12.49129,4.22742,18.71121,3.12136,12.43737,6.28986,24.87726,9.59976,37.27938l9.81974,37.244,4.99257,18.60255,5.14133,18.5618c1.7346,6.18143,3.43177,12.37369,5.214,18.54173l5.35595,18.50127c3.55036,12.33978,7.27382,24.6306,10.94815,36.93283l-.7249-.53309,43.79847-1.186,43.8015-1.02408,43.8028-.95109,21.90251-.41585,21.90391-.34426-.81566.28274,29.8707-22.39507c9.9711-7.44627,19.91061-14.93436,29.91971-22.33052l-.3504.59812c.66888-4.85057,1.0725-9.78992,1.25554-14.70781a104.53965,104.53965,0,0,0-.43064-14.74594,52.34176,52.34176,0,0,0-1.24829-7.2444,26.2627,26.2627,0,0,0-2.64125-6.79546,11.29538,11.29538,0,0,0-5.17923-4.88222,11.593,11.593,0,0,0-7.17042-.403l-.06492-.26456a10.92221,10.92221,0,0,1,13.032,5.173,27.07307,27.07307,0,0,1,2.93984,6.925,53.38058,53.38058,0,0,1,1.49776,7.34832,101.77744,101.77744,0,0,1,.76806,14.92641c-.08245,4.98525-.38081,9.94173-.96127,14.91979l-.04176.35824-.30888.24018c-9.823,7.64147-19.71587,15.19108-29.577,22.78238l-29.62591,22.71787-.3559.27292-.46011.00994-21.90146.47292-21.90274.40152-43.80782.68338L230.42,421.6735l-43.81227.44853-.57333.00585-.15181-.53918-10.44348-37.0844-5.2439-18.53495L164.876,347.4558l-10.69143-37.01424c-3.55855-12.34041-7.10669-24.685-10.53261-37.06563L138.656,254.76414c-1.64431-6.21062-3.25867-12.43065-4.74392-18.68694-1.48734-6.25927-2.97586-12.50644-4.11175-18.89255a34.92115,34.92115,0,0,1-.58222-4.97251c.00913-.25058.03579-.52327.06129-.7825a4.65944,4.65944,0,0,1,.263-.84385,5.04649,5.04649,0,0,1,.91519-1.27612,9.96868,9.96868,0,0,1,2.17868-1.59624,42.99914,42.99914,0,0,1,9.26947-3.41446,180.2423,180.2423,0,0,1,18.99178-3.74743c6.36448-.96648,12.74474-1.77366,19.13261-2.48921,6.38611-.73057,12.78708-1.3067,19.1898-1.83412,6.403-.526,12.80918-.99473,19.225-1.33127Z"/><path d="M361.81537,418.11221s-1.30762-83.68788-4.76812-96.76412-104.65686-.756-135.14756-4.57668c-9.57108-1.19931-16.66362-6.92768-21.48418-12.64023a50.42614,50.42614,0,0,1-9.351-17.15559c-14.67694-45.72214-20.9958-64.5929-26.70022-72.19879-5.8843-7.84574-33.9982-3.21438-33.9982-3.21438-1.96143,10.40631,56.2278,209.81885,56.2278,209.81885Z"/><path d="M162.39765,206.236a26.26765,26.26765,0,0,1,20.64229,10.00694,35.05119,35.05119,0,0,1,3.304,4.97133,41.47907,41.47907,0,0,1,2.3402,5.47858c.6938,1.87471,1.23554,3.75749,1.73249,5.64647.52023,1.88629.9718,3.78481,1.43437,5.67923,1.83577,7.57861,3.49013,15.17055,5.516,22.64384a127.49566,127.49566,0,0,0,7.67592,21.75923,48.1763,48.1763,0,0,0,6.029,9.66344,24.97137,24.97137,0,0,0,8.75274,6.9823,8.61205,8.61205,0,0,0,1.29835.54263l1.325.485c.92315.20269,1.805.506,2.76675.633,1.91073.26632,3.80462.63941,5.73583.82064,1.92968.18549,3.85912.37812,5.79372.531l5.81676.34123c7.76527.33543,15.5447.41286,23.32226.3197,7.778-.01883,15.5537-.33245,23.32693-.60005,7.77334-.29561,15.54154-.71911,23.311-1.07215l11.65025-.60911,5.82237-.32146c1.90314-.08064,3.84837-.30216,5.80753-.4145a183.769,183.769,0,0,1,23.51336-.25046,45.48413,45.48413,0,0,1,11.8589,2.075,12.55662,12.55662,0,0,1,2.941,1.47887,5.539,5.539,0,0,1,2.30722,3.089c.4228,2.13424.65087,3.98708.87811,5.96483,1.64922,15.55646,2.52687,31.0787,3.33353,46.65013l.12619,2.92686c.02117.48315.03755.98191.04164,1.4922l.00538.37333c.01251.05134-.00023.10865.01345.1573a.66128.66128,0,0,0,.11649.27813,2.24512,2.24512,0,0,0,1.81834.61672,9.43432,9.43432,0,0,0,2.59552-.456,24.45412,24.45412,0,0,0,5.08928-2.3902,49.89287,49.89287,0,0,0,4.74286-3.2506,136.94687,136.94687,0,0,0,16.873-15.97037l.2062.17813q-3.68469,4.53494-7.69662,8.80608a93.29128,93.29128,0,0,1-8.52761,8.067,51.379,51.379,0,0,1-4.76414,3.51188,26.05877,26.05877,0,0,1-5.36613,2.74067,11.20049,11.20049,0,0,1-3.11493.64584,5.472,5.472,0,0,1-1.74828-.19848,3.27231,3.27231,0,0,1-1.70418-1.12349,2.66039,2.66039,0,0,1-.48456-1.03636,3.63771,3.63771,0,0,1-.07029-.5659l-.01778-.35585-.07368-1.42366-.18678-2.90137q-.811-11.62615-1.84524-23.25143c-.69976-7.73955-1.3194-15.50067-2.24722-23.18-.10632-.96408-.2524-1.90652-.37-2.86166-.05685-.4811-.13287-.94519-.21275-1.40547l-.11567-.69391-.05766-.347-.02889-.1735-.02865-.09883a2.68963,2.68963,0,0,0-1.16841-1.44109,9.76471,9.76471,0,0,0-2.26219-1.12613,45.76169,45.76169,0,0,0-11.06523-1.96927,181.26006,181.26006,0,0,0-23.14659-.02327c-1.92734.087-3.85374.28461-5.84015.34707l-5.8377.23216-11.67586.368c-7.78376.23333-15.57172.32689-23.3584.40344-15.57394.12485-31.14624.16883-46.72158-.32812l-5.84215-.23877-5.84179-.40169c-1.94921-.11637-3.89328-.42871-5.84389-.63491-.97344-.09473-1.95893-.38432-2.94032-.57081l-1.43331-.46794a9.59743,9.59743,0,0,1-1.4098-.53391,26.58092,26.58092,0,0,1-9.58654-7.1285,48.57919,48.57919,0,0,1-6.61254-9.89192,111.185,111.185,0,0,1-7.978-22.14958c-2.00068-7.56428-3.576-15.20476-5.242-22.7901l-1.3-5.669c-.43321-1.89-.9111-3.76393-1.5146-5.56016a39.76223,39.76223,0,0,0-2.0705-5.31355,33.54676,33.54676,0,0,0-2.99633-4.83134,26.97328,26.97328,0,0,0-8.5186-7.45633,9.99383,9.99383,0,0,0-1.27717-.65116l-1.30618-.60052c-.90432-.31251-1.78957-.70058-2.72429-.92911a23.26347,23.26347,0,0,0-5.67864-.97584Z"/><polygon points="381.157 363.519 379.795 395.883 378.433 363.519 381.157 363.519"/><rect width="6.357" height="60.151" x="358.637" y="418.112"/><rect width="6.357" height="60.151" x="417.743" y="362.485"/><rect width="6.357" height="60.151" x="186.221" y="418.112"/><path d="M472.47951,385.34733l3.09481,17.94554,2.62523,30.20936s-17.05451,3.18095-23.59851,1.87792c0,0-14.54413-23.17681-26.97086-45.63505a187.85728,187.85728,0,0,1-18.3863-47.66625l-4.27316-18.118a96.07529,96.07529,0,0,0-2.94136-17.46643c2.95083-2.6923,5.77735-5.49,8.56549-8.326,2.79763-2.82645,5.51876-5.72951,8.24937-8.61345,1.19764-1.29343,2.38569-2.59652,3.58334-3.89954a34.83618,34.83618,0,0,1,16.36457.68987,23.80579,23.80579,0,0,1,7.86609,4.05281,23.50247,23.50247,0,0,1,5.72963,6.678,48.14186,48.14186,0,0,1,3.40124,8.24942c.95812,2.85517,1.7822,5.75829,2.55821,8.69012,1.533,5.84448,2.86476,11.756,4.10077,17.68677,2.587,11.83277,4.73315,23.78044,6.88891,35.71858C470.42913,373.39006,471.464,379.3687,472.47951,385.34733Z"/><path d="M494.62155 419.1209l-19.04723-15.828c-.61332-6.0457-1.40852-12.0627-2.16535-18.08923q-1.2505-9.02549-2.61575-18.03174c-.8911-6.0074-1.96407-11.986-3.01809-17.96467-1.08256-5.97863-2.21319-11.95726-3.45867-17.90718-1.29355-5.94033-2.68277-11.86147-4.29245-17.74432-.80479-2.94142-1.66712-5.86366-2.66348-8.75719a43.88509 43.88509 0 00-3.708-8.4793A25.07406 25.07406 0 00447.396 289.44a24.42363 24.42363 0 00-8.34515-3.99533 31.60911 31.60911 0 00-9.13087-.939 35.71676 35.71676 0 00-7.34867 1.00607c1.44676-1.57133 2.90312-3.13306 4.3307-4.714 2.70184-2.91265 5.27923-5.93074 8.144-8.69965l-1.25518.81437c-.42152.28743-.80479.60362-1.20724.91023-.79519.60361-1.55214 1.25513-2.31856 1.89705q-2.27085 1.95453-4.42661 4.03368c-2.903 2.73061-5.66238 5.605-8.3931 8.49848-2.71131 2.91266-5.3749 5.87326-7.95229 8.91047-2.57739 3.02762-5.09713 6.11278-7.46364 9.332-8.33568-31.45495-29.96989-47.04345-29.96989-47.04345s48.16449-27.01887 63.41762-14.81249c15.25312 12.1968 22.22823 17.86888 42.71287 76.27557 20.494 58.40675 31.70389 81.33445 31.70389 81.33445zM454.73646 428.65932a52.26062 52.26062 0 01-.937 12.432 17.19275 17.19275 0 01-1.02515 3.00641 26.37836 26.37836 0 00-.94634 2.8542 12.68336 12.68336 0 00-.27574 5.8071 9.10324 9.10324 0 002.866 4.83064 13.29337 13.29337 0 001.13369.90772l.6098.40653c.22945.15086.46379.30274.67706.46495a13.91769 13.91769 0 002.44758 1.64509 17.25625 17.25625 0 005.79144 1.20673c2.03554.14273 4.09449.17186 6.15357.14866A206.08955 206.08955 0 00495.879 460.103l24.52555-3.54772-.74961.75736a3.029 3.029 0 00-.10362-.46309 3.398 3.398 0 00-.2787-.61445 5.79669 5.79669 0 00-.87728-1.17846 12.85176 12.85176 0 00-2.44063-1.98051 33.07075 33.07075 0 00-5.8789-2.89365c-2.08121-.79088-4.176-1.44885-6.36128-2.09124-2.17214-.6578-4.32421-1.38756-6.45925-2.16744a62.56092 62.56092 0 01-12.33909-5.84249 23.38738 23.38738 0 01-5.25517-4.42615 9.45293 9.45293 0 01-2.48612-6.29186.08766.08766 0 01.17512-.00152 9.28649 9.28649 0 002.814 5.84384 24.354 24.354 0 005.29758 3.98321A70.45169 70.45169 0 00497.7722 444.446c4.23782 1.46121 8.61825 2.41244 12.9679 3.99421a33.32783 33.32783 0 016.24174 3.08193 13.5878 13.5878 0 012.76082 2.31983 7.5442 7.5442 0 011.10226 1.55434 3.99269 3.99269 0 01.54618 2.13527.778.778 0 01-.67842.74855l-.07145.00914c-8.20007 1.05045-16.41365 2.01895-24.65328 2.74837-8.24342.70284-16.4552 1.59786-24.72628 2.13494-2.06911.13376-4.14529.22062-6.238.18286a18.07639 18.07639 0 01-6.33282-1.01862 15.09292 15.09292 0 01-2.74411-1.71384l-1.28936-.85031a14.84574 14.84574 0 01-1.28989-1.02031 10.20628 10.20628 0 01-3.26238-5.69688 14.07617 14.07617 0 01.423-6.45576 19.88573 19.88573 0 011.10438-2.98914 15.90878 15.90878 0 001.12135-2.79628 69.28031 69.28031 0 001.80758-12.15772.08761.08761 0 01.09172-.0833A.09127.09127 0 01454.73646 428.65932z"/><path fill="#fff" d="M461.07042,439.835a8.92952,8.92952,0,0,0,.89658,3.98693,5.45055,5.45055,0,0,0,1.21225,1.55637,12.81767,12.81767,0,0,0,1.69077,1.26938,4.78351,4.78351,0,0,1-2.1067-.72722,4.38644,4.38644,0,0,1-1.56816-1.68624A4.99632,4.99632,0,0,1,461.07042,439.835Z"/><path d="M466.70684 447.34935l-1.89658-.25169a5.19046 5.19046 0 01-2.30453-.8028 4.78726 4.78726 0 01-1.70945-1.84278 5.4778 5.4778 0 01-.13661-4.81023l.79437-1.69027.07018 1.86617a8.32686 8.32686 0 00.84116 3.78615 5.00106 5.00106 0 001.1153 1.43437 10.72438 10.72438 0 001.43811 1.09378zM453.163 458.13152s-4.91645 1.89135-1.86982 10.83149c0 0-.29126 3.37369 11.65925 2.3477l60.27939-1.91478s4.13561-10.00946-5.195-11.63716l-15.08569 1.901s3.46728-9.12987 2.31992-12.03547a13.954 13.954 0 00-16.14-5.5291s1.1 14.42936-9.875 19.73692C479.256 461.83211 462.84522 461.54915 453.163 458.13152zM492.44361 416.65446a52.26119 52.26119 0 017.50528 9.95508 17.19209 17.19209 0 011.21528 2.93472 26.3821 26.3821 0 001.174 2.76835 12.68337 12.68337 0 003.62742 4.54316 9.10323 9.10323 0 005.34206 1.73534 13.29076 13.29076 0 001.45077-.0669l.72639-.09736c.27193-.03821.5482-.07888.81548-.0979a13.916 13.916 0 002.92438-.38071 17.256 17.256 0 005.14615-2.91791c1.62292-1.23689 3.18841-2.57457 4.71944-3.95162A206.08844 206.08844 0 00544.104 413.10158l16.0759-18.8588-.06286 1.06375a3.02858 3.02858 0 00-.3836-.27935 3.399 3.399 0 00-.615-.27743 5.79657 5.79657 0 00-1.437-.30573 12.851 12.851 0 00-3.14065.12423A33.07143 33.07143 0 00548.215 396.277c-2.08521.7803-4.09282 1.66937-6.15815 2.62992-2.06561.94028-4.16367 1.81328-6.282 2.63738a62.56108 62.56108 0 01-13.12442 3.76 23.38767 23.38767 0 01-6.86922.14605 9.45293 9.45293 0 01-6.02164-3.08353.08765.08765 0 01.1305-.11677 9.28655 9.28655 0 005.97208 2.53053 24.35464 24.35464 0 006.6086-.50669 70.45172 70.45172 0 0012.71651-4.18074c4.14743-1.70092 8.0652-3.879 12.37622-5.56322a33.32741 33.32741 0 016.72253-1.807 13.58771 13.58771 0 013.60515-.08083 7.54415 7.54415 0 011.85414.43946 3.99268 3.99268 0 011.82012 1.24293.77792.77792 0 01-.01521 1.01012l-.04762.05405c-5.46457 6.20348-10.99339 12.35433-16.69964 18.34284-5.72665 5.971-11.30264 12.06553-17.15952 17.93035-1.46556 1.46671-2.9674 2.90287-4.56395 4.25636a18.07651 18.07651 0 01-5.4285 3.41666 15.09254 15.09254 0 01-3.19248.52489l-1.52977.2128a14.8467 14.8467 0 01-1.64241.08548 10.20619 10.20619 0 01-6.21173-2.12413 14.076 14.076 0 01-3.94518-5.1275 19.88644 19.88644 0 01-1.14438-2.97406 15.91 15.91 0 00-1.00429-2.84043 69.281 69.281 0 00-6.6704-10.32391.08762.08762 0 01.01388-.12313A.09128.09128 0 01492.44361 416.65446z"/><path fill="#fff" d="M504.57978,420.86492a8.92959,8.92959,0,0,0,3.30594,2.40213,5.45064,5.45064,0,0,0,1.93809.36836,12.81875,12.81875,0,0,0,2.10793-.16314,4.78356,4.78356,0,0,1-2.0623.84494,4.38642,4.38642,0,0,1-2.29112-.23088A4.99634,4.99634,0,0,1,504.57978,420.86492Z"/><path d="M509.1755 424.83691a5.17733 5.17733 0 01-1.75249-.32374 5.47824 5.47824 0 01-3.27949-3.52183l-.51929-1.79178 1.28466 1.353a8.33929 8.33929 0 003.13259 2.28769 5.00643 5.00643 0 001.7843.341 10.58672 10.58672 0 001.80021-.12819l2.14641-.26573-1.58782 1.06245a5.181 5.181 0 01-2.26149.91835A3.96759 3.96759 0 01509.1755 424.83691zM510.72275 439.82685s-2.44334 4.66678 5.74793 9.369c0 0 2.009 2.72594 10.30622-5.93562l44.005-41.24114s-3.50355-10.24781-11.58558-5.30908l-10.074 11.38888s-3.42465-9.14594-6.20491-10.57041a13.954 13.954 0 00-15.77192 6.50509s10.35394 10.11 5.61646 21.34284C532.762 425.37643 520.25075 436.00016 510.72275 439.82685zM474.65445 117.80314V76.997a5.275 5.275 0 00-5.26-5.2601H396.71177a5.27491 5.27491 0 00-5.26 5.2601V208.33547a5.27072 5.27072 0 005.26 5.26964H469.3944a5.27079 5.27079 0 005.26-5.26964V172.914h-8.92v27.27753A4.363 4.363 0 01461.375 204.551H404.73119a4.35486 4.35486 0 01-4.34988-4.35947V85.15054a4.34873 4.34873 0 014.34988-4.35941H461.375a4.35689 4.35689 0 014.35947 4.35941v32.6526z"/><path d="M417.35921,200.781a1.09187,1.09187,0,0,1-.91227-.48982l-4.85888-7.33323a1.09326,1.09326,0,0,1,.91133-1.69775,3.7658,3.7658,0,0,0,0-7.5316,1.09379,1.09379,0,1,1,0-2.18757,5.95358,5.95358,0,0,1,1.84325,11.61434l3.927,5.92788a1.09321,1.09321,0,0,1-.91039,1.69775Z"/><path d="M421.128 183.72861H406.81526a1.09379 1.09379 0 110-2.18757H421.128a1.09379 1.09379 0 110 2.18757zM421.128 193.44778H406.81526a1.09379 1.09379 0 110-2.18757H421.128a1.09379 1.09379 0 110 2.18757zM436.66 200.781a1.09187 1.09187 0 01-.91227-.48982l-4.85982-7.33323a1.09326 1.09326 0 01.91133-1.69775 3.7658 3.7658 0 100-7.5316 1.09379 1.09379 0 010-2.18757 5.95368 5.95368 0 011.84325 11.61481l3.9279 5.92741A1.09367 1.09367 0 01436.66 200.781z"/><path d="M440.42883 183.72861H426.11511a1.09379 1.09379 0 110-2.18757h14.31372a1.09379 1.09379 0 110 2.18757zM440.42883 193.44778H426.11511a1.09379 1.09379 0 110-2.18757h14.31372a1.09379 1.09379 0 110 2.18757zM455.52383 200.781a1.09186 1.09186 0 01-.91226-.48982l-4.85982-7.33323a1.09326 1.09326 0 01.91133-1.69775 3.7658 3.7658 0 100-7.5316 1.09379 1.09379 0 110-2.18757 5.95368 5.95368 0 011.84325 11.61481l3.9279 5.92741a1.09367 1.09367 0 01-.9104 1.69775z"/><path d="M459.29267 183.72861H444.979a1.09379 1.09379 0 110-2.18757h14.31372a1.09379 1.09379 0 110 2.18757zM459.29267 193.44778H444.979a1.09379 1.09379 0 110-2.18757h14.31372a1.09379 1.09379 0 110 2.18757zM529.89943 117.70735a3.40432 3.40432 0 013.366 2.94189c.06842 1.60331.01965 3.16335.05135 4.74713.03906 3.15639.05006 6.31277.1193 9.46916l.351 18.93823.15918 9.46911.05731 4.73455.0062 1.18367a5.74652 5.74652 0 01-.09988 1.36244 4.09069 4.09069 0 01-1.60208 2.42482 4.13945 4.13945 0 01-1.33461.63935 4.89882 4.89882 0 01-1.39331.15116l-2.36722.0031-4.73455-.0214-9.46911-.04281-18.93834-.2604-9.46911-.13959-9.46911-.0621c-12.62545-.09819-25.251.03783-37.87645.19286a3.84994 3.84994 0 01-3.83831-3.31042 12.12705 12.12705 0 01-.05017-1.25648l-.01614-1.18361-.0324-2.36728-.10631-9.46911-.14106-18.93828-.04865-9.46911-.02433-4.73455-.00608-1.18367a5.92117 5.92117 0 01.10316-1.39624 4.26961 4.26961 0 013.04721-3.1827 4.16206 4.16206 0 01.76034-.135l.37625-.01813.2959-.00152 2.36734-.00544 4.73455.00936 9.46912.01871c12.62544-.00252 25.251.09035 37.87644.35748C504.64843 117.42174 517.27387 117.71454 529.89943 117.70735zm0 .19163c-12.62556-.00719-25.251.28561-37.87656.53473-12.62544.26713-25.251.36-37.87644.35748l-9.46912.01872-4.73455.00935-2.36734-.00544-.2959-.00152-.215.00866a2.15967 2.15967 0 00-.40338.06731 2.27688 2.27688 0 00-1.642 1.67962 4.03174 4.03174 0 00-.06608.95812l-.00608 1.18367-.02433 4.73455-.04865 9.46911-.14105 18.93828-.10632 9.46911-.03228 2.36728-.01614 1.18361c-.0021.39029-.02269.81584.00842 1.10811a2.7314 2.7314 0 002.66932 2.40968c12.62544.155 25.251.29105 37.87645.1928l9.46911-.062 9.46911-.13959 18.93834-.26041 9.46911-.0428 4.73455-.02141 2.36722.0031a3.14415 3.14415 0 00.9532-.08076 2.44722 2.44722 0 00.79134-.3683 2.41672 2.41672 0 00.967-1.42723 4.15609 4.15609 0 00.07029-.99168l.0062-1.18367.05719-4.73455.15918-9.46911.351-18.93823c.06936-3.15639.08024-6.31277.11942-9.46916.00526-1.57133.04175-3.17166-.00772-4.71924A3.19753 3.19753 0 00529.89943 117.899z"/><rect width="99.208" height="5.468" x="433.973" y="129.24"/><circle cx="520.321" cy="161.631" r="5.315"/><path d="M448.84042 82.98145H417.26658a2.18711 2.18711 0 110-4.37421h31.57384a2.18711 2.18711 0 110 4.37421zM433.97243 140.51413v18.94064a9.47375 9.47375 0 010-18.94064z"/><rect width="65.352" height="3.28" x="400.378" y="91.752"/><path d="M363.15749,236.56362a12.41026,12.41026,0,0,1,2.776,1.98109,6.48538,6.48538,0,0,1,1.12981,1.40442,3.08441,3.08441,0,0,1,.46444,2.00939,2.60171,2.60171,0,0,1-.46233,1.07724,3.10345,3.10345,0,0,1-.80853.73186,5.72641,5.72641,0,0,1-1.79155.69619,11.56242,11.56242,0,0,1-3.509.17263,41.74964,41.74964,0,0,1-6.60938-1.46221c-2.15319-.58607-4.31363-1.13016-6.4681-1.75506a38.3593,38.3593,0,0,1-6.31992-2.34675,31.29474,31.29474,0,0,1-5.87115-3.46457,15.3536,15.3536,0,0,1-2.52616-2.45605,7.00349,7.00349,0,0,1-.97578-1.61787,3.07455,3.07455,0,0,1-.14151-2.15448,2.63579,2.63579,0,0,1,1.48582-1.52267,5.54843,5.54843,0,0,1,1.77448-.44,12.56345,12.56345,0,0,1,3.40674.20046l-.00877.1814a17.6026,17.6026,0,0,0-3.22663.531,5.34694,5.34694,0,0,0-1.37694.587,1.3976,1.3976,0,0,0-.68525.87537c-.12889.612.4207,1.50729,1.09566,2.22786a16.29306,16.29306,0,0,0,2.35552,2.04968,46.70453,46.70453,0,0,0,5.46589,3.479c1.927,1.02092,3.8865,2.011,5.89092,2.93733a26.85771,26.85771,0,0,0,12.79561,2.6402,19.7363,19.7363,0,0,0,3.11856-.23643c.97729-.17842,1.8719-.59116,2.00886-1.19361a2.01249,2.01249,0,0,0-.17076-1.19776,7.29744,7.29744,0,0,0-.76911-1.31817,25.724,25.724,0,0,0-2.1567-2.47143Z"/><path d="M360.593,242.93377a14.55326,14.55326,0,0,1,2.89821,1.8722,8.57172,8.57172,0,0,1,1.25811,1.27214,4.454,4.454,0,0,1,.90665,1.72957,2.50749,2.50749,0,0,1-.49051,2.22172,3.96261,3.96261,0,0,1-1.76489,1.11438,9.6543,9.6543,0,0,1-3.5968.39935,38.01853,38.01853,0,0,1-6.74751-1.35051c-2.19435-.56678-4.39093-1.10677-6.58353-1.72343a38.76123,38.76123,0,0,1-6.43149-2.3402,32.24749,32.24749,0,0,1-5.98519-3.46592,16.40445,16.40445,0,0,1-2.59388-2.44552,7.88956,7.88956,0,0,1-1.03028-1.59273,3.35228,3.35228,0,0,1-.29906-2.13254,2.58549,2.58549,0,0,1,1.40466-1.671,5.33185,5.33185,0,0,1,1.80045-.49309,12.28235,12.28235,0,0,1,3.46182.175l-.0083.1814a16.79322,16.79322,0,0,0-3.2699.55409,5.03569,5.03569,0,0,0-1.37413.61941,1.33161,1.33161,0,0,0-.61158.912,3.61331,3.61331,0,0,0,1.24888,2.286,17.68037,17.68037,0,0,0,2.43154,2.05593,48.17985,48.17985,0,0,0,5.58589,3.4875c1.965,1.02215,3.96182,2.01424,6.00624,2.93376a30.16976,30.16976,0,0,0,6.37734,2.08494,28.20371,28.20371,0,0,0,6.6295.41339,13.583,13.583,0,0,0,3.08428-.416,2.47614,2.47614,0,0,0,1.10069-.5973,1.02374,1.02374,0,0,0,.2752-.93613,6.093,6.093,0,0,0-1.46571-2.59055c-.70666-.83186-1.50852-1.61542-2.32114-2.40921Z"/></svg>