<svg xmlns="http://www.w3.org/2000/svg" viewBox="0 0 24 24" id="verified"><path d="M22.51 13.76a3 3 0 0 1 0-3.52l.76-1.05a1 1 0 0 0 .14-.9 1.018 1.018 0 0 0-.64-.64l-1.23-.4a2.987 2.987 0 0 1-2.07-2.85V3.1a1 1 0 0 0-1.31-.95l-1.24.4a3 3 0 0 1-3.35-1.09L12.81.41a1.036 1.036 0 0 0-1.62 0l-.76 1.05a3 3 0 0 1-3.35 1.09l-1.24-.4a1 1 0 0 0-1.31.95v1.3a2.987 2.987 0 0 1-2.07 2.85l-1.23.4a1.018 1.018 0 0 0-.64.64 1 1 0 0 0 .14.9l.76 1.05a3 3 0 0 1 0 3.52l-.76 1.05a1 1 0 0 0-.14.9 1.018 1.018 0 0 0 .64.64l1.23.4a2.987 2.987 0 0 1 2.07 2.85v1.3a1 1 0 0 0 1.31.95l1.23-.4a2.994 2.994 0 0 1 3.36 1.09l.76 1.05a1.005 1.005 0 0 0 1.62 0l.76-1.05a3 3 0 0 1 3.36-1.09l1.23.4a1 1 0 0 0 1.31-.95v-1.3a2.987 2.987 0 0 1 2.07-2.85l1.23-.4a1.018 1.018 0 0 0 .64-.64 1 1 0 0 0-.14-.9Zm-5.8-3.053-5 5a1 1 0 0 1-1.414 0l-3-3a1 1 0 1 1 1.414-1.414L11 13.586l4.293-4.293a1 1 0 0 1 1.414 1.414Z" data-name="21. Verified"></path></svg>